G04 #@! TF.GenerationSoftware,KiCad,Pcbnew,9.0.8-9.0.8~ubuntu24.04.1*
G04 #@! TF.CreationDate,2026-04-05T09:37:35+02:00*
G04 #@! TF.ProjectId,marine_tracker,6d617269-6e65-45f7-9472-61636b65722e,rev?*
G04 #@! TF.SameCoordinates,Original*
G04 #@! TF.FileFunction,Paste,Top*
G04 #@! TF.FilePolarity,Positive*
%FSLAX46Y46*%
G04 Gerber Fmt 4.6, Leading zero omitted, Abs format (unit mm)*
G04 Created by KiCad (PCBNEW 9.0.8-9.0.8~ubuntu24.04.1) date 2026-04-05 09:37:35*
%MOMM*%
%LPD*%
G01*
G04 APERTURE LIST*
G04 Aperture macros list*
%AMRoundRect*
0 Rectangle with rounded corners*
0 $1 Rounding radius*
0 $2 $3 $4 $5 $6 $7 $8 $9 X,Y pos of 4 corners*
0 Add a 4 corners polygon primitive as box body*
4,1,4,$2,$3,$4,$5,$6,$7,$8,$9,$2,$3,0*
0 Add four circle primitives for the rounded corners*
1,1,$1+$1,$2,$3*
1,1,$1+$1,$4,$5*
1,1,$1+$1,$6,$7*
1,1,$1+$1,$8,$9*
0 Add four rect primitives between the rounded corners*
20,1,$1+$1,$2,$3,$4,$5,0*
20,1,$1+$1,$4,$5,$6,$7,0*
20,1,$1+$1,$6,$7,$8,$9,0*
20,1,$1+$1,$8,$9,$2,$3,0*%
G04 Aperture macros list end*
%ADD10RoundRect,0.250000X0.250000X0.475000X-0.250000X0.475000X-0.250000X-0.475000X0.250000X-0.475000X0*%
%ADD11R,1.041400X0.990600*%
%ADD12R,2.209800X1.041400*%
%ADD13RoundRect,0.225000X0.225000X0.250000X-0.225000X0.250000X-0.225000X-0.250000X0.225000X-0.250000X0*%
%ADD14RoundRect,0.135000X0.185000X-0.135000X0.185000X0.135000X-0.185000X0.135000X-0.185000X-0.135000X0*%
%ADD15RoundRect,0.225000X-0.225000X-0.250000X0.225000X-0.250000X0.225000X0.250000X-0.225000X0.250000X0*%
%ADD16RoundRect,0.135000X-0.185000X0.135000X-0.185000X-0.135000X0.185000X-0.135000X0.185000X0.135000X0*%
%ADD17RoundRect,0.135000X-0.135000X-0.185000X0.135000X-0.185000X0.135000X0.185000X-0.135000X0.185000X0*%
%ADD18RoundRect,0.225000X0.250000X-0.225000X0.250000X0.225000X-0.250000X0.225000X-0.250000X-0.225000X0*%
%ADD19R,0.660400X1.701800*%
%ADD20R,1.092200X2.895600*%
%ADD21R,0.990600X0.711200*%
%ADD22R,0.500000X0.300000*%
%ADD23RoundRect,0.250000X0.475000X-0.250000X0.475000X0.250000X-0.475000X0.250000X-0.475000X-0.250000X0*%
%ADD24RoundRect,0.075000X0.700000X0.075000X-0.700000X0.075000X-0.700000X-0.075000X0.700000X-0.075000X0*%
%ADD25RoundRect,0.075000X0.075000X0.700000X-0.075000X0.700000X-0.075000X-0.700000X0.075000X-0.700000X0*%
%ADD26R,0.863600X0.304800*%
%ADD27R,1.600200X2.413000*%
%ADD28RoundRect,0.225000X-0.250000X0.225000X-0.250000X-0.225000X0.250000X-0.225000X0.250000X0.225000X0*%
%ADD29R,0.812800X0.254000*%
%ADD30R,1.752600X2.489200*%
%ADD31RoundRect,0.137500X-0.612500X-0.137500X0.612500X-0.137500X0.612500X0.137500X-0.612500X0.137500X0*%
%ADD32RoundRect,0.218750X-0.256250X0.218750X-0.256250X-0.218750X0.256250X-0.218750X0.256250X0.218750X0*%
%ADD33RoundRect,0.135000X0.135000X0.185000X-0.135000X0.185000X-0.135000X-0.185000X0.135000X-0.185000X0*%
%ADD34RoundRect,0.150000X-0.425000X0.150000X-0.425000X-0.150000X0.425000X-0.150000X0.425000X0.150000X0*%
%ADD35RoundRect,0.075000X-0.500000X0.075000X-0.500000X-0.075000X0.500000X-0.075000X0.500000X0.075000X0*%
%ADD36O,2.100000X1.000000*%
%ADD37O,1.800000X1.000000*%
%ADD38RoundRect,0.250000X-0.250000X-0.475000X0.250000X-0.475000X0.250000X0.475000X-0.250000X0.475000X0*%
%ADD39RoundRect,0.250000X0.550000X0.400000X-0.550000X0.400000X-0.550000X-0.400000X0.550000X-0.400000X0*%
%ADD40RoundRect,0.175000X-0.725000X-0.175000X0.725000X-0.175000X0.725000X0.175000X-0.725000X0.175000X0*%
%ADD41RoundRect,0.200000X-0.700000X-0.200000X0.700000X-0.200000X0.700000X0.200000X-0.700000X0.200000X0*%
%ADD42R,1.800000X1.000000*%
G04 #@! TA.AperFunction,Profile*
%ADD43C,0.050000*%
G04 #@! TD*
G04 APERTURE END LIST*
D10*
G04 #@! TO.C,C30*
X61950000Y-74500000D03*
X60050000Y-74500000D03*
G04 #@! TD*
D11*
G04 #@! TO.C,J6*
X118997850Y-87750000D03*
D12*
X120522851Y-86274999D03*
X120522851Y-89225001D03*
G04 #@! TD*
D13*
G04 #@! TO.C,C25*
X71775000Y-97250000D03*
X70225000Y-97250000D03*
G04 #@! TD*
G04 #@! TO.C,C20*
X61639600Y-72250000D03*
X60089600Y-72250000D03*
G04 #@! TD*
D14*
G04 #@! TO.C,R9*
X59000000Y-98250000D03*
X59000000Y-97230000D03*
G04 #@! TD*
D15*
G04 #@! TO.C,C8*
X85225000Y-81000000D03*
X86775000Y-81000000D03*
G04 #@! TD*
D16*
G04 #@! TO.C,R7*
X51000000Y-95990000D03*
X51000000Y-97010000D03*
G04 #@! TD*
D17*
G04 #@! TO.C,R12*
X62730000Y-87500000D03*
X63750000Y-87500000D03*
G04 #@! TD*
D18*
G04 #@! TO.C,C15*
X110750000Y-99525000D03*
X110750000Y-97975000D03*
G04 #@! TD*
D19*
G04 #@! TO.C,J4*
X61875000Y-69723451D03*
X63125000Y-69723451D03*
X64375000Y-69723451D03*
X65625000Y-69723451D03*
D20*
X67474999Y-66373450D03*
X60025001Y-66373450D03*
G04 #@! TD*
D13*
G04 #@! TO.C,C5*
X80525000Y-94250000D03*
X78975000Y-94250000D03*
G04 #@! TD*
D15*
G04 #@! TO.C,C26*
X48225000Y-74250000D03*
X49775000Y-74250000D03*
G04 #@! TD*
D16*
G04 #@! TO.C,R11*
X64000000Y-91490000D03*
X64000000Y-92510000D03*
G04 #@! TD*
D21*
G04 #@! TO.C,SW2*
X48249999Y-66675001D03*
X52750001Y-66675001D03*
X48249999Y-68824999D03*
X52750001Y-68824999D03*
G04 #@! TD*
D22*
G04 #@! TO.C,U2*
X82050000Y-102350000D03*
X82050000Y-103150000D03*
X83450000Y-103150000D03*
X83450000Y-102350000D03*
G04 #@! TD*
D23*
G04 #@! TO.C,C24*
X114000000Y-99700000D03*
X114000000Y-97800000D03*
G04 #@! TD*
D18*
G04 #@! TO.C,C13*
X94000000Y-85275000D03*
X94000000Y-83725000D03*
G04 #@! TD*
D13*
G04 #@! TO.C,C22*
X99275000Y-89750000D03*
X97725000Y-89750000D03*
G04 #@! TD*
D24*
G04 #@! TO.C,U1*
X81675000Y-89250000D03*
X81675000Y-88750000D03*
X81675000Y-88250000D03*
X81675000Y-87750000D03*
X81675000Y-87250000D03*
X81675000Y-86750000D03*
X81675000Y-86250000D03*
X81675000Y-85750000D03*
X81675000Y-85250000D03*
X81675000Y-84750000D03*
X81675000Y-84250000D03*
X81675000Y-83750000D03*
X81675000Y-83250000D03*
X81675000Y-82750000D03*
X81675000Y-82250000D03*
X81675000Y-81750000D03*
D25*
X79750000Y-79825000D03*
X79250000Y-79825000D03*
X78750000Y-79825000D03*
X78250000Y-79825000D03*
X77750000Y-79825000D03*
X77250000Y-79825000D03*
X76750000Y-79825000D03*
X76250000Y-79825000D03*
X75750000Y-79825000D03*
X75250000Y-79825000D03*
X74750000Y-79825000D03*
X74250000Y-79825000D03*
X73750000Y-79825000D03*
X73250000Y-79825000D03*
X72750000Y-79825000D03*
X72250000Y-79825000D03*
D24*
X70325000Y-81750000D03*
X70325000Y-82250000D03*
X70325000Y-82750000D03*
X70325000Y-83250000D03*
X70325000Y-83750000D03*
X70325000Y-84250000D03*
X70325000Y-84750000D03*
X70325000Y-85250000D03*
X70325000Y-85750000D03*
X70325000Y-86250000D03*
X70325000Y-86750000D03*
X70325000Y-87250000D03*
X70325000Y-87750000D03*
X70325000Y-88250000D03*
X70325000Y-88750000D03*
X70325000Y-89250000D03*
D25*
X72250000Y-91175000D03*
X72750000Y-91175000D03*
X73250000Y-91175000D03*
X73750000Y-91175000D03*
X74250000Y-91175000D03*
X74750000Y-91175000D03*
X75250000Y-91175000D03*
X75750000Y-91175000D03*
X76250000Y-91175000D03*
X76750000Y-91175000D03*
X77250000Y-91175000D03*
X77750000Y-91175000D03*
X78250000Y-91175000D03*
X78750000Y-91175000D03*
X79250000Y-91175000D03*
X79750000Y-91175000D03*
G04 #@! TD*
D18*
G04 #@! TO.C,C16*
X89500000Y-100300000D03*
X89500000Y-98750000D03*
G04 #@! TD*
D13*
G04 #@! TO.C,C21*
X99250000Y-91750000D03*
X97700000Y-91750000D03*
G04 #@! TD*
D26*
G04 #@! TO.C,U5*
X51750000Y-76000000D03*
X51750000Y-76649998D03*
X51750000Y-77300000D03*
X51750000Y-77949998D03*
X54493200Y-77949998D03*
X54493200Y-77300000D03*
X54493200Y-76649998D03*
X54493200Y-76000000D03*
D27*
X53121600Y-76974999D03*
G04 #@! TD*
D15*
G04 #@! TO.C,C17*
X85725000Y-103250000D03*
X87275000Y-103250000D03*
G04 #@! TD*
D28*
G04 #@! TO.C,C14*
X85500000Y-84225000D03*
X85500000Y-85775000D03*
G04 #@! TD*
G04 #@! TO.C,C9*
X68000000Y-90200000D03*
X68000000Y-91750000D03*
G04 #@! TD*
D13*
G04 #@! TO.C,C19*
X62025000Y-82750000D03*
X60475000Y-82750000D03*
G04 #@! TD*
D28*
G04 #@! TO.C,C6*
X82500000Y-91475000D03*
X82500000Y-93025000D03*
G04 #@! TD*
D29*
G04 #@! TO.C,U3*
X55853000Y-84749999D03*
X55853000Y-85250001D03*
X55853000Y-85750000D03*
X55853000Y-86249999D03*
X55853000Y-86750001D03*
X58647000Y-86750001D03*
X58647000Y-86249999D03*
X58647000Y-85750000D03*
X58647000Y-85250001D03*
X58647000Y-84749999D03*
D30*
X57250000Y-85750000D03*
G04 #@! TD*
D18*
G04 #@! TO.C,C4*
X78750000Y-77275000D03*
X78750000Y-75725000D03*
G04 #@! TD*
D31*
G04 #@! TO.C,U6*
X66350000Y-99095000D03*
X66350000Y-100365000D03*
X66350000Y-101635000D03*
X66350000Y-102905000D03*
X71650000Y-102905000D03*
X71650000Y-101635000D03*
X71650000Y-100365000D03*
X71650000Y-99095000D03*
G04 #@! TD*
D13*
G04 #@! TO.C,C3*
X71775000Y-77500000D03*
X70225000Y-77500000D03*
G04 #@! TD*
D16*
G04 #@! TO.C,R4*
X49500000Y-95990000D03*
X49500000Y-97010000D03*
G04 #@! TD*
D32*
G04 #@! TO.C,D1*
X56750000Y-100212500D03*
X56750000Y-101787500D03*
G04 #@! TD*
D33*
G04 #@! TO.C,R3*
X65599600Y-74500000D03*
X64579600Y-74500000D03*
G04 #@! TD*
G04 #@! TO.C,R2*
X65599600Y-72500000D03*
X64579600Y-72500000D03*
G04 #@! TD*
D10*
G04 #@! TO.C,C29*
X99200000Y-94000000D03*
X97300000Y-94000000D03*
G04 #@! TD*
D16*
G04 #@! TO.C,R1*
X55000000Y-66740000D03*
X55000000Y-67760000D03*
G04 #@! TD*
D34*
G04 #@! TO.C,J3*
X46040000Y-87300000D03*
X46040000Y-88100000D03*
D35*
X46040000Y-89250000D03*
X46040000Y-90250000D03*
X46040000Y-90750000D03*
X46040000Y-91750000D03*
D34*
X46040000Y-92900000D03*
X46040000Y-93700000D03*
X46040000Y-93700000D03*
X46040000Y-92900000D03*
D35*
X46040000Y-92250000D03*
X46040000Y-91250000D03*
X46040000Y-89750000D03*
X46040000Y-88750000D03*
D34*
X46040000Y-88100000D03*
X46040000Y-87300000D03*
D36*
X45465000Y-86180000D03*
D37*
X41285000Y-86180000D03*
D36*
X45465000Y-94820000D03*
D37*
X41285000Y-94820000D03*
G04 #@! TD*
D18*
G04 #@! TO.C,C12*
X90250000Y-90275000D03*
X90250000Y-88725000D03*
G04 #@! TD*
D16*
G04 #@! TO.C,R6*
X80250000Y-100990000D03*
X80250000Y-102010000D03*
G04 #@! TD*
D15*
G04 #@! TO.C,C7*
X85225000Y-79000000D03*
X86775000Y-79000000D03*
G04 #@! TD*
D23*
G04 #@! TO.C,C27*
X87000000Y-100450000D03*
X87000000Y-98550000D03*
G04 #@! TD*
D32*
G04 #@! TO.C,D3*
X61090000Y-100212500D03*
X61090000Y-101787500D03*
G04 #@! TD*
D23*
G04 #@! TO.C,C1*
X74000000Y-76450000D03*
X74000000Y-74550000D03*
G04 #@! TD*
D14*
G04 #@! TO.C,R10*
X61000000Y-98222500D03*
X61000000Y-97202500D03*
G04 #@! TD*
D16*
G04 #@! TO.C,R5*
X78250000Y-101000000D03*
X78250000Y-102020000D03*
G04 #@! TD*
D38*
G04 #@! TO.C,C18*
X51550000Y-82750000D03*
X53450000Y-82750000D03*
G04 #@! TD*
D39*
G04 #@! TO.C,Y3*
X91400000Y-83750000D03*
X88100000Y-83750000D03*
X88100000Y-85750000D03*
X91400000Y-85750000D03*
G04 #@! TD*
D10*
G04 #@! TO.C,C2*
X71750000Y-75000000D03*
X69850000Y-75000000D03*
G04 #@! TD*
D28*
G04 #@! TO.C,C23*
X56750000Y-77975000D03*
X56750000Y-79525000D03*
G04 #@! TD*
D13*
G04 #@! TO.C,C28*
X58025000Y-74250000D03*
X56475000Y-74250000D03*
G04 #@! TD*
D14*
G04 #@! TO.C,R8*
X56750000Y-98260000D03*
X56750000Y-97240000D03*
G04 #@! TD*
D40*
G04 #@! TO.C,U7*
X102200000Y-80000000D03*
D41*
X102200000Y-81100000D03*
X102200000Y-82200000D03*
X102200000Y-83300000D03*
X102200000Y-84400000D03*
X102200000Y-85500000D03*
X102200000Y-86600000D03*
X102200000Y-87700000D03*
D40*
X102200000Y-88800000D03*
X111700000Y-88800000D03*
D41*
X111700000Y-87700000D03*
X111700000Y-86600000D03*
X111700000Y-85500000D03*
X111700000Y-84400000D03*
X111700000Y-83300000D03*
X111700000Y-82200000D03*
X111700000Y-81100000D03*
D40*
X111700000Y-80000000D03*
G04 #@! TD*
D15*
G04 #@! TO.C,C10*
X84825000Y-96100000D03*
X86375000Y-96100000D03*
G04 #@! TD*
D18*
G04 #@! TO.C,C11*
X85250000Y-90775000D03*
X85250000Y-89225000D03*
G04 #@! TD*
D42*
G04 #@! TO.C,Y1*
X87750000Y-91250000D03*
X87750000Y-88750000D03*
G04 #@! TD*
D32*
G04 #@! TO.C,D2*
X59000000Y-100212500D03*
X59000000Y-101787500D03*
G04 #@! TD*
D43*
X38350000Y-64300000D02*
X122290000Y-64300000D01*
X122290000Y-104600000D01*
X38350000Y-104600000D01*
X38350000Y-64300000D01*
M02*
