G04 #@! TF.GenerationSoftware,KiCad,Pcbnew,9.0.8-9.0.8~ubuntu24.04.1*
G04 #@! TF.CreationDate,2026-04-05T09:37:35+02:00*
G04 #@! TF.ProjectId,marine_tracker,6d617269-6e65-45f7-9472-61636b65722e,rev?*
G04 #@! TF.SameCoordinates,Original*
G04 #@! TF.FileFunction,Soldermask,Bot*
G04 #@! TF.FilePolarity,Negative*
%FSLAX46Y46*%
G04 Gerber Fmt 4.6, Leading zero omitted, Abs format (unit mm)*
G04 Created by KiCad (PCBNEW 9.0.8-9.0.8~ubuntu24.04.1) date 2026-04-05 09:37:35*
%MOMM*%
%LPD*%
G01*
G04 APERTURE LIST*
%ADD10C,2.000000*%
%ADD11R,1.700000X1.700000*%
%ADD12C,3.800000*%
%ADD13C,0.650000*%
%ADD14O,2.100000X1.000000*%
%ADD15O,1.800000X1.000000*%
%ADD16C,1.700000*%
%ADD17R,1.000000X1.000000*%
%ADD18C,1.000000*%
G04 #@! TA.AperFunction,Profile*
%ADD19C,0.050000*%
G04 #@! TD*
G04 APERTURE END LIST*
D10*
G04 #@! TO.C,J1*
X42750000Y-79250000D03*
X42750000Y-74250000D03*
G04 #@! TD*
D11*
G04 #@! TO.C,TP6*
X103000000Y-70500000D03*
G04 #@! TD*
G04 #@! TO.C,TP7*
X113000000Y-70500000D03*
G04 #@! TD*
D12*
G04 #@! TO.C,REF\u002A\u002A*
X119380000Y-67310000D03*
G04 #@! TD*
D11*
G04 #@! TO.C,TP4*
X82250000Y-66250000D03*
G04 #@! TD*
D13*
G04 #@! TO.C,J3*
X44965000Y-87610000D03*
X44965000Y-93390000D03*
D14*
X45465000Y-86180000D03*
D15*
X41285000Y-86180000D03*
D14*
X45465000Y-94820000D03*
D15*
X41285000Y-94820000D03*
G04 #@! TD*
D12*
G04 #@! TO.C,REF\u002A\u002A*
X41910000Y-101600000D03*
G04 #@! TD*
G04 #@! TO.C,REF\u002A\u002A*
X119380000Y-101600000D03*
G04 #@! TD*
D11*
G04 #@! TO.C,TP11*
X77250000Y-66250000D03*
G04 #@! TD*
G04 #@! TO.C,J5*
X92590000Y-102750000D03*
D16*
X95130000Y-102750000D03*
X97670000Y-102750000D03*
X100210000Y-102750000D03*
X102750000Y-102750000D03*
X105290000Y-102750000D03*
X107830000Y-102750000D03*
X110370000Y-102750000D03*
G04 #@! TD*
D11*
G04 #@! TO.C,TP10*
X72500000Y-66250000D03*
G04 #@! TD*
D17*
G04 #@! TO.C,J2*
X46860000Y-102635000D03*
D18*
X46860000Y-101365000D03*
X48130000Y-102635000D03*
X48130000Y-101365000D03*
X49400000Y-102635000D03*
X49400000Y-101365000D03*
X50670000Y-102635000D03*
X50670000Y-101365000D03*
X51940000Y-102635000D03*
X51940000Y-101365000D03*
G04 #@! TD*
D12*
G04 #@! TO.C,REF\u002A\u002A*
X41910000Y-67310000D03*
G04 #@! TD*
D11*
G04 #@! TO.C,TP5*
X108000000Y-70500000D03*
G04 #@! TD*
D19*
X38350000Y-64300000D02*
X122290000Y-64300000D01*
X122290000Y-104600000D01*
X38350000Y-104600000D01*
X38350000Y-64300000D01*
M02*
