G04 #@! TF.GenerationSoftware,KiCad,Pcbnew,9.0.8-9.0.8~ubuntu24.04.1*
G04 #@! TF.CreationDate,2026-04-05T09:37:35+02:00*
G04 #@! TF.ProjectId,marine_tracker,6d617269-6e65-45f7-9472-61636b65722e,rev?*
G04 #@! TF.SameCoordinates,Original*
G04 #@! TF.FileFunction,Legend,Top*
G04 #@! TF.FilePolarity,Positive*
%FSLAX46Y46*%
G04 Gerber Fmt 4.6, Leading zero omitted, Abs format (unit mm)*
G04 Created by KiCad (PCBNEW 9.0.8-9.0.8~ubuntu24.04.1) date 2026-04-05 09:37:35*
%MOMM*%
%LPD*%
G01*
G04 APERTURE LIST*
%ADD10C,0.100000*%
%ADD11C,0.150000*%
%ADD12C,0.300000*%
%ADD13C,0.125000*%
%ADD14C,0.120000*%
%ADD15C,0.152400*%
%ADD16C,0.508000*%
G04 #@! TA.AperFunction,Profile*
%ADD17C,0.050000*%
G04 #@! TD*
G04 APERTURE END LIST*
D10*
X42834211Y-70792133D02*
X43443735Y-70792133D01*
X43138973Y-71096895D02*
X43138973Y-70487371D01*
X42834211Y-82692133D02*
X43443735Y-82692133D01*
X95646895Y-100080074D02*
X95265942Y-100346741D01*
X95646895Y-100537217D02*
X94846895Y-100537217D01*
X94846895Y-100537217D02*
X94846895Y-100232455D01*
X94846895Y-100232455D02*
X94884990Y-100156265D01*
X94884990Y-100156265D02*
X94923085Y-100118170D01*
X94923085Y-100118170D02*
X94999276Y-100080074D01*
X94999276Y-100080074D02*
X95113561Y-100080074D01*
X95113561Y-100080074D02*
X95189752Y-100118170D01*
X95189752Y-100118170D02*
X95227847Y-100156265D01*
X95227847Y-100156265D02*
X95265942Y-100232455D01*
X95265942Y-100232455D02*
X95265942Y-100537217D01*
X94846895Y-99813408D02*
X95646895Y-99280074D01*
X94846895Y-99280074D02*
X95646895Y-99813408D01*
X97396895Y-100561027D02*
X97396895Y-100103884D01*
X98196895Y-100332456D02*
X97396895Y-100332456D01*
X97396895Y-99913408D02*
X98196895Y-99380074D01*
X97396895Y-99380074D02*
X98196895Y-99913408D01*
X99934990Y-100094360D02*
X99896895Y-100170550D01*
X99896895Y-100170550D02*
X99896895Y-100284836D01*
X99896895Y-100284836D02*
X99934990Y-100399122D01*
X99934990Y-100399122D02*
X100011180Y-100475312D01*
X100011180Y-100475312D02*
X100087371Y-100513407D01*
X100087371Y-100513407D02*
X100239752Y-100551503D01*
X100239752Y-100551503D02*
X100354038Y-100551503D01*
X100354038Y-100551503D02*
X100506419Y-100513407D01*
X100506419Y-100513407D02*
X100582609Y-100475312D01*
X100582609Y-100475312D02*
X100658800Y-100399122D01*
X100658800Y-100399122D02*
X100696895Y-100284836D01*
X100696895Y-100284836D02*
X100696895Y-100208645D01*
X100696895Y-100208645D02*
X100658800Y-100094360D01*
X100658800Y-100094360D02*
X100620704Y-100056264D01*
X100620704Y-100056264D02*
X100354038Y-100056264D01*
X100354038Y-100056264D02*
X100354038Y-100208645D01*
X100696895Y-99713407D02*
X99896895Y-99713407D01*
X99896895Y-99713407D02*
X100696895Y-99256264D01*
X100696895Y-99256264D02*
X99896895Y-99256264D01*
X100696895Y-98875312D02*
X99896895Y-98875312D01*
X99896895Y-98875312D02*
X99896895Y-98684836D01*
X99896895Y-98684836D02*
X99934990Y-98570550D01*
X99934990Y-98570550D02*
X100011180Y-98494360D01*
X100011180Y-98494360D02*
X100087371Y-98456265D01*
X100087371Y-98456265D02*
X100239752Y-98418169D01*
X100239752Y-98418169D02*
X100354038Y-98418169D01*
X100354038Y-98418169D02*
X100506419Y-98456265D01*
X100506419Y-98456265D02*
X100582609Y-98494360D01*
X100582609Y-98494360D02*
X100658800Y-98570550D01*
X100658800Y-98570550D02*
X100696895Y-98684836D01*
X100696895Y-98684836D02*
X100696895Y-98875312D01*
X102434990Y-100094360D02*
X102396895Y-100170550D01*
X102396895Y-100170550D02*
X102396895Y-100284836D01*
X102396895Y-100284836D02*
X102434990Y-100399122D01*
X102434990Y-100399122D02*
X102511180Y-100475312D01*
X102511180Y-100475312D02*
X102587371Y-100513407D01*
X102587371Y-100513407D02*
X102739752Y-100551503D01*
X102739752Y-100551503D02*
X102854038Y-100551503D01*
X102854038Y-100551503D02*
X103006419Y-100513407D01*
X103006419Y-100513407D02*
X103082609Y-100475312D01*
X103082609Y-100475312D02*
X103158800Y-100399122D01*
X103158800Y-100399122D02*
X103196895Y-100284836D01*
X103196895Y-100284836D02*
X103196895Y-100208645D01*
X103196895Y-100208645D02*
X103158800Y-100094360D01*
X103158800Y-100094360D02*
X103120704Y-100056264D01*
X103120704Y-100056264D02*
X102854038Y-100056264D01*
X102854038Y-100056264D02*
X102854038Y-100208645D01*
X103196895Y-99713407D02*
X102396895Y-99713407D01*
X102396895Y-99713407D02*
X103196895Y-99256264D01*
X103196895Y-99256264D02*
X102396895Y-99256264D01*
X103196895Y-98875312D02*
X102396895Y-98875312D01*
X102396895Y-98875312D02*
X102396895Y-98684836D01*
X102396895Y-98684836D02*
X102434990Y-98570550D01*
X102434990Y-98570550D02*
X102511180Y-98494360D01*
X102511180Y-98494360D02*
X102587371Y-98456265D01*
X102587371Y-98456265D02*
X102739752Y-98418169D01*
X102739752Y-98418169D02*
X102854038Y-98418169D01*
X102854038Y-98418169D02*
X103006419Y-98456265D01*
X103006419Y-98456265D02*
X103082609Y-98494360D01*
X103082609Y-98494360D02*
X103158800Y-98570550D01*
X103158800Y-98570550D02*
X103196895Y-98684836D01*
X103196895Y-98684836D02*
X103196895Y-98875312D01*
X104796895Y-100532455D02*
X105596895Y-100265788D01*
X105596895Y-100265788D02*
X104796895Y-99999122D01*
X105596895Y-99732455D02*
X104796895Y-99732455D01*
X104796895Y-99732455D02*
X104796895Y-99427693D01*
X104796895Y-99427693D02*
X104834990Y-99351503D01*
X104834990Y-99351503D02*
X104873085Y-99313408D01*
X104873085Y-99313408D02*
X104949276Y-99275312D01*
X104949276Y-99275312D02*
X105063561Y-99275312D01*
X105063561Y-99275312D02*
X105139752Y-99313408D01*
X105139752Y-99313408D02*
X105177847Y-99351503D01*
X105177847Y-99351503D02*
X105215942Y-99427693D01*
X105215942Y-99427693D02*
X105215942Y-99732455D01*
X105368323Y-98970551D02*
X105368323Y-98589598D01*
X105596895Y-99046741D02*
X104796895Y-98780074D01*
X104796895Y-98780074D02*
X105596895Y-98513408D01*
X105673085Y-98437218D02*
X105673085Y-97827694D01*
X105177847Y-97637217D02*
X105177847Y-97370551D01*
X105596895Y-97256265D02*
X105596895Y-97637217D01*
X105596895Y-97637217D02*
X104796895Y-97637217D01*
X104796895Y-97637217D02*
X104796895Y-97256265D01*
X105596895Y-96913407D02*
X104796895Y-96913407D01*
X104796895Y-96913407D02*
X105596895Y-96456264D01*
X105596895Y-96456264D02*
X104796895Y-96456264D01*
X107196895Y-100503884D02*
X107996895Y-100237217D01*
X107996895Y-100237217D02*
X107196895Y-99970551D01*
X107996895Y-99703884D02*
X107196895Y-99703884D01*
X107196895Y-99703884D02*
X107196895Y-99399122D01*
X107196895Y-99399122D02*
X107234990Y-99322932D01*
X107234990Y-99322932D02*
X107273085Y-99284837D01*
X107273085Y-99284837D02*
X107349276Y-99246741D01*
X107349276Y-99246741D02*
X107463561Y-99246741D01*
X107463561Y-99246741D02*
X107539752Y-99284837D01*
X107539752Y-99284837D02*
X107577847Y-99322932D01*
X107577847Y-99322932D02*
X107615942Y-99399122D01*
X107615942Y-99399122D02*
X107615942Y-99703884D01*
X107768323Y-98941980D02*
X107768323Y-98561027D01*
X107996895Y-99018170D02*
X107196895Y-98751503D01*
X107196895Y-98751503D02*
X107996895Y-98484837D01*
X108073085Y-98408647D02*
X108073085Y-97799123D01*
X107958800Y-97646742D02*
X107996895Y-97532456D01*
X107996895Y-97532456D02*
X107996895Y-97341980D01*
X107996895Y-97341980D02*
X107958800Y-97265789D01*
X107958800Y-97265789D02*
X107920704Y-97227694D01*
X107920704Y-97227694D02*
X107844514Y-97189599D01*
X107844514Y-97189599D02*
X107768323Y-97189599D01*
X107768323Y-97189599D02*
X107692133Y-97227694D01*
X107692133Y-97227694D02*
X107654038Y-97265789D01*
X107654038Y-97265789D02*
X107615942Y-97341980D01*
X107615942Y-97341980D02*
X107577847Y-97494361D01*
X107577847Y-97494361D02*
X107539752Y-97570551D01*
X107539752Y-97570551D02*
X107501657Y-97608646D01*
X107501657Y-97608646D02*
X107425466Y-97646742D01*
X107425466Y-97646742D02*
X107349276Y-97646742D01*
X107349276Y-97646742D02*
X107273085Y-97608646D01*
X107273085Y-97608646D02*
X107234990Y-97570551D01*
X107234990Y-97570551D02*
X107196895Y-97494361D01*
X107196895Y-97494361D02*
X107196895Y-97303884D01*
X107196895Y-97303884D02*
X107234990Y-97189599D01*
X107577847Y-96846741D02*
X107577847Y-96580075D01*
X107996895Y-96465789D02*
X107996895Y-96846741D01*
X107996895Y-96846741D02*
X107196895Y-96846741D01*
X107196895Y-96846741D02*
X107196895Y-96465789D01*
X107996895Y-95741979D02*
X107996895Y-96122931D01*
X107996895Y-96122931D02*
X107196895Y-96122931D01*
D11*
X85836779Y-68569819D02*
X85836779Y-67569819D01*
X85836779Y-67569819D02*
X86217731Y-67569819D01*
X86217731Y-67569819D02*
X86312969Y-67617438D01*
X86312969Y-67617438D02*
X86360588Y-67665057D01*
X86360588Y-67665057D02*
X86408207Y-67760295D01*
X86408207Y-67760295D02*
X86408207Y-67903152D01*
X86408207Y-67903152D02*
X86360588Y-67998390D01*
X86360588Y-67998390D02*
X86312969Y-68046009D01*
X86312969Y-68046009D02*
X86217731Y-68093628D01*
X86217731Y-68093628D02*
X85836779Y-68093628D01*
X86836779Y-68569819D02*
X86836779Y-67569819D01*
X88074874Y-68188866D02*
X88836779Y-68188866D01*
X89979636Y-67569819D02*
X90217731Y-68569819D01*
X90217731Y-68569819D02*
X90408207Y-67855533D01*
X90408207Y-67855533D02*
X90598683Y-68569819D01*
X90598683Y-68569819D02*
X90836779Y-67569819D01*
X91598683Y-68522200D02*
X91503445Y-68569819D01*
X91503445Y-68569819D02*
X91312969Y-68569819D01*
X91312969Y-68569819D02*
X91217731Y-68522200D01*
X91217731Y-68522200D02*
X91170112Y-68426961D01*
X91170112Y-68426961D02*
X91170112Y-68046009D01*
X91170112Y-68046009D02*
X91217731Y-67950771D01*
X91217731Y-67950771D02*
X91312969Y-67903152D01*
X91312969Y-67903152D02*
X91503445Y-67903152D01*
X91503445Y-67903152D02*
X91598683Y-67950771D01*
X91598683Y-67950771D02*
X91646302Y-68046009D01*
X91646302Y-68046009D02*
X91646302Y-68141247D01*
X91646302Y-68141247D02*
X91170112Y-68236485D01*
X92503445Y-68569819D02*
X92503445Y-68046009D01*
X92503445Y-68046009D02*
X92455826Y-67950771D01*
X92455826Y-67950771D02*
X92360588Y-67903152D01*
X92360588Y-67903152D02*
X92170112Y-67903152D01*
X92170112Y-67903152D02*
X92074874Y-67950771D01*
X92503445Y-68522200D02*
X92408207Y-68569819D01*
X92408207Y-68569819D02*
X92170112Y-68569819D01*
X92170112Y-68569819D02*
X92074874Y-68522200D01*
X92074874Y-68522200D02*
X92027255Y-68426961D01*
X92027255Y-68426961D02*
X92027255Y-68331723D01*
X92027255Y-68331723D02*
X92074874Y-68236485D01*
X92074874Y-68236485D02*
X92170112Y-68188866D01*
X92170112Y-68188866D02*
X92408207Y-68188866D01*
X92408207Y-68188866D02*
X92503445Y-68141247D01*
X92979636Y-68569819D02*
X92979636Y-67903152D01*
X92979636Y-68093628D02*
X93027255Y-67998390D01*
X93027255Y-67998390D02*
X93074874Y-67950771D01*
X93074874Y-67950771D02*
X93170112Y-67903152D01*
X93170112Y-67903152D02*
X93265350Y-67903152D01*
X94027255Y-68569819D02*
X94027255Y-68046009D01*
X94027255Y-68046009D02*
X93979636Y-67950771D01*
X93979636Y-67950771D02*
X93884398Y-67903152D01*
X93884398Y-67903152D02*
X93693922Y-67903152D01*
X93693922Y-67903152D02*
X93598684Y-67950771D01*
X94027255Y-68522200D02*
X93932017Y-68569819D01*
X93932017Y-68569819D02*
X93693922Y-68569819D01*
X93693922Y-68569819D02*
X93598684Y-68522200D01*
X93598684Y-68522200D02*
X93551065Y-68426961D01*
X93551065Y-68426961D02*
X93551065Y-68331723D01*
X93551065Y-68331723D02*
X93598684Y-68236485D01*
X93598684Y-68236485D02*
X93693922Y-68188866D01*
X93693922Y-68188866D02*
X93932017Y-68188866D01*
X93932017Y-68188866D02*
X94027255Y-68141247D01*
X94503446Y-68569819D02*
X94503446Y-67569819D01*
X94503446Y-67950771D02*
X94598684Y-67903152D01*
X94598684Y-67903152D02*
X94789160Y-67903152D01*
X94789160Y-67903152D02*
X94884398Y-67950771D01*
X94884398Y-67950771D02*
X94932017Y-67998390D01*
X94932017Y-67998390D02*
X94979636Y-68093628D01*
X94979636Y-68093628D02*
X94979636Y-68379342D01*
X94979636Y-68379342D02*
X94932017Y-68474580D01*
X94932017Y-68474580D02*
X94884398Y-68522200D01*
X94884398Y-68522200D02*
X94789160Y-68569819D01*
X94789160Y-68569819D02*
X94598684Y-68569819D01*
X94598684Y-68569819D02*
X94503446Y-68522200D01*
X95551065Y-68569819D02*
X95455827Y-68522200D01*
X95455827Y-68522200D02*
X95408208Y-68426961D01*
X95408208Y-68426961D02*
X95408208Y-67569819D01*
X96312970Y-68522200D02*
X96217732Y-68569819D01*
X96217732Y-68569819D02*
X96027256Y-68569819D01*
X96027256Y-68569819D02*
X95932018Y-68522200D01*
X95932018Y-68522200D02*
X95884399Y-68426961D01*
X95884399Y-68426961D02*
X95884399Y-68046009D01*
X95884399Y-68046009D02*
X95932018Y-67950771D01*
X95932018Y-67950771D02*
X96027256Y-67903152D01*
X96027256Y-67903152D02*
X96217732Y-67903152D01*
X96217732Y-67903152D02*
X96312970Y-67950771D01*
X96312970Y-67950771D02*
X96360589Y-68046009D01*
X96360589Y-68046009D02*
X96360589Y-68141247D01*
X96360589Y-68141247D02*
X95884399Y-68236485D01*
X97503447Y-68522200D02*
X97646304Y-68569819D01*
X97646304Y-68569819D02*
X97884399Y-68569819D01*
X97884399Y-68569819D02*
X97979637Y-68522200D01*
X97979637Y-68522200D02*
X98027256Y-68474580D01*
X98027256Y-68474580D02*
X98074875Y-68379342D01*
X98074875Y-68379342D02*
X98074875Y-68284104D01*
X98074875Y-68284104D02*
X98027256Y-68188866D01*
X98027256Y-68188866D02*
X97979637Y-68141247D01*
X97979637Y-68141247D02*
X97884399Y-68093628D01*
X97884399Y-68093628D02*
X97693923Y-68046009D01*
X97693923Y-68046009D02*
X97598685Y-67998390D01*
X97598685Y-67998390D02*
X97551066Y-67950771D01*
X97551066Y-67950771D02*
X97503447Y-67855533D01*
X97503447Y-67855533D02*
X97503447Y-67760295D01*
X97503447Y-67760295D02*
X97551066Y-67665057D01*
X97551066Y-67665057D02*
X97598685Y-67617438D01*
X97598685Y-67617438D02*
X97693923Y-67569819D01*
X97693923Y-67569819D02*
X97932018Y-67569819D01*
X97932018Y-67569819D02*
X98074875Y-67617438D01*
X98884399Y-68522200D02*
X98789161Y-68569819D01*
X98789161Y-68569819D02*
X98598685Y-68569819D01*
X98598685Y-68569819D02*
X98503447Y-68522200D01*
X98503447Y-68522200D02*
X98455828Y-68426961D01*
X98455828Y-68426961D02*
X98455828Y-68046009D01*
X98455828Y-68046009D02*
X98503447Y-67950771D01*
X98503447Y-67950771D02*
X98598685Y-67903152D01*
X98598685Y-67903152D02*
X98789161Y-67903152D01*
X98789161Y-67903152D02*
X98884399Y-67950771D01*
X98884399Y-67950771D02*
X98932018Y-68046009D01*
X98932018Y-68046009D02*
X98932018Y-68141247D01*
X98932018Y-68141247D02*
X98455828Y-68236485D01*
X99360590Y-67903152D02*
X99360590Y-68569819D01*
X99360590Y-67998390D02*
X99408209Y-67950771D01*
X99408209Y-67950771D02*
X99503447Y-67903152D01*
X99503447Y-67903152D02*
X99646304Y-67903152D01*
X99646304Y-67903152D02*
X99741542Y-67950771D01*
X99741542Y-67950771D02*
X99789161Y-68046009D01*
X99789161Y-68046009D02*
X99789161Y-68569819D01*
X100217733Y-68522200D02*
X100312971Y-68569819D01*
X100312971Y-68569819D02*
X100503447Y-68569819D01*
X100503447Y-68569819D02*
X100598685Y-68522200D01*
X100598685Y-68522200D02*
X100646304Y-68426961D01*
X100646304Y-68426961D02*
X100646304Y-68379342D01*
X100646304Y-68379342D02*
X100598685Y-68284104D01*
X100598685Y-68284104D02*
X100503447Y-68236485D01*
X100503447Y-68236485D02*
X100360590Y-68236485D01*
X100360590Y-68236485D02*
X100265352Y-68188866D01*
X100265352Y-68188866D02*
X100217733Y-68093628D01*
X100217733Y-68093628D02*
X100217733Y-68046009D01*
X100217733Y-68046009D02*
X100265352Y-67950771D01*
X100265352Y-67950771D02*
X100360590Y-67903152D01*
X100360590Y-67903152D02*
X100503447Y-67903152D01*
X100503447Y-67903152D02*
X100598685Y-67950771D01*
X101074876Y-68569819D02*
X101074876Y-67903152D01*
X101074876Y-67569819D02*
X101027257Y-67617438D01*
X101027257Y-67617438D02*
X101074876Y-67665057D01*
X101074876Y-67665057D02*
X101122495Y-67617438D01*
X101122495Y-67617438D02*
X101074876Y-67569819D01*
X101074876Y-67569819D02*
X101074876Y-67665057D01*
X101551066Y-67903152D02*
X101551066Y-68569819D01*
X101551066Y-67998390D02*
X101598685Y-67950771D01*
X101598685Y-67950771D02*
X101693923Y-67903152D01*
X101693923Y-67903152D02*
X101836780Y-67903152D01*
X101836780Y-67903152D02*
X101932018Y-67950771D01*
X101932018Y-67950771D02*
X101979637Y-68046009D01*
X101979637Y-68046009D02*
X101979637Y-68569819D01*
X102884399Y-67903152D02*
X102884399Y-68712676D01*
X102884399Y-68712676D02*
X102836780Y-68807914D01*
X102836780Y-68807914D02*
X102789161Y-68855533D01*
X102789161Y-68855533D02*
X102693923Y-68903152D01*
X102693923Y-68903152D02*
X102551066Y-68903152D01*
X102551066Y-68903152D02*
X102455828Y-68855533D01*
X102884399Y-68522200D02*
X102789161Y-68569819D01*
X102789161Y-68569819D02*
X102598685Y-68569819D01*
X102598685Y-68569819D02*
X102503447Y-68522200D01*
X102503447Y-68522200D02*
X102455828Y-68474580D01*
X102455828Y-68474580D02*
X102408209Y-68379342D01*
X102408209Y-68379342D02*
X102408209Y-68093628D01*
X102408209Y-68093628D02*
X102455828Y-67998390D01*
X102455828Y-67998390D02*
X102503447Y-67950771D01*
X102503447Y-67950771D02*
X102598685Y-67903152D01*
X102598685Y-67903152D02*
X102789161Y-67903152D01*
X102789161Y-67903152D02*
X102884399Y-67950771D01*
X104122495Y-68569819D02*
X104122495Y-67569819D01*
X104122495Y-67569819D02*
X104360590Y-67569819D01*
X104360590Y-67569819D02*
X104503447Y-67617438D01*
X104503447Y-67617438D02*
X104598685Y-67712676D01*
X104598685Y-67712676D02*
X104646304Y-67807914D01*
X104646304Y-67807914D02*
X104693923Y-67998390D01*
X104693923Y-67998390D02*
X104693923Y-68141247D01*
X104693923Y-68141247D02*
X104646304Y-68331723D01*
X104646304Y-68331723D02*
X104598685Y-68426961D01*
X104598685Y-68426961D02*
X104503447Y-68522200D01*
X104503447Y-68522200D02*
X104360590Y-68569819D01*
X104360590Y-68569819D02*
X104122495Y-68569819D01*
X105503447Y-68522200D02*
X105408209Y-68569819D01*
X105408209Y-68569819D02*
X105217733Y-68569819D01*
X105217733Y-68569819D02*
X105122495Y-68522200D01*
X105122495Y-68522200D02*
X105074876Y-68426961D01*
X105074876Y-68426961D02*
X105074876Y-68046009D01*
X105074876Y-68046009D02*
X105122495Y-67950771D01*
X105122495Y-67950771D02*
X105217733Y-67903152D01*
X105217733Y-67903152D02*
X105408209Y-67903152D01*
X105408209Y-67903152D02*
X105503447Y-67950771D01*
X105503447Y-67950771D02*
X105551066Y-68046009D01*
X105551066Y-68046009D02*
X105551066Y-68141247D01*
X105551066Y-68141247D02*
X105074876Y-68236485D01*
X105884400Y-67903152D02*
X106122495Y-68569819D01*
X106122495Y-68569819D02*
X106360590Y-67903152D01*
X106741543Y-68569819D02*
X106741543Y-67903152D01*
X106741543Y-67569819D02*
X106693924Y-67617438D01*
X106693924Y-67617438D02*
X106741543Y-67665057D01*
X106741543Y-67665057D02*
X106789162Y-67617438D01*
X106789162Y-67617438D02*
X106741543Y-67569819D01*
X106741543Y-67569819D02*
X106741543Y-67665057D01*
X107646304Y-68522200D02*
X107551066Y-68569819D01*
X107551066Y-68569819D02*
X107360590Y-68569819D01*
X107360590Y-68569819D02*
X107265352Y-68522200D01*
X107265352Y-68522200D02*
X107217733Y-68474580D01*
X107217733Y-68474580D02*
X107170114Y-68379342D01*
X107170114Y-68379342D02*
X107170114Y-68093628D01*
X107170114Y-68093628D02*
X107217733Y-67998390D01*
X107217733Y-67998390D02*
X107265352Y-67950771D01*
X107265352Y-67950771D02*
X107360590Y-67903152D01*
X107360590Y-67903152D02*
X107551066Y-67903152D01*
X107551066Y-67903152D02*
X107646304Y-67950771D01*
X108455828Y-68522200D02*
X108360590Y-68569819D01*
X108360590Y-68569819D02*
X108170114Y-68569819D01*
X108170114Y-68569819D02*
X108074876Y-68522200D01*
X108074876Y-68522200D02*
X108027257Y-68426961D01*
X108027257Y-68426961D02*
X108027257Y-68046009D01*
X108027257Y-68046009D02*
X108074876Y-67950771D01*
X108074876Y-67950771D02*
X108170114Y-67903152D01*
X108170114Y-67903152D02*
X108360590Y-67903152D01*
X108360590Y-67903152D02*
X108455828Y-67950771D01*
X108455828Y-67950771D02*
X108503447Y-68046009D01*
X108503447Y-68046009D02*
X108503447Y-68141247D01*
X108503447Y-68141247D02*
X108027257Y-68236485D01*
D12*
X85906891Y-66625304D02*
X85906891Y-65325304D01*
X85906891Y-65325304D02*
X86340225Y-66253876D01*
X86340225Y-66253876D02*
X86773558Y-65325304D01*
X86773558Y-65325304D02*
X86773558Y-66625304D01*
X87949748Y-66625304D02*
X87949748Y-65944352D01*
X87949748Y-65944352D02*
X87887843Y-65820542D01*
X87887843Y-65820542D02*
X87764034Y-65758638D01*
X87764034Y-65758638D02*
X87516415Y-65758638D01*
X87516415Y-65758638D02*
X87392605Y-65820542D01*
X87949748Y-66563400D02*
X87825939Y-66625304D01*
X87825939Y-66625304D02*
X87516415Y-66625304D01*
X87516415Y-66625304D02*
X87392605Y-66563400D01*
X87392605Y-66563400D02*
X87330701Y-66439590D01*
X87330701Y-66439590D02*
X87330701Y-66315780D01*
X87330701Y-66315780D02*
X87392605Y-66191971D01*
X87392605Y-66191971D02*
X87516415Y-66130066D01*
X87516415Y-66130066D02*
X87825939Y-66130066D01*
X87825939Y-66130066D02*
X87949748Y-66068161D01*
X88568795Y-66625304D02*
X88568795Y-65758638D01*
X88568795Y-66006257D02*
X88630700Y-65882447D01*
X88630700Y-65882447D02*
X88692605Y-65820542D01*
X88692605Y-65820542D02*
X88816414Y-65758638D01*
X88816414Y-65758638D02*
X88940224Y-65758638D01*
X89373557Y-66625304D02*
X89373557Y-65758638D01*
X89373557Y-65325304D02*
X89311653Y-65387209D01*
X89311653Y-65387209D02*
X89373557Y-65449114D01*
X89373557Y-65449114D02*
X89435462Y-65387209D01*
X89435462Y-65387209D02*
X89373557Y-65325304D01*
X89373557Y-65325304D02*
X89373557Y-65449114D01*
X89992605Y-65758638D02*
X89992605Y-66625304D01*
X89992605Y-65882447D02*
X90054510Y-65820542D01*
X90054510Y-65820542D02*
X90178320Y-65758638D01*
X90178320Y-65758638D02*
X90364034Y-65758638D01*
X90364034Y-65758638D02*
X90487843Y-65820542D01*
X90487843Y-65820542D02*
X90549748Y-65944352D01*
X90549748Y-65944352D02*
X90549748Y-66625304D01*
X91664033Y-66563400D02*
X91540224Y-66625304D01*
X91540224Y-66625304D02*
X91292605Y-66625304D01*
X91292605Y-66625304D02*
X91168795Y-66563400D01*
X91168795Y-66563400D02*
X91106891Y-66439590D01*
X91106891Y-66439590D02*
X91106891Y-65944352D01*
X91106891Y-65944352D02*
X91168795Y-65820542D01*
X91168795Y-65820542D02*
X91292605Y-65758638D01*
X91292605Y-65758638D02*
X91540224Y-65758638D01*
X91540224Y-65758638D02*
X91664033Y-65820542D01*
X91664033Y-65820542D02*
X91725938Y-65944352D01*
X91725938Y-65944352D02*
X91725938Y-66068161D01*
X91725938Y-66068161D02*
X91106891Y-66191971D01*
X93211653Y-66253876D02*
X93830700Y-66253876D01*
X93087843Y-66625304D02*
X93521176Y-65325304D01*
X93521176Y-65325304D02*
X93954510Y-66625304D01*
X94387843Y-65758638D02*
X94387843Y-66625304D01*
X94387843Y-65882447D02*
X94449748Y-65820542D01*
X94449748Y-65820542D02*
X94573558Y-65758638D01*
X94573558Y-65758638D02*
X94759272Y-65758638D01*
X94759272Y-65758638D02*
X94883081Y-65820542D01*
X94883081Y-65820542D02*
X94944986Y-65944352D01*
X94944986Y-65944352D02*
X94944986Y-66625304D01*
X95564033Y-66625304D02*
X95564033Y-65758638D01*
X95564033Y-65325304D02*
X95502129Y-65387209D01*
X95502129Y-65387209D02*
X95564033Y-65449114D01*
X95564033Y-65449114D02*
X95625938Y-65387209D01*
X95625938Y-65387209D02*
X95564033Y-65325304D01*
X95564033Y-65325304D02*
X95564033Y-65449114D01*
X96183081Y-66625304D02*
X96183081Y-65758638D01*
X96183081Y-65882447D02*
X96244986Y-65820542D01*
X96244986Y-65820542D02*
X96368796Y-65758638D01*
X96368796Y-65758638D02*
X96554510Y-65758638D01*
X96554510Y-65758638D02*
X96678319Y-65820542D01*
X96678319Y-65820542D02*
X96740224Y-65944352D01*
X96740224Y-65944352D02*
X96740224Y-66625304D01*
X96740224Y-65944352D02*
X96802129Y-65820542D01*
X96802129Y-65820542D02*
X96925938Y-65758638D01*
X96925938Y-65758638D02*
X97111653Y-65758638D01*
X97111653Y-65758638D02*
X97235462Y-65820542D01*
X97235462Y-65820542D02*
X97297367Y-65944352D01*
X97297367Y-65944352D02*
X97297367Y-66625304D01*
X98473557Y-66625304D02*
X98473557Y-65944352D01*
X98473557Y-65944352D02*
X98411652Y-65820542D01*
X98411652Y-65820542D02*
X98287843Y-65758638D01*
X98287843Y-65758638D02*
X98040224Y-65758638D01*
X98040224Y-65758638D02*
X97916414Y-65820542D01*
X98473557Y-66563400D02*
X98349748Y-66625304D01*
X98349748Y-66625304D02*
X98040224Y-66625304D01*
X98040224Y-66625304D02*
X97916414Y-66563400D01*
X97916414Y-66563400D02*
X97854510Y-66439590D01*
X97854510Y-66439590D02*
X97854510Y-66315780D01*
X97854510Y-66315780D02*
X97916414Y-66191971D01*
X97916414Y-66191971D02*
X98040224Y-66130066D01*
X98040224Y-66130066D02*
X98349748Y-66130066D01*
X98349748Y-66130066D02*
X98473557Y-66068161D01*
X99278319Y-66625304D02*
X99154509Y-66563400D01*
X99154509Y-66563400D02*
X99092604Y-66439590D01*
X99092604Y-66439590D02*
X99092604Y-65325304D01*
X100578318Y-65325304D02*
X101321175Y-65325304D01*
X100949747Y-66625304D02*
X100949747Y-65325304D01*
X101754508Y-66625304D02*
X101754508Y-65758638D01*
X101754508Y-66006257D02*
X101816413Y-65882447D01*
X101816413Y-65882447D02*
X101878318Y-65820542D01*
X101878318Y-65820542D02*
X102002127Y-65758638D01*
X102002127Y-65758638D02*
X102125937Y-65758638D01*
X103116413Y-66625304D02*
X103116413Y-65944352D01*
X103116413Y-65944352D02*
X103054508Y-65820542D01*
X103054508Y-65820542D02*
X102930699Y-65758638D01*
X102930699Y-65758638D02*
X102683080Y-65758638D01*
X102683080Y-65758638D02*
X102559270Y-65820542D01*
X103116413Y-66563400D02*
X102992604Y-66625304D01*
X102992604Y-66625304D02*
X102683080Y-66625304D01*
X102683080Y-66625304D02*
X102559270Y-66563400D01*
X102559270Y-66563400D02*
X102497366Y-66439590D01*
X102497366Y-66439590D02*
X102497366Y-66315780D01*
X102497366Y-66315780D02*
X102559270Y-66191971D01*
X102559270Y-66191971D02*
X102683080Y-66130066D01*
X102683080Y-66130066D02*
X102992604Y-66130066D01*
X102992604Y-66130066D02*
X103116413Y-66068161D01*
X104292603Y-66563400D02*
X104168794Y-66625304D01*
X104168794Y-66625304D02*
X103921175Y-66625304D01*
X103921175Y-66625304D02*
X103797365Y-66563400D01*
X103797365Y-66563400D02*
X103735460Y-66501495D01*
X103735460Y-66501495D02*
X103673556Y-66377685D01*
X103673556Y-66377685D02*
X103673556Y-66006257D01*
X103673556Y-66006257D02*
X103735460Y-65882447D01*
X103735460Y-65882447D02*
X103797365Y-65820542D01*
X103797365Y-65820542D02*
X103921175Y-65758638D01*
X103921175Y-65758638D02*
X104168794Y-65758638D01*
X104168794Y-65758638D02*
X104292603Y-65820542D01*
X104849746Y-66625304D02*
X104849746Y-65325304D01*
X104973556Y-66130066D02*
X105344984Y-66625304D01*
X105344984Y-65758638D02*
X104849746Y-66253876D01*
X105902127Y-66625304D02*
X105902127Y-65758638D01*
X105902127Y-65325304D02*
X105840223Y-65387209D01*
X105840223Y-65387209D02*
X105902127Y-65449114D01*
X105902127Y-65449114D02*
X105964032Y-65387209D01*
X105964032Y-65387209D02*
X105902127Y-65325304D01*
X105902127Y-65325304D02*
X105902127Y-65449114D01*
X106521175Y-65758638D02*
X106521175Y-66625304D01*
X106521175Y-65882447D02*
X106583080Y-65820542D01*
X106583080Y-65820542D02*
X106706890Y-65758638D01*
X106706890Y-65758638D02*
X106892604Y-65758638D01*
X106892604Y-65758638D02*
X107016413Y-65820542D01*
X107016413Y-65820542D02*
X107078318Y-65944352D01*
X107078318Y-65944352D02*
X107078318Y-66625304D01*
X108254508Y-65758638D02*
X108254508Y-66811019D01*
X108254508Y-66811019D02*
X108192603Y-66934828D01*
X108192603Y-66934828D02*
X108130699Y-66996733D01*
X108130699Y-66996733D02*
X108006889Y-67058638D01*
X108006889Y-67058638D02*
X107821175Y-67058638D01*
X107821175Y-67058638D02*
X107697365Y-66996733D01*
X108254508Y-66563400D02*
X108130699Y-66625304D01*
X108130699Y-66625304D02*
X107883080Y-66625304D01*
X107883080Y-66625304D02*
X107759270Y-66563400D01*
X107759270Y-66563400D02*
X107697365Y-66501495D01*
X107697365Y-66501495D02*
X107635461Y-66377685D01*
X107635461Y-66377685D02*
X107635461Y-66006257D01*
X107635461Y-66006257D02*
X107697365Y-65882447D01*
X107697365Y-65882447D02*
X107759270Y-65820542D01*
X107759270Y-65820542D02*
X107883080Y-65758638D01*
X107883080Y-65758638D02*
X108130699Y-65758638D01*
X108130699Y-65758638D02*
X108254508Y-65820542D01*
X109802127Y-66563400D02*
X109987841Y-66625304D01*
X109987841Y-66625304D02*
X110297365Y-66625304D01*
X110297365Y-66625304D02*
X110421174Y-66563400D01*
X110421174Y-66563400D02*
X110483079Y-66501495D01*
X110483079Y-66501495D02*
X110544984Y-66377685D01*
X110544984Y-66377685D02*
X110544984Y-66253876D01*
X110544984Y-66253876D02*
X110483079Y-66130066D01*
X110483079Y-66130066D02*
X110421174Y-66068161D01*
X110421174Y-66068161D02*
X110297365Y-66006257D01*
X110297365Y-66006257D02*
X110049746Y-65944352D01*
X110049746Y-65944352D02*
X109925936Y-65882447D01*
X109925936Y-65882447D02*
X109864031Y-65820542D01*
X109864031Y-65820542D02*
X109802127Y-65696733D01*
X109802127Y-65696733D02*
X109802127Y-65572923D01*
X109802127Y-65572923D02*
X109864031Y-65449114D01*
X109864031Y-65449114D02*
X109925936Y-65387209D01*
X109925936Y-65387209D02*
X110049746Y-65325304D01*
X110049746Y-65325304D02*
X110359269Y-65325304D01*
X110359269Y-65325304D02*
X110544984Y-65387209D01*
X110978317Y-65758638D02*
X111287841Y-66625304D01*
X111597364Y-65758638D02*
X111287841Y-66625304D01*
X111287841Y-66625304D02*
X111164031Y-66934828D01*
X111164031Y-66934828D02*
X111102126Y-66996733D01*
X111102126Y-66996733D02*
X110978317Y-67058638D01*
X112030698Y-66563400D02*
X112154507Y-66625304D01*
X112154507Y-66625304D02*
X112402126Y-66625304D01*
X112402126Y-66625304D02*
X112525936Y-66563400D01*
X112525936Y-66563400D02*
X112587840Y-66439590D01*
X112587840Y-66439590D02*
X112587840Y-66377685D01*
X112587840Y-66377685D02*
X112525936Y-66253876D01*
X112525936Y-66253876D02*
X112402126Y-66191971D01*
X112402126Y-66191971D02*
X112216412Y-66191971D01*
X112216412Y-66191971D02*
X112092602Y-66130066D01*
X112092602Y-66130066D02*
X112030698Y-66006257D01*
X112030698Y-66006257D02*
X112030698Y-65944352D01*
X112030698Y-65944352D02*
X112092602Y-65820542D01*
X112092602Y-65820542D02*
X112216412Y-65758638D01*
X112216412Y-65758638D02*
X112402126Y-65758638D01*
X112402126Y-65758638D02*
X112525936Y-65820542D01*
X112959269Y-65758638D02*
X113454507Y-65758638D01*
X113144983Y-65325304D02*
X113144983Y-66439590D01*
X113144983Y-66439590D02*
X113206888Y-66563400D01*
X113206888Y-66563400D02*
X113330698Y-66625304D01*
X113330698Y-66625304D02*
X113454507Y-66625304D01*
X114383078Y-66563400D02*
X114259269Y-66625304D01*
X114259269Y-66625304D02*
X114011650Y-66625304D01*
X114011650Y-66625304D02*
X113887840Y-66563400D01*
X113887840Y-66563400D02*
X113825936Y-66439590D01*
X113825936Y-66439590D02*
X113825936Y-65944352D01*
X113825936Y-65944352D02*
X113887840Y-65820542D01*
X113887840Y-65820542D02*
X114011650Y-65758638D01*
X114011650Y-65758638D02*
X114259269Y-65758638D01*
X114259269Y-65758638D02*
X114383078Y-65820542D01*
X114383078Y-65820542D02*
X114444983Y-65944352D01*
X114444983Y-65944352D02*
X114444983Y-66068161D01*
X114444983Y-66068161D02*
X113825936Y-66191971D01*
X115002126Y-66625304D02*
X115002126Y-65758638D01*
X115002126Y-65882447D02*
X115064031Y-65820542D01*
X115064031Y-65820542D02*
X115187841Y-65758638D01*
X115187841Y-65758638D02*
X115373555Y-65758638D01*
X115373555Y-65758638D02*
X115497364Y-65820542D01*
X115497364Y-65820542D02*
X115559269Y-65944352D01*
X115559269Y-65944352D02*
X115559269Y-66625304D01*
X115559269Y-65944352D02*
X115621174Y-65820542D01*
X115621174Y-65820542D02*
X115744983Y-65758638D01*
X115744983Y-65758638D02*
X115930698Y-65758638D01*
X115930698Y-65758638D02*
X116054507Y-65820542D01*
X116054507Y-65820542D02*
X116116412Y-65944352D01*
X116116412Y-65944352D02*
X116116412Y-66625304D01*
D11*
X60557142Y-76859580D02*
X60509523Y-76907200D01*
X60509523Y-76907200D02*
X60366666Y-76954819D01*
X60366666Y-76954819D02*
X60271428Y-76954819D01*
X60271428Y-76954819D02*
X60128571Y-76907200D01*
X60128571Y-76907200D02*
X60033333Y-76811961D01*
X60033333Y-76811961D02*
X59985714Y-76716723D01*
X59985714Y-76716723D02*
X59938095Y-76526247D01*
X59938095Y-76526247D02*
X59938095Y-76383390D01*
X59938095Y-76383390D02*
X59985714Y-76192914D01*
X59985714Y-76192914D02*
X60033333Y-76097676D01*
X60033333Y-76097676D02*
X60128571Y-76002438D01*
X60128571Y-76002438D02*
X60271428Y-75954819D01*
X60271428Y-75954819D02*
X60366666Y-75954819D01*
X60366666Y-75954819D02*
X60509523Y-76002438D01*
X60509523Y-76002438D02*
X60557142Y-76050057D01*
X60890476Y-75954819D02*
X61509523Y-75954819D01*
X61509523Y-75954819D02*
X61176190Y-76335771D01*
X61176190Y-76335771D02*
X61319047Y-76335771D01*
X61319047Y-76335771D02*
X61414285Y-76383390D01*
X61414285Y-76383390D02*
X61461904Y-76431009D01*
X61461904Y-76431009D02*
X61509523Y-76526247D01*
X61509523Y-76526247D02*
X61509523Y-76764342D01*
X61509523Y-76764342D02*
X61461904Y-76859580D01*
X61461904Y-76859580D02*
X61414285Y-76907200D01*
X61414285Y-76907200D02*
X61319047Y-76954819D01*
X61319047Y-76954819D02*
X61033333Y-76954819D01*
X61033333Y-76954819D02*
X60938095Y-76907200D01*
X60938095Y-76907200D02*
X60890476Y-76859580D01*
X62128571Y-75954819D02*
X62223809Y-75954819D01*
X62223809Y-75954819D02*
X62319047Y-76002438D01*
X62319047Y-76002438D02*
X62366666Y-76050057D01*
X62366666Y-76050057D02*
X62414285Y-76145295D01*
X62414285Y-76145295D02*
X62461904Y-76335771D01*
X62461904Y-76335771D02*
X62461904Y-76573866D01*
X62461904Y-76573866D02*
X62414285Y-76764342D01*
X62414285Y-76764342D02*
X62366666Y-76859580D01*
X62366666Y-76859580D02*
X62319047Y-76907200D01*
X62319047Y-76907200D02*
X62223809Y-76954819D01*
X62223809Y-76954819D02*
X62128571Y-76954819D01*
X62128571Y-76954819D02*
X62033333Y-76907200D01*
X62033333Y-76907200D02*
X61985714Y-76859580D01*
X61985714Y-76859580D02*
X61938095Y-76764342D01*
X61938095Y-76764342D02*
X61890476Y-76573866D01*
X61890476Y-76573866D02*
X61890476Y-76335771D01*
X61890476Y-76335771D02*
X61938095Y-76145295D01*
X61938095Y-76145295D02*
X61985714Y-76050057D01*
X61985714Y-76050057D02*
X62033333Y-76002438D01*
X62033333Y-76002438D02*
X62128571Y-75954819D01*
X120386666Y-83564819D02*
X120386666Y-84279104D01*
X120386666Y-84279104D02*
X120339047Y-84421961D01*
X120339047Y-84421961D02*
X120243809Y-84517200D01*
X120243809Y-84517200D02*
X120100952Y-84564819D01*
X120100952Y-84564819D02*
X120005714Y-84564819D01*
X121291428Y-83564819D02*
X121100952Y-83564819D01*
X121100952Y-83564819D02*
X121005714Y-83612438D01*
X121005714Y-83612438D02*
X120958095Y-83660057D01*
X120958095Y-83660057D02*
X120862857Y-83802914D01*
X120862857Y-83802914D02*
X120815238Y-83993390D01*
X120815238Y-83993390D02*
X120815238Y-84374342D01*
X120815238Y-84374342D02*
X120862857Y-84469580D01*
X120862857Y-84469580D02*
X120910476Y-84517200D01*
X120910476Y-84517200D02*
X121005714Y-84564819D01*
X121005714Y-84564819D02*
X121196190Y-84564819D01*
X121196190Y-84564819D02*
X121291428Y-84517200D01*
X121291428Y-84517200D02*
X121339047Y-84469580D01*
X121339047Y-84469580D02*
X121386666Y-84374342D01*
X121386666Y-84374342D02*
X121386666Y-84136247D01*
X121386666Y-84136247D02*
X121339047Y-84041009D01*
X121339047Y-84041009D02*
X121291428Y-83993390D01*
X121291428Y-83993390D02*
X121196190Y-83945771D01*
X121196190Y-83945771D02*
X121005714Y-83945771D01*
X121005714Y-83945771D02*
X120910476Y-83993390D01*
X120910476Y-83993390D02*
X120862857Y-84041009D01*
X120862857Y-84041009D02*
X120815238Y-84136247D01*
X70107142Y-96109580D02*
X70059523Y-96157200D01*
X70059523Y-96157200D02*
X69916666Y-96204819D01*
X69916666Y-96204819D02*
X69821428Y-96204819D01*
X69821428Y-96204819D02*
X69678571Y-96157200D01*
X69678571Y-96157200D02*
X69583333Y-96061961D01*
X69583333Y-96061961D02*
X69535714Y-95966723D01*
X69535714Y-95966723D02*
X69488095Y-95776247D01*
X69488095Y-95776247D02*
X69488095Y-95633390D01*
X69488095Y-95633390D02*
X69535714Y-95442914D01*
X69535714Y-95442914D02*
X69583333Y-95347676D01*
X69583333Y-95347676D02*
X69678571Y-95252438D01*
X69678571Y-95252438D02*
X69821428Y-95204819D01*
X69821428Y-95204819D02*
X69916666Y-95204819D01*
X69916666Y-95204819D02*
X70059523Y-95252438D01*
X70059523Y-95252438D02*
X70107142Y-95300057D01*
X70488095Y-95300057D02*
X70535714Y-95252438D01*
X70535714Y-95252438D02*
X70630952Y-95204819D01*
X70630952Y-95204819D02*
X70869047Y-95204819D01*
X70869047Y-95204819D02*
X70964285Y-95252438D01*
X70964285Y-95252438D02*
X71011904Y-95300057D01*
X71011904Y-95300057D02*
X71059523Y-95395295D01*
X71059523Y-95395295D02*
X71059523Y-95490533D01*
X71059523Y-95490533D02*
X71011904Y-95633390D01*
X71011904Y-95633390D02*
X70440476Y-96204819D01*
X70440476Y-96204819D02*
X71059523Y-96204819D01*
X71964285Y-95204819D02*
X71488095Y-95204819D01*
X71488095Y-95204819D02*
X71440476Y-95681009D01*
X71440476Y-95681009D02*
X71488095Y-95633390D01*
X71488095Y-95633390D02*
X71583333Y-95585771D01*
X71583333Y-95585771D02*
X71821428Y-95585771D01*
X71821428Y-95585771D02*
X71916666Y-95633390D01*
X71916666Y-95633390D02*
X71964285Y-95681009D01*
X71964285Y-95681009D02*
X72011904Y-95776247D01*
X72011904Y-95776247D02*
X72011904Y-96014342D01*
X72011904Y-96014342D02*
X71964285Y-96109580D01*
X71964285Y-96109580D02*
X71916666Y-96157200D01*
X71916666Y-96157200D02*
X71821428Y-96204819D01*
X71821428Y-96204819D02*
X71583333Y-96204819D01*
X71583333Y-96204819D02*
X71488095Y-96157200D01*
X71488095Y-96157200D02*
X71440476Y-96109580D01*
D10*
X38966666Y-70357419D02*
X38966666Y-71071704D01*
X38966666Y-71071704D02*
X38919047Y-71214561D01*
X38919047Y-71214561D02*
X38823809Y-71309800D01*
X38823809Y-71309800D02*
X38680952Y-71357419D01*
X38680952Y-71357419D02*
X38585714Y-71357419D01*
X39966666Y-71357419D02*
X39395238Y-71357419D01*
X39680952Y-71357419D02*
X39680952Y-70357419D01*
X39680952Y-70357419D02*
X39585714Y-70500276D01*
X39585714Y-70500276D02*
X39490476Y-70595514D01*
X39490476Y-70595514D02*
X39395238Y-70643133D01*
D13*
X82369048Y-98724809D02*
X82654762Y-98724809D01*
X82511905Y-99224809D02*
X82511905Y-98724809D01*
X82821428Y-99224809D02*
X82821428Y-98724809D01*
X82821428Y-98724809D02*
X83011904Y-98724809D01*
X83011904Y-98724809D02*
X83059523Y-98748619D01*
X83059523Y-98748619D02*
X83083333Y-98772428D01*
X83083333Y-98772428D02*
X83107142Y-98820047D01*
X83107142Y-98820047D02*
X83107142Y-98891476D01*
X83107142Y-98891476D02*
X83083333Y-98939095D01*
X83083333Y-98939095D02*
X83059523Y-98962904D01*
X83059523Y-98962904D02*
X83011904Y-98986714D01*
X83011904Y-98986714D02*
X82821428Y-98986714D01*
X83345238Y-99224809D02*
X83440476Y-99224809D01*
X83440476Y-99224809D02*
X83488095Y-99201000D01*
X83488095Y-99201000D02*
X83511904Y-99177190D01*
X83511904Y-99177190D02*
X83559523Y-99105761D01*
X83559523Y-99105761D02*
X83583333Y-99010523D01*
X83583333Y-99010523D02*
X83583333Y-98820047D01*
X83583333Y-98820047D02*
X83559523Y-98772428D01*
X83559523Y-98772428D02*
X83535714Y-98748619D01*
X83535714Y-98748619D02*
X83488095Y-98724809D01*
X83488095Y-98724809D02*
X83392857Y-98724809D01*
X83392857Y-98724809D02*
X83345238Y-98748619D01*
X83345238Y-98748619D02*
X83321428Y-98772428D01*
X83321428Y-98772428D02*
X83297619Y-98820047D01*
X83297619Y-98820047D02*
X83297619Y-98939095D01*
X83297619Y-98939095D02*
X83321428Y-98986714D01*
X83321428Y-98986714D02*
X83345238Y-99010523D01*
X83345238Y-99010523D02*
X83392857Y-99034333D01*
X83392857Y-99034333D02*
X83488095Y-99034333D01*
X83488095Y-99034333D02*
X83535714Y-99010523D01*
X83535714Y-99010523D02*
X83559523Y-98986714D01*
X83559523Y-98986714D02*
X83583333Y-98939095D01*
X72130953Y-103724809D02*
X72416667Y-103724809D01*
X72273810Y-104224809D02*
X72273810Y-103724809D01*
X72583333Y-104224809D02*
X72583333Y-103724809D01*
X72583333Y-103724809D02*
X72773809Y-103724809D01*
X72773809Y-103724809D02*
X72821428Y-103748619D01*
X72821428Y-103748619D02*
X72845238Y-103772428D01*
X72845238Y-103772428D02*
X72869047Y-103820047D01*
X72869047Y-103820047D02*
X72869047Y-103891476D01*
X72869047Y-103891476D02*
X72845238Y-103939095D01*
X72845238Y-103939095D02*
X72821428Y-103962904D01*
X72821428Y-103962904D02*
X72773809Y-103986714D01*
X72773809Y-103986714D02*
X72583333Y-103986714D01*
X73345238Y-104224809D02*
X73059524Y-104224809D01*
X73202381Y-104224809D02*
X73202381Y-103724809D01*
X73202381Y-103724809D02*
X73154762Y-103796238D01*
X73154762Y-103796238D02*
X73107143Y-103843857D01*
X73107143Y-103843857D02*
X73059524Y-103867666D01*
X73511904Y-103724809D02*
X73821428Y-103724809D01*
X73821428Y-103724809D02*
X73654761Y-103915285D01*
X73654761Y-103915285D02*
X73726190Y-103915285D01*
X73726190Y-103915285D02*
X73773809Y-103939095D01*
X73773809Y-103939095D02*
X73797618Y-103962904D01*
X73797618Y-103962904D02*
X73821428Y-104010523D01*
X73821428Y-104010523D02*
X73821428Y-104129571D01*
X73821428Y-104129571D02*
X73797618Y-104177190D01*
X73797618Y-104177190D02*
X73773809Y-104201000D01*
X73773809Y-104201000D02*
X73726190Y-104224809D01*
X73726190Y-104224809D02*
X73583333Y-104224809D01*
X73583333Y-104224809D02*
X73535714Y-104201000D01*
X73535714Y-104201000D02*
X73511904Y-104177190D01*
D11*
X63759580Y-72942857D02*
X63807200Y-72990476D01*
X63807200Y-72990476D02*
X63854819Y-73133333D01*
X63854819Y-73133333D02*
X63854819Y-73228571D01*
X63854819Y-73228571D02*
X63807200Y-73371428D01*
X63807200Y-73371428D02*
X63711961Y-73466666D01*
X63711961Y-73466666D02*
X63616723Y-73514285D01*
X63616723Y-73514285D02*
X63426247Y-73561904D01*
X63426247Y-73561904D02*
X63283390Y-73561904D01*
X63283390Y-73561904D02*
X63092914Y-73514285D01*
X63092914Y-73514285D02*
X62997676Y-73466666D01*
X62997676Y-73466666D02*
X62902438Y-73371428D01*
X62902438Y-73371428D02*
X62854819Y-73228571D01*
X62854819Y-73228571D02*
X62854819Y-73133333D01*
X62854819Y-73133333D02*
X62902438Y-72990476D01*
X62902438Y-72990476D02*
X62950057Y-72942857D01*
X62950057Y-72561904D02*
X62902438Y-72514285D01*
X62902438Y-72514285D02*
X62854819Y-72419047D01*
X62854819Y-72419047D02*
X62854819Y-72180952D01*
X62854819Y-72180952D02*
X62902438Y-72085714D01*
X62902438Y-72085714D02*
X62950057Y-72038095D01*
X62950057Y-72038095D02*
X63045295Y-71990476D01*
X63045295Y-71990476D02*
X63140533Y-71990476D01*
X63140533Y-71990476D02*
X63283390Y-72038095D01*
X63283390Y-72038095D02*
X63854819Y-72609523D01*
X63854819Y-72609523D02*
X63854819Y-71990476D01*
X62854819Y-71371428D02*
X62854819Y-71276190D01*
X62854819Y-71276190D02*
X62902438Y-71180952D01*
X62902438Y-71180952D02*
X62950057Y-71133333D01*
X62950057Y-71133333D02*
X63045295Y-71085714D01*
X63045295Y-71085714D02*
X63235771Y-71038095D01*
X63235771Y-71038095D02*
X63473866Y-71038095D01*
X63473866Y-71038095D02*
X63664342Y-71085714D01*
X63664342Y-71085714D02*
X63759580Y-71133333D01*
X63759580Y-71133333D02*
X63807200Y-71180952D01*
X63807200Y-71180952D02*
X63854819Y-71276190D01*
X63854819Y-71276190D02*
X63854819Y-71371428D01*
X63854819Y-71371428D02*
X63807200Y-71466666D01*
X63807200Y-71466666D02*
X63759580Y-71514285D01*
X63759580Y-71514285D02*
X63664342Y-71561904D01*
X63664342Y-71561904D02*
X63473866Y-71609523D01*
X63473866Y-71609523D02*
X63235771Y-71609523D01*
X63235771Y-71609523D02*
X63045295Y-71561904D01*
X63045295Y-71561904D02*
X62950057Y-71514285D01*
X62950057Y-71514285D02*
X62902438Y-71466666D01*
X62902438Y-71466666D02*
X62854819Y-71371428D01*
X59454819Y-95766666D02*
X58978628Y-96099999D01*
X59454819Y-96338094D02*
X58454819Y-96338094D01*
X58454819Y-96338094D02*
X58454819Y-95957142D01*
X58454819Y-95957142D02*
X58502438Y-95861904D01*
X58502438Y-95861904D02*
X58550057Y-95814285D01*
X58550057Y-95814285D02*
X58645295Y-95766666D01*
X58645295Y-95766666D02*
X58788152Y-95766666D01*
X58788152Y-95766666D02*
X58883390Y-95814285D01*
X58883390Y-95814285D02*
X58931009Y-95861904D01*
X58931009Y-95861904D02*
X58978628Y-95957142D01*
X58978628Y-95957142D02*
X58978628Y-96338094D01*
X59454819Y-95290475D02*
X59454819Y-95099999D01*
X59454819Y-95099999D02*
X59407200Y-95004761D01*
X59407200Y-95004761D02*
X59359580Y-94957142D01*
X59359580Y-94957142D02*
X59216723Y-94861904D01*
X59216723Y-94861904D02*
X59026247Y-94814285D01*
X59026247Y-94814285D02*
X58645295Y-94814285D01*
X58645295Y-94814285D02*
X58550057Y-94861904D01*
X58550057Y-94861904D02*
X58502438Y-94909523D01*
X58502438Y-94909523D02*
X58454819Y-95004761D01*
X58454819Y-95004761D02*
X58454819Y-95195237D01*
X58454819Y-95195237D02*
X58502438Y-95290475D01*
X58502438Y-95290475D02*
X58550057Y-95338094D01*
X58550057Y-95338094D02*
X58645295Y-95385713D01*
X58645295Y-95385713D02*
X58883390Y-95385713D01*
X58883390Y-95385713D02*
X58978628Y-95338094D01*
X58978628Y-95338094D02*
X59026247Y-95290475D01*
X59026247Y-95290475D02*
X59073866Y-95195237D01*
X59073866Y-95195237D02*
X59073866Y-95004761D01*
X59073866Y-95004761D02*
X59026247Y-94909523D01*
X59026247Y-94909523D02*
X58978628Y-94861904D01*
X58978628Y-94861904D02*
X58883390Y-94814285D01*
X88433333Y-81359580D02*
X88385714Y-81407200D01*
X88385714Y-81407200D02*
X88242857Y-81454819D01*
X88242857Y-81454819D02*
X88147619Y-81454819D01*
X88147619Y-81454819D02*
X88004762Y-81407200D01*
X88004762Y-81407200D02*
X87909524Y-81311961D01*
X87909524Y-81311961D02*
X87861905Y-81216723D01*
X87861905Y-81216723D02*
X87814286Y-81026247D01*
X87814286Y-81026247D02*
X87814286Y-80883390D01*
X87814286Y-80883390D02*
X87861905Y-80692914D01*
X87861905Y-80692914D02*
X87909524Y-80597676D01*
X87909524Y-80597676D02*
X88004762Y-80502438D01*
X88004762Y-80502438D02*
X88147619Y-80454819D01*
X88147619Y-80454819D02*
X88242857Y-80454819D01*
X88242857Y-80454819D02*
X88385714Y-80502438D01*
X88385714Y-80502438D02*
X88433333Y-80550057D01*
X89004762Y-80883390D02*
X88909524Y-80835771D01*
X88909524Y-80835771D02*
X88861905Y-80788152D01*
X88861905Y-80788152D02*
X88814286Y-80692914D01*
X88814286Y-80692914D02*
X88814286Y-80645295D01*
X88814286Y-80645295D02*
X88861905Y-80550057D01*
X88861905Y-80550057D02*
X88909524Y-80502438D01*
X88909524Y-80502438D02*
X89004762Y-80454819D01*
X89004762Y-80454819D02*
X89195238Y-80454819D01*
X89195238Y-80454819D02*
X89290476Y-80502438D01*
X89290476Y-80502438D02*
X89338095Y-80550057D01*
X89338095Y-80550057D02*
X89385714Y-80645295D01*
X89385714Y-80645295D02*
X89385714Y-80692914D01*
X89385714Y-80692914D02*
X89338095Y-80788152D01*
X89338095Y-80788152D02*
X89290476Y-80835771D01*
X89290476Y-80835771D02*
X89195238Y-80883390D01*
X89195238Y-80883390D02*
X89004762Y-80883390D01*
X89004762Y-80883390D02*
X88909524Y-80931009D01*
X88909524Y-80931009D02*
X88861905Y-80978628D01*
X88861905Y-80978628D02*
X88814286Y-81073866D01*
X88814286Y-81073866D02*
X88814286Y-81264342D01*
X88814286Y-81264342D02*
X88861905Y-81359580D01*
X88861905Y-81359580D02*
X88909524Y-81407200D01*
X88909524Y-81407200D02*
X89004762Y-81454819D01*
X89004762Y-81454819D02*
X89195238Y-81454819D01*
X89195238Y-81454819D02*
X89290476Y-81407200D01*
X89290476Y-81407200D02*
X89338095Y-81359580D01*
X89338095Y-81359580D02*
X89385714Y-81264342D01*
X89385714Y-81264342D02*
X89385714Y-81073866D01*
X89385714Y-81073866D02*
X89338095Y-80978628D01*
X89338095Y-80978628D02*
X89290476Y-80931009D01*
X89290476Y-80931009D02*
X89195238Y-80883390D01*
X51754819Y-94466666D02*
X51278628Y-94799999D01*
X51754819Y-95038094D02*
X50754819Y-95038094D01*
X50754819Y-95038094D02*
X50754819Y-94657142D01*
X50754819Y-94657142D02*
X50802438Y-94561904D01*
X50802438Y-94561904D02*
X50850057Y-94514285D01*
X50850057Y-94514285D02*
X50945295Y-94466666D01*
X50945295Y-94466666D02*
X51088152Y-94466666D01*
X51088152Y-94466666D02*
X51183390Y-94514285D01*
X51183390Y-94514285D02*
X51231009Y-94561904D01*
X51231009Y-94561904D02*
X51278628Y-94657142D01*
X51278628Y-94657142D02*
X51278628Y-95038094D01*
X50754819Y-94133332D02*
X50754819Y-93466666D01*
X50754819Y-93466666D02*
X51754819Y-93895237D01*
X60107142Y-87954819D02*
X59773809Y-87478628D01*
X59535714Y-87954819D02*
X59535714Y-86954819D01*
X59535714Y-86954819D02*
X59916666Y-86954819D01*
X59916666Y-86954819D02*
X60011904Y-87002438D01*
X60011904Y-87002438D02*
X60059523Y-87050057D01*
X60059523Y-87050057D02*
X60107142Y-87145295D01*
X60107142Y-87145295D02*
X60107142Y-87288152D01*
X60107142Y-87288152D02*
X60059523Y-87383390D01*
X60059523Y-87383390D02*
X60011904Y-87431009D01*
X60011904Y-87431009D02*
X59916666Y-87478628D01*
X59916666Y-87478628D02*
X59535714Y-87478628D01*
X61059523Y-87954819D02*
X60488095Y-87954819D01*
X60773809Y-87954819D02*
X60773809Y-86954819D01*
X60773809Y-86954819D02*
X60678571Y-87097676D01*
X60678571Y-87097676D02*
X60583333Y-87192914D01*
X60583333Y-87192914D02*
X60488095Y-87240533D01*
X61440476Y-87050057D02*
X61488095Y-87002438D01*
X61488095Y-87002438D02*
X61583333Y-86954819D01*
X61583333Y-86954819D02*
X61821428Y-86954819D01*
X61821428Y-86954819D02*
X61916666Y-87002438D01*
X61916666Y-87002438D02*
X61964285Y-87050057D01*
X61964285Y-87050057D02*
X62011904Y-87145295D01*
X62011904Y-87145295D02*
X62011904Y-87240533D01*
X62011904Y-87240533D02*
X61964285Y-87383390D01*
X61964285Y-87383390D02*
X61392857Y-87954819D01*
X61392857Y-87954819D02*
X62011904Y-87954819D01*
X111159580Y-96242857D02*
X111207200Y-96290476D01*
X111207200Y-96290476D02*
X111254819Y-96433333D01*
X111254819Y-96433333D02*
X111254819Y-96528571D01*
X111254819Y-96528571D02*
X111207200Y-96671428D01*
X111207200Y-96671428D02*
X111111961Y-96766666D01*
X111111961Y-96766666D02*
X111016723Y-96814285D01*
X111016723Y-96814285D02*
X110826247Y-96861904D01*
X110826247Y-96861904D02*
X110683390Y-96861904D01*
X110683390Y-96861904D02*
X110492914Y-96814285D01*
X110492914Y-96814285D02*
X110397676Y-96766666D01*
X110397676Y-96766666D02*
X110302438Y-96671428D01*
X110302438Y-96671428D02*
X110254819Y-96528571D01*
X110254819Y-96528571D02*
X110254819Y-96433333D01*
X110254819Y-96433333D02*
X110302438Y-96290476D01*
X110302438Y-96290476D02*
X110350057Y-96242857D01*
X111254819Y-95290476D02*
X111254819Y-95861904D01*
X111254819Y-95576190D02*
X110254819Y-95576190D01*
X110254819Y-95576190D02*
X110397676Y-95671428D01*
X110397676Y-95671428D02*
X110492914Y-95766666D01*
X110492914Y-95766666D02*
X110540533Y-95861904D01*
X110254819Y-94385714D02*
X110254819Y-94861904D01*
X110254819Y-94861904D02*
X110731009Y-94909523D01*
X110731009Y-94909523D02*
X110683390Y-94861904D01*
X110683390Y-94861904D02*
X110635771Y-94766666D01*
X110635771Y-94766666D02*
X110635771Y-94528571D01*
X110635771Y-94528571D02*
X110683390Y-94433333D01*
X110683390Y-94433333D02*
X110731009Y-94385714D01*
X110731009Y-94385714D02*
X110826247Y-94338095D01*
X110826247Y-94338095D02*
X111064342Y-94338095D01*
X111064342Y-94338095D02*
X111159580Y-94385714D01*
X111159580Y-94385714D02*
X111207200Y-94433333D01*
X111207200Y-94433333D02*
X111254819Y-94528571D01*
X111254819Y-94528571D02*
X111254819Y-94766666D01*
X111254819Y-94766666D02*
X111207200Y-94861904D01*
X111207200Y-94861904D02*
X111159580Y-94909523D01*
X57666666Y-65204819D02*
X57666666Y-65919104D01*
X57666666Y-65919104D02*
X57619047Y-66061961D01*
X57619047Y-66061961D02*
X57523809Y-66157200D01*
X57523809Y-66157200D02*
X57380952Y-66204819D01*
X57380952Y-66204819D02*
X57285714Y-66204819D01*
X58571428Y-65538152D02*
X58571428Y-66204819D01*
X58333333Y-65157200D02*
X58095238Y-65871485D01*
X58095238Y-65871485D02*
X58714285Y-65871485D01*
X79083333Y-96039580D02*
X79035714Y-96087200D01*
X79035714Y-96087200D02*
X78892857Y-96134819D01*
X78892857Y-96134819D02*
X78797619Y-96134819D01*
X78797619Y-96134819D02*
X78654762Y-96087200D01*
X78654762Y-96087200D02*
X78559524Y-95991961D01*
X78559524Y-95991961D02*
X78511905Y-95896723D01*
X78511905Y-95896723D02*
X78464286Y-95706247D01*
X78464286Y-95706247D02*
X78464286Y-95563390D01*
X78464286Y-95563390D02*
X78511905Y-95372914D01*
X78511905Y-95372914D02*
X78559524Y-95277676D01*
X78559524Y-95277676D02*
X78654762Y-95182438D01*
X78654762Y-95182438D02*
X78797619Y-95134819D01*
X78797619Y-95134819D02*
X78892857Y-95134819D01*
X78892857Y-95134819D02*
X79035714Y-95182438D01*
X79035714Y-95182438D02*
X79083333Y-95230057D01*
X79988095Y-95134819D02*
X79511905Y-95134819D01*
X79511905Y-95134819D02*
X79464286Y-95611009D01*
X79464286Y-95611009D02*
X79511905Y-95563390D01*
X79511905Y-95563390D02*
X79607143Y-95515771D01*
X79607143Y-95515771D02*
X79845238Y-95515771D01*
X79845238Y-95515771D02*
X79940476Y-95563390D01*
X79940476Y-95563390D02*
X79988095Y-95611009D01*
X79988095Y-95611009D02*
X80035714Y-95706247D01*
X80035714Y-95706247D02*
X80035714Y-95944342D01*
X80035714Y-95944342D02*
X79988095Y-96039580D01*
X79988095Y-96039580D02*
X79940476Y-96087200D01*
X79940476Y-96087200D02*
X79845238Y-96134819D01*
X79845238Y-96134819D02*
X79607143Y-96134819D01*
X79607143Y-96134819D02*
X79511905Y-96087200D01*
X79511905Y-96087200D02*
X79464286Y-96039580D01*
X48357142Y-73109580D02*
X48309523Y-73157200D01*
X48309523Y-73157200D02*
X48166666Y-73204819D01*
X48166666Y-73204819D02*
X48071428Y-73204819D01*
X48071428Y-73204819D02*
X47928571Y-73157200D01*
X47928571Y-73157200D02*
X47833333Y-73061961D01*
X47833333Y-73061961D02*
X47785714Y-72966723D01*
X47785714Y-72966723D02*
X47738095Y-72776247D01*
X47738095Y-72776247D02*
X47738095Y-72633390D01*
X47738095Y-72633390D02*
X47785714Y-72442914D01*
X47785714Y-72442914D02*
X47833333Y-72347676D01*
X47833333Y-72347676D02*
X47928571Y-72252438D01*
X47928571Y-72252438D02*
X48071428Y-72204819D01*
X48071428Y-72204819D02*
X48166666Y-72204819D01*
X48166666Y-72204819D02*
X48309523Y-72252438D01*
X48309523Y-72252438D02*
X48357142Y-72300057D01*
X48738095Y-72300057D02*
X48785714Y-72252438D01*
X48785714Y-72252438D02*
X48880952Y-72204819D01*
X48880952Y-72204819D02*
X49119047Y-72204819D01*
X49119047Y-72204819D02*
X49214285Y-72252438D01*
X49214285Y-72252438D02*
X49261904Y-72300057D01*
X49261904Y-72300057D02*
X49309523Y-72395295D01*
X49309523Y-72395295D02*
X49309523Y-72490533D01*
X49309523Y-72490533D02*
X49261904Y-72633390D01*
X49261904Y-72633390D02*
X48690476Y-73204819D01*
X48690476Y-73204819D02*
X49309523Y-73204819D01*
X50166666Y-72204819D02*
X49976190Y-72204819D01*
X49976190Y-72204819D02*
X49880952Y-72252438D01*
X49880952Y-72252438D02*
X49833333Y-72300057D01*
X49833333Y-72300057D02*
X49738095Y-72442914D01*
X49738095Y-72442914D02*
X49690476Y-72633390D01*
X49690476Y-72633390D02*
X49690476Y-73014342D01*
X49690476Y-73014342D02*
X49738095Y-73109580D01*
X49738095Y-73109580D02*
X49785714Y-73157200D01*
X49785714Y-73157200D02*
X49880952Y-73204819D01*
X49880952Y-73204819D02*
X50071428Y-73204819D01*
X50071428Y-73204819D02*
X50166666Y-73157200D01*
X50166666Y-73157200D02*
X50214285Y-73109580D01*
X50214285Y-73109580D02*
X50261904Y-73014342D01*
X50261904Y-73014342D02*
X50261904Y-72776247D01*
X50261904Y-72776247D02*
X50214285Y-72681009D01*
X50214285Y-72681009D02*
X50166666Y-72633390D01*
X50166666Y-72633390D02*
X50071428Y-72585771D01*
X50071428Y-72585771D02*
X49880952Y-72585771D01*
X49880952Y-72585771D02*
X49785714Y-72633390D01*
X49785714Y-72633390D02*
X49738095Y-72681009D01*
X49738095Y-72681009D02*
X49690476Y-72776247D01*
X101738095Y-72954819D02*
X102309523Y-72954819D01*
X102023809Y-73954819D02*
X102023809Y-72954819D01*
X102642857Y-73954819D02*
X102642857Y-72954819D01*
X102642857Y-72954819D02*
X103023809Y-72954819D01*
X103023809Y-72954819D02*
X103119047Y-73002438D01*
X103119047Y-73002438D02*
X103166666Y-73050057D01*
X103166666Y-73050057D02*
X103214285Y-73145295D01*
X103214285Y-73145295D02*
X103214285Y-73288152D01*
X103214285Y-73288152D02*
X103166666Y-73383390D01*
X103166666Y-73383390D02*
X103119047Y-73431009D01*
X103119047Y-73431009D02*
X103023809Y-73478628D01*
X103023809Y-73478628D02*
X102642857Y-73478628D01*
X104071428Y-72954819D02*
X103880952Y-72954819D01*
X103880952Y-72954819D02*
X103785714Y-73002438D01*
X103785714Y-73002438D02*
X103738095Y-73050057D01*
X103738095Y-73050057D02*
X103642857Y-73192914D01*
X103642857Y-73192914D02*
X103595238Y-73383390D01*
X103595238Y-73383390D02*
X103595238Y-73764342D01*
X103595238Y-73764342D02*
X103642857Y-73859580D01*
X103642857Y-73859580D02*
X103690476Y-73907200D01*
X103690476Y-73907200D02*
X103785714Y-73954819D01*
X103785714Y-73954819D02*
X103976190Y-73954819D01*
X103976190Y-73954819D02*
X104071428Y-73907200D01*
X104071428Y-73907200D02*
X104119047Y-73859580D01*
X104119047Y-73859580D02*
X104166666Y-73764342D01*
X104166666Y-73764342D02*
X104166666Y-73526247D01*
X104166666Y-73526247D02*
X104119047Y-73431009D01*
X104119047Y-73431009D02*
X104071428Y-73383390D01*
X104071428Y-73383390D02*
X103976190Y-73335771D01*
X103976190Y-73335771D02*
X103785714Y-73335771D01*
X103785714Y-73335771D02*
X103690476Y-73383390D01*
X103690476Y-73383390D02*
X103642857Y-73431009D01*
X103642857Y-73431009D02*
X103595238Y-73526247D01*
X65754819Y-92382857D02*
X65278628Y-92716190D01*
X65754819Y-92954285D02*
X64754819Y-92954285D01*
X64754819Y-92954285D02*
X64754819Y-92573333D01*
X64754819Y-92573333D02*
X64802438Y-92478095D01*
X64802438Y-92478095D02*
X64850057Y-92430476D01*
X64850057Y-92430476D02*
X64945295Y-92382857D01*
X64945295Y-92382857D02*
X65088152Y-92382857D01*
X65088152Y-92382857D02*
X65183390Y-92430476D01*
X65183390Y-92430476D02*
X65231009Y-92478095D01*
X65231009Y-92478095D02*
X65278628Y-92573333D01*
X65278628Y-92573333D02*
X65278628Y-92954285D01*
X65754819Y-91430476D02*
X65754819Y-92001904D01*
X65754819Y-91716190D02*
X64754819Y-91716190D01*
X64754819Y-91716190D02*
X64897676Y-91811428D01*
X64897676Y-91811428D02*
X64992914Y-91906666D01*
X64992914Y-91906666D02*
X65040533Y-92001904D01*
X65754819Y-90478095D02*
X65754819Y-91049523D01*
X65754819Y-90763809D02*
X64754819Y-90763809D01*
X64754819Y-90763809D02*
X64897676Y-90859047D01*
X64897676Y-90859047D02*
X64992914Y-90954285D01*
X64992914Y-90954285D02*
X65040533Y-91049523D01*
X44166667Y-69407200D02*
X44309524Y-69454819D01*
X44309524Y-69454819D02*
X44547619Y-69454819D01*
X44547619Y-69454819D02*
X44642857Y-69407200D01*
X44642857Y-69407200D02*
X44690476Y-69359580D01*
X44690476Y-69359580D02*
X44738095Y-69264342D01*
X44738095Y-69264342D02*
X44738095Y-69169104D01*
X44738095Y-69169104D02*
X44690476Y-69073866D01*
X44690476Y-69073866D02*
X44642857Y-69026247D01*
X44642857Y-69026247D02*
X44547619Y-68978628D01*
X44547619Y-68978628D02*
X44357143Y-68931009D01*
X44357143Y-68931009D02*
X44261905Y-68883390D01*
X44261905Y-68883390D02*
X44214286Y-68835771D01*
X44214286Y-68835771D02*
X44166667Y-68740533D01*
X44166667Y-68740533D02*
X44166667Y-68645295D01*
X44166667Y-68645295D02*
X44214286Y-68550057D01*
X44214286Y-68550057D02*
X44261905Y-68502438D01*
X44261905Y-68502438D02*
X44357143Y-68454819D01*
X44357143Y-68454819D02*
X44595238Y-68454819D01*
X44595238Y-68454819D02*
X44738095Y-68502438D01*
X45071429Y-68454819D02*
X45309524Y-69454819D01*
X45309524Y-69454819D02*
X45500000Y-68740533D01*
X45500000Y-68740533D02*
X45690476Y-69454819D01*
X45690476Y-69454819D02*
X45928572Y-68454819D01*
X46261905Y-68550057D02*
X46309524Y-68502438D01*
X46309524Y-68502438D02*
X46404762Y-68454819D01*
X46404762Y-68454819D02*
X46642857Y-68454819D01*
X46642857Y-68454819D02*
X46738095Y-68502438D01*
X46738095Y-68502438D02*
X46785714Y-68550057D01*
X46785714Y-68550057D02*
X46833333Y-68645295D01*
X46833333Y-68645295D02*
X46833333Y-68740533D01*
X46833333Y-68740533D02*
X46785714Y-68883390D01*
X46785714Y-68883390D02*
X46214286Y-69454819D01*
X46214286Y-69454819D02*
X46833333Y-69454819D01*
X79738095Y-102704819D02*
X79738095Y-103514342D01*
X79738095Y-103514342D02*
X79785714Y-103609580D01*
X79785714Y-103609580D02*
X79833333Y-103657200D01*
X79833333Y-103657200D02*
X79928571Y-103704819D01*
X79928571Y-103704819D02*
X80119047Y-103704819D01*
X80119047Y-103704819D02*
X80214285Y-103657200D01*
X80214285Y-103657200D02*
X80261904Y-103609580D01*
X80261904Y-103609580D02*
X80309523Y-103514342D01*
X80309523Y-103514342D02*
X80309523Y-102704819D01*
X80738095Y-102800057D02*
X80785714Y-102752438D01*
X80785714Y-102752438D02*
X80880952Y-102704819D01*
X80880952Y-102704819D02*
X81119047Y-102704819D01*
X81119047Y-102704819D02*
X81214285Y-102752438D01*
X81214285Y-102752438D02*
X81261904Y-102800057D01*
X81261904Y-102800057D02*
X81309523Y-102895295D01*
X81309523Y-102895295D02*
X81309523Y-102990533D01*
X81309523Y-102990533D02*
X81261904Y-103133390D01*
X81261904Y-103133390D02*
X80690476Y-103704819D01*
X80690476Y-103704819D02*
X81309523Y-103704819D01*
X114559580Y-96042857D02*
X114607200Y-96090476D01*
X114607200Y-96090476D02*
X114654819Y-96233333D01*
X114654819Y-96233333D02*
X114654819Y-96328571D01*
X114654819Y-96328571D02*
X114607200Y-96471428D01*
X114607200Y-96471428D02*
X114511961Y-96566666D01*
X114511961Y-96566666D02*
X114416723Y-96614285D01*
X114416723Y-96614285D02*
X114226247Y-96661904D01*
X114226247Y-96661904D02*
X114083390Y-96661904D01*
X114083390Y-96661904D02*
X113892914Y-96614285D01*
X113892914Y-96614285D02*
X113797676Y-96566666D01*
X113797676Y-96566666D02*
X113702438Y-96471428D01*
X113702438Y-96471428D02*
X113654819Y-96328571D01*
X113654819Y-96328571D02*
X113654819Y-96233333D01*
X113654819Y-96233333D02*
X113702438Y-96090476D01*
X113702438Y-96090476D02*
X113750057Y-96042857D01*
X113750057Y-95661904D02*
X113702438Y-95614285D01*
X113702438Y-95614285D02*
X113654819Y-95519047D01*
X113654819Y-95519047D02*
X113654819Y-95280952D01*
X113654819Y-95280952D02*
X113702438Y-95185714D01*
X113702438Y-95185714D02*
X113750057Y-95138095D01*
X113750057Y-95138095D02*
X113845295Y-95090476D01*
X113845295Y-95090476D02*
X113940533Y-95090476D01*
X113940533Y-95090476D02*
X114083390Y-95138095D01*
X114083390Y-95138095D02*
X114654819Y-95709523D01*
X114654819Y-95709523D02*
X114654819Y-95090476D01*
X113988152Y-94233333D02*
X114654819Y-94233333D01*
X113607200Y-94471428D02*
X114321485Y-94709523D01*
X114321485Y-94709523D02*
X114321485Y-94090476D01*
X94559580Y-81942857D02*
X94607200Y-81990476D01*
X94607200Y-81990476D02*
X94654819Y-82133333D01*
X94654819Y-82133333D02*
X94654819Y-82228571D01*
X94654819Y-82228571D02*
X94607200Y-82371428D01*
X94607200Y-82371428D02*
X94511961Y-82466666D01*
X94511961Y-82466666D02*
X94416723Y-82514285D01*
X94416723Y-82514285D02*
X94226247Y-82561904D01*
X94226247Y-82561904D02*
X94083390Y-82561904D01*
X94083390Y-82561904D02*
X93892914Y-82514285D01*
X93892914Y-82514285D02*
X93797676Y-82466666D01*
X93797676Y-82466666D02*
X93702438Y-82371428D01*
X93702438Y-82371428D02*
X93654819Y-82228571D01*
X93654819Y-82228571D02*
X93654819Y-82133333D01*
X93654819Y-82133333D02*
X93702438Y-81990476D01*
X93702438Y-81990476D02*
X93750057Y-81942857D01*
X94654819Y-80990476D02*
X94654819Y-81561904D01*
X94654819Y-81276190D02*
X93654819Y-81276190D01*
X93654819Y-81276190D02*
X93797676Y-81371428D01*
X93797676Y-81371428D02*
X93892914Y-81466666D01*
X93892914Y-81466666D02*
X93940533Y-81561904D01*
X93654819Y-80657142D02*
X93654819Y-80038095D01*
X93654819Y-80038095D02*
X94035771Y-80371428D01*
X94035771Y-80371428D02*
X94035771Y-80228571D01*
X94035771Y-80228571D02*
X94083390Y-80133333D01*
X94083390Y-80133333D02*
X94131009Y-80085714D01*
X94131009Y-80085714D02*
X94226247Y-80038095D01*
X94226247Y-80038095D02*
X94464342Y-80038095D01*
X94464342Y-80038095D02*
X94559580Y-80085714D01*
X94559580Y-80085714D02*
X94607200Y-80133333D01*
X94607200Y-80133333D02*
X94654819Y-80228571D01*
X94654819Y-80228571D02*
X94654819Y-80514285D01*
X94654819Y-80514285D02*
X94607200Y-80609523D01*
X94607200Y-80609523D02*
X94559580Y-80657142D01*
X94857142Y-90109580D02*
X94809523Y-90157200D01*
X94809523Y-90157200D02*
X94666666Y-90204819D01*
X94666666Y-90204819D02*
X94571428Y-90204819D01*
X94571428Y-90204819D02*
X94428571Y-90157200D01*
X94428571Y-90157200D02*
X94333333Y-90061961D01*
X94333333Y-90061961D02*
X94285714Y-89966723D01*
X94285714Y-89966723D02*
X94238095Y-89776247D01*
X94238095Y-89776247D02*
X94238095Y-89633390D01*
X94238095Y-89633390D02*
X94285714Y-89442914D01*
X94285714Y-89442914D02*
X94333333Y-89347676D01*
X94333333Y-89347676D02*
X94428571Y-89252438D01*
X94428571Y-89252438D02*
X94571428Y-89204819D01*
X94571428Y-89204819D02*
X94666666Y-89204819D01*
X94666666Y-89204819D02*
X94809523Y-89252438D01*
X94809523Y-89252438D02*
X94857142Y-89300057D01*
X95238095Y-89300057D02*
X95285714Y-89252438D01*
X95285714Y-89252438D02*
X95380952Y-89204819D01*
X95380952Y-89204819D02*
X95619047Y-89204819D01*
X95619047Y-89204819D02*
X95714285Y-89252438D01*
X95714285Y-89252438D02*
X95761904Y-89300057D01*
X95761904Y-89300057D02*
X95809523Y-89395295D01*
X95809523Y-89395295D02*
X95809523Y-89490533D01*
X95809523Y-89490533D02*
X95761904Y-89633390D01*
X95761904Y-89633390D02*
X95190476Y-90204819D01*
X95190476Y-90204819D02*
X95809523Y-90204819D01*
X96190476Y-89300057D02*
X96238095Y-89252438D01*
X96238095Y-89252438D02*
X96333333Y-89204819D01*
X96333333Y-89204819D02*
X96571428Y-89204819D01*
X96571428Y-89204819D02*
X96666666Y-89252438D01*
X96666666Y-89252438D02*
X96714285Y-89300057D01*
X96714285Y-89300057D02*
X96761904Y-89395295D01*
X96761904Y-89395295D02*
X96761904Y-89490533D01*
X96761904Y-89490533D02*
X96714285Y-89633390D01*
X96714285Y-89633390D02*
X96142857Y-90204819D01*
X96142857Y-90204819D02*
X96761904Y-90204819D01*
D13*
X74130953Y-101224809D02*
X74416667Y-101224809D01*
X74273810Y-101724809D02*
X74273810Y-101224809D01*
X74583333Y-101724809D02*
X74583333Y-101224809D01*
X74583333Y-101224809D02*
X74773809Y-101224809D01*
X74773809Y-101224809D02*
X74821428Y-101248619D01*
X74821428Y-101248619D02*
X74845238Y-101272428D01*
X74845238Y-101272428D02*
X74869047Y-101320047D01*
X74869047Y-101320047D02*
X74869047Y-101391476D01*
X74869047Y-101391476D02*
X74845238Y-101439095D01*
X74845238Y-101439095D02*
X74821428Y-101462904D01*
X74821428Y-101462904D02*
X74773809Y-101486714D01*
X74773809Y-101486714D02*
X74583333Y-101486714D01*
X75345238Y-101724809D02*
X75059524Y-101724809D01*
X75202381Y-101724809D02*
X75202381Y-101224809D01*
X75202381Y-101224809D02*
X75154762Y-101296238D01*
X75154762Y-101296238D02*
X75107143Y-101343857D01*
X75107143Y-101343857D02*
X75059524Y-101367666D01*
X75535714Y-101272428D02*
X75559523Y-101248619D01*
X75559523Y-101248619D02*
X75607142Y-101224809D01*
X75607142Y-101224809D02*
X75726190Y-101224809D01*
X75726190Y-101224809D02*
X75773809Y-101248619D01*
X75773809Y-101248619D02*
X75797618Y-101272428D01*
X75797618Y-101272428D02*
X75821428Y-101320047D01*
X75821428Y-101320047D02*
X75821428Y-101367666D01*
X75821428Y-101367666D02*
X75797618Y-101439095D01*
X75797618Y-101439095D02*
X75511904Y-101724809D01*
X75511904Y-101724809D02*
X75821428Y-101724809D01*
D11*
X69513095Y-78954819D02*
X69513095Y-79764342D01*
X69513095Y-79764342D02*
X69560714Y-79859580D01*
X69560714Y-79859580D02*
X69608333Y-79907200D01*
X69608333Y-79907200D02*
X69703571Y-79954819D01*
X69703571Y-79954819D02*
X69894047Y-79954819D01*
X69894047Y-79954819D02*
X69989285Y-79907200D01*
X69989285Y-79907200D02*
X70036904Y-79859580D01*
X70036904Y-79859580D02*
X70084523Y-79764342D01*
X70084523Y-79764342D02*
X70084523Y-78954819D01*
X71084523Y-79954819D02*
X70513095Y-79954819D01*
X70798809Y-79954819D02*
X70798809Y-78954819D01*
X70798809Y-78954819D02*
X70703571Y-79097676D01*
X70703571Y-79097676D02*
X70608333Y-79192914D01*
X70608333Y-79192914D02*
X70513095Y-79240533D01*
D13*
X78119048Y-103974809D02*
X78404762Y-103974809D01*
X78261905Y-104474809D02*
X78261905Y-103974809D01*
X78571428Y-104474809D02*
X78571428Y-103974809D01*
X78571428Y-103974809D02*
X78761904Y-103974809D01*
X78761904Y-103974809D02*
X78809523Y-103998619D01*
X78809523Y-103998619D02*
X78833333Y-104022428D01*
X78833333Y-104022428D02*
X78857142Y-104070047D01*
X78857142Y-104070047D02*
X78857142Y-104141476D01*
X78857142Y-104141476D02*
X78833333Y-104189095D01*
X78833333Y-104189095D02*
X78809523Y-104212904D01*
X78809523Y-104212904D02*
X78761904Y-104236714D01*
X78761904Y-104236714D02*
X78571428Y-104236714D01*
X79142857Y-104189095D02*
X79095238Y-104165285D01*
X79095238Y-104165285D02*
X79071428Y-104141476D01*
X79071428Y-104141476D02*
X79047619Y-104093857D01*
X79047619Y-104093857D02*
X79047619Y-104070047D01*
X79047619Y-104070047D02*
X79071428Y-104022428D01*
X79071428Y-104022428D02*
X79095238Y-103998619D01*
X79095238Y-103998619D02*
X79142857Y-103974809D01*
X79142857Y-103974809D02*
X79238095Y-103974809D01*
X79238095Y-103974809D02*
X79285714Y-103998619D01*
X79285714Y-103998619D02*
X79309523Y-104022428D01*
X79309523Y-104022428D02*
X79333333Y-104070047D01*
X79333333Y-104070047D02*
X79333333Y-104093857D01*
X79333333Y-104093857D02*
X79309523Y-104141476D01*
X79309523Y-104141476D02*
X79285714Y-104165285D01*
X79285714Y-104165285D02*
X79238095Y-104189095D01*
X79238095Y-104189095D02*
X79142857Y-104189095D01*
X79142857Y-104189095D02*
X79095238Y-104212904D01*
X79095238Y-104212904D02*
X79071428Y-104236714D01*
X79071428Y-104236714D02*
X79047619Y-104284333D01*
X79047619Y-104284333D02*
X79047619Y-104379571D01*
X79047619Y-104379571D02*
X79071428Y-104427190D01*
X79071428Y-104427190D02*
X79095238Y-104451000D01*
X79095238Y-104451000D02*
X79142857Y-104474809D01*
X79142857Y-104474809D02*
X79238095Y-104474809D01*
X79238095Y-104474809D02*
X79285714Y-104451000D01*
X79285714Y-104451000D02*
X79309523Y-104427190D01*
X79309523Y-104427190D02*
X79333333Y-104379571D01*
X79333333Y-104379571D02*
X79333333Y-104284333D01*
X79333333Y-104284333D02*
X79309523Y-104236714D01*
X79309523Y-104236714D02*
X79285714Y-104212904D01*
X79285714Y-104212904D02*
X79238095Y-104189095D01*
D11*
X91359580Y-100167857D02*
X91407200Y-100215476D01*
X91407200Y-100215476D02*
X91454819Y-100358333D01*
X91454819Y-100358333D02*
X91454819Y-100453571D01*
X91454819Y-100453571D02*
X91407200Y-100596428D01*
X91407200Y-100596428D02*
X91311961Y-100691666D01*
X91311961Y-100691666D02*
X91216723Y-100739285D01*
X91216723Y-100739285D02*
X91026247Y-100786904D01*
X91026247Y-100786904D02*
X90883390Y-100786904D01*
X90883390Y-100786904D02*
X90692914Y-100739285D01*
X90692914Y-100739285D02*
X90597676Y-100691666D01*
X90597676Y-100691666D02*
X90502438Y-100596428D01*
X90502438Y-100596428D02*
X90454819Y-100453571D01*
X90454819Y-100453571D02*
X90454819Y-100358333D01*
X90454819Y-100358333D02*
X90502438Y-100215476D01*
X90502438Y-100215476D02*
X90550057Y-100167857D01*
X91454819Y-99215476D02*
X91454819Y-99786904D01*
X91454819Y-99501190D02*
X90454819Y-99501190D01*
X90454819Y-99501190D02*
X90597676Y-99596428D01*
X90597676Y-99596428D02*
X90692914Y-99691666D01*
X90692914Y-99691666D02*
X90740533Y-99786904D01*
X90454819Y-98358333D02*
X90454819Y-98548809D01*
X90454819Y-98548809D02*
X90502438Y-98644047D01*
X90502438Y-98644047D02*
X90550057Y-98691666D01*
X90550057Y-98691666D02*
X90692914Y-98786904D01*
X90692914Y-98786904D02*
X90883390Y-98834523D01*
X90883390Y-98834523D02*
X91264342Y-98834523D01*
X91264342Y-98834523D02*
X91359580Y-98786904D01*
X91359580Y-98786904D02*
X91407200Y-98739285D01*
X91407200Y-98739285D02*
X91454819Y-98644047D01*
X91454819Y-98644047D02*
X91454819Y-98453571D01*
X91454819Y-98453571D02*
X91407200Y-98358333D01*
X91407200Y-98358333D02*
X91359580Y-98310714D01*
X91359580Y-98310714D02*
X91264342Y-98263095D01*
X91264342Y-98263095D02*
X91026247Y-98263095D01*
X91026247Y-98263095D02*
X90931009Y-98310714D01*
X90931009Y-98310714D02*
X90883390Y-98358333D01*
X90883390Y-98358333D02*
X90835771Y-98453571D01*
X90835771Y-98453571D02*
X90835771Y-98644047D01*
X90835771Y-98644047D02*
X90883390Y-98739285D01*
X90883390Y-98739285D02*
X90931009Y-98786904D01*
X90931009Y-98786904D02*
X91026247Y-98834523D01*
X94832142Y-92109580D02*
X94784523Y-92157200D01*
X94784523Y-92157200D02*
X94641666Y-92204819D01*
X94641666Y-92204819D02*
X94546428Y-92204819D01*
X94546428Y-92204819D02*
X94403571Y-92157200D01*
X94403571Y-92157200D02*
X94308333Y-92061961D01*
X94308333Y-92061961D02*
X94260714Y-91966723D01*
X94260714Y-91966723D02*
X94213095Y-91776247D01*
X94213095Y-91776247D02*
X94213095Y-91633390D01*
X94213095Y-91633390D02*
X94260714Y-91442914D01*
X94260714Y-91442914D02*
X94308333Y-91347676D01*
X94308333Y-91347676D02*
X94403571Y-91252438D01*
X94403571Y-91252438D02*
X94546428Y-91204819D01*
X94546428Y-91204819D02*
X94641666Y-91204819D01*
X94641666Y-91204819D02*
X94784523Y-91252438D01*
X94784523Y-91252438D02*
X94832142Y-91300057D01*
X95213095Y-91300057D02*
X95260714Y-91252438D01*
X95260714Y-91252438D02*
X95355952Y-91204819D01*
X95355952Y-91204819D02*
X95594047Y-91204819D01*
X95594047Y-91204819D02*
X95689285Y-91252438D01*
X95689285Y-91252438D02*
X95736904Y-91300057D01*
X95736904Y-91300057D02*
X95784523Y-91395295D01*
X95784523Y-91395295D02*
X95784523Y-91490533D01*
X95784523Y-91490533D02*
X95736904Y-91633390D01*
X95736904Y-91633390D02*
X95165476Y-92204819D01*
X95165476Y-92204819D02*
X95784523Y-92204819D01*
X96736904Y-92204819D02*
X96165476Y-92204819D01*
X96451190Y-92204819D02*
X96451190Y-91204819D01*
X96451190Y-91204819D02*
X96355952Y-91347676D01*
X96355952Y-91347676D02*
X96260714Y-91442914D01*
X96260714Y-91442914D02*
X96165476Y-91490533D01*
X51538095Y-73954819D02*
X51538095Y-74764342D01*
X51538095Y-74764342D02*
X51585714Y-74859580D01*
X51585714Y-74859580D02*
X51633333Y-74907200D01*
X51633333Y-74907200D02*
X51728571Y-74954819D01*
X51728571Y-74954819D02*
X51919047Y-74954819D01*
X51919047Y-74954819D02*
X52014285Y-74907200D01*
X52014285Y-74907200D02*
X52061904Y-74859580D01*
X52061904Y-74859580D02*
X52109523Y-74764342D01*
X52109523Y-74764342D02*
X52109523Y-73954819D01*
X53061904Y-73954819D02*
X52585714Y-73954819D01*
X52585714Y-73954819D02*
X52538095Y-74431009D01*
X52538095Y-74431009D02*
X52585714Y-74383390D01*
X52585714Y-74383390D02*
X52680952Y-74335771D01*
X52680952Y-74335771D02*
X52919047Y-74335771D01*
X52919047Y-74335771D02*
X53014285Y-74383390D01*
X53014285Y-74383390D02*
X53061904Y-74431009D01*
X53061904Y-74431009D02*
X53109523Y-74526247D01*
X53109523Y-74526247D02*
X53109523Y-74764342D01*
X53109523Y-74764342D02*
X53061904Y-74859580D01*
X53061904Y-74859580D02*
X53014285Y-74907200D01*
X53014285Y-74907200D02*
X52919047Y-74954819D01*
X52919047Y-74954819D02*
X52680952Y-74954819D01*
X52680952Y-74954819D02*
X52585714Y-74907200D01*
X52585714Y-74907200D02*
X52538095Y-74859580D01*
X86107142Y-102109580D02*
X86059523Y-102157200D01*
X86059523Y-102157200D02*
X85916666Y-102204819D01*
X85916666Y-102204819D02*
X85821428Y-102204819D01*
X85821428Y-102204819D02*
X85678571Y-102157200D01*
X85678571Y-102157200D02*
X85583333Y-102061961D01*
X85583333Y-102061961D02*
X85535714Y-101966723D01*
X85535714Y-101966723D02*
X85488095Y-101776247D01*
X85488095Y-101776247D02*
X85488095Y-101633390D01*
X85488095Y-101633390D02*
X85535714Y-101442914D01*
X85535714Y-101442914D02*
X85583333Y-101347676D01*
X85583333Y-101347676D02*
X85678571Y-101252438D01*
X85678571Y-101252438D02*
X85821428Y-101204819D01*
X85821428Y-101204819D02*
X85916666Y-101204819D01*
X85916666Y-101204819D02*
X86059523Y-101252438D01*
X86059523Y-101252438D02*
X86107142Y-101300057D01*
X87059523Y-102204819D02*
X86488095Y-102204819D01*
X86773809Y-102204819D02*
X86773809Y-101204819D01*
X86773809Y-101204819D02*
X86678571Y-101347676D01*
X86678571Y-101347676D02*
X86583333Y-101442914D01*
X86583333Y-101442914D02*
X86488095Y-101490533D01*
X87392857Y-101204819D02*
X88059523Y-101204819D01*
X88059523Y-101204819D02*
X87630952Y-102204819D01*
X84607142Y-83109580D02*
X84559523Y-83157200D01*
X84559523Y-83157200D02*
X84416666Y-83204819D01*
X84416666Y-83204819D02*
X84321428Y-83204819D01*
X84321428Y-83204819D02*
X84178571Y-83157200D01*
X84178571Y-83157200D02*
X84083333Y-83061961D01*
X84083333Y-83061961D02*
X84035714Y-82966723D01*
X84035714Y-82966723D02*
X83988095Y-82776247D01*
X83988095Y-82776247D02*
X83988095Y-82633390D01*
X83988095Y-82633390D02*
X84035714Y-82442914D01*
X84035714Y-82442914D02*
X84083333Y-82347676D01*
X84083333Y-82347676D02*
X84178571Y-82252438D01*
X84178571Y-82252438D02*
X84321428Y-82204819D01*
X84321428Y-82204819D02*
X84416666Y-82204819D01*
X84416666Y-82204819D02*
X84559523Y-82252438D01*
X84559523Y-82252438D02*
X84607142Y-82300057D01*
X85559523Y-83204819D02*
X84988095Y-83204819D01*
X85273809Y-83204819D02*
X85273809Y-82204819D01*
X85273809Y-82204819D02*
X85178571Y-82347676D01*
X85178571Y-82347676D02*
X85083333Y-82442914D01*
X85083333Y-82442914D02*
X84988095Y-82490533D01*
X86416666Y-82538152D02*
X86416666Y-83204819D01*
X86178571Y-82157200D02*
X85940476Y-82871485D01*
X85940476Y-82871485D02*
X86559523Y-82871485D01*
X111738095Y-72954819D02*
X112309523Y-72954819D01*
X112023809Y-73954819D02*
X112023809Y-72954819D01*
X112642857Y-73954819D02*
X112642857Y-72954819D01*
X112642857Y-72954819D02*
X113023809Y-72954819D01*
X113023809Y-72954819D02*
X113119047Y-73002438D01*
X113119047Y-73002438D02*
X113166666Y-73050057D01*
X113166666Y-73050057D02*
X113214285Y-73145295D01*
X113214285Y-73145295D02*
X113214285Y-73288152D01*
X113214285Y-73288152D02*
X113166666Y-73383390D01*
X113166666Y-73383390D02*
X113119047Y-73431009D01*
X113119047Y-73431009D02*
X113023809Y-73478628D01*
X113023809Y-73478628D02*
X112642857Y-73478628D01*
X113547619Y-72954819D02*
X114214285Y-72954819D01*
X114214285Y-72954819D02*
X113785714Y-73954819D01*
X47738095Y-77256819D02*
X48309523Y-77256819D01*
X48023809Y-78256819D02*
X48023809Y-77256819D01*
X48642857Y-78256819D02*
X48642857Y-77256819D01*
X48642857Y-77256819D02*
X49023809Y-77256819D01*
X49023809Y-77256819D02*
X49119047Y-77304438D01*
X49119047Y-77304438D02*
X49166666Y-77352057D01*
X49166666Y-77352057D02*
X49214285Y-77447295D01*
X49214285Y-77447295D02*
X49214285Y-77590152D01*
X49214285Y-77590152D02*
X49166666Y-77685390D01*
X49166666Y-77685390D02*
X49119047Y-77733009D01*
X49119047Y-77733009D02*
X49023809Y-77780628D01*
X49023809Y-77780628D02*
X48642857Y-77780628D01*
X49595238Y-77352057D02*
X49642857Y-77304438D01*
X49642857Y-77304438D02*
X49738095Y-77256819D01*
X49738095Y-77256819D02*
X49976190Y-77256819D01*
X49976190Y-77256819D02*
X50071428Y-77304438D01*
X50071428Y-77304438D02*
X50119047Y-77352057D01*
X50119047Y-77352057D02*
X50166666Y-77447295D01*
X50166666Y-77447295D02*
X50166666Y-77542533D01*
X50166666Y-77542533D02*
X50119047Y-77685390D01*
X50119047Y-77685390D02*
X49547619Y-78256819D01*
X49547619Y-78256819D02*
X50166666Y-78256819D01*
X67833333Y-93609580D02*
X67785714Y-93657200D01*
X67785714Y-93657200D02*
X67642857Y-93704819D01*
X67642857Y-93704819D02*
X67547619Y-93704819D01*
X67547619Y-93704819D02*
X67404762Y-93657200D01*
X67404762Y-93657200D02*
X67309524Y-93561961D01*
X67309524Y-93561961D02*
X67261905Y-93466723D01*
X67261905Y-93466723D02*
X67214286Y-93276247D01*
X67214286Y-93276247D02*
X67214286Y-93133390D01*
X67214286Y-93133390D02*
X67261905Y-92942914D01*
X67261905Y-92942914D02*
X67309524Y-92847676D01*
X67309524Y-92847676D02*
X67404762Y-92752438D01*
X67404762Y-92752438D02*
X67547619Y-92704819D01*
X67547619Y-92704819D02*
X67642857Y-92704819D01*
X67642857Y-92704819D02*
X67785714Y-92752438D01*
X67785714Y-92752438D02*
X67833333Y-92800057D01*
X68309524Y-93704819D02*
X68500000Y-93704819D01*
X68500000Y-93704819D02*
X68595238Y-93657200D01*
X68595238Y-93657200D02*
X68642857Y-93609580D01*
X68642857Y-93609580D02*
X68738095Y-93466723D01*
X68738095Y-93466723D02*
X68785714Y-93276247D01*
X68785714Y-93276247D02*
X68785714Y-92895295D01*
X68785714Y-92895295D02*
X68738095Y-92800057D01*
X68738095Y-92800057D02*
X68690476Y-92752438D01*
X68690476Y-92752438D02*
X68595238Y-92704819D01*
X68595238Y-92704819D02*
X68404762Y-92704819D01*
X68404762Y-92704819D02*
X68309524Y-92752438D01*
X68309524Y-92752438D02*
X68261905Y-92800057D01*
X68261905Y-92800057D02*
X68214286Y-92895295D01*
X68214286Y-92895295D02*
X68214286Y-93133390D01*
X68214286Y-93133390D02*
X68261905Y-93228628D01*
X68261905Y-93228628D02*
X68309524Y-93276247D01*
X68309524Y-93276247D02*
X68404762Y-93323866D01*
X68404762Y-93323866D02*
X68595238Y-93323866D01*
X68595238Y-93323866D02*
X68690476Y-93276247D01*
X68690476Y-93276247D02*
X68738095Y-93228628D01*
X68738095Y-93228628D02*
X68785714Y-93133390D01*
X60607142Y-81609580D02*
X60559523Y-81657200D01*
X60559523Y-81657200D02*
X60416666Y-81704819D01*
X60416666Y-81704819D02*
X60321428Y-81704819D01*
X60321428Y-81704819D02*
X60178571Y-81657200D01*
X60178571Y-81657200D02*
X60083333Y-81561961D01*
X60083333Y-81561961D02*
X60035714Y-81466723D01*
X60035714Y-81466723D02*
X59988095Y-81276247D01*
X59988095Y-81276247D02*
X59988095Y-81133390D01*
X59988095Y-81133390D02*
X60035714Y-80942914D01*
X60035714Y-80942914D02*
X60083333Y-80847676D01*
X60083333Y-80847676D02*
X60178571Y-80752438D01*
X60178571Y-80752438D02*
X60321428Y-80704819D01*
X60321428Y-80704819D02*
X60416666Y-80704819D01*
X60416666Y-80704819D02*
X60559523Y-80752438D01*
X60559523Y-80752438D02*
X60607142Y-80800057D01*
X61559523Y-81704819D02*
X60988095Y-81704819D01*
X61273809Y-81704819D02*
X61273809Y-80704819D01*
X61273809Y-80704819D02*
X61178571Y-80847676D01*
X61178571Y-80847676D02*
X61083333Y-80942914D01*
X61083333Y-80942914D02*
X60988095Y-80990533D01*
X62035714Y-81704819D02*
X62226190Y-81704819D01*
X62226190Y-81704819D02*
X62321428Y-81657200D01*
X62321428Y-81657200D02*
X62369047Y-81609580D01*
X62369047Y-81609580D02*
X62464285Y-81466723D01*
X62464285Y-81466723D02*
X62511904Y-81276247D01*
X62511904Y-81276247D02*
X62511904Y-80895295D01*
X62511904Y-80895295D02*
X62464285Y-80800057D01*
X62464285Y-80800057D02*
X62416666Y-80752438D01*
X62416666Y-80752438D02*
X62321428Y-80704819D01*
X62321428Y-80704819D02*
X62130952Y-80704819D01*
X62130952Y-80704819D02*
X62035714Y-80752438D01*
X62035714Y-80752438D02*
X61988095Y-80800057D01*
X61988095Y-80800057D02*
X61940476Y-80895295D01*
X61940476Y-80895295D02*
X61940476Y-81133390D01*
X61940476Y-81133390D02*
X61988095Y-81228628D01*
X61988095Y-81228628D02*
X62035714Y-81276247D01*
X62035714Y-81276247D02*
X62130952Y-81323866D01*
X62130952Y-81323866D02*
X62321428Y-81323866D01*
X62321428Y-81323866D02*
X62416666Y-81276247D01*
X62416666Y-81276247D02*
X62464285Y-81228628D01*
X62464285Y-81228628D02*
X62511904Y-81133390D01*
X82333333Y-95109580D02*
X82285714Y-95157200D01*
X82285714Y-95157200D02*
X82142857Y-95204819D01*
X82142857Y-95204819D02*
X82047619Y-95204819D01*
X82047619Y-95204819D02*
X81904762Y-95157200D01*
X81904762Y-95157200D02*
X81809524Y-95061961D01*
X81809524Y-95061961D02*
X81761905Y-94966723D01*
X81761905Y-94966723D02*
X81714286Y-94776247D01*
X81714286Y-94776247D02*
X81714286Y-94633390D01*
X81714286Y-94633390D02*
X81761905Y-94442914D01*
X81761905Y-94442914D02*
X81809524Y-94347676D01*
X81809524Y-94347676D02*
X81904762Y-94252438D01*
X81904762Y-94252438D02*
X82047619Y-94204819D01*
X82047619Y-94204819D02*
X82142857Y-94204819D01*
X82142857Y-94204819D02*
X82285714Y-94252438D01*
X82285714Y-94252438D02*
X82333333Y-94300057D01*
X83190476Y-94204819D02*
X83000000Y-94204819D01*
X83000000Y-94204819D02*
X82904762Y-94252438D01*
X82904762Y-94252438D02*
X82857143Y-94300057D01*
X82857143Y-94300057D02*
X82761905Y-94442914D01*
X82761905Y-94442914D02*
X82714286Y-94633390D01*
X82714286Y-94633390D02*
X82714286Y-95014342D01*
X82714286Y-95014342D02*
X82761905Y-95109580D01*
X82761905Y-95109580D02*
X82809524Y-95157200D01*
X82809524Y-95157200D02*
X82904762Y-95204819D01*
X82904762Y-95204819D02*
X83095238Y-95204819D01*
X83095238Y-95204819D02*
X83190476Y-95157200D01*
X83190476Y-95157200D02*
X83238095Y-95109580D01*
X83238095Y-95109580D02*
X83285714Y-95014342D01*
X83285714Y-95014342D02*
X83285714Y-94776247D01*
X83285714Y-94776247D02*
X83238095Y-94681009D01*
X83238095Y-94681009D02*
X83190476Y-94633390D01*
X83190476Y-94633390D02*
X83095238Y-94585771D01*
X83095238Y-94585771D02*
X82904762Y-94585771D01*
X82904762Y-94585771D02*
X82809524Y-94633390D01*
X82809524Y-94633390D02*
X82761905Y-94681009D01*
X82761905Y-94681009D02*
X82714286Y-94776247D01*
X55488095Y-87704819D02*
X55488095Y-88514342D01*
X55488095Y-88514342D02*
X55535714Y-88609580D01*
X55535714Y-88609580D02*
X55583333Y-88657200D01*
X55583333Y-88657200D02*
X55678571Y-88704819D01*
X55678571Y-88704819D02*
X55869047Y-88704819D01*
X55869047Y-88704819D02*
X55964285Y-88657200D01*
X55964285Y-88657200D02*
X56011904Y-88609580D01*
X56011904Y-88609580D02*
X56059523Y-88514342D01*
X56059523Y-88514342D02*
X56059523Y-87704819D01*
X56440476Y-87704819D02*
X57059523Y-87704819D01*
X57059523Y-87704819D02*
X56726190Y-88085771D01*
X56726190Y-88085771D02*
X56869047Y-88085771D01*
X56869047Y-88085771D02*
X56964285Y-88133390D01*
X56964285Y-88133390D02*
X57011904Y-88181009D01*
X57011904Y-88181009D02*
X57059523Y-88276247D01*
X57059523Y-88276247D02*
X57059523Y-88514342D01*
X57059523Y-88514342D02*
X57011904Y-88609580D01*
X57011904Y-88609580D02*
X56964285Y-88657200D01*
X56964285Y-88657200D02*
X56869047Y-88704819D01*
X56869047Y-88704819D02*
X56583333Y-88704819D01*
X56583333Y-88704819D02*
X56488095Y-88657200D01*
X56488095Y-88657200D02*
X56440476Y-88609580D01*
X78583333Y-74459580D02*
X78535714Y-74507200D01*
X78535714Y-74507200D02*
X78392857Y-74554819D01*
X78392857Y-74554819D02*
X78297619Y-74554819D01*
X78297619Y-74554819D02*
X78154762Y-74507200D01*
X78154762Y-74507200D02*
X78059524Y-74411961D01*
X78059524Y-74411961D02*
X78011905Y-74316723D01*
X78011905Y-74316723D02*
X77964286Y-74126247D01*
X77964286Y-74126247D02*
X77964286Y-73983390D01*
X77964286Y-73983390D02*
X78011905Y-73792914D01*
X78011905Y-73792914D02*
X78059524Y-73697676D01*
X78059524Y-73697676D02*
X78154762Y-73602438D01*
X78154762Y-73602438D02*
X78297619Y-73554819D01*
X78297619Y-73554819D02*
X78392857Y-73554819D01*
X78392857Y-73554819D02*
X78535714Y-73602438D01*
X78535714Y-73602438D02*
X78583333Y-73650057D01*
X79440476Y-73888152D02*
X79440476Y-74554819D01*
X79202381Y-73507200D02*
X78964286Y-74221485D01*
X78964286Y-74221485D02*
X79583333Y-74221485D01*
X66738095Y-97054819D02*
X66738095Y-97864342D01*
X66738095Y-97864342D02*
X66785714Y-97959580D01*
X66785714Y-97959580D02*
X66833333Y-98007200D01*
X66833333Y-98007200D02*
X66928571Y-98054819D01*
X66928571Y-98054819D02*
X67119047Y-98054819D01*
X67119047Y-98054819D02*
X67214285Y-98007200D01*
X67214285Y-98007200D02*
X67261904Y-97959580D01*
X67261904Y-97959580D02*
X67309523Y-97864342D01*
X67309523Y-97864342D02*
X67309523Y-97054819D01*
X68214285Y-97054819D02*
X68023809Y-97054819D01*
X68023809Y-97054819D02*
X67928571Y-97102438D01*
X67928571Y-97102438D02*
X67880952Y-97150057D01*
X67880952Y-97150057D02*
X67785714Y-97292914D01*
X67785714Y-97292914D02*
X67738095Y-97483390D01*
X67738095Y-97483390D02*
X67738095Y-97864342D01*
X67738095Y-97864342D02*
X67785714Y-97959580D01*
X67785714Y-97959580D02*
X67833333Y-98007200D01*
X67833333Y-98007200D02*
X67928571Y-98054819D01*
X67928571Y-98054819D02*
X68119047Y-98054819D01*
X68119047Y-98054819D02*
X68214285Y-98007200D01*
X68214285Y-98007200D02*
X68261904Y-97959580D01*
X68261904Y-97959580D02*
X68309523Y-97864342D01*
X68309523Y-97864342D02*
X68309523Y-97626247D01*
X68309523Y-97626247D02*
X68261904Y-97531009D01*
X68261904Y-97531009D02*
X68214285Y-97483390D01*
X68214285Y-97483390D02*
X68119047Y-97435771D01*
X68119047Y-97435771D02*
X67928571Y-97435771D01*
X67928571Y-97435771D02*
X67833333Y-97483390D01*
X67833333Y-97483390D02*
X67785714Y-97531009D01*
X67785714Y-97531009D02*
X67738095Y-97626247D01*
X67333333Y-77859580D02*
X67285714Y-77907200D01*
X67285714Y-77907200D02*
X67142857Y-77954819D01*
X67142857Y-77954819D02*
X67047619Y-77954819D01*
X67047619Y-77954819D02*
X66904762Y-77907200D01*
X66904762Y-77907200D02*
X66809524Y-77811961D01*
X66809524Y-77811961D02*
X66761905Y-77716723D01*
X66761905Y-77716723D02*
X66714286Y-77526247D01*
X66714286Y-77526247D02*
X66714286Y-77383390D01*
X66714286Y-77383390D02*
X66761905Y-77192914D01*
X66761905Y-77192914D02*
X66809524Y-77097676D01*
X66809524Y-77097676D02*
X66904762Y-77002438D01*
X66904762Y-77002438D02*
X67047619Y-76954819D01*
X67047619Y-76954819D02*
X67142857Y-76954819D01*
X67142857Y-76954819D02*
X67285714Y-77002438D01*
X67285714Y-77002438D02*
X67333333Y-77050057D01*
X67666667Y-76954819D02*
X68285714Y-76954819D01*
X68285714Y-76954819D02*
X67952381Y-77335771D01*
X67952381Y-77335771D02*
X68095238Y-77335771D01*
X68095238Y-77335771D02*
X68190476Y-77383390D01*
X68190476Y-77383390D02*
X68238095Y-77431009D01*
X68238095Y-77431009D02*
X68285714Y-77526247D01*
X68285714Y-77526247D02*
X68285714Y-77764342D01*
X68285714Y-77764342D02*
X68238095Y-77859580D01*
X68238095Y-77859580D02*
X68190476Y-77907200D01*
X68190476Y-77907200D02*
X68095238Y-77954819D01*
X68095238Y-77954819D02*
X67809524Y-77954819D01*
X67809524Y-77954819D02*
X67714286Y-77907200D01*
X67714286Y-77907200D02*
X67666667Y-77859580D01*
X61511905Y-96704819D02*
X62083333Y-96704819D01*
X61797619Y-97704819D02*
X61797619Y-96704819D01*
X62416667Y-97704819D02*
X62416667Y-96704819D01*
X62416667Y-96704819D02*
X62797619Y-96704819D01*
X62797619Y-96704819D02*
X62892857Y-96752438D01*
X62892857Y-96752438D02*
X62940476Y-96800057D01*
X62940476Y-96800057D02*
X62988095Y-96895295D01*
X62988095Y-96895295D02*
X62988095Y-97038152D01*
X62988095Y-97038152D02*
X62940476Y-97133390D01*
X62940476Y-97133390D02*
X62892857Y-97181009D01*
X62892857Y-97181009D02*
X62797619Y-97228628D01*
X62797619Y-97228628D02*
X62416667Y-97228628D01*
X63940476Y-97704819D02*
X63369048Y-97704819D01*
X63654762Y-97704819D02*
X63654762Y-96704819D01*
X63654762Y-96704819D02*
X63559524Y-96847676D01*
X63559524Y-96847676D02*
X63464286Y-96942914D01*
X63464286Y-96942914D02*
X63369048Y-96990533D01*
X64797619Y-97038152D02*
X64797619Y-97704819D01*
X64559524Y-96657200D02*
X64321429Y-97371485D01*
X64321429Y-97371485D02*
X64940476Y-97371485D01*
X50154819Y-94466666D02*
X49678628Y-94799999D01*
X50154819Y-95038094D02*
X49154819Y-95038094D01*
X49154819Y-95038094D02*
X49154819Y-94657142D01*
X49154819Y-94657142D02*
X49202438Y-94561904D01*
X49202438Y-94561904D02*
X49250057Y-94514285D01*
X49250057Y-94514285D02*
X49345295Y-94466666D01*
X49345295Y-94466666D02*
X49488152Y-94466666D01*
X49488152Y-94466666D02*
X49583390Y-94514285D01*
X49583390Y-94514285D02*
X49631009Y-94561904D01*
X49631009Y-94561904D02*
X49678628Y-94657142D01*
X49678628Y-94657142D02*
X49678628Y-95038094D01*
X49488152Y-93609523D02*
X50154819Y-93609523D01*
X49107200Y-93847618D02*
X49821485Y-94085713D01*
X49821485Y-94085713D02*
X49821485Y-93466666D01*
X57204819Y-104238094D02*
X56204819Y-104238094D01*
X56204819Y-104238094D02*
X56204819Y-103999999D01*
X56204819Y-103999999D02*
X56252438Y-103857142D01*
X56252438Y-103857142D02*
X56347676Y-103761904D01*
X56347676Y-103761904D02*
X56442914Y-103714285D01*
X56442914Y-103714285D02*
X56633390Y-103666666D01*
X56633390Y-103666666D02*
X56776247Y-103666666D01*
X56776247Y-103666666D02*
X56966723Y-103714285D01*
X56966723Y-103714285D02*
X57061961Y-103761904D01*
X57061961Y-103761904D02*
X57157200Y-103857142D01*
X57157200Y-103857142D02*
X57204819Y-103999999D01*
X57204819Y-103999999D02*
X57204819Y-104238094D01*
X57204819Y-102714285D02*
X57204819Y-103285713D01*
X57204819Y-102999999D02*
X56204819Y-102999999D01*
X56204819Y-102999999D02*
X56347676Y-103095237D01*
X56347676Y-103095237D02*
X56442914Y-103190475D01*
X56442914Y-103190475D02*
X56490533Y-103285713D01*
X66912933Y-74954819D02*
X66579600Y-74478628D01*
X66341505Y-74954819D02*
X66341505Y-73954819D01*
X66341505Y-73954819D02*
X66722457Y-73954819D01*
X66722457Y-73954819D02*
X66817695Y-74002438D01*
X66817695Y-74002438D02*
X66865314Y-74050057D01*
X66865314Y-74050057D02*
X66912933Y-74145295D01*
X66912933Y-74145295D02*
X66912933Y-74288152D01*
X66912933Y-74288152D02*
X66865314Y-74383390D01*
X66865314Y-74383390D02*
X66817695Y-74431009D01*
X66817695Y-74431009D02*
X66722457Y-74478628D01*
X66722457Y-74478628D02*
X66341505Y-74478628D01*
X67246267Y-73954819D02*
X67865314Y-73954819D01*
X67865314Y-73954819D02*
X67531981Y-74335771D01*
X67531981Y-74335771D02*
X67674838Y-74335771D01*
X67674838Y-74335771D02*
X67770076Y-74383390D01*
X67770076Y-74383390D02*
X67817695Y-74431009D01*
X67817695Y-74431009D02*
X67865314Y-74526247D01*
X67865314Y-74526247D02*
X67865314Y-74764342D01*
X67865314Y-74764342D02*
X67817695Y-74859580D01*
X67817695Y-74859580D02*
X67770076Y-74907200D01*
X67770076Y-74907200D02*
X67674838Y-74954819D01*
X67674838Y-74954819D02*
X67389124Y-74954819D01*
X67389124Y-74954819D02*
X67293886Y-74907200D01*
X67293886Y-74907200D02*
X67246267Y-74859580D01*
X66922533Y-73204819D02*
X66589200Y-72728628D01*
X66351105Y-73204819D02*
X66351105Y-72204819D01*
X66351105Y-72204819D02*
X66732057Y-72204819D01*
X66732057Y-72204819D02*
X66827295Y-72252438D01*
X66827295Y-72252438D02*
X66874914Y-72300057D01*
X66874914Y-72300057D02*
X66922533Y-72395295D01*
X66922533Y-72395295D02*
X66922533Y-72538152D01*
X66922533Y-72538152D02*
X66874914Y-72633390D01*
X66874914Y-72633390D02*
X66827295Y-72681009D01*
X66827295Y-72681009D02*
X66732057Y-72728628D01*
X66732057Y-72728628D02*
X66351105Y-72728628D01*
X67303486Y-72300057D02*
X67351105Y-72252438D01*
X67351105Y-72252438D02*
X67446343Y-72204819D01*
X67446343Y-72204819D02*
X67684438Y-72204819D01*
X67684438Y-72204819D02*
X67779676Y-72252438D01*
X67779676Y-72252438D02*
X67827295Y-72300057D01*
X67827295Y-72300057D02*
X67874914Y-72395295D01*
X67874914Y-72395295D02*
X67874914Y-72490533D01*
X67874914Y-72490533D02*
X67827295Y-72633390D01*
X67827295Y-72633390D02*
X67255867Y-73204819D01*
X67255867Y-73204819D02*
X67874914Y-73204819D01*
X94357142Y-94359580D02*
X94309523Y-94407200D01*
X94309523Y-94407200D02*
X94166666Y-94454819D01*
X94166666Y-94454819D02*
X94071428Y-94454819D01*
X94071428Y-94454819D02*
X93928571Y-94407200D01*
X93928571Y-94407200D02*
X93833333Y-94311961D01*
X93833333Y-94311961D02*
X93785714Y-94216723D01*
X93785714Y-94216723D02*
X93738095Y-94026247D01*
X93738095Y-94026247D02*
X93738095Y-93883390D01*
X93738095Y-93883390D02*
X93785714Y-93692914D01*
X93785714Y-93692914D02*
X93833333Y-93597676D01*
X93833333Y-93597676D02*
X93928571Y-93502438D01*
X93928571Y-93502438D02*
X94071428Y-93454819D01*
X94071428Y-93454819D02*
X94166666Y-93454819D01*
X94166666Y-93454819D02*
X94309523Y-93502438D01*
X94309523Y-93502438D02*
X94357142Y-93550057D01*
X94738095Y-93550057D02*
X94785714Y-93502438D01*
X94785714Y-93502438D02*
X94880952Y-93454819D01*
X94880952Y-93454819D02*
X95119047Y-93454819D01*
X95119047Y-93454819D02*
X95214285Y-93502438D01*
X95214285Y-93502438D02*
X95261904Y-93550057D01*
X95261904Y-93550057D02*
X95309523Y-93645295D01*
X95309523Y-93645295D02*
X95309523Y-93740533D01*
X95309523Y-93740533D02*
X95261904Y-93883390D01*
X95261904Y-93883390D02*
X94690476Y-94454819D01*
X94690476Y-94454819D02*
X95309523Y-94454819D01*
X95785714Y-94454819D02*
X95976190Y-94454819D01*
X95976190Y-94454819D02*
X96071428Y-94407200D01*
X96071428Y-94407200D02*
X96119047Y-94359580D01*
X96119047Y-94359580D02*
X96214285Y-94216723D01*
X96214285Y-94216723D02*
X96261904Y-94026247D01*
X96261904Y-94026247D02*
X96261904Y-93645295D01*
X96261904Y-93645295D02*
X96214285Y-93550057D01*
X96214285Y-93550057D02*
X96166666Y-93502438D01*
X96166666Y-93502438D02*
X96071428Y-93454819D01*
X96071428Y-93454819D02*
X95880952Y-93454819D01*
X95880952Y-93454819D02*
X95785714Y-93502438D01*
X95785714Y-93502438D02*
X95738095Y-93550057D01*
X95738095Y-93550057D02*
X95690476Y-93645295D01*
X95690476Y-93645295D02*
X95690476Y-93883390D01*
X95690476Y-93883390D02*
X95738095Y-93978628D01*
X95738095Y-93978628D02*
X95785714Y-94026247D01*
X95785714Y-94026247D02*
X95880952Y-94073866D01*
X95880952Y-94073866D02*
X96071428Y-94073866D01*
X96071428Y-94073866D02*
X96166666Y-94026247D01*
X96166666Y-94026247D02*
X96214285Y-93978628D01*
X96214285Y-93978628D02*
X96261904Y-93883390D01*
X80988095Y-68454819D02*
X81559523Y-68454819D01*
X81273809Y-69454819D02*
X81273809Y-68454819D01*
X81892857Y-69454819D02*
X81892857Y-68454819D01*
X81892857Y-68454819D02*
X82273809Y-68454819D01*
X82273809Y-68454819D02*
X82369047Y-68502438D01*
X82369047Y-68502438D02*
X82416666Y-68550057D01*
X82416666Y-68550057D02*
X82464285Y-68645295D01*
X82464285Y-68645295D02*
X82464285Y-68788152D01*
X82464285Y-68788152D02*
X82416666Y-68883390D01*
X82416666Y-68883390D02*
X82369047Y-68931009D01*
X82369047Y-68931009D02*
X82273809Y-68978628D01*
X82273809Y-68978628D02*
X81892857Y-68978628D01*
X83321428Y-68788152D02*
X83321428Y-69454819D01*
X83083333Y-68407200D02*
X82845238Y-69121485D01*
X82845238Y-69121485D02*
X83464285Y-69121485D01*
X56573333Y-68204819D02*
X56240000Y-67728628D01*
X56001905Y-68204819D02*
X56001905Y-67204819D01*
X56001905Y-67204819D02*
X56382857Y-67204819D01*
X56382857Y-67204819D02*
X56478095Y-67252438D01*
X56478095Y-67252438D02*
X56525714Y-67300057D01*
X56525714Y-67300057D02*
X56573333Y-67395295D01*
X56573333Y-67395295D02*
X56573333Y-67538152D01*
X56573333Y-67538152D02*
X56525714Y-67633390D01*
X56525714Y-67633390D02*
X56478095Y-67681009D01*
X56478095Y-67681009D02*
X56382857Y-67728628D01*
X56382857Y-67728628D02*
X56001905Y-67728628D01*
X57525714Y-68204819D02*
X56954286Y-68204819D01*
X57240000Y-68204819D02*
X57240000Y-67204819D01*
X57240000Y-67204819D02*
X57144762Y-67347676D01*
X57144762Y-67347676D02*
X57049524Y-67442914D01*
X57049524Y-67442914D02*
X56954286Y-67490533D01*
X39666666Y-83704819D02*
X39666666Y-84419104D01*
X39666666Y-84419104D02*
X39619047Y-84561961D01*
X39619047Y-84561961D02*
X39523809Y-84657200D01*
X39523809Y-84657200D02*
X39380952Y-84704819D01*
X39380952Y-84704819D02*
X39285714Y-84704819D01*
X40047619Y-83704819D02*
X40666666Y-83704819D01*
X40666666Y-83704819D02*
X40333333Y-84085771D01*
X40333333Y-84085771D02*
X40476190Y-84085771D01*
X40476190Y-84085771D02*
X40571428Y-84133390D01*
X40571428Y-84133390D02*
X40619047Y-84181009D01*
X40619047Y-84181009D02*
X40666666Y-84276247D01*
X40666666Y-84276247D02*
X40666666Y-84514342D01*
X40666666Y-84514342D02*
X40619047Y-84609580D01*
X40619047Y-84609580D02*
X40571428Y-84657200D01*
X40571428Y-84657200D02*
X40476190Y-84704819D01*
X40476190Y-84704819D02*
X40190476Y-84704819D01*
X40190476Y-84704819D02*
X40095238Y-84657200D01*
X40095238Y-84657200D02*
X40047619Y-84609580D01*
X92259580Y-90442857D02*
X92307200Y-90490476D01*
X92307200Y-90490476D02*
X92354819Y-90633333D01*
X92354819Y-90633333D02*
X92354819Y-90728571D01*
X92354819Y-90728571D02*
X92307200Y-90871428D01*
X92307200Y-90871428D02*
X92211961Y-90966666D01*
X92211961Y-90966666D02*
X92116723Y-91014285D01*
X92116723Y-91014285D02*
X91926247Y-91061904D01*
X91926247Y-91061904D02*
X91783390Y-91061904D01*
X91783390Y-91061904D02*
X91592914Y-91014285D01*
X91592914Y-91014285D02*
X91497676Y-90966666D01*
X91497676Y-90966666D02*
X91402438Y-90871428D01*
X91402438Y-90871428D02*
X91354819Y-90728571D01*
X91354819Y-90728571D02*
X91354819Y-90633333D01*
X91354819Y-90633333D02*
X91402438Y-90490476D01*
X91402438Y-90490476D02*
X91450057Y-90442857D01*
X92354819Y-89490476D02*
X92354819Y-90061904D01*
X92354819Y-89776190D02*
X91354819Y-89776190D01*
X91354819Y-89776190D02*
X91497676Y-89871428D01*
X91497676Y-89871428D02*
X91592914Y-89966666D01*
X91592914Y-89966666D02*
X91640533Y-90061904D01*
X91450057Y-89109523D02*
X91402438Y-89061904D01*
X91402438Y-89061904D02*
X91354819Y-88966666D01*
X91354819Y-88966666D02*
X91354819Y-88728571D01*
X91354819Y-88728571D02*
X91402438Y-88633333D01*
X91402438Y-88633333D02*
X91450057Y-88585714D01*
X91450057Y-88585714D02*
X91545295Y-88538095D01*
X91545295Y-88538095D02*
X91640533Y-88538095D01*
X91640533Y-88538095D02*
X91783390Y-88585714D01*
X91783390Y-88585714D02*
X92354819Y-89157142D01*
X92354819Y-89157142D02*
X92354819Y-88538095D01*
X80083333Y-100204819D02*
X79750000Y-99728628D01*
X79511905Y-100204819D02*
X79511905Y-99204819D01*
X79511905Y-99204819D02*
X79892857Y-99204819D01*
X79892857Y-99204819D02*
X79988095Y-99252438D01*
X79988095Y-99252438D02*
X80035714Y-99300057D01*
X80035714Y-99300057D02*
X80083333Y-99395295D01*
X80083333Y-99395295D02*
X80083333Y-99538152D01*
X80083333Y-99538152D02*
X80035714Y-99633390D01*
X80035714Y-99633390D02*
X79988095Y-99681009D01*
X79988095Y-99681009D02*
X79892857Y-99728628D01*
X79892857Y-99728628D02*
X79511905Y-99728628D01*
X80940476Y-99204819D02*
X80750000Y-99204819D01*
X80750000Y-99204819D02*
X80654762Y-99252438D01*
X80654762Y-99252438D02*
X80607143Y-99300057D01*
X80607143Y-99300057D02*
X80511905Y-99442914D01*
X80511905Y-99442914D02*
X80464286Y-99633390D01*
X80464286Y-99633390D02*
X80464286Y-100014342D01*
X80464286Y-100014342D02*
X80511905Y-100109580D01*
X80511905Y-100109580D02*
X80559524Y-100157200D01*
X80559524Y-100157200D02*
X80654762Y-100204819D01*
X80654762Y-100204819D02*
X80845238Y-100204819D01*
X80845238Y-100204819D02*
X80940476Y-100157200D01*
X80940476Y-100157200D02*
X80988095Y-100109580D01*
X80988095Y-100109580D02*
X81035714Y-100014342D01*
X81035714Y-100014342D02*
X81035714Y-99776247D01*
X81035714Y-99776247D02*
X80988095Y-99681009D01*
X80988095Y-99681009D02*
X80940476Y-99633390D01*
X80940476Y-99633390D02*
X80845238Y-99585771D01*
X80845238Y-99585771D02*
X80654762Y-99585771D01*
X80654762Y-99585771D02*
X80559524Y-99633390D01*
X80559524Y-99633390D02*
X80511905Y-99681009D01*
X80511905Y-99681009D02*
X80464286Y-99776247D01*
X88433333Y-79359580D02*
X88385714Y-79407200D01*
X88385714Y-79407200D02*
X88242857Y-79454819D01*
X88242857Y-79454819D02*
X88147619Y-79454819D01*
X88147619Y-79454819D02*
X88004762Y-79407200D01*
X88004762Y-79407200D02*
X87909524Y-79311961D01*
X87909524Y-79311961D02*
X87861905Y-79216723D01*
X87861905Y-79216723D02*
X87814286Y-79026247D01*
X87814286Y-79026247D02*
X87814286Y-78883390D01*
X87814286Y-78883390D02*
X87861905Y-78692914D01*
X87861905Y-78692914D02*
X87909524Y-78597676D01*
X87909524Y-78597676D02*
X88004762Y-78502438D01*
X88004762Y-78502438D02*
X88147619Y-78454819D01*
X88147619Y-78454819D02*
X88242857Y-78454819D01*
X88242857Y-78454819D02*
X88385714Y-78502438D01*
X88385714Y-78502438D02*
X88433333Y-78550057D01*
X88766667Y-78454819D02*
X89433333Y-78454819D01*
X89433333Y-78454819D02*
X89004762Y-79454819D01*
X60238095Y-77454819D02*
X60809523Y-77454819D01*
X60523809Y-78454819D02*
X60523809Y-77454819D01*
X61142857Y-78454819D02*
X61142857Y-77454819D01*
X61142857Y-77454819D02*
X61523809Y-77454819D01*
X61523809Y-77454819D02*
X61619047Y-77502438D01*
X61619047Y-77502438D02*
X61666666Y-77550057D01*
X61666666Y-77550057D02*
X61714285Y-77645295D01*
X61714285Y-77645295D02*
X61714285Y-77788152D01*
X61714285Y-77788152D02*
X61666666Y-77883390D01*
X61666666Y-77883390D02*
X61619047Y-77931009D01*
X61619047Y-77931009D02*
X61523809Y-77978628D01*
X61523809Y-77978628D02*
X61142857Y-77978628D01*
X62666666Y-78454819D02*
X62095238Y-78454819D01*
X62380952Y-78454819D02*
X62380952Y-77454819D01*
X62380952Y-77454819D02*
X62285714Y-77597676D01*
X62285714Y-77597676D02*
X62190476Y-77692914D01*
X62190476Y-77692914D02*
X62095238Y-77740533D01*
X85609580Y-100142857D02*
X85657200Y-100190476D01*
X85657200Y-100190476D02*
X85704819Y-100333333D01*
X85704819Y-100333333D02*
X85704819Y-100428571D01*
X85704819Y-100428571D02*
X85657200Y-100571428D01*
X85657200Y-100571428D02*
X85561961Y-100666666D01*
X85561961Y-100666666D02*
X85466723Y-100714285D01*
X85466723Y-100714285D02*
X85276247Y-100761904D01*
X85276247Y-100761904D02*
X85133390Y-100761904D01*
X85133390Y-100761904D02*
X84942914Y-100714285D01*
X84942914Y-100714285D02*
X84847676Y-100666666D01*
X84847676Y-100666666D02*
X84752438Y-100571428D01*
X84752438Y-100571428D02*
X84704819Y-100428571D01*
X84704819Y-100428571D02*
X84704819Y-100333333D01*
X84704819Y-100333333D02*
X84752438Y-100190476D01*
X84752438Y-100190476D02*
X84800057Y-100142857D01*
X84800057Y-99761904D02*
X84752438Y-99714285D01*
X84752438Y-99714285D02*
X84704819Y-99619047D01*
X84704819Y-99619047D02*
X84704819Y-99380952D01*
X84704819Y-99380952D02*
X84752438Y-99285714D01*
X84752438Y-99285714D02*
X84800057Y-99238095D01*
X84800057Y-99238095D02*
X84895295Y-99190476D01*
X84895295Y-99190476D02*
X84990533Y-99190476D01*
X84990533Y-99190476D02*
X85133390Y-99238095D01*
X85133390Y-99238095D02*
X85704819Y-99809523D01*
X85704819Y-99809523D02*
X85704819Y-99190476D01*
X84704819Y-98857142D02*
X84704819Y-98190476D01*
X84704819Y-98190476D02*
X85704819Y-98619047D01*
X61544819Y-104238094D02*
X60544819Y-104238094D01*
X60544819Y-104238094D02*
X60544819Y-103999999D01*
X60544819Y-103999999D02*
X60592438Y-103857142D01*
X60592438Y-103857142D02*
X60687676Y-103761904D01*
X60687676Y-103761904D02*
X60782914Y-103714285D01*
X60782914Y-103714285D02*
X60973390Y-103666666D01*
X60973390Y-103666666D02*
X61116247Y-103666666D01*
X61116247Y-103666666D02*
X61306723Y-103714285D01*
X61306723Y-103714285D02*
X61401961Y-103761904D01*
X61401961Y-103761904D02*
X61497200Y-103857142D01*
X61497200Y-103857142D02*
X61544819Y-103999999D01*
X61544819Y-103999999D02*
X61544819Y-104238094D01*
X60544819Y-103333332D02*
X60544819Y-102714285D01*
X60544819Y-102714285D02*
X60925771Y-103047618D01*
X60925771Y-103047618D02*
X60925771Y-102904761D01*
X60925771Y-102904761D02*
X60973390Y-102809523D01*
X60973390Y-102809523D02*
X61021009Y-102761904D01*
X61021009Y-102761904D02*
X61116247Y-102714285D01*
X61116247Y-102714285D02*
X61354342Y-102714285D01*
X61354342Y-102714285D02*
X61449580Y-102761904D01*
X61449580Y-102761904D02*
X61497200Y-102809523D01*
X61497200Y-102809523D02*
X61544819Y-102904761D01*
X61544819Y-102904761D02*
X61544819Y-103190475D01*
X61544819Y-103190475D02*
X61497200Y-103285713D01*
X61497200Y-103285713D02*
X61449580Y-103333332D01*
X75511905Y-68454819D02*
X76083333Y-68454819D01*
X75797619Y-69454819D02*
X75797619Y-68454819D01*
X76416667Y-69454819D02*
X76416667Y-68454819D01*
X76416667Y-68454819D02*
X76797619Y-68454819D01*
X76797619Y-68454819D02*
X76892857Y-68502438D01*
X76892857Y-68502438D02*
X76940476Y-68550057D01*
X76940476Y-68550057D02*
X76988095Y-68645295D01*
X76988095Y-68645295D02*
X76988095Y-68788152D01*
X76988095Y-68788152D02*
X76940476Y-68883390D01*
X76940476Y-68883390D02*
X76892857Y-68931009D01*
X76892857Y-68931009D02*
X76797619Y-68978628D01*
X76797619Y-68978628D02*
X76416667Y-68978628D01*
X77940476Y-69454819D02*
X77369048Y-69454819D01*
X77654762Y-69454819D02*
X77654762Y-68454819D01*
X77654762Y-68454819D02*
X77559524Y-68597676D01*
X77559524Y-68597676D02*
X77464286Y-68692914D01*
X77464286Y-68692914D02*
X77369048Y-68740533D01*
X78892857Y-69454819D02*
X78321429Y-69454819D01*
X78607143Y-69454819D02*
X78607143Y-68454819D01*
X78607143Y-68454819D02*
X78511905Y-68597676D01*
X78511905Y-68597676D02*
X78416667Y-68692914D01*
X78416667Y-68692914D02*
X78321429Y-68740533D01*
X73833333Y-73359580D02*
X73785714Y-73407200D01*
X73785714Y-73407200D02*
X73642857Y-73454819D01*
X73642857Y-73454819D02*
X73547619Y-73454819D01*
X73547619Y-73454819D02*
X73404762Y-73407200D01*
X73404762Y-73407200D02*
X73309524Y-73311961D01*
X73309524Y-73311961D02*
X73261905Y-73216723D01*
X73261905Y-73216723D02*
X73214286Y-73026247D01*
X73214286Y-73026247D02*
X73214286Y-72883390D01*
X73214286Y-72883390D02*
X73261905Y-72692914D01*
X73261905Y-72692914D02*
X73309524Y-72597676D01*
X73309524Y-72597676D02*
X73404762Y-72502438D01*
X73404762Y-72502438D02*
X73547619Y-72454819D01*
X73547619Y-72454819D02*
X73642857Y-72454819D01*
X73642857Y-72454819D02*
X73785714Y-72502438D01*
X73785714Y-72502438D02*
X73833333Y-72550057D01*
X74785714Y-73454819D02*
X74214286Y-73454819D01*
X74500000Y-73454819D02*
X74500000Y-72454819D01*
X74500000Y-72454819D02*
X74404762Y-72597676D01*
X74404762Y-72597676D02*
X74309524Y-72692914D01*
X74309524Y-72692914D02*
X74214286Y-72740533D01*
X89664819Y-103083333D02*
X90379104Y-103083333D01*
X90379104Y-103083333D02*
X90521961Y-103130952D01*
X90521961Y-103130952D02*
X90617200Y-103226190D01*
X90617200Y-103226190D02*
X90664819Y-103369047D01*
X90664819Y-103369047D02*
X90664819Y-103464285D01*
X89664819Y-102130952D02*
X89664819Y-102607142D01*
X89664819Y-102607142D02*
X90141009Y-102654761D01*
X90141009Y-102654761D02*
X90093390Y-102607142D01*
X90093390Y-102607142D02*
X90045771Y-102511904D01*
X90045771Y-102511904D02*
X90045771Y-102273809D01*
X90045771Y-102273809D02*
X90093390Y-102178571D01*
X90093390Y-102178571D02*
X90141009Y-102130952D01*
X90141009Y-102130952D02*
X90236247Y-102083333D01*
X90236247Y-102083333D02*
X90474342Y-102083333D01*
X90474342Y-102083333D02*
X90569580Y-102130952D01*
X90569580Y-102130952D02*
X90617200Y-102178571D01*
X90617200Y-102178571D02*
X90664819Y-102273809D01*
X90664819Y-102273809D02*
X90664819Y-102511904D01*
X90664819Y-102511904D02*
X90617200Y-102607142D01*
X90617200Y-102607142D02*
X90569580Y-102654761D01*
X61454819Y-95742857D02*
X60978628Y-96076190D01*
X61454819Y-96314285D02*
X60454819Y-96314285D01*
X60454819Y-96314285D02*
X60454819Y-95933333D01*
X60454819Y-95933333D02*
X60502438Y-95838095D01*
X60502438Y-95838095D02*
X60550057Y-95790476D01*
X60550057Y-95790476D02*
X60645295Y-95742857D01*
X60645295Y-95742857D02*
X60788152Y-95742857D01*
X60788152Y-95742857D02*
X60883390Y-95790476D01*
X60883390Y-95790476D02*
X60931009Y-95838095D01*
X60931009Y-95838095D02*
X60978628Y-95933333D01*
X60978628Y-95933333D02*
X60978628Y-96314285D01*
X61454819Y-94790476D02*
X61454819Y-95361904D01*
X61454819Y-95076190D02*
X60454819Y-95076190D01*
X60454819Y-95076190D02*
X60597676Y-95171428D01*
X60597676Y-95171428D02*
X60692914Y-95266666D01*
X60692914Y-95266666D02*
X60740533Y-95361904D01*
X60454819Y-94171428D02*
X60454819Y-94076190D01*
X60454819Y-94076190D02*
X60502438Y-93980952D01*
X60502438Y-93980952D02*
X60550057Y-93933333D01*
X60550057Y-93933333D02*
X60645295Y-93885714D01*
X60645295Y-93885714D02*
X60835771Y-93838095D01*
X60835771Y-93838095D02*
X61073866Y-93838095D01*
X61073866Y-93838095D02*
X61264342Y-93885714D01*
X61264342Y-93885714D02*
X61359580Y-93933333D01*
X61359580Y-93933333D02*
X61407200Y-93980952D01*
X61407200Y-93980952D02*
X61454819Y-94076190D01*
X61454819Y-94076190D02*
X61454819Y-94171428D01*
X61454819Y-94171428D02*
X61407200Y-94266666D01*
X61407200Y-94266666D02*
X61359580Y-94314285D01*
X61359580Y-94314285D02*
X61264342Y-94361904D01*
X61264342Y-94361904D02*
X61073866Y-94409523D01*
X61073866Y-94409523D02*
X60835771Y-94409523D01*
X60835771Y-94409523D02*
X60645295Y-94361904D01*
X60645295Y-94361904D02*
X60550057Y-94314285D01*
X60550057Y-94314285D02*
X60502438Y-94266666D01*
X60502438Y-94266666D02*
X60454819Y-94171428D01*
X77833333Y-100204819D02*
X77500000Y-99728628D01*
X77261905Y-100204819D02*
X77261905Y-99204819D01*
X77261905Y-99204819D02*
X77642857Y-99204819D01*
X77642857Y-99204819D02*
X77738095Y-99252438D01*
X77738095Y-99252438D02*
X77785714Y-99300057D01*
X77785714Y-99300057D02*
X77833333Y-99395295D01*
X77833333Y-99395295D02*
X77833333Y-99538152D01*
X77833333Y-99538152D02*
X77785714Y-99633390D01*
X77785714Y-99633390D02*
X77738095Y-99681009D01*
X77738095Y-99681009D02*
X77642857Y-99728628D01*
X77642857Y-99728628D02*
X77261905Y-99728628D01*
X78738095Y-99204819D02*
X78261905Y-99204819D01*
X78261905Y-99204819D02*
X78214286Y-99681009D01*
X78214286Y-99681009D02*
X78261905Y-99633390D01*
X78261905Y-99633390D02*
X78357143Y-99585771D01*
X78357143Y-99585771D02*
X78595238Y-99585771D01*
X78595238Y-99585771D02*
X78690476Y-99633390D01*
X78690476Y-99633390D02*
X78738095Y-99681009D01*
X78738095Y-99681009D02*
X78785714Y-99776247D01*
X78785714Y-99776247D02*
X78785714Y-100014342D01*
X78785714Y-100014342D02*
X78738095Y-100109580D01*
X78738095Y-100109580D02*
X78690476Y-100157200D01*
X78690476Y-100157200D02*
X78595238Y-100204819D01*
X78595238Y-100204819D02*
X78357143Y-100204819D01*
X78357143Y-100204819D02*
X78261905Y-100157200D01*
X78261905Y-100157200D02*
X78214286Y-100109580D01*
X51607142Y-81359580D02*
X51559523Y-81407200D01*
X51559523Y-81407200D02*
X51416666Y-81454819D01*
X51416666Y-81454819D02*
X51321428Y-81454819D01*
X51321428Y-81454819D02*
X51178571Y-81407200D01*
X51178571Y-81407200D02*
X51083333Y-81311961D01*
X51083333Y-81311961D02*
X51035714Y-81216723D01*
X51035714Y-81216723D02*
X50988095Y-81026247D01*
X50988095Y-81026247D02*
X50988095Y-80883390D01*
X50988095Y-80883390D02*
X51035714Y-80692914D01*
X51035714Y-80692914D02*
X51083333Y-80597676D01*
X51083333Y-80597676D02*
X51178571Y-80502438D01*
X51178571Y-80502438D02*
X51321428Y-80454819D01*
X51321428Y-80454819D02*
X51416666Y-80454819D01*
X51416666Y-80454819D02*
X51559523Y-80502438D01*
X51559523Y-80502438D02*
X51607142Y-80550057D01*
X52559523Y-81454819D02*
X51988095Y-81454819D01*
X52273809Y-81454819D02*
X52273809Y-80454819D01*
X52273809Y-80454819D02*
X52178571Y-80597676D01*
X52178571Y-80597676D02*
X52083333Y-80692914D01*
X52083333Y-80692914D02*
X51988095Y-80740533D01*
X53130952Y-80883390D02*
X53035714Y-80835771D01*
X53035714Y-80835771D02*
X52988095Y-80788152D01*
X52988095Y-80788152D02*
X52940476Y-80692914D01*
X52940476Y-80692914D02*
X52940476Y-80645295D01*
X52940476Y-80645295D02*
X52988095Y-80550057D01*
X52988095Y-80550057D02*
X53035714Y-80502438D01*
X53035714Y-80502438D02*
X53130952Y-80454819D01*
X53130952Y-80454819D02*
X53321428Y-80454819D01*
X53321428Y-80454819D02*
X53416666Y-80502438D01*
X53416666Y-80502438D02*
X53464285Y-80550057D01*
X53464285Y-80550057D02*
X53511904Y-80645295D01*
X53511904Y-80645295D02*
X53511904Y-80692914D01*
X53511904Y-80692914D02*
X53464285Y-80788152D01*
X53464285Y-80788152D02*
X53416666Y-80835771D01*
X53416666Y-80835771D02*
X53321428Y-80883390D01*
X53321428Y-80883390D02*
X53130952Y-80883390D01*
X53130952Y-80883390D02*
X53035714Y-80931009D01*
X53035714Y-80931009D02*
X52988095Y-80978628D01*
X52988095Y-80978628D02*
X52940476Y-81073866D01*
X52940476Y-81073866D02*
X52940476Y-81264342D01*
X52940476Y-81264342D02*
X52988095Y-81359580D01*
X52988095Y-81359580D02*
X53035714Y-81407200D01*
X53035714Y-81407200D02*
X53130952Y-81454819D01*
X53130952Y-81454819D02*
X53321428Y-81454819D01*
X53321428Y-81454819D02*
X53416666Y-81407200D01*
X53416666Y-81407200D02*
X53464285Y-81359580D01*
X53464285Y-81359580D02*
X53511904Y-81264342D01*
X53511904Y-81264342D02*
X53511904Y-81073866D01*
X53511904Y-81073866D02*
X53464285Y-80978628D01*
X53464285Y-80978628D02*
X53416666Y-80931009D01*
X53416666Y-80931009D02*
X53321428Y-80883390D01*
X91523809Y-81728628D02*
X91523809Y-82204819D01*
X91190476Y-81204819D02*
X91523809Y-81728628D01*
X91523809Y-81728628D02*
X91857142Y-81204819D01*
X92095238Y-81204819D02*
X92714285Y-81204819D01*
X92714285Y-81204819D02*
X92380952Y-81585771D01*
X92380952Y-81585771D02*
X92523809Y-81585771D01*
X92523809Y-81585771D02*
X92619047Y-81633390D01*
X92619047Y-81633390D02*
X92666666Y-81681009D01*
X92666666Y-81681009D02*
X92714285Y-81776247D01*
X92714285Y-81776247D02*
X92714285Y-82014342D01*
X92714285Y-82014342D02*
X92666666Y-82109580D01*
X92666666Y-82109580D02*
X92619047Y-82157200D01*
X92619047Y-82157200D02*
X92523809Y-82204819D01*
X92523809Y-82204819D02*
X92238095Y-82204819D01*
X92238095Y-82204819D02*
X92142857Y-82157200D01*
X92142857Y-82157200D02*
X92095238Y-82109580D01*
X70761905Y-68454819D02*
X71333333Y-68454819D01*
X71047619Y-69454819D02*
X71047619Y-68454819D01*
X71666667Y-69454819D02*
X71666667Y-68454819D01*
X71666667Y-68454819D02*
X72047619Y-68454819D01*
X72047619Y-68454819D02*
X72142857Y-68502438D01*
X72142857Y-68502438D02*
X72190476Y-68550057D01*
X72190476Y-68550057D02*
X72238095Y-68645295D01*
X72238095Y-68645295D02*
X72238095Y-68788152D01*
X72238095Y-68788152D02*
X72190476Y-68883390D01*
X72190476Y-68883390D02*
X72142857Y-68931009D01*
X72142857Y-68931009D02*
X72047619Y-68978628D01*
X72047619Y-68978628D02*
X71666667Y-68978628D01*
X73190476Y-69454819D02*
X72619048Y-69454819D01*
X72904762Y-69454819D02*
X72904762Y-68454819D01*
X72904762Y-68454819D02*
X72809524Y-68597676D01*
X72809524Y-68597676D02*
X72714286Y-68692914D01*
X72714286Y-68692914D02*
X72619048Y-68740533D01*
X73809524Y-68454819D02*
X73904762Y-68454819D01*
X73904762Y-68454819D02*
X74000000Y-68502438D01*
X74000000Y-68502438D02*
X74047619Y-68550057D01*
X74047619Y-68550057D02*
X74095238Y-68645295D01*
X74095238Y-68645295D02*
X74142857Y-68835771D01*
X74142857Y-68835771D02*
X74142857Y-69073866D01*
X74142857Y-69073866D02*
X74095238Y-69264342D01*
X74095238Y-69264342D02*
X74047619Y-69359580D01*
X74047619Y-69359580D02*
X74000000Y-69407200D01*
X74000000Y-69407200D02*
X73904762Y-69454819D01*
X73904762Y-69454819D02*
X73809524Y-69454819D01*
X73809524Y-69454819D02*
X73714286Y-69407200D01*
X73714286Y-69407200D02*
X73666667Y-69359580D01*
X73666667Y-69359580D02*
X73619048Y-69264342D01*
X73619048Y-69264342D02*
X73571429Y-69073866D01*
X73571429Y-69073866D02*
X73571429Y-68835771D01*
X73571429Y-68835771D02*
X73619048Y-68645295D01*
X73619048Y-68645295D02*
X73666667Y-68550057D01*
X73666667Y-68550057D02*
X73714286Y-68502438D01*
X73714286Y-68502438D02*
X73809524Y-68454819D01*
X64988095Y-82954819D02*
X65559523Y-82954819D01*
X65273809Y-83954819D02*
X65273809Y-82954819D01*
X65892857Y-83954819D02*
X65892857Y-82954819D01*
X65892857Y-82954819D02*
X66273809Y-82954819D01*
X66273809Y-82954819D02*
X66369047Y-83002438D01*
X66369047Y-83002438D02*
X66416666Y-83050057D01*
X66416666Y-83050057D02*
X66464285Y-83145295D01*
X66464285Y-83145295D02*
X66464285Y-83288152D01*
X66464285Y-83288152D02*
X66416666Y-83383390D01*
X66416666Y-83383390D02*
X66369047Y-83431009D01*
X66369047Y-83431009D02*
X66273809Y-83478628D01*
X66273809Y-83478628D02*
X65892857Y-83478628D01*
X66797619Y-82954819D02*
X67416666Y-82954819D01*
X67416666Y-82954819D02*
X67083333Y-83335771D01*
X67083333Y-83335771D02*
X67226190Y-83335771D01*
X67226190Y-83335771D02*
X67321428Y-83383390D01*
X67321428Y-83383390D02*
X67369047Y-83431009D01*
X67369047Y-83431009D02*
X67416666Y-83526247D01*
X67416666Y-83526247D02*
X67416666Y-83764342D01*
X67416666Y-83764342D02*
X67369047Y-83859580D01*
X67369047Y-83859580D02*
X67321428Y-83907200D01*
X67321428Y-83907200D02*
X67226190Y-83954819D01*
X67226190Y-83954819D02*
X66940476Y-83954819D01*
X66940476Y-83954819D02*
X66845238Y-83907200D01*
X66845238Y-83907200D02*
X66797619Y-83859580D01*
X53666666Y-102954819D02*
X53666666Y-103669104D01*
X53666666Y-103669104D02*
X53619047Y-103811961D01*
X53619047Y-103811961D02*
X53523809Y-103907200D01*
X53523809Y-103907200D02*
X53380952Y-103954819D01*
X53380952Y-103954819D02*
X53285714Y-103954819D01*
X54095238Y-103050057D02*
X54142857Y-103002438D01*
X54142857Y-103002438D02*
X54238095Y-102954819D01*
X54238095Y-102954819D02*
X54476190Y-102954819D01*
X54476190Y-102954819D02*
X54571428Y-103002438D01*
X54571428Y-103002438D02*
X54619047Y-103050057D01*
X54619047Y-103050057D02*
X54666666Y-103145295D01*
X54666666Y-103145295D02*
X54666666Y-103240533D01*
X54666666Y-103240533D02*
X54619047Y-103383390D01*
X54619047Y-103383390D02*
X54047619Y-103954819D01*
X54047619Y-103954819D02*
X54666666Y-103954819D01*
X69833333Y-73609580D02*
X69785714Y-73657200D01*
X69785714Y-73657200D02*
X69642857Y-73704819D01*
X69642857Y-73704819D02*
X69547619Y-73704819D01*
X69547619Y-73704819D02*
X69404762Y-73657200D01*
X69404762Y-73657200D02*
X69309524Y-73561961D01*
X69309524Y-73561961D02*
X69261905Y-73466723D01*
X69261905Y-73466723D02*
X69214286Y-73276247D01*
X69214286Y-73276247D02*
X69214286Y-73133390D01*
X69214286Y-73133390D02*
X69261905Y-72942914D01*
X69261905Y-72942914D02*
X69309524Y-72847676D01*
X69309524Y-72847676D02*
X69404762Y-72752438D01*
X69404762Y-72752438D02*
X69547619Y-72704819D01*
X69547619Y-72704819D02*
X69642857Y-72704819D01*
X69642857Y-72704819D02*
X69785714Y-72752438D01*
X69785714Y-72752438D02*
X69833333Y-72800057D01*
X70214286Y-72800057D02*
X70261905Y-72752438D01*
X70261905Y-72752438D02*
X70357143Y-72704819D01*
X70357143Y-72704819D02*
X70595238Y-72704819D01*
X70595238Y-72704819D02*
X70690476Y-72752438D01*
X70690476Y-72752438D02*
X70738095Y-72800057D01*
X70738095Y-72800057D02*
X70785714Y-72895295D01*
X70785714Y-72895295D02*
X70785714Y-72990533D01*
X70785714Y-72990533D02*
X70738095Y-73133390D01*
X70738095Y-73133390D02*
X70166667Y-73704819D01*
X70166667Y-73704819D02*
X70785714Y-73704819D01*
X56107142Y-81359580D02*
X56059523Y-81407200D01*
X56059523Y-81407200D02*
X55916666Y-81454819D01*
X55916666Y-81454819D02*
X55821428Y-81454819D01*
X55821428Y-81454819D02*
X55678571Y-81407200D01*
X55678571Y-81407200D02*
X55583333Y-81311961D01*
X55583333Y-81311961D02*
X55535714Y-81216723D01*
X55535714Y-81216723D02*
X55488095Y-81026247D01*
X55488095Y-81026247D02*
X55488095Y-80883390D01*
X55488095Y-80883390D02*
X55535714Y-80692914D01*
X55535714Y-80692914D02*
X55583333Y-80597676D01*
X55583333Y-80597676D02*
X55678571Y-80502438D01*
X55678571Y-80502438D02*
X55821428Y-80454819D01*
X55821428Y-80454819D02*
X55916666Y-80454819D01*
X55916666Y-80454819D02*
X56059523Y-80502438D01*
X56059523Y-80502438D02*
X56107142Y-80550057D01*
X56488095Y-80550057D02*
X56535714Y-80502438D01*
X56535714Y-80502438D02*
X56630952Y-80454819D01*
X56630952Y-80454819D02*
X56869047Y-80454819D01*
X56869047Y-80454819D02*
X56964285Y-80502438D01*
X56964285Y-80502438D02*
X57011904Y-80550057D01*
X57011904Y-80550057D02*
X57059523Y-80645295D01*
X57059523Y-80645295D02*
X57059523Y-80740533D01*
X57059523Y-80740533D02*
X57011904Y-80883390D01*
X57011904Y-80883390D02*
X56440476Y-81454819D01*
X56440476Y-81454819D02*
X57059523Y-81454819D01*
X57392857Y-80454819D02*
X58011904Y-80454819D01*
X58011904Y-80454819D02*
X57678571Y-80835771D01*
X57678571Y-80835771D02*
X57821428Y-80835771D01*
X57821428Y-80835771D02*
X57916666Y-80883390D01*
X57916666Y-80883390D02*
X57964285Y-80931009D01*
X57964285Y-80931009D02*
X58011904Y-81026247D01*
X58011904Y-81026247D02*
X58011904Y-81264342D01*
X58011904Y-81264342D02*
X57964285Y-81359580D01*
X57964285Y-81359580D02*
X57916666Y-81407200D01*
X57916666Y-81407200D02*
X57821428Y-81454819D01*
X57821428Y-81454819D02*
X57535714Y-81454819D01*
X57535714Y-81454819D02*
X57440476Y-81407200D01*
X57440476Y-81407200D02*
X57392857Y-81359580D01*
X56357142Y-73109580D02*
X56309523Y-73157200D01*
X56309523Y-73157200D02*
X56166666Y-73204819D01*
X56166666Y-73204819D02*
X56071428Y-73204819D01*
X56071428Y-73204819D02*
X55928571Y-73157200D01*
X55928571Y-73157200D02*
X55833333Y-73061961D01*
X55833333Y-73061961D02*
X55785714Y-72966723D01*
X55785714Y-72966723D02*
X55738095Y-72776247D01*
X55738095Y-72776247D02*
X55738095Y-72633390D01*
X55738095Y-72633390D02*
X55785714Y-72442914D01*
X55785714Y-72442914D02*
X55833333Y-72347676D01*
X55833333Y-72347676D02*
X55928571Y-72252438D01*
X55928571Y-72252438D02*
X56071428Y-72204819D01*
X56071428Y-72204819D02*
X56166666Y-72204819D01*
X56166666Y-72204819D02*
X56309523Y-72252438D01*
X56309523Y-72252438D02*
X56357142Y-72300057D01*
X56738095Y-72300057D02*
X56785714Y-72252438D01*
X56785714Y-72252438D02*
X56880952Y-72204819D01*
X56880952Y-72204819D02*
X57119047Y-72204819D01*
X57119047Y-72204819D02*
X57214285Y-72252438D01*
X57214285Y-72252438D02*
X57261904Y-72300057D01*
X57261904Y-72300057D02*
X57309523Y-72395295D01*
X57309523Y-72395295D02*
X57309523Y-72490533D01*
X57309523Y-72490533D02*
X57261904Y-72633390D01*
X57261904Y-72633390D02*
X56690476Y-73204819D01*
X56690476Y-73204819D02*
X57309523Y-73204819D01*
X57880952Y-72633390D02*
X57785714Y-72585771D01*
X57785714Y-72585771D02*
X57738095Y-72538152D01*
X57738095Y-72538152D02*
X57690476Y-72442914D01*
X57690476Y-72442914D02*
X57690476Y-72395295D01*
X57690476Y-72395295D02*
X57738095Y-72300057D01*
X57738095Y-72300057D02*
X57785714Y-72252438D01*
X57785714Y-72252438D02*
X57880952Y-72204819D01*
X57880952Y-72204819D02*
X58071428Y-72204819D01*
X58071428Y-72204819D02*
X58166666Y-72252438D01*
X58166666Y-72252438D02*
X58214285Y-72300057D01*
X58214285Y-72300057D02*
X58261904Y-72395295D01*
X58261904Y-72395295D02*
X58261904Y-72442914D01*
X58261904Y-72442914D02*
X58214285Y-72538152D01*
X58214285Y-72538152D02*
X58166666Y-72585771D01*
X58166666Y-72585771D02*
X58071428Y-72633390D01*
X58071428Y-72633390D02*
X57880952Y-72633390D01*
X57880952Y-72633390D02*
X57785714Y-72681009D01*
X57785714Y-72681009D02*
X57738095Y-72728628D01*
X57738095Y-72728628D02*
X57690476Y-72823866D01*
X57690476Y-72823866D02*
X57690476Y-73014342D01*
X57690476Y-73014342D02*
X57738095Y-73109580D01*
X57738095Y-73109580D02*
X57785714Y-73157200D01*
X57785714Y-73157200D02*
X57880952Y-73204819D01*
X57880952Y-73204819D02*
X58071428Y-73204819D01*
X58071428Y-73204819D02*
X58166666Y-73157200D01*
X58166666Y-73157200D02*
X58214285Y-73109580D01*
X58214285Y-73109580D02*
X58261904Y-73014342D01*
X58261904Y-73014342D02*
X58261904Y-72823866D01*
X58261904Y-72823866D02*
X58214285Y-72728628D01*
X58214285Y-72728628D02*
X58166666Y-72681009D01*
X58166666Y-72681009D02*
X58071428Y-72633390D01*
X57254819Y-95666666D02*
X56778628Y-95999999D01*
X57254819Y-96238094D02*
X56254819Y-96238094D01*
X56254819Y-96238094D02*
X56254819Y-95857142D01*
X56254819Y-95857142D02*
X56302438Y-95761904D01*
X56302438Y-95761904D02*
X56350057Y-95714285D01*
X56350057Y-95714285D02*
X56445295Y-95666666D01*
X56445295Y-95666666D02*
X56588152Y-95666666D01*
X56588152Y-95666666D02*
X56683390Y-95714285D01*
X56683390Y-95714285D02*
X56731009Y-95761904D01*
X56731009Y-95761904D02*
X56778628Y-95857142D01*
X56778628Y-95857142D02*
X56778628Y-96238094D01*
X56683390Y-95095237D02*
X56635771Y-95190475D01*
X56635771Y-95190475D02*
X56588152Y-95238094D01*
X56588152Y-95238094D02*
X56492914Y-95285713D01*
X56492914Y-95285713D02*
X56445295Y-95285713D01*
X56445295Y-95285713D02*
X56350057Y-95238094D01*
X56350057Y-95238094D02*
X56302438Y-95190475D01*
X56302438Y-95190475D02*
X56254819Y-95095237D01*
X56254819Y-95095237D02*
X56254819Y-94904761D01*
X56254819Y-94904761D02*
X56302438Y-94809523D01*
X56302438Y-94809523D02*
X56350057Y-94761904D01*
X56350057Y-94761904D02*
X56445295Y-94714285D01*
X56445295Y-94714285D02*
X56492914Y-94714285D01*
X56492914Y-94714285D02*
X56588152Y-94761904D01*
X56588152Y-94761904D02*
X56635771Y-94809523D01*
X56635771Y-94809523D02*
X56683390Y-94904761D01*
X56683390Y-94904761D02*
X56683390Y-95095237D01*
X56683390Y-95095237D02*
X56731009Y-95190475D01*
X56731009Y-95190475D02*
X56778628Y-95238094D01*
X56778628Y-95238094D02*
X56873866Y-95285713D01*
X56873866Y-95285713D02*
X57064342Y-95285713D01*
X57064342Y-95285713D02*
X57159580Y-95238094D01*
X57159580Y-95238094D02*
X57207200Y-95190475D01*
X57207200Y-95190475D02*
X57254819Y-95095237D01*
X57254819Y-95095237D02*
X57254819Y-94904761D01*
X57254819Y-94904761D02*
X57207200Y-94809523D01*
X57207200Y-94809523D02*
X57159580Y-94761904D01*
X57159580Y-94761904D02*
X57064342Y-94714285D01*
X57064342Y-94714285D02*
X56873866Y-94714285D01*
X56873866Y-94714285D02*
X56778628Y-94761904D01*
X56778628Y-94761904D02*
X56731009Y-94809523D01*
X56731009Y-94809523D02*
X56683390Y-94904761D01*
X106738095Y-72954819D02*
X107309523Y-72954819D01*
X107023809Y-73954819D02*
X107023809Y-72954819D01*
X107642857Y-73954819D02*
X107642857Y-72954819D01*
X107642857Y-72954819D02*
X108023809Y-72954819D01*
X108023809Y-72954819D02*
X108119047Y-73002438D01*
X108119047Y-73002438D02*
X108166666Y-73050057D01*
X108166666Y-73050057D02*
X108214285Y-73145295D01*
X108214285Y-73145295D02*
X108214285Y-73288152D01*
X108214285Y-73288152D02*
X108166666Y-73383390D01*
X108166666Y-73383390D02*
X108119047Y-73431009D01*
X108119047Y-73431009D02*
X108023809Y-73478628D01*
X108023809Y-73478628D02*
X107642857Y-73478628D01*
X109119047Y-72954819D02*
X108642857Y-72954819D01*
X108642857Y-72954819D02*
X108595238Y-73431009D01*
X108595238Y-73431009D02*
X108642857Y-73383390D01*
X108642857Y-73383390D02*
X108738095Y-73335771D01*
X108738095Y-73335771D02*
X108976190Y-73335771D01*
X108976190Y-73335771D02*
X109071428Y-73383390D01*
X109071428Y-73383390D02*
X109119047Y-73431009D01*
X109119047Y-73431009D02*
X109166666Y-73526247D01*
X109166666Y-73526247D02*
X109166666Y-73764342D01*
X109166666Y-73764342D02*
X109119047Y-73859580D01*
X109119047Y-73859580D02*
X109071428Y-73907200D01*
X109071428Y-73907200D02*
X108976190Y-73954819D01*
X108976190Y-73954819D02*
X108738095Y-73954819D01*
X108738095Y-73954819D02*
X108642857Y-73907200D01*
X108642857Y-73907200D02*
X108595238Y-73859580D01*
X106188095Y-77854819D02*
X106188095Y-78664342D01*
X106188095Y-78664342D02*
X106235714Y-78759580D01*
X106235714Y-78759580D02*
X106283333Y-78807200D01*
X106283333Y-78807200D02*
X106378571Y-78854819D01*
X106378571Y-78854819D02*
X106569047Y-78854819D01*
X106569047Y-78854819D02*
X106664285Y-78807200D01*
X106664285Y-78807200D02*
X106711904Y-78759580D01*
X106711904Y-78759580D02*
X106759523Y-78664342D01*
X106759523Y-78664342D02*
X106759523Y-77854819D01*
X107140476Y-77854819D02*
X107807142Y-77854819D01*
X107807142Y-77854819D02*
X107378571Y-78854819D01*
X88057142Y-96459580D02*
X88009523Y-96507200D01*
X88009523Y-96507200D02*
X87866666Y-96554819D01*
X87866666Y-96554819D02*
X87771428Y-96554819D01*
X87771428Y-96554819D02*
X87628571Y-96507200D01*
X87628571Y-96507200D02*
X87533333Y-96411961D01*
X87533333Y-96411961D02*
X87485714Y-96316723D01*
X87485714Y-96316723D02*
X87438095Y-96126247D01*
X87438095Y-96126247D02*
X87438095Y-95983390D01*
X87438095Y-95983390D02*
X87485714Y-95792914D01*
X87485714Y-95792914D02*
X87533333Y-95697676D01*
X87533333Y-95697676D02*
X87628571Y-95602438D01*
X87628571Y-95602438D02*
X87771428Y-95554819D01*
X87771428Y-95554819D02*
X87866666Y-95554819D01*
X87866666Y-95554819D02*
X88009523Y-95602438D01*
X88009523Y-95602438D02*
X88057142Y-95650057D01*
X89009523Y-96554819D02*
X88438095Y-96554819D01*
X88723809Y-96554819D02*
X88723809Y-95554819D01*
X88723809Y-95554819D02*
X88628571Y-95697676D01*
X88628571Y-95697676D02*
X88533333Y-95792914D01*
X88533333Y-95792914D02*
X88438095Y-95840533D01*
X89628571Y-95554819D02*
X89723809Y-95554819D01*
X89723809Y-95554819D02*
X89819047Y-95602438D01*
X89819047Y-95602438D02*
X89866666Y-95650057D01*
X89866666Y-95650057D02*
X89914285Y-95745295D01*
X89914285Y-95745295D02*
X89961904Y-95935771D01*
X89961904Y-95935771D02*
X89961904Y-96173866D01*
X89961904Y-96173866D02*
X89914285Y-96364342D01*
X89914285Y-96364342D02*
X89866666Y-96459580D01*
X89866666Y-96459580D02*
X89819047Y-96507200D01*
X89819047Y-96507200D02*
X89723809Y-96554819D01*
X89723809Y-96554819D02*
X89628571Y-96554819D01*
X89628571Y-96554819D02*
X89533333Y-96507200D01*
X89533333Y-96507200D02*
X89485714Y-96459580D01*
X89485714Y-96459580D02*
X89438095Y-96364342D01*
X89438095Y-96364342D02*
X89390476Y-96173866D01*
X89390476Y-96173866D02*
X89390476Y-95935771D01*
X89390476Y-95935771D02*
X89438095Y-95745295D01*
X89438095Y-95745295D02*
X89485714Y-95650057D01*
X89485714Y-95650057D02*
X89533333Y-95602438D01*
X89533333Y-95602438D02*
X89628571Y-95554819D01*
X84607142Y-93359580D02*
X84559523Y-93407200D01*
X84559523Y-93407200D02*
X84416666Y-93454819D01*
X84416666Y-93454819D02*
X84321428Y-93454819D01*
X84321428Y-93454819D02*
X84178571Y-93407200D01*
X84178571Y-93407200D02*
X84083333Y-93311961D01*
X84083333Y-93311961D02*
X84035714Y-93216723D01*
X84035714Y-93216723D02*
X83988095Y-93026247D01*
X83988095Y-93026247D02*
X83988095Y-92883390D01*
X83988095Y-92883390D02*
X84035714Y-92692914D01*
X84035714Y-92692914D02*
X84083333Y-92597676D01*
X84083333Y-92597676D02*
X84178571Y-92502438D01*
X84178571Y-92502438D02*
X84321428Y-92454819D01*
X84321428Y-92454819D02*
X84416666Y-92454819D01*
X84416666Y-92454819D02*
X84559523Y-92502438D01*
X84559523Y-92502438D02*
X84607142Y-92550057D01*
X85559523Y-93454819D02*
X84988095Y-93454819D01*
X85273809Y-93454819D02*
X85273809Y-92454819D01*
X85273809Y-92454819D02*
X85178571Y-92597676D01*
X85178571Y-92597676D02*
X85083333Y-92692914D01*
X85083333Y-92692914D02*
X84988095Y-92740533D01*
X86511904Y-93454819D02*
X85940476Y-93454819D01*
X86226190Y-93454819D02*
X86226190Y-92454819D01*
X86226190Y-92454819D02*
X86130952Y-92597676D01*
X86130952Y-92597676D02*
X86035714Y-92692914D01*
X86035714Y-92692914D02*
X85940476Y-92740533D01*
X87273809Y-92978628D02*
X87273809Y-93454819D01*
X86940476Y-92454819D02*
X87273809Y-92978628D01*
X87273809Y-92978628D02*
X87607142Y-92454819D01*
X88464285Y-93454819D02*
X87892857Y-93454819D01*
X88178571Y-93454819D02*
X88178571Y-92454819D01*
X88178571Y-92454819D02*
X88083333Y-92597676D01*
X88083333Y-92597676D02*
X87988095Y-92692914D01*
X87988095Y-92692914D02*
X87892857Y-92740533D01*
X59454819Y-104238094D02*
X58454819Y-104238094D01*
X58454819Y-104238094D02*
X58454819Y-103999999D01*
X58454819Y-103999999D02*
X58502438Y-103857142D01*
X58502438Y-103857142D02*
X58597676Y-103761904D01*
X58597676Y-103761904D02*
X58692914Y-103714285D01*
X58692914Y-103714285D02*
X58883390Y-103666666D01*
X58883390Y-103666666D02*
X59026247Y-103666666D01*
X59026247Y-103666666D02*
X59216723Y-103714285D01*
X59216723Y-103714285D02*
X59311961Y-103761904D01*
X59311961Y-103761904D02*
X59407200Y-103857142D01*
X59407200Y-103857142D02*
X59454819Y-103999999D01*
X59454819Y-103999999D02*
X59454819Y-104238094D01*
X58550057Y-103285713D02*
X58502438Y-103238094D01*
X58502438Y-103238094D02*
X58454819Y-103142856D01*
X58454819Y-103142856D02*
X58454819Y-102904761D01*
X58454819Y-102904761D02*
X58502438Y-102809523D01*
X58502438Y-102809523D02*
X58550057Y-102761904D01*
X58550057Y-102761904D02*
X58645295Y-102714285D01*
X58645295Y-102714285D02*
X58740533Y-102714285D01*
X58740533Y-102714285D02*
X58883390Y-102761904D01*
X58883390Y-102761904D02*
X59454819Y-103333332D01*
X59454819Y-103333332D02*
X59454819Y-102714285D01*
D14*
G04 #@! TO.C,C30*
X61261252Y-73765000D02*
X60738748Y-73765000D01*
X61261252Y-75235000D02*
X60738748Y-75235000D01*
D15*
G04 #@! TO.C,J6*
X118898650Y-86124400D02*
X118898650Y-86921960D01*
X118898650Y-88578040D02*
X118898650Y-89375600D01*
X122149850Y-89375600D02*
X122149850Y-86124400D01*
D16*
X119378850Y-84346400D02*
G75*
G02*
X118616850Y-84346400I-381000J0D01*
G01*
X118616850Y-84346400D02*
G75*
G02*
X119378850Y-84346400I381000J0D01*
G01*
D14*
G04 #@! TO.C,C25*
X71140580Y-96740000D02*
X70859420Y-96740000D01*
X71140580Y-97760000D02*
X70859420Y-97760000D01*
G04 #@! TO.C,J1*
D10*
X38550000Y-81750000D02*
X46950000Y-81750000D01*
X46950000Y-71750000D01*
X38550000Y-71750000D01*
X38550000Y-81750000D01*
D14*
G04 #@! TO.C,TP9*
X83700000Y-100500000D02*
G75*
G02*
X82300000Y-100500000I-700000J0D01*
G01*
X82300000Y-100500000D02*
G75*
G02*
X83700000Y-100500000I700000J0D01*
G01*
G04 #@! TO.C,TP13*
X75700000Y-103500000D02*
G75*
G02*
X74300000Y-103500000I-700000J0D01*
G01*
X74300000Y-103500000D02*
G75*
G02*
X75700000Y-103500000I700000J0D01*
G01*
G04 #@! TO.C,C20*
X61005180Y-71740000D02*
X60724020Y-71740000D01*
X61005180Y-72760000D02*
X60724020Y-72760000D01*
G04 #@! TO.C,R9*
X58620000Y-97893641D02*
X58620000Y-97586359D01*
X59380000Y-97893641D02*
X59380000Y-97586359D01*
G04 #@! TO.C,C8*
X85859420Y-80490000D02*
X86140580Y-80490000D01*
X85859420Y-81510000D02*
X86140580Y-81510000D01*
G04 #@! TO.C,R7*
X50620000Y-96346359D02*
X50620000Y-96653641D01*
X51380000Y-96346359D02*
X51380000Y-96653641D01*
G04 #@! TO.C,R12*
X63086359Y-87120000D02*
X63393641Y-87120000D01*
X63086359Y-87880000D02*
X63393641Y-87880000D01*
G04 #@! TO.C,C15*
X110240000Y-98890580D02*
X110240000Y-98609420D01*
X111260000Y-98890580D02*
X111260000Y-98609420D01*
D15*
G04 #@! TO.C,J4*
X59495500Y-68153990D02*
X59495500Y-70350451D01*
X59495500Y-70350451D02*
X61212060Y-70350451D01*
X66287940Y-70350451D02*
X68004500Y-70350451D01*
X66596159Y-65143450D02*
X60903841Y-65143450D01*
X68004500Y-70350451D02*
X68004500Y-68153990D01*
D16*
X58843901Y-69723451D02*
G75*
G02*
X58081901Y-69723451I-381000J0D01*
G01*
X58081901Y-69723451D02*
G75*
G02*
X58843901Y-69723451I381000J0D01*
G01*
D14*
G04 #@! TO.C,C5*
X79890580Y-93740000D02*
X79609420Y-93740000D01*
X79890580Y-94760000D02*
X79609420Y-94760000D01*
G04 #@! TO.C,C26*
X48859420Y-73740000D02*
X49140580Y-73740000D01*
X48859420Y-74760000D02*
X49140580Y-74760000D01*
G04 #@! TO.C,TP6*
X101620000Y-69120000D02*
X103000000Y-69120000D01*
X101620000Y-70500000D02*
X101620000Y-69120000D01*
X101620000Y-71770000D02*
X101620000Y-71880000D01*
X101620000Y-71770000D02*
X104380000Y-71770000D01*
X101620000Y-71880000D02*
X104380000Y-71880000D01*
X104380000Y-71770000D02*
X104380000Y-71880000D01*
G04 #@! TO.C,R11*
X63620000Y-91846359D02*
X63620000Y-92153641D01*
X64380000Y-91846359D02*
X64380000Y-92153641D01*
D15*
G04 #@! TO.C,SW2*
X48175900Y-67363341D02*
X48175900Y-68136659D01*
X48175900Y-69578800D02*
X52824100Y-69578800D01*
X52824100Y-65921200D02*
X48175900Y-65921200D01*
X52824100Y-68136659D02*
X52824100Y-67363341D01*
D16*
X46778900Y-66675000D02*
G75*
G02*
X46016900Y-66675000I-381000J0D01*
G01*
X46016900Y-66675000D02*
G75*
G02*
X46778900Y-66675000I381000J0D01*
G01*
D14*
G04 #@! TO.C,U2*
X82000000Y-101890000D02*
X83500000Y-101890000D01*
X82000000Y-103610000D02*
X83500000Y-103610000D01*
X81550000Y-102150000D02*
X81270000Y-102150000D01*
X81550000Y-101870000D01*
X81550000Y-102150000D01*
G36*
X81550000Y-102150000D02*
G01*
X81270000Y-102150000D01*
X81550000Y-101870000D01*
X81550000Y-102150000D01*
G37*
G04 #@! TO.C,C24*
X113265000Y-99011252D02*
X113265000Y-98488748D01*
X114735000Y-99011252D02*
X114735000Y-98488748D01*
G04 #@! TO.C,C13*
X93490000Y-84640580D02*
X93490000Y-84359420D01*
X94510000Y-84640580D02*
X94510000Y-84359420D01*
G04 #@! TO.C,C22*
X98640580Y-89240000D02*
X98359420Y-89240000D01*
X98640580Y-90260000D02*
X98359420Y-90260000D01*
G04 #@! TO.C,TP12*
X75700000Y-100250000D02*
G75*
G02*
X74300000Y-100250000I-700000J0D01*
G01*
X74300000Y-100250000D02*
G75*
G02*
X75700000Y-100250000I700000J0D01*
G01*
G04 #@! TO.C,U1*
X70890000Y-80390000D02*
X71840000Y-80390000D01*
X70890000Y-81340000D02*
X70890000Y-80390000D01*
X70890000Y-90610000D02*
X70890000Y-89660000D01*
X71840000Y-90610000D02*
X70890000Y-90610000D01*
X80160000Y-80390000D02*
X81110000Y-80390000D01*
X81110000Y-80390000D02*
X81110000Y-81340000D01*
X81110000Y-89660000D02*
X81110000Y-90610000D01*
X81110000Y-90610000D02*
X80160000Y-90610000D01*
X82090000Y-90130000D02*
X81410000Y-90130000D01*
X81750000Y-89660000D01*
X82090000Y-90130000D01*
G36*
X82090000Y-90130000D02*
G01*
X81410000Y-90130000D01*
X81750000Y-89660000D01*
X82090000Y-90130000D01*
G37*
G04 #@! TO.C,TP8*
X77950000Y-103500000D02*
G75*
G02*
X76550000Y-103500000I-700000J0D01*
G01*
X76550000Y-103500000D02*
G75*
G02*
X77950000Y-103500000I700000J0D01*
G01*
G04 #@! TO.C,C16*
X88990000Y-99665580D02*
X88990000Y-99384420D01*
X90010000Y-99665580D02*
X90010000Y-99384420D01*
G04 #@! TO.C,C21*
X98615580Y-91240000D02*
X98334420Y-91240000D01*
X98615580Y-92260000D02*
X98334420Y-92260000D01*
D15*
G04 #@! TO.C,U5*
X51496000Y-78600599D02*
X54747200Y-78600599D01*
X54747200Y-75349399D02*
X51496000Y-75349399D01*
X50967800Y-75999999D02*
G75*
G02*
X50815400Y-75999999I-76200J0D01*
G01*
X50815400Y-75999999D02*
G75*
G02*
X50967800Y-75999999I76200J0D01*
G01*
D14*
G04 #@! TO.C,C17*
X86359420Y-102740000D02*
X86640580Y-102740000D01*
X86359420Y-103760000D02*
X86640580Y-103760000D01*
G04 #@! TO.C,C14*
X84990000Y-84859420D02*
X84990000Y-85140580D01*
X86010000Y-84859420D02*
X86010000Y-85140580D01*
G04 #@! TO.C,TP7*
X111620000Y-69120000D02*
X113000000Y-69120000D01*
X111620000Y-70500000D02*
X111620000Y-69120000D01*
X111620000Y-71770000D02*
X111620000Y-71880000D01*
X111620000Y-71770000D02*
X114380000Y-71770000D01*
X111620000Y-71880000D02*
X114380000Y-71880000D01*
X114380000Y-71770000D02*
X114380000Y-71880000D01*
G04 #@! TO.C,TP2*
X49700000Y-79250000D02*
G75*
G02*
X48300000Y-79250000I-700000J0D01*
G01*
X48300000Y-79250000D02*
G75*
G02*
X49700000Y-79250000I700000J0D01*
G01*
G04 #@! TO.C,C9*
X67490000Y-90834420D02*
X67490000Y-91115580D01*
X68510000Y-90834420D02*
X68510000Y-91115580D01*
G04 #@! TO.C,C19*
X61390580Y-82240000D02*
X61109420Y-82240000D01*
X61390580Y-83260000D02*
X61109420Y-83260000D01*
G04 #@! TO.C,C6*
X81990000Y-92109420D02*
X81990000Y-92390580D01*
X83010000Y-92109420D02*
X83010000Y-92390580D01*
D15*
G04 #@! TO.C,U3*
X55624400Y-87375600D02*
X58875600Y-87375600D01*
X58875600Y-84124400D02*
X55624400Y-84124400D01*
X55113860Y-84823829D02*
G75*
G02*
X55113860Y-84676171I-18860J73829D01*
G01*
D14*
G04 #@! TO.C,C4*
X78240000Y-76640580D02*
X78240000Y-76359420D01*
X79260000Y-76640580D02*
X79260000Y-76359420D01*
G04 #@! TO.C,U6*
X66940000Y-98440000D02*
X71060000Y-98440000D01*
X66940000Y-98560000D02*
X66940000Y-98440000D01*
X66940000Y-103560000D02*
X66940000Y-103440000D01*
X71060000Y-98440000D02*
X71060000Y-98560000D01*
X71060000Y-103440000D02*
X71060000Y-103560000D01*
X71060000Y-103560000D02*
X66940000Y-103560000D01*
X66340000Y-98550000D02*
X66100000Y-98220000D01*
X66580000Y-98220000D01*
X66340000Y-98550000D01*
G36*
X66340000Y-98550000D02*
G01*
X66100000Y-98220000D01*
X66580000Y-98220000D01*
X66340000Y-98550000D01*
G37*
G04 #@! TO.C,C3*
X71140580Y-76990000D02*
X70859420Y-76990000D01*
X71140580Y-78010000D02*
X70859420Y-78010000D01*
G04 #@! TO.C,TP14*
X63950000Y-99000000D02*
G75*
G02*
X62550000Y-99000000I-700000J0D01*
G01*
X62550000Y-99000000D02*
G75*
G02*
X63950000Y-99000000I700000J0D01*
G01*
G04 #@! TO.C,R4*
X49120000Y-96346359D02*
X49120000Y-96653641D01*
X49880000Y-96346359D02*
X49880000Y-96653641D01*
G04 #@! TO.C,D1*
X56015000Y-99515000D02*
X56015000Y-101800000D01*
X57485000Y-99515000D02*
X56015000Y-99515000D01*
X57485000Y-101800000D02*
X57485000Y-99515000D01*
G04 #@! TO.C,R3*
X65243241Y-74120000D02*
X64935959Y-74120000D01*
X65243241Y-74880000D02*
X64935959Y-74880000D01*
G04 #@! TO.C,R2*
X65243241Y-72120000D02*
X64935959Y-72120000D01*
X65243241Y-72880000D02*
X64935959Y-72880000D01*
G04 #@! TO.C,C29*
X98511252Y-93265000D02*
X97988748Y-93265000D01*
X98511252Y-94735000D02*
X97988748Y-94735000D01*
G04 #@! TO.C,TP4*
X80870000Y-64870000D02*
X82250000Y-64870000D01*
X80870000Y-66250000D02*
X80870000Y-64870000D01*
X80870000Y-67520000D02*
X80870000Y-67630000D01*
X80870000Y-67520000D02*
X83630000Y-67520000D01*
X80870000Y-67630000D02*
X83630000Y-67630000D01*
X83630000Y-67520000D02*
X83630000Y-67630000D01*
G04 #@! TO.C,R1*
X54620000Y-67096359D02*
X54620000Y-67403641D01*
X55380000Y-67096359D02*
X55380000Y-67403641D01*
G04 #@! TO.C,J3*
X42460000Y-85830000D02*
X44160000Y-85830000D01*
X42460000Y-95170000D02*
X44160000Y-95170000D01*
G04 #@! TO.C,C12*
X89740000Y-89640580D02*
X89740000Y-89359420D01*
X90760000Y-89640580D02*
X90760000Y-89359420D01*
G04 #@! TO.C,R6*
X79870000Y-101346359D02*
X79870000Y-101653641D01*
X80630000Y-101346359D02*
X80630000Y-101653641D01*
G04 #@! TO.C,C7*
X85859420Y-78490000D02*
X86140580Y-78490000D01*
X85859420Y-79510000D02*
X86140580Y-79510000D01*
G04 #@! TO.C,TP1*
X59700000Y-78000000D02*
G75*
G02*
X58300000Y-78000000I-700000J0D01*
G01*
X58300000Y-78000000D02*
G75*
G02*
X59700000Y-78000000I700000J0D01*
G01*
G04 #@! TO.C,C27*
X86265000Y-99761252D02*
X86265000Y-99238748D01*
X87735000Y-99761252D02*
X87735000Y-99238748D01*
G04 #@! TO.C,D3*
X60355000Y-99515000D02*
X60355000Y-101800000D01*
X61825000Y-99515000D02*
X60355000Y-99515000D01*
X61825000Y-101800000D02*
X61825000Y-99515000D01*
G04 #@! TO.C,TP11*
X75870000Y-64870000D02*
X77250000Y-64870000D01*
X75870000Y-66250000D02*
X75870000Y-64870000D01*
X75870000Y-67520000D02*
X75870000Y-67630000D01*
X75870000Y-67520000D02*
X78630000Y-67520000D01*
X75870000Y-67630000D02*
X78630000Y-67630000D01*
X78630000Y-67520000D02*
X78630000Y-67630000D01*
G04 #@! TO.C,C1*
X73265000Y-75761252D02*
X73265000Y-75238748D01*
X74735000Y-75761252D02*
X74735000Y-75238748D01*
G04 #@! TO.C,J5*
X91210000Y-104130000D02*
X91210000Y-102750000D01*
X92590000Y-104130000D02*
X91210000Y-104130000D01*
X93860000Y-101370000D02*
X111750000Y-101370000D01*
X93860000Y-104130000D02*
X93860000Y-101370000D01*
X93860000Y-104130000D02*
X111750000Y-104130000D01*
X111750000Y-104130000D02*
X111750000Y-101370000D01*
G04 #@! TO.C,R10*
X60620000Y-97866141D02*
X60620000Y-97558859D01*
X61380000Y-97866141D02*
X61380000Y-97558859D01*
G04 #@! TO.C,R5*
X77870000Y-101356359D02*
X77870000Y-101663641D01*
X78630000Y-101356359D02*
X78630000Y-101663641D01*
G04 #@! TO.C,C18*
X52238748Y-82015000D02*
X52761252Y-82015000D01*
X52238748Y-83485000D02*
X52761252Y-83485000D01*
G04 #@! TO.C,Y3*
X86990000Y-82890000D02*
X87040000Y-82890000D01*
X86990000Y-86610000D02*
X86990000Y-82890000D01*
X87040000Y-86610000D02*
X86990000Y-86610000D01*
X89160000Y-82890000D02*
X90340000Y-82890000D01*
X90340000Y-82890000D02*
X90340000Y-82540000D01*
X90340000Y-86610000D02*
X89160000Y-86610000D01*
X92460000Y-82540000D02*
X92460000Y-82890000D01*
X92460000Y-82890000D02*
X92510000Y-82890000D01*
X92510000Y-82890000D02*
X92510000Y-86610000D01*
X92510000Y-86610000D02*
X92460000Y-86610000D01*
G04 #@! TO.C,TP10*
X71120000Y-64870000D02*
X72500000Y-64870000D01*
X71120000Y-66250000D02*
X71120000Y-64870000D01*
X71120000Y-67520000D02*
X71120000Y-67630000D01*
X71120000Y-67520000D02*
X73880000Y-67520000D01*
X71120000Y-67630000D02*
X73880000Y-67630000D01*
X73880000Y-67520000D02*
X73880000Y-67630000D01*
G04 #@! TO.C,TP3*
X64450000Y-83500000D02*
G75*
G02*
X63050000Y-83500000I-700000J0D01*
G01*
X63050000Y-83500000D02*
G75*
G02*
X64450000Y-83500000I700000J0D01*
G01*
G04 #@! TO.C,J2*
X46050000Y-103815000D02*
X46050000Y-102635000D01*
X46115000Y-100185000D02*
X52685000Y-100185000D01*
X46115000Y-101047077D02*
X46115000Y-100185000D01*
X46860000Y-103815000D02*
X46050000Y-103815000D01*
X47670000Y-103815000D02*
X47670000Y-103301708D01*
X47670000Y-103815000D02*
X52685000Y-103815000D01*
X52685000Y-101047077D02*
X52685000Y-100185000D01*
X52685000Y-102317077D02*
X52685000Y-101682923D01*
X52685000Y-103815000D02*
X52685000Y-102952923D01*
G04 #@! TO.C,C2*
X71061252Y-74265000D02*
X70538748Y-74265000D01*
X71061252Y-75735000D02*
X70538748Y-75735000D01*
G04 #@! TO.C,C23*
X56240000Y-78609420D02*
X56240000Y-78890580D01*
X57260000Y-78609420D02*
X57260000Y-78890580D01*
G04 #@! TO.C,C28*
X57390580Y-73740000D02*
X57109420Y-73740000D01*
X57390580Y-74760000D02*
X57109420Y-74760000D01*
G04 #@! TO.C,R8*
X56370000Y-97903641D02*
X56370000Y-97596359D01*
X57130000Y-97903641D02*
X57130000Y-97596359D01*
G04 #@! TO.C,TP5*
X106620000Y-69120000D02*
X108000000Y-69120000D01*
X106620000Y-70500000D02*
X106620000Y-69120000D01*
X106620000Y-71770000D02*
X106620000Y-71880000D01*
X106620000Y-71770000D02*
X109380000Y-71770000D01*
X106620000Y-71880000D02*
X109380000Y-71880000D01*
X109380000Y-71770000D02*
X109380000Y-71880000D01*
G04 #@! TO.C,U7*
X101990000Y-79240000D02*
X101990000Y-79390000D01*
X101990000Y-79240000D02*
X111910000Y-79240000D01*
X101990000Y-89410000D02*
X101990000Y-89560000D01*
X101990000Y-89560000D02*
X111910000Y-89560000D01*
X111910000Y-79240000D02*
X111910000Y-79390000D01*
X111910000Y-89410000D02*
X111910000Y-89560000D01*
X101520000Y-79390000D02*
X101280000Y-79060000D01*
X101760000Y-79060000D01*
X101520000Y-79390000D01*
G36*
X101520000Y-79390000D02*
G01*
X101280000Y-79060000D01*
X101760000Y-79060000D01*
X101520000Y-79390000D01*
G37*
G04 #@! TO.C,C10*
X85459420Y-95590000D02*
X85740580Y-95590000D01*
X85459420Y-96610000D02*
X85740580Y-96610000D01*
G04 #@! TO.C,C11*
X84740000Y-90140580D02*
X84740000Y-89859420D01*
X85760000Y-90140580D02*
X85760000Y-89859420D01*
G04 #@! TO.C,Y1*
X86875000Y-89325000D02*
X86875000Y-90675000D01*
X88625000Y-89325000D02*
X88625000Y-90675000D01*
G04 #@! TO.C,D2*
X58265000Y-99515000D02*
X58265000Y-101800000D01*
X59735000Y-99515000D02*
X58265000Y-99515000D01*
X59735000Y-101800000D02*
X59735000Y-99515000D01*
G04 #@! TD*
D17*
X38350000Y-64300000D02*
X122290000Y-64300000D01*
X122290000Y-104600000D01*
X38350000Y-104600000D01*
X38350000Y-64300000D01*
M02*
