M48
; DRILL file {KiCad 9.0.8-9.0.8~ubuntu24.04.1} date 2026-04-05T09:38:09+0200
; FORMAT={-:-/ absolute / metric / decimal}
; #@! TF.CreationDate,2026-04-05T09:38:09+02:00
; #@! TF.GenerationSoftware,Kicad,Pcbnew,9.0.8-9.0.8~ubuntu24.04.1
; #@! TF.FileFunction,MixedPlating,1,4
FMAT,2
METRIC
; #@! TA.AperFunction,Plated,PTH,ViaDrill
T1C0.300
; #@! TA.AperFunction,Plated,PTH,ComponentDrill
T2C0.600
; #@! TA.AperFunction,Plated,PTH,ComponentDrill
T3C0.650
; #@! TA.AperFunction,Plated,PTH,ComponentDrill
T4C1.000
; #@! TA.AperFunction,Plated,PTH,ComponentDrill
T5C1.200
; #@! TA.AperFunction,Plated,PTH,ComponentDrill
T6C2.200
; #@! TA.AperFunction,NonPlated,NPTH,ComponentDrill
T7C0.650
%
G90
G05
T1
X47.76Y-87.4
X47.86Y-93.0
X48.11Y-89.25
X48.11Y-94.5
X48.25Y-75.75
X48.25Y-77.0
X49.11Y-88.25
X49.25Y-76.25
X49.5Y-98.0
X50.0Y-72.75
X50.25Y-77.0
X51.0Y-94.75
X51.0Y-98.0
X51.5Y-84.5
X51.75Y-72.75
X51.75Y-74.5
X52.0Y-86.0
X52.0Y-92.3
X52.0Y-98.7
X52.75Y-84.75
X52.75Y-86.5
X52.75Y-96.0
X53.0Y-74.5
X53.25Y-72.75
X53.411Y-95.39
X53.45Y-87.25
X53.5Y-81.0
X54.0Y-84.75
X54.25Y-70.0
X54.5Y-74.5
X54.5Y-81.0
X54.75Y-72.75
X55.0Y-68.7
X55.0Y-94.2
X55.0Y-98.4
X55.25Y-82.0
X55.25Y-83.25
X55.365Y-101.365
X55.5Y-79.5
X55.75Y-76.25
X55.9Y-95.2
X56.25Y-72.75
X56.75Y-68.75
X56.75Y-82.0
X56.75Y-83.25
X57.0Y-76.25
X58.25Y-82.0
X58.25Y-83.25
X58.5Y-75.75
X58.75Y-72.25
X59.25Y-81.0
X60.0Y-76.0
X60.0Y-85.0
X60.5Y-81.0
X61.25Y-85.0
X62.0Y-76.25
X62.0Y-84.0
X62.25Y-78.5
X62.25Y-101.962
X62.5Y-96.5
X62.75Y-86.25
X64.0Y-80.75
X64.0Y-85.5
X64.0Y-90.25
X64.0Y-93.5
X64.5Y-75.5
X64.5Y-103.0
X64.74Y-87.5
X64.8Y-100.35
X64.849Y-93.54
X65.1Y-73.5
X65.5Y-81.75
X66.0Y-92.9
X66.0Y-98.0
X66.5Y-91.75
X66.59Y-71.5
X66.59Y-72.5
X66.59Y-74.5
X66.75Y-90.25
X67.25Y-85.75
X68.0Y-85.25
X68.2Y-89.0
X68.5Y-75.0
X68.75Y-72.0
X69.0Y-77.5
X69.0Y-97.25
X69.5Y-72.5
X69.8Y-79.0
X71.0Y-92.3
X71.0Y-94.2
X71.75Y-73.5
X72.25Y-93.5
X73.0Y-77.75
X73.0Y-97.25
X73.25Y-93.5
X73.25Y-102.905
X73.65Y-101.65
X73.9Y-92.7
X74.0Y-73.25
X74.65Y-77.709
X74.7Y-93.2
X75.135Y-98.25
X75.5Y-93.5
X75.658Y-77.658
X76.0Y-73.25
X76.15Y-94.25
X76.15Y-98.5
X76.5Y-71.0
X76.5Y-78.25
X76.75Y-93.5
X76.75Y-101.0
X77.2Y-71.7
X77.35Y-92.75
X77.35Y-96.751
X78.25Y-92.75
X78.25Y-100.0
X79.0Y-95.5
X79.25Y-92.75
X79.25Y-96.751
X79.25Y-102.0
X79.75Y-78.25
X80.0Y-75.75
X80.0Y-77.25
X80.25Y-100.0
X80.5Y-95.5
X82.5Y-94.25
X83.25Y-84.0
X83.5Y-86.0
X83.75Y-91.5
X84.5Y-102.0
X85.225Y-77.775
X85.25Y-92.0
X85.5Y-83.0
X85.5Y-98.5
X85.75Y-101.75
X86.3Y-94.2
X87.0Y-101.75
X87.5Y-96.1
X88.0Y-79.0
X88.0Y-81.0
X88.5Y-82.0
X88.5Y-101.75
X88.5Y-103.25
X89.25Y-77.5
X90.0Y-101.75
X90.25Y-91.5
X90.75Y-98.75
X91.0Y-100.25
X91.4Y-87.4
X92.25Y-77.0
X92.25Y-100.25
X93.25Y-76.5
X94.0Y-86.5
X94.75Y-76.25
X96.0Y-94.0
X96.4Y-89.7
X96.4Y-91.7
X96.5Y-74.25
X97.5Y-73.5
X98.25Y-73.0
X98.747Y-72.259
X99.25Y-71.25
X99.3Y-95.5
X100.5Y-80.0
X100.5Y-81.0
X100.5Y-82.2
X100.5Y-83.25
X100.5Y-84.25
X100.5Y-88.75
X101.6Y-74.93
X101.6Y-77.47
X101.6Y-91.44
X101.6Y-93.98
X102.25Y-79.0
X103.75Y-80.0
X104.14Y-74.93
X104.14Y-77.47
X104.14Y-91.44
X104.14Y-93.98
X106.25Y-97.0
X106.68Y-74.93
X106.68Y-77.47
X109.22Y-74.93
X109.22Y-77.47
X109.22Y-91.44
X109.22Y-93.98
X109.5Y-98.0
X110.0Y-86.5
X110.0Y-88.75
X111.75Y-90.0
X111.76Y-74.93
X111.76Y-77.47
X111.76Y-91.44
X111.76Y-93.98
X112.25Y-99.5
X112.25Y-100.5
X113.0Y-101.75
X113.0Y-103.0
X113.25Y-85.5
X113.5Y-86.5
X113.5Y-89.0
X114.3Y-74.93
X114.3Y-77.47
X114.3Y-80.01
X114.3Y-82.55
X114.3Y-91.44
X114.3Y-93.98
X114.5Y-101.75
X114.5Y-103.0
X114.75Y-86.5
X114.75Y-89.0
X115.75Y-97.75
X116.0Y-86.5
X116.0Y-89.0
X116.84Y-74.93
X116.84Y-77.47
X116.84Y-80.01
X116.84Y-82.55
X116.84Y-85.09
X116.84Y-91.44
X116.84Y-93.98
X117.25Y-86.5
X117.25Y-89.0
X118.5Y-89.25
X118.75Y-86.25
X119.38Y-74.93
X119.38Y-77.47
X119.38Y-80.01
X119.38Y-82.55
X119.38Y-91.44
X119.38Y-93.98
X120.5Y-85.0
X120.5Y-88.0
X120.5Y-90.5
T3
X46.86Y-101.365
X46.86Y-102.635
X48.13Y-101.365
X48.13Y-102.635
X49.4Y-101.365
X49.4Y-102.635
X50.67Y-101.365
X50.67Y-102.635
X51.94Y-101.365
X51.94Y-102.635
T4
X72.5Y-66.25
X77.25Y-66.25
X82.25Y-66.25
X92.59Y-102.75
X95.13Y-102.75
X97.67Y-102.75
X100.21Y-102.75
X102.75Y-102.75
X103.0Y-70.5
X105.29Y-102.75
X107.83Y-102.75
X108.0Y-70.5
X110.37Y-102.75
X113.0Y-70.5
T5
X42.75Y-74.25
X42.75Y-79.25
T6
X41.91Y-67.31
X41.91Y-101.6
X119.38Y-67.31
X119.38Y-101.6
T7
X44.965Y-87.61
X44.965Y-93.39
T2
G00X41.685Y-86.18
M15
G01X40.885Y-86.18
M16
G05
G00X41.685Y-94.82
M15
G01X40.885Y-94.82
M16
G05
G00X46.015Y-86.18
M15
G01X44.915Y-86.18
M16
G05
G00X46.015Y-94.82
M15
G01X44.915Y-94.82
M16
G05
M30
