G04 #@! TF.GenerationSoftware,KiCad,Pcbnew,9.0.8-9.0.8~ubuntu24.04.1*
G04 #@! TF.CreationDate,2026-04-05T09:37:35+02:00*
G04 #@! TF.ProjectId,marine_tracker,6d617269-6e65-45f7-9472-61636b65722e,rev?*
G04 #@! TF.SameCoordinates,Original*
G04 #@! TF.FileFunction,Copper,L2,Inr*
G04 #@! TF.FilePolarity,Positive*
%FSLAX46Y46*%
G04 Gerber Fmt 4.6, Leading zero omitted, Abs format (unit mm)*
G04 Created by KiCad (PCBNEW 9.0.8-9.0.8~ubuntu24.04.1) date 2026-04-05 09:37:35*
%MOMM*%
%LPD*%
G01*
G04 APERTURE LIST*
G04 #@! TA.AperFunction,ComponentPad*
%ADD10C,2.000000*%
G04 #@! TD*
G04 #@! TA.AperFunction,ComponentPad*
%ADD11R,1.700000X1.700000*%
G04 #@! TD*
G04 #@! TA.AperFunction,ComponentPad*
%ADD12C,3.800000*%
G04 #@! TD*
G04 #@! TA.AperFunction,HeatsinkPad*
%ADD13O,2.100000X1.000000*%
G04 #@! TD*
G04 #@! TA.AperFunction,HeatsinkPad*
%ADD14O,1.800000X1.000000*%
G04 #@! TD*
G04 #@! TA.AperFunction,ComponentPad*
%ADD15C,1.700000*%
G04 #@! TD*
G04 #@! TA.AperFunction,ComponentPad*
%ADD16R,1.000000X1.000000*%
G04 #@! TD*
G04 #@! TA.AperFunction,ComponentPad*
%ADD17C,1.000000*%
G04 #@! TD*
G04 #@! TA.AperFunction,ViaPad*
%ADD18C,0.700000*%
G04 #@! TD*
G04 #@! TA.AperFunction,Profile*
%ADD19C,0.050000*%
G04 #@! TD*
G04 APERTURE END LIST*
D10*
G04 #@! TO.N,GND*
G04 #@! TO.C,J1*
X42750000Y-79250000D03*
G04 #@! TO.N,+BATT*
X42750000Y-74250000D03*
G04 #@! TD*
D11*
G04 #@! TO.N,GPS_TXD*
G04 #@! TO.C,TP6*
X103000000Y-70500000D03*
G04 #@! TD*
G04 #@! TO.N,GND*
G04 #@! TO.C,TP7*
X113000000Y-70500000D03*
G04 #@! TD*
D12*
G04 #@! TO.N,N/C*
G04 #@! TO.C,REF\u002A\u002A*
X119380000Y-67310000D03*
G04 #@! TD*
D11*
G04 #@! TO.N,GPS_PULSE*
G04 #@! TO.C,TP4*
X82250000Y-66250000D03*
G04 #@! TD*
D13*
G04 #@! TO.N,GND*
G04 #@! TO.C,J3*
X45465000Y-86180000D03*
D14*
X41285000Y-86180000D03*
D13*
X45465000Y-94820000D03*
D14*
X41285000Y-94820000D03*
G04 #@! TD*
D12*
G04 #@! TO.N,N/C*
G04 #@! TO.C,REF\u002A\u002A*
X41910000Y-101600000D03*
G04 #@! TD*
G04 #@! TO.N,N/C*
G04 #@! TO.C,REF\u002A\u002A*
X119380000Y-101600000D03*
G04 #@! TD*
D11*
G04 #@! TO.N,PRES_I2C2_SDA*
G04 #@! TO.C,TP11*
X77250000Y-66250000D03*
G04 #@! TD*
G04 #@! TO.N,+3V3*
G04 #@! TO.C,J5*
X92590000Y-102750000D03*
D15*
G04 #@! TO.N,SAT_RXD*
X95130000Y-102750000D03*
G04 #@! TO.N,SAT_TXD*
X97670000Y-102750000D03*
G04 #@! TO.N,GND*
X100210000Y-102750000D03*
X102750000Y-102750000D03*
G04 #@! TO.N,SAT_VPA_EN*
X105290000Y-102750000D03*
G04 #@! TO.N,SAT_VPA_SEL*
X107830000Y-102750000D03*
G04 #@! TO.N,+3V3*
X110370000Y-102750000D03*
G04 #@! TD*
D11*
G04 #@! TO.N,PRES_I2C2_SCL*
G04 #@! TO.C,TP10*
X72500000Y-66250000D03*
G04 #@! TD*
D16*
G04 #@! TO.N,+3V3*
G04 #@! TO.C,J2*
X46860000Y-102635000D03*
D17*
G04 #@! TO.N,SWDIO*
X46860000Y-101365000D03*
G04 #@! TO.N,GND*
X48130000Y-102635000D03*
G04 #@! TO.N,SWCLK*
X48130000Y-101365000D03*
G04 #@! TO.N,GND*
X49400000Y-102635000D03*
G04 #@! TO.N,unconnected-(J2-SWO{slash}TDO-Pad6)*
X49400000Y-101365000D03*
G04 #@! TO.N,unconnected-(J2-KEY-Pad7)*
X50670000Y-102635000D03*
G04 #@! TO.N,unconnected-(J2-NC{slash}TDI-Pad8)*
X50670000Y-101365000D03*
G04 #@! TO.N,GND*
X51940000Y-102635000D03*
G04 #@! TO.N,SWD_NRST*
X51940000Y-101365000D03*
G04 #@! TD*
D12*
G04 #@! TO.N,GND*
G04 #@! TO.C,REF\u002A\u002A*
X41910000Y-67310000D03*
G04 #@! TD*
D11*
G04 #@! TO.N,GPS_RXD*
G04 #@! TO.C,TP5*
X108000000Y-70500000D03*
G04 #@! TD*
D18*
G04 #@! TO.N,GND*
X116840000Y-80010000D03*
X51750000Y-72750000D03*
X66500000Y-91750000D03*
X53450000Y-87250000D03*
X55250000Y-83250000D03*
X104140000Y-91440000D03*
X119380000Y-77470000D03*
X64740000Y-87500000D03*
X104140000Y-77470000D03*
X74000000Y-73250000D03*
X114300000Y-82550000D03*
X109220000Y-93980000D03*
X111750000Y-90000000D03*
X111760000Y-77470000D03*
X101600000Y-91440000D03*
X55500000Y-79500000D03*
X111760000Y-91440000D03*
X119380000Y-82550000D03*
X119380000Y-74930000D03*
X110000000Y-88750000D03*
X85500000Y-98500000D03*
X113500000Y-89000000D03*
X53250000Y-72750000D03*
X55000000Y-68700000D03*
X87500000Y-96100000D03*
X64000000Y-93500000D03*
X51750000Y-74500000D03*
X116840000Y-82550000D03*
X119380000Y-93980000D03*
X88500000Y-82000000D03*
X116000000Y-89000000D03*
X68200000Y-89000000D03*
X64500000Y-103000000D03*
X58250000Y-83250000D03*
X90250000Y-91500000D03*
X101600000Y-74930000D03*
X96000000Y-94000000D03*
X103750000Y-80000000D03*
X114300000Y-74930000D03*
X58250000Y-82000000D03*
X79000000Y-95500000D03*
X114300000Y-93980000D03*
X109220000Y-74930000D03*
X100500000Y-80000000D03*
X58750000Y-72250000D03*
X60000000Y-76000000D03*
X116000000Y-86500000D03*
X68500000Y-75000000D03*
X111760000Y-93980000D03*
X104140000Y-74930000D03*
X120500000Y-88000000D03*
X101600000Y-77470000D03*
X114300000Y-91440000D03*
X69000000Y-97250000D03*
X88000000Y-81000000D03*
X114300000Y-77470000D03*
X56750000Y-83250000D03*
X120500000Y-85000000D03*
X53500000Y-81000000D03*
X109220000Y-77470000D03*
X54500000Y-74500000D03*
X54500000Y-81000000D03*
X115750000Y-97750000D03*
X54750000Y-72750000D03*
X91400000Y-87400000D03*
X104140000Y-93980000D03*
X88000000Y-79000000D03*
X56750000Y-82000000D03*
X116840000Y-85090000D03*
X73000000Y-77750000D03*
X106680000Y-77470000D03*
X114750000Y-89000000D03*
X109500000Y-98000000D03*
X48110000Y-94500000D03*
X85250000Y-92000000D03*
X82500000Y-94250000D03*
X88500000Y-103250000D03*
X116840000Y-74930000D03*
X106680000Y-74930000D03*
X55250000Y-82000000D03*
X101600000Y-93980000D03*
X84500000Y-102000000D03*
X69000000Y-77500000D03*
X120500000Y-90500000D03*
X114300000Y-80010000D03*
X83250000Y-84000000D03*
X79250000Y-92750000D03*
X66589600Y-71500000D03*
X109220000Y-91440000D03*
X111760000Y-74930000D03*
X50000000Y-72750000D03*
X96400000Y-91700000D03*
X116840000Y-93980000D03*
X110000000Y-86500000D03*
X114750000Y-86500000D03*
X60500000Y-81000000D03*
X119380000Y-91440000D03*
X80000000Y-75750000D03*
X119380000Y-80010000D03*
X117250000Y-86500000D03*
X56250000Y-72750000D03*
X102250000Y-79000000D03*
X59250000Y-81000000D03*
X90750000Y-98750000D03*
X85500000Y-83000000D03*
X79750000Y-78250000D03*
X47760000Y-87400000D03*
X116840000Y-77470000D03*
X117250000Y-89000000D03*
X53000000Y-74500000D03*
X118750000Y-86250000D03*
X96400000Y-89700000D03*
X116840000Y-91440000D03*
X49500000Y-98000000D03*
X51000000Y-98000000D03*
X118500000Y-89250000D03*
X94000000Y-86500000D03*
X113500000Y-86500000D03*
G04 #@! TO.N,+3V3*
X113000000Y-103000000D03*
X112250000Y-99500000D03*
X83750000Y-91500000D03*
X113000000Y-101750000D03*
X99300000Y-95500000D03*
X55750000Y-76250000D03*
X87000000Y-101750000D03*
X80000000Y-77250000D03*
X57000000Y-76250000D03*
X85225000Y-77775000D03*
X73000000Y-97250000D03*
X78250000Y-100000000D03*
X66589600Y-72500000D03*
X62000000Y-76250000D03*
X80250000Y-100000000D03*
X90000000Y-101750000D03*
X85750000Y-101750000D03*
X114500000Y-101750000D03*
X66589600Y-74500000D03*
X92250000Y-100250000D03*
X80500000Y-95500000D03*
X66750000Y-90250000D03*
X58500000Y-75750000D03*
X71750000Y-73500000D03*
X112250000Y-100500000D03*
X114500000Y-103000000D03*
X88500000Y-101750000D03*
X54250000Y-70000000D03*
X91000000Y-100250000D03*
G04 #@! TO.N,SWD_NRST*
X83500000Y-86000000D03*
X86300000Y-94200000D03*
X55900000Y-95200000D03*
X55365000Y-101365000D03*
G04 #@! TO.N,+BATT*
X48250000Y-77000000D03*
X48250000Y-75750000D03*
X50250000Y-77000000D03*
X60000000Y-85000000D03*
X61250000Y-85000000D03*
X62000000Y-84000000D03*
X49250000Y-76250000D03*
G04 #@! TO.N,SWDIO*
X52000000Y-92300000D03*
X52000000Y-98700000D03*
G04 #@! TO.N,SWCLK*
X55000000Y-94200000D03*
X55000000Y-98400000D03*
X71000000Y-92300000D03*
X71000000Y-94200000D03*
G04 #@! TO.N,/BOOT0*
X69800000Y-79000000D03*
X62250000Y-78500000D03*
X56750000Y-68750000D03*
X78250000Y-92750000D03*
G04 #@! TO.N,SHT_SCL*
X76750000Y-93500000D03*
X76750000Y-101000000D03*
G04 #@! TO.N,SHT_SDA*
X79250000Y-96751000D03*
X79250000Y-102000000D03*
X77350000Y-92750000D03*
X77350000Y-96751000D03*
G04 #@! TO.N,GPS_PULSE*
X76500000Y-71000000D03*
X98250000Y-73000000D03*
X100500000Y-83250000D03*
X74650000Y-77709311D03*
G04 #@! TO.N,PRES_I2C2_SDA*
X64500000Y-75500000D03*
X64000000Y-80750000D03*
G04 #@! TO.N,GPS_TXD*
X67250000Y-85750000D03*
X100500000Y-81000000D03*
X68750000Y-72000000D03*
X99250000Y-71250000D03*
G04 #@! TO.N,GPS_N_RST*
X96500000Y-74250000D03*
X76000000Y-73250000D03*
X75657843Y-77657843D03*
X100500000Y-88750000D03*
G04 #@! TO.N,MEM_SPI3_MISO*
X72250000Y-93500000D03*
X64800000Y-100350000D03*
X73900000Y-92700000D03*
X64849037Y-93540491D03*
G04 #@! TO.N,MEM_SPI3_CS*
X66000000Y-92900000D03*
X66000000Y-98000000D03*
G04 #@! TO.N,GPS_RXD*
X68000000Y-85250000D03*
X69500000Y-72500000D03*
X98747017Y-72258949D03*
X100500000Y-82200000D03*
G04 #@! TO.N,MEM_HOLD*
X75135000Y-98250000D03*
X75500000Y-93500000D03*
G04 #@! TO.N,PRES_I2C2_SCL*
X65100000Y-73500000D03*
X65500000Y-81750000D03*
G04 #@! TO.N,SAT_RXD*
X89250000Y-77500000D03*
G04 #@! TO.N,MEM_SPI3_MOSI*
X73250000Y-102905000D03*
X74700000Y-93200000D03*
G04 #@! TO.N,GPS_EXTINT*
X97500000Y-73500000D03*
X100500000Y-84250000D03*
X77200000Y-71700000D03*
X76500000Y-78250000D03*
G04 #@! TO.N,SAT_TXD*
X92250000Y-77000000D03*
G04 #@! TO.N,VBUS*
X49110000Y-88250000D03*
X62250000Y-101962500D03*
X47860000Y-93000000D03*
X52750000Y-84750000D03*
X51500000Y-84500000D03*
X54000000Y-84750000D03*
G04 #@! TO.N,MEM_SPI3_SCK*
X73650000Y-101650000D03*
X73250000Y-93500000D03*
G04 #@! TO.N,/USB_CC1*
X48110000Y-89250000D03*
X51000000Y-94750000D03*
G04 #@! TO.N,/STAT1*
X52000000Y-86000000D03*
X52750000Y-96000000D03*
G04 #@! TO.N,/STAT2*
X53411325Y-95389546D03*
X52750000Y-86500000D03*
G04 #@! TO.N,/PG*
X62750000Y-86250000D03*
X62500000Y-96500000D03*
G04 #@! TO.N,/THERM*
X64000000Y-85500000D03*
X64000000Y-90250000D03*
G04 #@! TO.N,GPS_LNA_EN*
X76150000Y-98500000D03*
X76150000Y-94250000D03*
X113250000Y-85500000D03*
X106250000Y-97000000D03*
G04 #@! TO.N,SAT_VPA_SEL*
X94750000Y-76250000D03*
G04 #@! TO.N,SAT_VPA_EN*
X93250000Y-76500000D03*
G04 #@! TD*
G04 #@! TA.AperFunction,Conductor*
G04 #@! TO.N,GND*
G36*
X121967826Y-64622174D02*
G01*
X121989500Y-64674500D01*
X121989500Y-104225500D01*
X121967826Y-104277826D01*
X121915500Y-104299500D01*
X38724500Y-104299500D01*
X38672174Y-104277826D01*
X38650500Y-104225500D01*
X38650500Y-101459049D01*
X39759500Y-101459049D01*
X39759500Y-101740951D01*
X39763090Y-101768216D01*
X39796294Y-102020434D01*
X39869255Y-102292731D01*
X39869259Y-102292742D01*
X39977133Y-102553174D01*
X39977136Y-102553182D01*
X40118087Y-102797316D01*
X40140051Y-102825940D01*
X40289700Y-103020965D01*
X40489035Y-103220300D01*
X40712683Y-103391912D01*
X40956817Y-103532863D01*
X41217261Y-103640742D01*
X41489558Y-103713704D01*
X41489564Y-103713704D01*
X41489565Y-103713705D01*
X41489564Y-103713705D01*
X41613594Y-103730033D01*
X41769049Y-103750500D01*
X41769051Y-103750500D01*
X42050949Y-103750500D01*
X42050951Y-103750500D01*
X42330442Y-103713704D01*
X42602739Y-103640742D01*
X42863183Y-103532863D01*
X43107317Y-103391912D01*
X43330965Y-103220300D01*
X43530300Y-103020965D01*
X43701912Y-102797317D01*
X43842863Y-102553183D01*
X43950742Y-102292739D01*
X44023704Y-102020442D01*
X44060500Y-101740951D01*
X44060500Y-101459049D01*
X44038386Y-101291082D01*
X46109500Y-101291082D01*
X46109500Y-101438918D01*
X46113505Y-101459050D01*
X46138340Y-101583907D01*
X46138343Y-101583917D01*
X46194915Y-101720494D01*
X46257064Y-101813506D01*
X46268113Y-101869055D01*
X46236647Y-101916147D01*
X46179399Y-101954398D01*
X46179398Y-101954399D01*
X46124034Y-102037259D01*
X46124034Y-102037260D01*
X46109500Y-102110326D01*
X46109500Y-103159674D01*
X46122787Y-103226470D01*
X46124034Y-103232740D01*
X46168735Y-103299642D01*
X46179399Y-103315601D01*
X46262260Y-103370966D01*
X46335326Y-103385500D01*
X46335328Y-103385500D01*
X47384672Y-103385500D01*
X47384674Y-103385500D01*
X47457740Y-103370966D01*
X47540601Y-103315601D01*
X47579131Y-103257935D01*
X47626221Y-103226470D01*
X47681770Y-103237518D01*
X47681771Y-103237519D01*
X47774745Y-103299642D01*
X47911232Y-103356177D01*
X47911239Y-103356179D01*
X48056132Y-103385000D01*
X48203868Y-103385000D01*
X48348760Y-103356179D01*
X48348767Y-103356177D01*
X48454024Y-103312577D01*
X49075974Y-103312577D01*
X49181232Y-103356177D01*
X49181239Y-103356179D01*
X49326132Y-103385000D01*
X49473868Y-103385000D01*
X49618760Y-103356179D01*
X49618767Y-103356177D01*
X49724024Y-103312577D01*
X49400000Y-102988553D01*
X49075974Y-103312577D01*
X48454024Y-103312577D01*
X48101447Y-102960000D01*
X48172787Y-102960000D01*
X48255445Y-102937851D01*
X48329554Y-102895064D01*
X48390064Y-102834554D01*
X48432851Y-102760445D01*
X48455000Y-102677787D01*
X48455000Y-102634999D01*
X48483553Y-102634999D01*
X48764999Y-102916446D01*
X49046446Y-102635000D01*
X49046446Y-102634999D01*
X49003660Y-102592213D01*
X49075000Y-102592213D01*
X49075000Y-102677787D01*
X49097149Y-102760445D01*
X49139936Y-102834554D01*
X49200446Y-102895064D01*
X49274555Y-102937851D01*
X49357213Y-102960000D01*
X49442787Y-102960000D01*
X49525445Y-102937851D01*
X49599554Y-102895064D01*
X49660064Y-102834554D01*
X49702851Y-102760445D01*
X49725000Y-102677787D01*
X49725000Y-102592213D01*
X49702851Y-102509555D01*
X49660064Y-102435446D01*
X49599554Y-102374936D01*
X49525445Y-102332149D01*
X49442787Y-102310000D01*
X49357213Y-102310000D01*
X49274555Y-102332149D01*
X49200446Y-102374936D01*
X49139936Y-102435446D01*
X49097149Y-102509555D01*
X49075000Y-102592213D01*
X49003660Y-102592213D01*
X48765000Y-102353553D01*
X48483553Y-102634999D01*
X48455000Y-102634999D01*
X48455000Y-102592213D01*
X48432851Y-102509555D01*
X48390064Y-102435446D01*
X48329554Y-102374936D01*
X48255445Y-102332149D01*
X48172787Y-102310000D01*
X48101446Y-102310000D01*
X48302925Y-102108520D01*
X48340819Y-102088268D01*
X48348913Y-102086658D01*
X48485495Y-102030084D01*
X48608416Y-101947951D01*
X48712674Y-101843693D01*
X48765000Y-101822019D01*
X48817326Y-101843693D01*
X48921584Y-101947951D01*
X49044505Y-102030084D01*
X49162736Y-102079057D01*
X49181087Y-102086658D01*
X49189180Y-102088268D01*
X49227073Y-102108520D01*
X49399999Y-102281446D01*
X49572925Y-102108520D01*
X49610819Y-102088268D01*
X49618913Y-102086658D01*
X49755495Y-102030084D01*
X49878416Y-101947951D01*
X49982674Y-101843693D01*
X50035000Y-101822019D01*
X50087326Y-101843693D01*
X50191307Y-101947674D01*
X50212981Y-102000000D01*
X50191307Y-102052326D01*
X50087050Y-102156583D01*
X50087048Y-102156584D01*
X50004915Y-102279505D01*
X49948343Y-102416082D01*
X49948342Y-102416087D01*
X49946730Y-102424189D01*
X49926479Y-102462072D01*
X49753553Y-102634999D01*
X49753553Y-102635000D01*
X49926478Y-102807925D01*
X49946729Y-102845810D01*
X49948339Y-102853904D01*
X49948342Y-102853915D01*
X50004915Y-102990494D01*
X50087048Y-103113415D01*
X50191584Y-103217951D01*
X50314505Y-103300084D01*
X50449930Y-103356179D01*
X50451087Y-103356658D01*
X50596082Y-103385500D01*
X50596084Y-103385500D01*
X50743916Y-103385500D01*
X50743918Y-103385500D01*
X50888913Y-103356658D01*
X50995334Y-103312577D01*
X51615974Y-103312577D01*
X51721232Y-103356177D01*
X51721239Y-103356179D01*
X51866132Y-103385000D01*
X52013868Y-103385000D01*
X52158760Y-103356179D01*
X52158767Y-103356177D01*
X52264024Y-103312577D01*
X51940000Y-102988553D01*
X51615974Y-103312577D01*
X50995334Y-103312577D01*
X51025495Y-103300084D01*
X51148416Y-103217951D01*
X51252951Y-103113416D01*
X51335084Y-102990495D01*
X51391658Y-102853913D01*
X51393268Y-102845819D01*
X51413520Y-102807925D01*
X51586446Y-102634999D01*
X51543660Y-102592213D01*
X51615000Y-102592213D01*
X51615000Y-102677787D01*
X51637149Y-102760445D01*
X51679936Y-102834554D01*
X51740446Y-102895064D01*
X51814555Y-102937851D01*
X51897213Y-102960000D01*
X51982787Y-102960000D01*
X52065445Y-102937851D01*
X52139554Y-102895064D01*
X52200064Y-102834554D01*
X52242851Y-102760445D01*
X52265000Y-102677787D01*
X52265000Y-102634999D01*
X52293553Y-102634999D01*
X52293553Y-102635000D01*
X52617577Y-102959024D01*
X52661177Y-102853767D01*
X52661179Y-102853761D01*
X52666713Y-102825940D01*
X72649500Y-102825940D01*
X72649500Y-102984059D01*
X72690421Y-103136779D01*
X72690422Y-103136781D01*
X72690423Y-103136784D01*
X72769480Y-103273716D01*
X72881284Y-103385520D01*
X73018216Y-103464577D01*
X73170940Y-103505499D01*
X73170941Y-103505500D01*
X73170943Y-103505500D01*
X73329059Y-103505500D01*
X73329059Y-103505499D01*
X73481784Y-103464577D01*
X73618716Y-103385520D01*
X73730520Y-103273716D01*
X73809577Y-103136784D01*
X73850499Y-102984059D01*
X73850500Y-102984059D01*
X73850500Y-102825941D01*
X73850499Y-102825940D01*
X73835031Y-102768214D01*
X73809577Y-102673216D01*
X73730520Y-102536284D01*
X73618716Y-102424480D01*
X73556544Y-102388585D01*
X73522067Y-102343653D01*
X73529459Y-102287500D01*
X73574392Y-102253022D01*
X73593545Y-102250500D01*
X73729059Y-102250500D01*
X73729059Y-102250499D01*
X73881784Y-102209577D01*
X74018716Y-102130520D01*
X74130520Y-102018716D01*
X74186970Y-101920940D01*
X78649500Y-101920940D01*
X78649500Y-102079059D01*
X78690421Y-102231779D01*
X78690422Y-102231781D01*
X78690423Y-102231784D01*
X78769480Y-102368716D01*
X78881284Y-102480520D01*
X79018216Y-102559577D01*
X79170940Y-102600499D01*
X79170941Y-102600500D01*
X79170943Y-102600500D01*
X79329059Y-102600500D01*
X79329059Y-102600499D01*
X79481784Y-102559577D01*
X79618716Y-102480520D01*
X79730520Y-102368716D01*
X79809577Y-102231784D01*
X79850499Y-102079059D01*
X79850500Y-102079059D01*
X79850500Y-101920941D01*
X79850499Y-101920940D01*
X79844629Y-101899034D01*
X79809577Y-101768216D01*
X79753415Y-101670940D01*
X85149500Y-101670940D01*
X85149500Y-101829059D01*
X85190421Y-101981779D01*
X85190422Y-101981781D01*
X85190423Y-101981784D01*
X85269480Y-102118716D01*
X85381284Y-102230520D01*
X85518216Y-102309577D01*
X85670940Y-102350499D01*
X85670941Y-102350500D01*
X85670943Y-102350500D01*
X85829059Y-102350500D01*
X85829059Y-102350499D01*
X85981784Y-102309577D01*
X86118716Y-102230520D01*
X86230520Y-102118716D01*
X86309577Y-101981784D01*
X86309577Y-101981781D01*
X86310914Y-101979467D01*
X86355847Y-101944989D01*
X86412000Y-101952381D01*
X86439086Y-101979467D01*
X86440422Y-101981781D01*
X86440423Y-101981784D01*
X86519480Y-102118716D01*
X86631284Y-102230520D01*
X86768216Y-102309577D01*
X86920940Y-102350499D01*
X86920941Y-102350500D01*
X86920943Y-102350500D01*
X87079059Y-102350500D01*
X87079059Y-102350499D01*
X87231784Y-102309577D01*
X87368716Y-102230520D01*
X87480520Y-102118716D01*
X87559577Y-101981784D01*
X87600499Y-101829059D01*
X87600500Y-101829059D01*
X87600500Y-101670941D01*
X87600499Y-101670940D01*
X87899500Y-101670940D01*
X87899500Y-101829059D01*
X87940421Y-101981779D01*
X87940422Y-101981781D01*
X87940423Y-101981784D01*
X88019480Y-102118716D01*
X88131284Y-102230520D01*
X88268216Y-102309577D01*
X88420940Y-102350499D01*
X88420941Y-102350500D01*
X88420943Y-102350500D01*
X88579059Y-102350500D01*
X88579059Y-102350499D01*
X88731784Y-102309577D01*
X88868716Y-102230520D01*
X88980520Y-102118716D01*
X89059577Y-101981784D01*
X89100499Y-101829059D01*
X89100500Y-101829059D01*
X89100500Y-101670941D01*
X89100499Y-101670940D01*
X89399500Y-101670940D01*
X89399500Y-101829059D01*
X89440421Y-101981779D01*
X89440422Y-101981781D01*
X89440423Y-101981784D01*
X89519480Y-102118716D01*
X89631284Y-102230520D01*
X89768216Y-102309577D01*
X89920940Y-102350499D01*
X89920941Y-102350500D01*
X89920943Y-102350500D01*
X90079059Y-102350500D01*
X90079059Y-102350499D01*
X90231784Y-102309577D01*
X90368716Y-102230520D01*
X90480520Y-102118716D01*
X90559577Y-101981784D01*
X90578654Y-101910586D01*
X90588102Y-101875327D01*
X91489500Y-101875327D01*
X91489500Y-103624672D01*
X91504034Y-103697740D01*
X91552231Y-103769874D01*
X91559399Y-103780601D01*
X91642260Y-103835966D01*
X91715326Y-103850500D01*
X91715328Y-103850500D01*
X93464672Y-103850500D01*
X93464674Y-103850500D01*
X93537740Y-103835966D01*
X93620601Y-103780601D01*
X93675966Y-103697740D01*
X93690500Y-103624674D01*
X93690500Y-102663388D01*
X94029500Y-102663388D01*
X94029500Y-102836611D01*
X94056597Y-103007698D01*
X94056600Y-103007711D01*
X94110125Y-103172442D01*
X94110127Y-103172446D01*
X94188767Y-103326787D01*
X94288878Y-103464578D01*
X94290586Y-103466928D01*
X94413072Y-103589414D01*
X94413075Y-103589416D01*
X94413076Y-103589417D01*
X94553212Y-103691232D01*
X94707553Y-103769872D01*
X94707557Y-103769874D01*
X94872288Y-103823399D01*
X94872294Y-103823400D01*
X94872299Y-103823402D01*
X94986359Y-103841467D01*
X95043388Y-103850500D01*
X95043389Y-103850500D01*
X95216612Y-103850500D01*
X95259383Y-103843725D01*
X95387701Y-103823402D01*
X95387708Y-103823399D01*
X95387711Y-103823399D01*
X95552442Y-103769874D01*
X95552442Y-103769873D01*
X95552445Y-103769873D01*
X95706788Y-103691232D01*
X95846928Y-103589414D01*
X95969414Y-103466928D01*
X96071232Y-103326788D01*
X96149873Y-103172445D01*
X96180217Y-103079057D01*
X96203399Y-103007711D01*
X96203399Y-103007708D01*
X96203402Y-103007701D01*
X96230500Y-102836611D01*
X96230500Y-102663389D01*
X96230500Y-102663388D01*
X96569500Y-102663388D01*
X96569500Y-102836611D01*
X96596597Y-103007698D01*
X96596600Y-103007711D01*
X96650125Y-103172442D01*
X96650127Y-103172446D01*
X96728767Y-103326787D01*
X96828878Y-103464578D01*
X96830586Y-103466928D01*
X96953072Y-103589414D01*
X96953075Y-103589416D01*
X96953076Y-103589417D01*
X97093212Y-103691232D01*
X97247553Y-103769872D01*
X97247557Y-103769874D01*
X97412288Y-103823399D01*
X97412294Y-103823400D01*
X97412299Y-103823402D01*
X97526359Y-103841467D01*
X97583388Y-103850500D01*
X97583389Y-103850500D01*
X97756612Y-103850500D01*
X97799383Y-103843725D01*
X97927701Y-103823402D01*
X97927708Y-103823399D01*
X97927711Y-103823399D01*
X98092442Y-103769874D01*
X98092442Y-103769873D01*
X98092445Y-103769873D01*
X98246788Y-103691232D01*
X98386928Y-103589414D01*
X98509414Y-103466928D01*
X98611232Y-103326788D01*
X98689873Y-103172445D01*
X98720217Y-103079057D01*
X98743399Y-103007711D01*
X98743399Y-103007708D01*
X98743402Y-103007701D01*
X98770500Y-102836611D01*
X98770500Y-102663426D01*
X99110000Y-102663426D01*
X99110000Y-102836573D01*
X99137085Y-103007581D01*
X99137088Y-103007594D01*
X99190588Y-103172250D01*
X99190590Y-103172255D01*
X99269190Y-103326516D01*
X99269198Y-103326529D01*
X99273708Y-103332735D01*
X99273709Y-103332735D01*
X99727036Y-102879407D01*
X99744075Y-102942993D01*
X99809901Y-103057007D01*
X99902993Y-103150099D01*
X100017007Y-103215925D01*
X100080591Y-103232962D01*
X99627263Y-103686290D01*
X99633474Y-103690803D01*
X99633480Y-103690807D01*
X99787744Y-103769409D01*
X99787749Y-103769411D01*
X99952405Y-103822911D01*
X99952418Y-103822914D01*
X100123426Y-103850000D01*
X100296574Y-103850000D01*
X100467581Y-103822914D01*
X100467594Y-103822911D01*
X100632250Y-103769411D01*
X100632255Y-103769409D01*
X100786515Y-103690809D01*
X100786531Y-103690800D01*
X100792736Y-103686290D01*
X100339408Y-103232962D01*
X100402993Y-103215925D01*
X100517007Y-103150099D01*
X100610099Y-103057007D01*
X100675925Y-102942993D01*
X100692962Y-102879408D01*
X101146290Y-103332736D01*
X101150800Y-103326531D01*
X101150809Y-103326515D01*
X101229409Y-103172255D01*
X101229411Y-103172250D01*
X101282911Y-103007594D01*
X101282914Y-103007581D01*
X101310000Y-102836573D01*
X101310000Y-102663426D01*
X101650000Y-102663426D01*
X101650000Y-102836573D01*
X101677085Y-103007581D01*
X101677088Y-103007594D01*
X101730588Y-103172250D01*
X101730590Y-103172255D01*
X101809190Y-103326516D01*
X101809198Y-103326529D01*
X101813708Y-103332735D01*
X101813709Y-103332735D01*
X102267036Y-102879407D01*
X102284075Y-102942993D01*
X102349901Y-103057007D01*
X102442993Y-103150099D01*
X102557007Y-103215925D01*
X102620591Y-103232962D01*
X102167263Y-103686290D01*
X102173474Y-103690803D01*
X102173480Y-103690807D01*
X102327744Y-103769409D01*
X102327749Y-103769411D01*
X102492405Y-103822911D01*
X102492418Y-103822914D01*
X102663426Y-103850000D01*
X102836574Y-103850000D01*
X103007581Y-103822914D01*
X103007594Y-103822911D01*
X103172250Y-103769411D01*
X103172255Y-103769409D01*
X103326515Y-103690809D01*
X103326531Y-103690800D01*
X103332736Y-103686290D01*
X102879408Y-103232962D01*
X102942993Y-103215925D01*
X103057007Y-103150099D01*
X103150099Y-103057007D01*
X103215925Y-102942993D01*
X103232962Y-102879408D01*
X103686290Y-103332736D01*
X103690800Y-103326531D01*
X103690809Y-103326515D01*
X103769409Y-103172255D01*
X103769411Y-103172250D01*
X103822911Y-103007594D01*
X103822914Y-103007581D01*
X103850000Y-102836573D01*
X103850000Y-102663426D01*
X103849994Y-102663388D01*
X104189500Y-102663388D01*
X104189500Y-102836611D01*
X104216597Y-103007698D01*
X104216600Y-103007711D01*
X104270125Y-103172442D01*
X104270127Y-103172446D01*
X104348767Y-103326787D01*
X104448878Y-103464578D01*
X104450586Y-103466928D01*
X104573072Y-103589414D01*
X104573075Y-103589416D01*
X104573076Y-103589417D01*
X104713212Y-103691232D01*
X104867553Y-103769872D01*
X104867557Y-103769874D01*
X105032288Y-103823399D01*
X105032294Y-103823400D01*
X105032299Y-103823402D01*
X105146359Y-103841467D01*
X105203388Y-103850500D01*
X105203389Y-103850500D01*
X105376612Y-103850500D01*
X105419383Y-103843725D01*
X105547701Y-103823402D01*
X105547708Y-103823399D01*
X105547711Y-103823399D01*
X105712442Y-103769874D01*
X105712442Y-103769873D01*
X105712445Y-103769873D01*
X105866788Y-103691232D01*
X106006928Y-103589414D01*
X106129414Y-103466928D01*
X106231232Y-103326788D01*
X106309873Y-103172445D01*
X106340217Y-103079057D01*
X106363399Y-103007711D01*
X106363399Y-103007708D01*
X106363402Y-103007701D01*
X106390500Y-102836611D01*
X106390500Y-102663389D01*
X106390500Y-102663388D01*
X106729500Y-102663388D01*
X106729500Y-102836611D01*
X106756597Y-103007698D01*
X106756600Y-103007711D01*
X106810125Y-103172442D01*
X106810127Y-103172446D01*
X106888767Y-103326787D01*
X106988878Y-103464578D01*
X106990586Y-103466928D01*
X107113072Y-103589414D01*
X107113075Y-103589416D01*
X107113076Y-103589417D01*
X107253212Y-103691232D01*
X107407553Y-103769872D01*
X107407557Y-103769874D01*
X107572288Y-103823399D01*
X107572294Y-103823400D01*
X107572299Y-103823402D01*
X107686359Y-103841467D01*
X107743388Y-103850500D01*
X107743389Y-103850500D01*
X107916612Y-103850500D01*
X107959383Y-103843725D01*
X108087701Y-103823402D01*
X108087708Y-103823399D01*
X108087711Y-103823399D01*
X108252442Y-103769874D01*
X108252442Y-103769873D01*
X108252445Y-103769873D01*
X108406788Y-103691232D01*
X108546928Y-103589414D01*
X108669414Y-103466928D01*
X108771232Y-103326788D01*
X108849873Y-103172445D01*
X108880217Y-103079057D01*
X108903399Y-103007711D01*
X108903399Y-103007708D01*
X108903402Y-103007701D01*
X108930500Y-102836611D01*
X108930500Y-102663389D01*
X108930500Y-102663388D01*
X109269500Y-102663388D01*
X109269500Y-102836611D01*
X109296597Y-103007698D01*
X109296600Y-103007711D01*
X109350125Y-103172442D01*
X109350127Y-103172446D01*
X109428767Y-103326787D01*
X109528878Y-103464578D01*
X109530586Y-103466928D01*
X109653072Y-103589414D01*
X109653075Y-103589416D01*
X109653076Y-103589417D01*
X109793212Y-103691232D01*
X109947553Y-103769872D01*
X109947557Y-103769874D01*
X110112288Y-103823399D01*
X110112294Y-103823400D01*
X110112299Y-103823402D01*
X110226359Y-103841467D01*
X110283388Y-103850500D01*
X110283389Y-103850500D01*
X110456612Y-103850500D01*
X110499383Y-103843725D01*
X110627701Y-103823402D01*
X110627708Y-103823399D01*
X110627711Y-103823399D01*
X110792442Y-103769874D01*
X110792442Y-103769873D01*
X110792445Y-103769873D01*
X110946788Y-103691232D01*
X111086928Y-103589414D01*
X111209414Y-103466928D01*
X111311232Y-103326788D01*
X111389873Y-103172445D01*
X111420217Y-103079057D01*
X111443399Y-103007711D01*
X111443399Y-103007708D01*
X111443402Y-103007701D01*
X111470500Y-102836611D01*
X111470500Y-102663389D01*
X111466003Y-102634999D01*
X111453044Y-102553174D01*
X111443402Y-102492299D01*
X111443400Y-102492294D01*
X111443399Y-102492288D01*
X111389874Y-102327557D01*
X111389872Y-102327553D01*
X111311232Y-102173212D01*
X111209417Y-102033076D01*
X111209416Y-102033075D01*
X111209414Y-102033072D01*
X111086928Y-101910586D01*
X111086925Y-101910583D01*
X111086923Y-101910582D01*
X110946787Y-101808767D01*
X110946788Y-101808767D01*
X110796177Y-101732028D01*
X110796175Y-101732026D01*
X110792458Y-101730132D01*
X110792442Y-101730125D01*
X110627711Y-101676600D01*
X110627698Y-101676597D01*
X110591981Y-101670940D01*
X112399500Y-101670940D01*
X112399500Y-101829059D01*
X112440421Y-101981779D01*
X112440422Y-101981781D01*
X112440423Y-101981784D01*
X112519480Y-102118716D01*
X112631284Y-102230520D01*
X112768213Y-102309575D01*
X112770532Y-102310914D01*
X112805010Y-102355847D01*
X112797618Y-102412000D01*
X112770532Y-102439086D01*
X112631283Y-102519480D01*
X112519480Y-102631283D01*
X112440424Y-102768214D01*
X112440421Y-102768220D01*
X112399500Y-102920940D01*
X112399500Y-103079059D01*
X112440421Y-103231779D01*
X112440422Y-103231781D01*
X112440423Y-103231784D01*
X112519480Y-103368716D01*
X112631284Y-103480520D01*
X112768216Y-103559577D01*
X112920940Y-103600499D01*
X112920941Y-103600500D01*
X112920943Y-103600500D01*
X113079059Y-103600500D01*
X113079059Y-103600499D01*
X113231784Y-103559577D01*
X113368716Y-103480520D01*
X113480520Y-103368716D01*
X113559577Y-103231784D01*
X113600499Y-103079059D01*
X113600500Y-103079059D01*
X113600500Y-102920941D01*
X113600499Y-102920940D01*
X113585269Y-102864102D01*
X113559577Y-102768216D01*
X113480520Y-102631284D01*
X113368716Y-102519480D01*
X113231784Y-102440423D01*
X113231781Y-102440422D01*
X113229467Y-102439086D01*
X113194989Y-102394153D01*
X113202381Y-102338000D01*
X113229467Y-102310914D01*
X113231781Y-102309577D01*
X113231784Y-102309577D01*
X113368716Y-102230520D01*
X113480520Y-102118716D01*
X113559577Y-101981784D01*
X113600499Y-101829059D01*
X113600500Y-101829059D01*
X113600500Y-101670941D01*
X113600499Y-101670940D01*
X113899500Y-101670940D01*
X113899500Y-101829059D01*
X113940421Y-101981779D01*
X113940422Y-101981781D01*
X113940423Y-101981784D01*
X114019480Y-102118716D01*
X114131284Y-102230520D01*
X114268213Y-102309575D01*
X114270532Y-102310914D01*
X114305010Y-102355847D01*
X114297618Y-102412000D01*
X114270532Y-102439086D01*
X114131283Y-102519480D01*
X114019480Y-102631283D01*
X113940424Y-102768214D01*
X113940421Y-102768220D01*
X113899500Y-102920940D01*
X113899500Y-103079059D01*
X113940421Y-103231779D01*
X113940422Y-103231781D01*
X113940423Y-103231784D01*
X114019480Y-103368716D01*
X114131284Y-103480520D01*
X114268216Y-103559577D01*
X114420940Y-103600499D01*
X114420941Y-103600500D01*
X114420943Y-103600500D01*
X114579059Y-103600500D01*
X114579059Y-103600499D01*
X114731784Y-103559577D01*
X114868716Y-103480520D01*
X114980520Y-103368716D01*
X115059577Y-103231784D01*
X115100499Y-103079059D01*
X115100500Y-103079059D01*
X115100500Y-102920941D01*
X115100499Y-102920940D01*
X115085269Y-102864102D01*
X115059577Y-102768216D01*
X114980520Y-102631284D01*
X114868716Y-102519480D01*
X114731784Y-102440423D01*
X114731781Y-102440422D01*
X114729467Y-102439086D01*
X114694989Y-102394153D01*
X114702381Y-102338000D01*
X114729467Y-102310914D01*
X114731781Y-102309577D01*
X114731784Y-102309577D01*
X114868716Y-102230520D01*
X114980520Y-102118716D01*
X115059577Y-101981784D01*
X115100499Y-101829059D01*
X115100500Y-101829059D01*
X115100500Y-101670941D01*
X115100499Y-101670940D01*
X115081624Y-101600499D01*
X115059577Y-101518216D01*
X115025417Y-101459049D01*
X117229500Y-101459049D01*
X117229500Y-101740951D01*
X117233090Y-101768216D01*
X117266294Y-102020434D01*
X117339255Y-102292731D01*
X117339259Y-102292742D01*
X117447133Y-102553174D01*
X117447136Y-102553182D01*
X117588087Y-102797316D01*
X117610051Y-102825940D01*
X117759700Y-103020965D01*
X117959035Y-103220300D01*
X118182683Y-103391912D01*
X118426817Y-103532863D01*
X118687261Y-103640742D01*
X118959558Y-103713704D01*
X118959564Y-103713704D01*
X118959565Y-103713705D01*
X118959564Y-103713705D01*
X119083594Y-103730033D01*
X119239049Y-103750500D01*
X119239051Y-103750500D01*
X119520949Y-103750500D01*
X119520951Y-103750500D01*
X119800442Y-103713704D01*
X120072739Y-103640742D01*
X120333183Y-103532863D01*
X120577317Y-103391912D01*
X120800965Y-103220300D01*
X121000300Y-103020965D01*
X121171912Y-102797317D01*
X121312863Y-102553183D01*
X121420742Y-102292739D01*
X121493704Y-102020442D01*
X121530500Y-101740951D01*
X121530500Y-101459049D01*
X121493704Y-101179558D01*
X121420742Y-100907261D01*
X121312863Y-100646817D01*
X121171912Y-100402683D01*
X121000300Y-100179035D01*
X120800965Y-99979700D01*
X120577317Y-99808088D01*
X120577318Y-99808088D01*
X120577316Y-99808087D01*
X120333182Y-99667136D01*
X120333174Y-99667133D01*
X120072742Y-99559259D01*
X120072731Y-99559255D01*
X119839536Y-99496771D01*
X119800442Y-99486296D01*
X119800440Y-99486295D01*
X119800434Y-99486294D01*
X119800435Y-99486294D01*
X119575796Y-99456720D01*
X119520951Y-99449500D01*
X119239049Y-99449500D01*
X119184203Y-99456720D01*
X118959565Y-99486294D01*
X118687268Y-99559255D01*
X118687257Y-99559259D01*
X118426825Y-99667133D01*
X118426817Y-99667136D01*
X118182683Y-99808087D01*
X117959030Y-99979704D01*
X117759704Y-100179030D01*
X117588087Y-100402683D01*
X117447136Y-100646817D01*
X117447133Y-100646825D01*
X117339259Y-100907257D01*
X117339255Y-100907268D01*
X117266294Y-101179565D01*
X117239738Y-101381283D01*
X117229500Y-101459049D01*
X115025417Y-101459049D01*
X114980520Y-101381284D01*
X114868716Y-101269480D01*
X114731784Y-101190423D01*
X114731781Y-101190422D01*
X114731779Y-101190421D01*
X114579059Y-101149500D01*
X114579057Y-101149500D01*
X114420943Y-101149500D01*
X114420941Y-101149500D01*
X114268220Y-101190421D01*
X114268214Y-101190424D01*
X114131283Y-101269480D01*
X114019480Y-101381283D01*
X113940424Y-101518214D01*
X113940421Y-101518220D01*
X113899500Y-101670940D01*
X113600499Y-101670940D01*
X113581624Y-101600499D01*
X113559577Y-101518216D01*
X113480520Y-101381284D01*
X113368716Y-101269480D01*
X113231784Y-101190423D01*
X113231781Y-101190422D01*
X113231779Y-101190421D01*
X113079059Y-101149500D01*
X113079057Y-101149500D01*
X112920943Y-101149500D01*
X112920941Y-101149500D01*
X112768220Y-101190421D01*
X112768214Y-101190424D01*
X112631283Y-101269480D01*
X112519480Y-101381283D01*
X112440424Y-101518214D01*
X112440421Y-101518220D01*
X112399500Y-101670940D01*
X110591981Y-101670940D01*
X110456612Y-101649500D01*
X110456611Y-101649500D01*
X110283389Y-101649500D01*
X110283388Y-101649500D01*
X110112301Y-101676597D01*
X110112288Y-101676600D01*
X109947557Y-101730125D01*
X109947553Y-101730127D01*
X109793212Y-101808767D01*
X109653076Y-101910582D01*
X109530582Y-102033076D01*
X109428767Y-102173212D01*
X109350127Y-102327553D01*
X109350125Y-102327557D01*
X109296600Y-102492288D01*
X109296597Y-102492301D01*
X109269500Y-102663388D01*
X108930500Y-102663388D01*
X108926003Y-102634999D01*
X108913044Y-102553174D01*
X108903402Y-102492299D01*
X108903400Y-102492294D01*
X108903399Y-102492288D01*
X108849874Y-102327557D01*
X108849872Y-102327553D01*
X108771232Y-102173212D01*
X108669417Y-102033076D01*
X108669416Y-102033075D01*
X108669414Y-102033072D01*
X108546928Y-101910586D01*
X108546925Y-101910583D01*
X108546923Y-101910582D01*
X108406787Y-101808767D01*
X108252446Y-101730127D01*
X108252442Y-101730125D01*
X108087711Y-101676600D01*
X108087698Y-101676597D01*
X107916612Y-101649500D01*
X107916611Y-101649500D01*
X107743389Y-101649500D01*
X107743388Y-101649500D01*
X107572301Y-101676597D01*
X107572288Y-101676600D01*
X107407557Y-101730125D01*
X107407553Y-101730127D01*
X107253212Y-101808767D01*
X107113076Y-101910582D01*
X106990582Y-102033076D01*
X106888767Y-102173212D01*
X106810127Y-102327553D01*
X106810125Y-102327557D01*
X106756600Y-102492288D01*
X106756597Y-102492301D01*
X106729500Y-102663388D01*
X106390500Y-102663388D01*
X106386003Y-102634999D01*
X106373044Y-102553174D01*
X106363402Y-102492299D01*
X106363400Y-102492294D01*
X106363399Y-102492288D01*
X106309874Y-102327557D01*
X106309872Y-102327553D01*
X106231232Y-102173212D01*
X106129417Y-102033076D01*
X106129416Y-102033075D01*
X106129414Y-102033072D01*
X106006928Y-101910586D01*
X106006925Y-101910583D01*
X106006923Y-101910582D01*
X105866787Y-101808767D01*
X105712446Y-101730127D01*
X105712442Y-101730125D01*
X105547711Y-101676600D01*
X105547698Y-101676597D01*
X105376612Y-101649500D01*
X105376611Y-101649500D01*
X105203389Y-101649500D01*
X105203388Y-101649500D01*
X105032301Y-101676597D01*
X105032288Y-101676600D01*
X104867557Y-101730125D01*
X104867553Y-101730127D01*
X104713212Y-101808767D01*
X104573076Y-101910582D01*
X104450582Y-102033076D01*
X104348767Y-102173212D01*
X104270127Y-102327553D01*
X104270125Y-102327557D01*
X104216600Y-102492288D01*
X104216597Y-102492301D01*
X104189500Y-102663388D01*
X103849994Y-102663388D01*
X103822914Y-102492418D01*
X103822911Y-102492405D01*
X103769411Y-102327749D01*
X103769409Y-102327744D01*
X103690807Y-102173480D01*
X103690803Y-102173474D01*
X103686290Y-102167263D01*
X103232962Y-102620590D01*
X103215925Y-102557007D01*
X103150099Y-102442993D01*
X103057007Y-102349901D01*
X102942993Y-102284075D01*
X102879407Y-102267036D01*
X103332735Y-101813709D01*
X103332735Y-101813708D01*
X103326529Y-101809198D01*
X103326516Y-101809190D01*
X103172255Y-101730590D01*
X103172250Y-101730588D01*
X103007594Y-101677088D01*
X103007581Y-101677085D01*
X102836574Y-101650000D01*
X102663426Y-101650000D01*
X102492418Y-101677085D01*
X102492405Y-101677088D01*
X102327752Y-101730587D01*
X102173475Y-101809195D01*
X102167263Y-101813708D01*
X102167263Y-101813709D01*
X102620591Y-102267037D01*
X102557007Y-102284075D01*
X102442993Y-102349901D01*
X102349901Y-102442993D01*
X102284075Y-102557007D01*
X102267037Y-102620591D01*
X101813709Y-102167263D01*
X101813708Y-102167263D01*
X101809195Y-102173475D01*
X101730587Y-102327752D01*
X101677088Y-102492405D01*
X101677085Y-102492418D01*
X101650000Y-102663426D01*
X101310000Y-102663426D01*
X101282914Y-102492418D01*
X101282911Y-102492405D01*
X101229411Y-102327749D01*
X101229409Y-102327744D01*
X101150807Y-102173480D01*
X101150803Y-102173474D01*
X101146290Y-102167263D01*
X100692962Y-102620590D01*
X100675925Y-102557007D01*
X100610099Y-102442993D01*
X100517007Y-102349901D01*
X100402993Y-102284075D01*
X100339407Y-102267036D01*
X100792736Y-101813709D01*
X100792735Y-101813708D01*
X100786529Y-101809198D01*
X100786516Y-101809190D01*
X100632255Y-101730590D01*
X100632250Y-101730588D01*
X100467594Y-101677088D01*
X100467581Y-101677085D01*
X100296574Y-101650000D01*
X100123426Y-101650000D01*
X99952418Y-101677085D01*
X99952405Y-101677088D01*
X99787752Y-101730587D01*
X99633475Y-101809195D01*
X99627263Y-101813708D01*
X99627263Y-101813709D01*
X100080591Y-102267037D01*
X100017007Y-102284075D01*
X99902993Y-102349901D01*
X99809901Y-102442993D01*
X99744075Y-102557007D01*
X99727037Y-102620591D01*
X99273709Y-102167263D01*
X99273708Y-102167263D01*
X99269195Y-102173475D01*
X99190587Y-102327752D01*
X99137088Y-102492405D01*
X99137085Y-102492418D01*
X99110000Y-102663426D01*
X98770500Y-102663426D01*
X98770500Y-102663389D01*
X98766003Y-102634999D01*
X98753044Y-102553174D01*
X98743402Y-102492299D01*
X98743400Y-102492294D01*
X98743399Y-102492288D01*
X98689874Y-102327557D01*
X98689872Y-102327553D01*
X98611232Y-102173212D01*
X98509417Y-102033076D01*
X98509416Y-102033075D01*
X98509414Y-102033072D01*
X98386928Y-101910586D01*
X98386925Y-101910583D01*
X98386923Y-101910582D01*
X98374806Y-101901779D01*
X98347285Y-101881784D01*
X98307040Y-101852544D01*
X98246787Y-101808767D01*
X98092446Y-101730127D01*
X98092442Y-101730125D01*
X97927711Y-101676600D01*
X97927698Y-101676597D01*
X97756612Y-101649500D01*
X97756611Y-101649500D01*
X97583389Y-101649500D01*
X97583388Y-101649500D01*
X97412301Y-101676597D01*
X97412288Y-101676600D01*
X97247557Y-101730125D01*
X97247553Y-101730127D01*
X97093212Y-101808767D01*
X96953076Y-101910582D01*
X96830582Y-102033076D01*
X96728767Y-102173212D01*
X96650127Y-102327553D01*
X96650125Y-102327557D01*
X96596600Y-102492288D01*
X96596597Y-102492301D01*
X96569500Y-102663388D01*
X96230500Y-102663388D01*
X96226003Y-102634999D01*
X96213044Y-102553174D01*
X96203402Y-102492299D01*
X96203400Y-102492294D01*
X96203399Y-102492288D01*
X96149874Y-102327557D01*
X96149872Y-102327553D01*
X96071232Y-102173212D01*
X95969417Y-102033076D01*
X95969416Y-102033075D01*
X95969414Y-102033072D01*
X95846928Y-101910586D01*
X95846925Y-101910583D01*
X95846923Y-101910582D01*
X95706787Y-101808767D01*
X95552446Y-101730127D01*
X95552442Y-101730125D01*
X95387711Y-101676600D01*
X95387698Y-101676597D01*
X95216612Y-101649500D01*
X95216611Y-101649500D01*
X95043389Y-101649500D01*
X95043388Y-101649500D01*
X94872301Y-101676597D01*
X94872288Y-101676600D01*
X94707557Y-101730125D01*
X94707553Y-101730127D01*
X94553212Y-101808767D01*
X94413076Y-101910582D01*
X94290582Y-102033076D01*
X94188767Y-102173212D01*
X94110127Y-102327553D01*
X94110125Y-102327557D01*
X94056600Y-102492288D01*
X94056597Y-102492301D01*
X94029500Y-102663388D01*
X93690500Y-102663388D01*
X93690500Y-101875326D01*
X93675966Y-101802260D01*
X93620601Y-101719399D01*
X93537740Y-101664034D01*
X93464674Y-101649500D01*
X91715326Y-101649500D01*
X91666615Y-101659189D01*
X91642259Y-101664034D01*
X91559399Y-101719398D01*
X91559398Y-101719399D01*
X91504034Y-101802259D01*
X91500104Y-101822019D01*
X91490748Y-101869055D01*
X91489500Y-101875327D01*
X90588102Y-101875327D01*
X90594207Y-101852544D01*
X90594208Y-101852539D01*
X90596652Y-101843417D01*
X90600500Y-101829057D01*
X90600500Y-101670943D01*
X90600500Y-101670941D01*
X90600499Y-101670940D01*
X90581624Y-101600499D01*
X90559577Y-101518216D01*
X90480520Y-101381284D01*
X90368716Y-101269480D01*
X90231784Y-101190423D01*
X90231781Y-101190422D01*
X90231779Y-101190421D01*
X90079059Y-101149500D01*
X90079057Y-101149500D01*
X89920943Y-101149500D01*
X89920941Y-101149500D01*
X89768220Y-101190421D01*
X89768214Y-101190424D01*
X89631283Y-101269480D01*
X89519480Y-101381283D01*
X89440424Y-101518214D01*
X89440421Y-101518220D01*
X89399500Y-101670940D01*
X89100499Y-101670940D01*
X89081624Y-101600499D01*
X89059577Y-101518216D01*
X88980520Y-101381284D01*
X88868716Y-101269480D01*
X88731784Y-101190423D01*
X88731781Y-101190422D01*
X88731779Y-101190421D01*
X88579059Y-101149500D01*
X88579057Y-101149500D01*
X88420943Y-101149500D01*
X88420941Y-101149500D01*
X88268220Y-101190421D01*
X88268214Y-101190424D01*
X88131283Y-101269480D01*
X88019480Y-101381283D01*
X87940424Y-101518214D01*
X87940421Y-101518220D01*
X87899500Y-101670940D01*
X87600499Y-101670940D01*
X87581624Y-101600499D01*
X87559577Y-101518216D01*
X87480520Y-101381284D01*
X87368716Y-101269480D01*
X87231784Y-101190423D01*
X87231781Y-101190422D01*
X87231779Y-101190421D01*
X87079059Y-101149500D01*
X87079057Y-101149500D01*
X86920943Y-101149500D01*
X86920941Y-101149500D01*
X86768220Y-101190421D01*
X86768214Y-101190424D01*
X86631283Y-101269480D01*
X86519480Y-101381283D01*
X86439086Y-101520532D01*
X86394153Y-101555010D01*
X86338000Y-101547618D01*
X86310914Y-101520532D01*
X86266763Y-101444059D01*
X86230520Y-101381284D01*
X86118716Y-101269480D01*
X85981784Y-101190423D01*
X85981781Y-101190422D01*
X85981779Y-101190421D01*
X85829059Y-101149500D01*
X85829057Y-101149500D01*
X85670943Y-101149500D01*
X85670941Y-101149500D01*
X85518220Y-101190421D01*
X85518214Y-101190424D01*
X85381283Y-101269480D01*
X85269480Y-101381283D01*
X85190424Y-101518214D01*
X85190421Y-101518220D01*
X85149500Y-101670940D01*
X79753415Y-101670940D01*
X79730520Y-101631284D01*
X79618716Y-101519480D01*
X79481784Y-101440423D01*
X79481781Y-101440422D01*
X79481779Y-101440421D01*
X79329059Y-101399500D01*
X79329057Y-101399500D01*
X79170943Y-101399500D01*
X79170941Y-101399500D01*
X79018220Y-101440421D01*
X79018214Y-101440424D01*
X78881283Y-101519480D01*
X78769480Y-101631283D01*
X78690424Y-101768214D01*
X78690421Y-101768220D01*
X78649500Y-101920940D01*
X74186970Y-101920940D01*
X74209577Y-101881784D01*
X74250499Y-101729059D01*
X74250500Y-101729059D01*
X74250500Y-101570941D01*
X74250499Y-101570940D01*
X74236710Y-101519480D01*
X74209577Y-101418216D01*
X74130520Y-101281284D01*
X74018716Y-101169480D01*
X73881784Y-101090423D01*
X73881781Y-101090422D01*
X73881779Y-101090421D01*
X73729059Y-101049500D01*
X73729057Y-101049500D01*
X73570943Y-101049500D01*
X73570941Y-101049500D01*
X73418220Y-101090421D01*
X73418214Y-101090424D01*
X73281283Y-101169480D01*
X73169480Y-101281283D01*
X73090424Y-101418214D01*
X73090421Y-101418220D01*
X73049500Y-101570940D01*
X73049500Y-101729059D01*
X73090421Y-101881779D01*
X73090422Y-101881781D01*
X73090423Y-101881784D01*
X73169480Y-102018716D01*
X73281284Y-102130520D01*
X73326427Y-102156583D01*
X73343455Y-102166414D01*
X73377933Y-102211347D01*
X73370541Y-102267500D01*
X73325608Y-102301978D01*
X73306455Y-102304500D01*
X73170941Y-102304500D01*
X73018220Y-102345421D01*
X73018214Y-102345424D01*
X72881283Y-102424480D01*
X72769480Y-102536283D01*
X72690424Y-102673214D01*
X72690421Y-102673220D01*
X72649500Y-102825940D01*
X52666713Y-102825940D01*
X52670549Y-102806656D01*
X52670549Y-102806655D01*
X52690000Y-102708868D01*
X52690000Y-102561131D01*
X52661179Y-102416239D01*
X52661177Y-102416232D01*
X52617577Y-102310974D01*
X52293553Y-102634999D01*
X52265000Y-102634999D01*
X52265000Y-102592213D01*
X52242851Y-102509555D01*
X52200064Y-102435446D01*
X52139554Y-102374936D01*
X52065445Y-102332149D01*
X51982787Y-102310000D01*
X51897213Y-102310000D01*
X51814555Y-102332149D01*
X51740446Y-102374936D01*
X51679936Y-102435446D01*
X51637149Y-102509555D01*
X51615000Y-102592213D01*
X51543660Y-102592213D01*
X51413520Y-102462073D01*
X51393268Y-102424180D01*
X51391658Y-102416087D01*
X51384787Y-102399500D01*
X51335084Y-102279505D01*
X51252951Y-102156584D01*
X51148693Y-102052326D01*
X51127019Y-102000000D01*
X51148693Y-101947674D01*
X51252674Y-101843693D01*
X51305000Y-101822019D01*
X51357326Y-101843693D01*
X51461584Y-101947951D01*
X51584505Y-102030084D01*
X51702736Y-102079057D01*
X51721087Y-102086658D01*
X51729180Y-102088268D01*
X51767073Y-102108520D01*
X51939999Y-102281446D01*
X52112925Y-102108520D01*
X52150819Y-102088268D01*
X52158913Y-102086658D01*
X52295495Y-102030084D01*
X52418416Y-101947951D01*
X52522951Y-101843416D01*
X52605084Y-101720495D01*
X52661658Y-101583913D01*
X52690500Y-101438918D01*
X52690500Y-101291082D01*
X52689477Y-101285940D01*
X54764500Y-101285940D01*
X54764500Y-101444059D01*
X54805421Y-101596779D01*
X54805422Y-101596781D01*
X54805423Y-101596784D01*
X54884480Y-101733716D01*
X54996284Y-101845520D01*
X55133216Y-101924577D01*
X55285940Y-101965499D01*
X55285941Y-101965500D01*
X55285943Y-101965500D01*
X55444059Y-101965500D01*
X55444059Y-101965499D01*
X55596784Y-101924577D01*
X55668036Y-101883440D01*
X61649500Y-101883440D01*
X61649500Y-102041559D01*
X61690421Y-102194279D01*
X61690422Y-102194281D01*
X61690423Y-102194284D01*
X61769480Y-102331216D01*
X61881284Y-102443020D01*
X62018216Y-102522077D01*
X62170940Y-102562999D01*
X62170941Y-102563000D01*
X62170943Y-102563000D01*
X62329059Y-102563000D01*
X62329059Y-102562999D01*
X62481784Y-102522077D01*
X62618716Y-102443020D01*
X62730520Y-102331216D01*
X62809577Y-102194284D01*
X62850499Y-102041559D01*
X62850500Y-102041559D01*
X62850500Y-101883441D01*
X62850499Y-101883440D01*
X62842220Y-101852544D01*
X62809577Y-101730716D01*
X62730520Y-101593784D01*
X62618716Y-101481980D01*
X62481784Y-101402923D01*
X62481781Y-101402922D01*
X62481779Y-101402921D01*
X62329059Y-101362000D01*
X62329057Y-101362000D01*
X62170943Y-101362000D01*
X62170941Y-101362000D01*
X62018220Y-101402921D01*
X62018214Y-101402924D01*
X61881283Y-101481980D01*
X61769480Y-101593783D01*
X61690424Y-101730714D01*
X61690421Y-101730720D01*
X61649500Y-101883440D01*
X55668036Y-101883440D01*
X55733716Y-101845520D01*
X55845520Y-101733716D01*
X55924577Y-101596784D01*
X55965499Y-101444059D01*
X55965500Y-101444059D01*
X55965500Y-101285941D01*
X55965499Y-101285940D01*
X55964251Y-101281284D01*
X55924577Y-101133216D01*
X55845520Y-100996284D01*
X55733716Y-100884480D01*
X55596784Y-100805423D01*
X55596781Y-100805422D01*
X55596779Y-100805421D01*
X55444059Y-100764500D01*
X55444057Y-100764500D01*
X55285943Y-100764500D01*
X55285941Y-100764500D01*
X55133220Y-100805421D01*
X55133214Y-100805424D01*
X54996283Y-100884480D01*
X54884480Y-100996283D01*
X54805424Y-101133214D01*
X54805421Y-101133220D01*
X54764500Y-101285940D01*
X52689477Y-101285940D01*
X52661658Y-101146087D01*
X52605084Y-101009505D01*
X52522951Y-100886584D01*
X52418416Y-100782049D01*
X52397720Y-100768220D01*
X52295494Y-100699915D01*
X52158917Y-100643343D01*
X52158907Y-100643340D01*
X52061811Y-100624026D01*
X52013918Y-100614500D01*
X51866082Y-100614500D01*
X51824977Y-100622676D01*
X51721092Y-100643340D01*
X51721082Y-100643343D01*
X51584505Y-100699915D01*
X51461584Y-100782048D01*
X51461583Y-100782050D01*
X51357326Y-100886307D01*
X51305000Y-100907981D01*
X51252674Y-100886307D01*
X51148415Y-100782048D01*
X51025494Y-100699915D01*
X50888917Y-100643343D01*
X50888907Y-100643340D01*
X50791811Y-100624026D01*
X50743918Y-100614500D01*
X50596082Y-100614500D01*
X50554977Y-100622676D01*
X50451092Y-100643340D01*
X50451082Y-100643343D01*
X50314505Y-100699915D01*
X50191584Y-100782048D01*
X50191583Y-100782050D01*
X50087326Y-100886307D01*
X50035000Y-100907981D01*
X49982674Y-100886307D01*
X49878415Y-100782048D01*
X49755494Y-100699915D01*
X49618917Y-100643343D01*
X49618907Y-100643340D01*
X49521811Y-100624026D01*
X49473918Y-100614500D01*
X49326082Y-100614500D01*
X49284977Y-100622676D01*
X49181092Y-100643340D01*
X49181082Y-100643343D01*
X49044505Y-100699915D01*
X48921584Y-100782048D01*
X48921583Y-100782050D01*
X48817326Y-100886307D01*
X48765000Y-100907981D01*
X48712674Y-100886307D01*
X48608415Y-100782048D01*
X48485494Y-100699915D01*
X48348917Y-100643343D01*
X48348907Y-100643340D01*
X48251811Y-100624026D01*
X48203918Y-100614500D01*
X48056082Y-100614500D01*
X48014977Y-100622676D01*
X47911092Y-100643340D01*
X47911082Y-100643343D01*
X47774505Y-100699915D01*
X47651584Y-100782048D01*
X47651583Y-100782050D01*
X47547326Y-100886307D01*
X47495000Y-100907981D01*
X47442674Y-100886307D01*
X47338415Y-100782048D01*
X47215494Y-100699915D01*
X47078917Y-100643343D01*
X47078907Y-100643340D01*
X46981811Y-100624026D01*
X46933918Y-100614500D01*
X46786082Y-100614500D01*
X46744977Y-100622676D01*
X46641092Y-100643340D01*
X46641082Y-100643343D01*
X46504505Y-100699915D01*
X46381584Y-100782048D01*
X46381583Y-100782050D01*
X46277050Y-100886583D01*
X46277048Y-100886584D01*
X46194915Y-101009505D01*
X46138343Y-101146082D01*
X46138340Y-101146092D01*
X46121296Y-101231779D01*
X46109500Y-101291082D01*
X44038386Y-101291082D01*
X44037096Y-101281283D01*
X44023705Y-101179565D01*
X44023704Y-101179564D01*
X44023704Y-101179558D01*
X43950742Y-100907261D01*
X43842863Y-100646817D01*
X43701912Y-100402683D01*
X43600822Y-100270940D01*
X64199500Y-100270940D01*
X64199500Y-100429059D01*
X64240421Y-100581779D01*
X64240422Y-100581781D01*
X64240423Y-100581784D01*
X64319480Y-100718716D01*
X64431284Y-100830520D01*
X64568216Y-100909577D01*
X64720940Y-100950499D01*
X64720941Y-100950500D01*
X64720943Y-100950500D01*
X64879059Y-100950500D01*
X64879059Y-100950499D01*
X64989376Y-100920940D01*
X76149500Y-100920940D01*
X76149500Y-101079059D01*
X76190421Y-101231779D01*
X76190422Y-101231781D01*
X76190423Y-101231784D01*
X76269480Y-101368716D01*
X76381284Y-101480520D01*
X76518216Y-101559577D01*
X76670940Y-101600499D01*
X76670941Y-101600500D01*
X76670943Y-101600500D01*
X76829059Y-101600500D01*
X76829059Y-101600499D01*
X76981784Y-101559577D01*
X77118716Y-101480520D01*
X77230520Y-101368716D01*
X77309577Y-101231784D01*
X77350499Y-101079059D01*
X77350500Y-101079059D01*
X77350500Y-100920941D01*
X77350499Y-100920940D01*
X77341293Y-100886584D01*
X77309577Y-100768216D01*
X77230520Y-100631284D01*
X77118716Y-100519480D01*
X76981784Y-100440423D01*
X76981781Y-100440422D01*
X76981779Y-100440421D01*
X76829059Y-100399500D01*
X76829057Y-100399500D01*
X76670943Y-100399500D01*
X76670941Y-100399500D01*
X76518220Y-100440421D01*
X76518214Y-100440424D01*
X76381283Y-100519480D01*
X76269480Y-100631283D01*
X76190424Y-100768214D01*
X76190421Y-100768220D01*
X76149500Y-100920940D01*
X64989376Y-100920940D01*
X65031784Y-100909577D01*
X65168716Y-100830520D01*
X65280520Y-100718716D01*
X65359577Y-100581784D01*
X65400499Y-100429059D01*
X65400500Y-100429059D01*
X65400500Y-100270941D01*
X65400499Y-100270940D01*
X65373704Y-100170941D01*
X65359577Y-100118216D01*
X65280520Y-99981284D01*
X65220176Y-99920940D01*
X77649500Y-99920940D01*
X77649500Y-100079059D01*
X77690421Y-100231779D01*
X77690422Y-100231781D01*
X77690423Y-100231784D01*
X77769480Y-100368716D01*
X77881284Y-100480520D01*
X78018216Y-100559577D01*
X78170940Y-100600499D01*
X78170941Y-100600500D01*
X78170943Y-100600500D01*
X78329059Y-100600500D01*
X78329059Y-100600499D01*
X78481784Y-100559577D01*
X78618716Y-100480520D01*
X78730520Y-100368716D01*
X78809577Y-100231784D01*
X78850499Y-100079059D01*
X78850500Y-100079059D01*
X78850500Y-99920941D01*
X78850499Y-99920940D01*
X79649500Y-99920940D01*
X79649500Y-100079059D01*
X79690421Y-100231779D01*
X79690422Y-100231781D01*
X79690423Y-100231784D01*
X79769480Y-100368716D01*
X79881284Y-100480520D01*
X80018216Y-100559577D01*
X80170940Y-100600499D01*
X80170941Y-100600500D01*
X80170943Y-100600500D01*
X80329059Y-100600500D01*
X80329059Y-100600499D01*
X80481784Y-100559577D01*
X80618716Y-100480520D01*
X80730520Y-100368716D01*
X80809577Y-100231784D01*
X80825880Y-100170940D01*
X90399500Y-100170940D01*
X90399500Y-100329059D01*
X90440421Y-100481779D01*
X90440422Y-100481781D01*
X90440423Y-100481784D01*
X90519480Y-100618716D01*
X90631284Y-100730520D01*
X90768216Y-100809577D01*
X90920940Y-100850499D01*
X90920941Y-100850500D01*
X90920943Y-100850500D01*
X91079059Y-100850500D01*
X91079059Y-100850499D01*
X91231784Y-100809577D01*
X91368716Y-100730520D01*
X91480520Y-100618716D01*
X91559577Y-100481784D01*
X91559577Y-100481781D01*
X91560914Y-100479467D01*
X91605847Y-100444989D01*
X91662000Y-100452381D01*
X91689086Y-100479467D01*
X91690422Y-100481781D01*
X91690423Y-100481784D01*
X91769480Y-100618716D01*
X91881284Y-100730520D01*
X92018216Y-100809577D01*
X92170940Y-100850499D01*
X92170941Y-100850500D01*
X92170943Y-100850500D01*
X92329059Y-100850500D01*
X92329059Y-100850499D01*
X92481784Y-100809577D01*
X92618716Y-100730520D01*
X92730520Y-100618716D01*
X92809577Y-100481784D01*
X92850499Y-100329059D01*
X92850500Y-100329059D01*
X92850500Y-100170941D01*
X92850499Y-100170940D01*
X92844067Y-100146937D01*
X92809577Y-100018216D01*
X92730520Y-99881284D01*
X92618716Y-99769480D01*
X92481784Y-99690423D01*
X92481781Y-99690422D01*
X92481779Y-99690421D01*
X92329059Y-99649500D01*
X92329057Y-99649500D01*
X92170943Y-99649500D01*
X92170941Y-99649500D01*
X92018220Y-99690421D01*
X92018214Y-99690424D01*
X91881283Y-99769480D01*
X91769480Y-99881283D01*
X91689086Y-100020532D01*
X91644153Y-100055010D01*
X91588000Y-100047618D01*
X91560914Y-100020532D01*
X91503417Y-99920943D01*
X91480520Y-99881284D01*
X91368716Y-99769480D01*
X91231784Y-99690423D01*
X91231781Y-99690422D01*
X91231779Y-99690421D01*
X91079059Y-99649500D01*
X91079057Y-99649500D01*
X90920943Y-99649500D01*
X90920941Y-99649500D01*
X90768220Y-99690421D01*
X90768214Y-99690424D01*
X90631283Y-99769480D01*
X90519480Y-99881283D01*
X90440424Y-100018214D01*
X90440421Y-100018220D01*
X90399500Y-100170940D01*
X80825880Y-100170940D01*
X80850499Y-100079059D01*
X80850500Y-100079059D01*
X80850500Y-99920941D01*
X80850499Y-99920940D01*
X80836710Y-99869480D01*
X80809577Y-99768216D01*
X80730520Y-99631284D01*
X80618716Y-99519480D01*
X80550643Y-99480178D01*
X80550643Y-99480177D01*
X80481788Y-99440425D01*
X80481779Y-99440421D01*
X80409075Y-99420940D01*
X111649500Y-99420940D01*
X111649500Y-99579059D01*
X111690421Y-99731779D01*
X111690422Y-99731781D01*
X111690423Y-99731784D01*
X111711456Y-99768214D01*
X111769480Y-99868716D01*
X111848438Y-99947674D01*
X111870112Y-100000000D01*
X111848438Y-100052326D01*
X111769480Y-100131283D01*
X111690424Y-100268214D01*
X111690421Y-100268220D01*
X111649500Y-100420940D01*
X111649500Y-100579059D01*
X111690421Y-100731779D01*
X111690422Y-100731781D01*
X111690423Y-100731784D01*
X111769480Y-100868716D01*
X111881284Y-100980520D01*
X112018216Y-101059577D01*
X112170940Y-101100499D01*
X112170941Y-101100500D01*
X112170943Y-101100500D01*
X112329059Y-101100500D01*
X112329059Y-101100499D01*
X112481784Y-101059577D01*
X112618716Y-100980520D01*
X112730520Y-100868716D01*
X112809577Y-100731784D01*
X112850499Y-100579059D01*
X112850500Y-100579059D01*
X112850500Y-100420941D01*
X112850499Y-100420940D01*
X112809578Y-100268220D01*
X112809577Y-100268216D01*
X112730520Y-100131284D01*
X112651562Y-100052326D01*
X112629888Y-100000000D01*
X112651562Y-99947674D01*
X112678296Y-99920940D01*
X112730520Y-99868716D01*
X112809577Y-99731784D01*
X112850499Y-99579059D01*
X112850500Y-99579059D01*
X112850500Y-99420941D01*
X112850499Y-99420940D01*
X112809578Y-99268220D01*
X112809577Y-99268216D01*
X112730520Y-99131284D01*
X112618716Y-99019480D01*
X112481784Y-98940423D01*
X112481781Y-98940422D01*
X112481779Y-98940421D01*
X112329059Y-98899500D01*
X112329057Y-98899500D01*
X112170943Y-98899500D01*
X112170941Y-98899500D01*
X112018220Y-98940421D01*
X112018214Y-98940424D01*
X111881283Y-99019480D01*
X111769480Y-99131283D01*
X111690424Y-99268214D01*
X111690421Y-99268220D01*
X111649500Y-99420940D01*
X80409075Y-99420940D01*
X80329059Y-99399500D01*
X80329057Y-99399500D01*
X80170943Y-99399500D01*
X80170941Y-99399500D01*
X80018220Y-99440421D01*
X80018214Y-99440424D01*
X79881283Y-99519480D01*
X79769480Y-99631283D01*
X79690424Y-99768214D01*
X79690421Y-99768220D01*
X79649500Y-99920940D01*
X78850499Y-99920940D01*
X78836710Y-99869480D01*
X78809577Y-99768216D01*
X78730520Y-99631284D01*
X78618716Y-99519480D01*
X78481784Y-99440423D01*
X78481781Y-99440422D01*
X78481779Y-99440421D01*
X78329059Y-99399500D01*
X78329057Y-99399500D01*
X78170943Y-99399500D01*
X78170941Y-99399500D01*
X78018220Y-99440421D01*
X78018214Y-99440424D01*
X77881283Y-99519480D01*
X77769480Y-99631283D01*
X77690424Y-99768214D01*
X77690421Y-99768220D01*
X77649500Y-99920940D01*
X65220176Y-99920940D01*
X65168716Y-99869480D01*
X65031784Y-99790423D01*
X65031781Y-99790422D01*
X65031779Y-99790421D01*
X64879059Y-99749500D01*
X64879057Y-99749500D01*
X64720943Y-99749500D01*
X64720941Y-99749500D01*
X64568220Y-99790421D01*
X64568214Y-99790424D01*
X64431283Y-99869480D01*
X64319480Y-99981283D01*
X64240424Y-100118214D01*
X64240421Y-100118220D01*
X64199500Y-100270940D01*
X43600822Y-100270940D01*
X43530300Y-100179035D01*
X43330965Y-99979700D01*
X43107317Y-99808088D01*
X43107318Y-99808088D01*
X43107316Y-99808087D01*
X42863182Y-99667136D01*
X42863174Y-99667133D01*
X42602742Y-99559259D01*
X42602731Y-99559255D01*
X42369536Y-99496771D01*
X42330442Y-99486296D01*
X42330440Y-99486295D01*
X42330434Y-99486294D01*
X42330435Y-99486294D01*
X42105796Y-99456720D01*
X42050951Y-99449500D01*
X41769049Y-99449500D01*
X41714203Y-99456720D01*
X41489565Y-99486294D01*
X41217268Y-99559255D01*
X41217257Y-99559259D01*
X40956825Y-99667133D01*
X40956817Y-99667136D01*
X40712683Y-99808087D01*
X40489030Y-99979704D01*
X40289704Y-100179030D01*
X40118087Y-100402683D01*
X39977136Y-100646817D01*
X39977133Y-100646825D01*
X39869259Y-100907257D01*
X39869255Y-100907268D01*
X39796294Y-101179565D01*
X39769738Y-101381283D01*
X39759500Y-101459049D01*
X38650500Y-101459049D01*
X38650500Y-98620940D01*
X51399500Y-98620940D01*
X51399500Y-98779059D01*
X51440421Y-98931779D01*
X51440422Y-98931781D01*
X51440423Y-98931784D01*
X51519480Y-99068716D01*
X51631284Y-99180520D01*
X51768216Y-99259577D01*
X51920940Y-99300499D01*
X51920941Y-99300500D01*
X51920943Y-99300500D01*
X52079059Y-99300500D01*
X52079059Y-99300499D01*
X52231784Y-99259577D01*
X52368716Y-99180520D01*
X52480520Y-99068716D01*
X52559577Y-98931784D01*
X52600499Y-98779059D01*
X52600500Y-98779059D01*
X52600500Y-98620941D01*
X52600499Y-98620940D01*
X52584056Y-98559575D01*
X52559577Y-98468216D01*
X52480520Y-98331284D01*
X52470176Y-98320940D01*
X54399500Y-98320940D01*
X54399500Y-98479059D01*
X54440421Y-98631779D01*
X54440422Y-98631781D01*
X54440423Y-98631784D01*
X54519480Y-98768716D01*
X54631284Y-98880520D01*
X54768216Y-98959577D01*
X54920940Y-99000499D01*
X54920941Y-99000500D01*
X54920943Y-99000500D01*
X55079059Y-99000500D01*
X55079059Y-99000499D01*
X55231784Y-98959577D01*
X55368716Y-98880520D01*
X55480520Y-98768716D01*
X55559577Y-98631784D01*
X55600499Y-98479059D01*
X55600500Y-98479059D01*
X55600500Y-98320941D01*
X55600499Y-98320940D01*
X55576608Y-98231779D01*
X55559577Y-98168216D01*
X55480520Y-98031284D01*
X55370176Y-97920940D01*
X65399500Y-97920940D01*
X65399500Y-98079059D01*
X65440421Y-98231779D01*
X65440422Y-98231781D01*
X65440423Y-98231784D01*
X65519480Y-98368716D01*
X65631284Y-98480520D01*
X65768216Y-98559577D01*
X65920940Y-98600499D01*
X65920941Y-98600500D01*
X65920943Y-98600500D01*
X66079059Y-98600500D01*
X66079059Y-98600499D01*
X66231784Y-98559577D01*
X66368716Y-98480520D01*
X66480520Y-98368716D01*
X66559577Y-98231784D01*
X66575880Y-98170940D01*
X74534500Y-98170940D01*
X74534500Y-98329059D01*
X74575421Y-98481779D01*
X74575422Y-98481781D01*
X74575423Y-98481784D01*
X74654480Y-98618716D01*
X74766284Y-98730520D01*
X74903216Y-98809577D01*
X75055940Y-98850499D01*
X75055941Y-98850500D01*
X75055943Y-98850500D01*
X75214059Y-98850500D01*
X75214059Y-98850499D01*
X75366784Y-98809577D01*
X75503716Y-98730520D01*
X75503717Y-98730518D01*
X75504113Y-98730290D01*
X75560266Y-98722898D01*
X75605197Y-98757375D01*
X75669480Y-98868716D01*
X75781284Y-98980520D01*
X75918216Y-99059577D01*
X76070940Y-99100499D01*
X76070941Y-99100500D01*
X76070943Y-99100500D01*
X76229059Y-99100500D01*
X76229059Y-99100499D01*
X76381784Y-99059577D01*
X76518716Y-98980520D01*
X76630520Y-98868716D01*
X76709577Y-98731784D01*
X76750499Y-98579059D01*
X76750500Y-98579059D01*
X76750500Y-98420941D01*
X76750499Y-98420940D01*
X76723704Y-98320941D01*
X76709577Y-98268216D01*
X76630520Y-98131284D01*
X76518716Y-98019480D01*
X76381784Y-97940423D01*
X76381781Y-97940422D01*
X76381779Y-97940421D01*
X76229059Y-97899500D01*
X76229057Y-97899500D01*
X76070943Y-97899500D01*
X76070941Y-97899500D01*
X75918220Y-97940421D01*
X75918211Y-97940425D01*
X75780885Y-98019709D01*
X75724733Y-98027101D01*
X75679800Y-97992622D01*
X75649663Y-97940423D01*
X75615520Y-97881284D01*
X75503716Y-97769480D01*
X75366784Y-97690423D01*
X75366781Y-97690422D01*
X75366779Y-97690421D01*
X75214059Y-97649500D01*
X75214057Y-97649500D01*
X75055943Y-97649500D01*
X75055941Y-97649500D01*
X74903220Y-97690421D01*
X74903214Y-97690424D01*
X74766283Y-97769480D01*
X74654480Y-97881283D01*
X74575424Y-98018214D01*
X74575421Y-98018220D01*
X74534500Y-98170940D01*
X66575880Y-98170940D01*
X66600499Y-98079059D01*
X66600500Y-98079059D01*
X66600500Y-97920941D01*
X66600499Y-97920940D01*
X66581624Y-97850499D01*
X66559577Y-97768216D01*
X66480520Y-97631284D01*
X66368716Y-97519480D01*
X66231784Y-97440423D01*
X66231781Y-97440422D01*
X66231779Y-97440421D01*
X66079059Y-97399500D01*
X66079057Y-97399500D01*
X65920943Y-97399500D01*
X65920941Y-97399500D01*
X65768220Y-97440421D01*
X65768214Y-97440424D01*
X65631283Y-97519480D01*
X65519480Y-97631283D01*
X65440424Y-97768214D01*
X65440421Y-97768220D01*
X65399500Y-97920940D01*
X55370176Y-97920940D01*
X55368716Y-97919480D01*
X55231784Y-97840423D01*
X55231781Y-97840422D01*
X55231779Y-97840421D01*
X55079059Y-97799500D01*
X55079057Y-97799500D01*
X54920943Y-97799500D01*
X54920941Y-97799500D01*
X54768220Y-97840421D01*
X54768214Y-97840424D01*
X54631283Y-97919480D01*
X54519480Y-98031283D01*
X54440424Y-98168214D01*
X54440421Y-98168220D01*
X54399500Y-98320940D01*
X52470176Y-98320940D01*
X52368716Y-98219480D01*
X52231784Y-98140423D01*
X52231781Y-98140422D01*
X52231779Y-98140421D01*
X52079059Y-98099500D01*
X52079057Y-98099500D01*
X51920943Y-98099500D01*
X51920941Y-98099500D01*
X51768220Y-98140421D01*
X51768214Y-98140424D01*
X51631283Y-98219480D01*
X51519480Y-98331283D01*
X51440424Y-98468214D01*
X51440421Y-98468220D01*
X51399500Y-98620940D01*
X38650500Y-98620940D01*
X38650500Y-97170940D01*
X72399500Y-97170940D01*
X72399500Y-97329059D01*
X72440421Y-97481779D01*
X72440422Y-97481781D01*
X72440423Y-97481784D01*
X72519480Y-97618716D01*
X72631284Y-97730520D01*
X72768216Y-97809577D01*
X72920940Y-97850499D01*
X72920941Y-97850500D01*
X72920943Y-97850500D01*
X73079059Y-97850500D01*
X73079059Y-97850499D01*
X73231784Y-97809577D01*
X73368716Y-97730520D01*
X73480520Y-97618716D01*
X73559577Y-97481784D01*
X73600499Y-97329059D01*
X73600500Y-97329059D01*
X73600500Y-97170941D01*
X73600499Y-97170940D01*
X73581624Y-97100499D01*
X73559577Y-97018216D01*
X73480520Y-96881284D01*
X73368716Y-96769480D01*
X73231784Y-96690423D01*
X73231781Y-96690422D01*
X73231779Y-96690421D01*
X73162807Y-96671940D01*
X76749500Y-96671940D01*
X76749500Y-96830059D01*
X76790421Y-96982779D01*
X76790422Y-96982781D01*
X76790423Y-96982784D01*
X76869480Y-97119716D01*
X76981284Y-97231520D01*
X77118216Y-97310577D01*
X77270940Y-97351499D01*
X77270941Y-97351500D01*
X77270943Y-97351500D01*
X77429059Y-97351500D01*
X77429059Y-97351499D01*
X77581784Y-97310577D01*
X77718716Y-97231520D01*
X77830520Y-97119716D01*
X77909577Y-96982784D01*
X77950499Y-96830059D01*
X77950500Y-96830059D01*
X77950500Y-96671941D01*
X77950499Y-96671940D01*
X78649500Y-96671940D01*
X78649500Y-96830059D01*
X78690421Y-96982779D01*
X78690422Y-96982781D01*
X78690423Y-96982784D01*
X78769480Y-97119716D01*
X78881284Y-97231520D01*
X79018216Y-97310577D01*
X79170940Y-97351499D01*
X79170941Y-97351500D01*
X79170943Y-97351500D01*
X79329059Y-97351500D01*
X79329059Y-97351499D01*
X79481784Y-97310577D01*
X79618716Y-97231520D01*
X79730520Y-97119716D01*
X79809577Y-96982784D01*
X79826148Y-96920940D01*
X105649500Y-96920940D01*
X105649500Y-97079059D01*
X105690421Y-97231779D01*
X105690422Y-97231781D01*
X105690423Y-97231784D01*
X105769480Y-97368716D01*
X105881284Y-97480520D01*
X106018216Y-97559577D01*
X106170940Y-97600499D01*
X106170941Y-97600500D01*
X106170943Y-97600500D01*
X106329059Y-97600500D01*
X106329059Y-97600499D01*
X106481784Y-97559577D01*
X106618716Y-97480520D01*
X106730520Y-97368716D01*
X106809577Y-97231784D01*
X106850499Y-97079059D01*
X106850500Y-97079059D01*
X106850500Y-96920941D01*
X106850499Y-96920940D01*
X106809578Y-96768220D01*
X106809577Y-96768216D01*
X106730520Y-96631284D01*
X106618716Y-96519480D01*
X106481784Y-96440423D01*
X106481781Y-96440422D01*
X106481779Y-96440421D01*
X106329059Y-96399500D01*
X106329057Y-96399500D01*
X106170943Y-96399500D01*
X106170941Y-96399500D01*
X106018220Y-96440421D01*
X106018214Y-96440424D01*
X105881283Y-96519480D01*
X105769480Y-96631283D01*
X105690424Y-96768214D01*
X105690421Y-96768220D01*
X105649500Y-96920940D01*
X79826148Y-96920940D01*
X79850499Y-96830059D01*
X79850500Y-96830059D01*
X79850500Y-96671941D01*
X79850499Y-96671940D01*
X79809578Y-96519220D01*
X79809577Y-96519216D01*
X79730520Y-96382284D01*
X79618716Y-96270480D01*
X79481784Y-96191423D01*
X79481781Y-96191422D01*
X79481779Y-96191421D01*
X79329059Y-96150500D01*
X79329057Y-96150500D01*
X79170943Y-96150500D01*
X79170941Y-96150500D01*
X79018220Y-96191421D01*
X79018214Y-96191424D01*
X78881283Y-96270480D01*
X78769480Y-96382283D01*
X78690424Y-96519214D01*
X78690421Y-96519220D01*
X78649500Y-96671940D01*
X77950499Y-96671940D01*
X77909578Y-96519220D01*
X77909577Y-96519216D01*
X77830520Y-96382284D01*
X77718716Y-96270480D01*
X77581784Y-96191423D01*
X77581781Y-96191422D01*
X77581779Y-96191421D01*
X77429059Y-96150500D01*
X77429057Y-96150500D01*
X77270943Y-96150500D01*
X77270941Y-96150500D01*
X77118220Y-96191421D01*
X77118214Y-96191424D01*
X76981283Y-96270480D01*
X76869480Y-96382283D01*
X76790424Y-96519214D01*
X76790421Y-96519220D01*
X76749500Y-96671940D01*
X73162807Y-96671940D01*
X73079059Y-96649500D01*
X73079057Y-96649500D01*
X72920943Y-96649500D01*
X72920941Y-96649500D01*
X72768220Y-96690421D01*
X72768214Y-96690424D01*
X72631283Y-96769480D01*
X72519480Y-96881283D01*
X72440424Y-97018214D01*
X72440421Y-97018220D01*
X72399500Y-97170940D01*
X38650500Y-97170940D01*
X38650500Y-95920940D01*
X52149500Y-95920940D01*
X52149500Y-96079059D01*
X52190421Y-96231779D01*
X52190422Y-96231781D01*
X52190423Y-96231784D01*
X52269480Y-96368716D01*
X52381284Y-96480520D01*
X52518216Y-96559577D01*
X52670940Y-96600499D01*
X52670941Y-96600500D01*
X52670943Y-96600500D01*
X52829059Y-96600500D01*
X52829059Y-96600499D01*
X52981784Y-96559577D01*
X53118716Y-96480520D01*
X53178296Y-96420940D01*
X61899500Y-96420940D01*
X61899500Y-96579059D01*
X61940421Y-96731779D01*
X61940422Y-96731781D01*
X61940423Y-96731784D01*
X62019480Y-96868716D01*
X62131284Y-96980520D01*
X62268216Y-97059577D01*
X62420940Y-97100499D01*
X62420941Y-97100500D01*
X62420943Y-97100500D01*
X62579059Y-97100500D01*
X62579059Y-97100499D01*
X62589708Y-97097645D01*
X62601022Y-97094615D01*
X62678434Y-97073871D01*
X62731784Y-97059577D01*
X62868716Y-96980520D01*
X62980520Y-96868716D01*
X63059577Y-96731784D01*
X63100499Y-96579059D01*
X63100500Y-96579059D01*
X63100500Y-96420941D01*
X63100499Y-96420940D01*
X63059578Y-96268220D01*
X63059577Y-96268216D01*
X62980520Y-96131284D01*
X62868716Y-96019480D01*
X62731784Y-95940423D01*
X62731781Y-95940422D01*
X62731779Y-95940421D01*
X62579059Y-95899500D01*
X62579057Y-95899500D01*
X62420943Y-95899500D01*
X62420941Y-95899500D01*
X62268220Y-95940421D01*
X62268214Y-95940424D01*
X62131283Y-96019480D01*
X62019480Y-96131283D01*
X61940424Y-96268214D01*
X61940421Y-96268220D01*
X61899500Y-96420940D01*
X53178296Y-96420940D01*
X53230520Y-96368716D01*
X53309577Y-96231784D01*
X53350499Y-96079059D01*
X53350500Y-96079059D01*
X53350500Y-96064046D01*
X53372174Y-96011720D01*
X53424500Y-95990046D01*
X53490384Y-95990046D01*
X53490384Y-95990045D01*
X53643109Y-95949123D01*
X53780041Y-95870066D01*
X53891845Y-95758262D01*
X53970902Y-95621330D01*
X54011824Y-95468605D01*
X54011825Y-95468605D01*
X54011825Y-95310487D01*
X54011824Y-95310486D01*
X54011580Y-95309577D01*
X53970902Y-95157762D01*
X53949643Y-95120940D01*
X55299500Y-95120940D01*
X55299500Y-95279059D01*
X55340421Y-95431779D01*
X55340422Y-95431781D01*
X55340423Y-95431784D01*
X55419480Y-95568716D01*
X55531284Y-95680520D01*
X55668216Y-95759577D01*
X55820940Y-95800499D01*
X55820941Y-95800500D01*
X55820943Y-95800500D01*
X55979059Y-95800500D01*
X55979059Y-95800499D01*
X56131784Y-95759577D01*
X56268716Y-95680520D01*
X56380520Y-95568716D01*
X56459577Y-95431784D01*
X56462483Y-95420940D01*
X79899500Y-95420940D01*
X79899500Y-95579059D01*
X79940421Y-95731779D01*
X79940422Y-95731781D01*
X79940423Y-95731784D01*
X80019480Y-95868716D01*
X80131284Y-95980520D01*
X80268216Y-96059577D01*
X80420940Y-96100499D01*
X80420941Y-96100500D01*
X80420943Y-96100500D01*
X80579059Y-96100500D01*
X80579059Y-96100499D01*
X80731784Y-96059577D01*
X80868716Y-95980520D01*
X80980520Y-95868716D01*
X81059577Y-95731784D01*
X81100499Y-95579059D01*
X81100500Y-95579059D01*
X81100500Y-95420941D01*
X81100499Y-95420940D01*
X98699500Y-95420940D01*
X98699500Y-95579059D01*
X98740421Y-95731779D01*
X98740422Y-95731781D01*
X98740423Y-95731784D01*
X98819480Y-95868716D01*
X98931284Y-95980520D01*
X99068216Y-96059577D01*
X99220940Y-96100499D01*
X99220941Y-96100500D01*
X99220943Y-96100500D01*
X99379059Y-96100500D01*
X99379059Y-96100499D01*
X99531784Y-96059577D01*
X99668716Y-95980520D01*
X99780520Y-95868716D01*
X99859577Y-95731784D01*
X99900499Y-95579059D01*
X99900500Y-95579059D01*
X99900500Y-95420941D01*
X99900499Y-95420940D01*
X99881624Y-95350499D01*
X99859577Y-95268216D01*
X99780520Y-95131284D01*
X99668716Y-95019480D01*
X99531784Y-94940423D01*
X99531781Y-94940422D01*
X99531779Y-94940421D01*
X99379059Y-94899500D01*
X99379057Y-94899500D01*
X99220943Y-94899500D01*
X99220941Y-94899500D01*
X99068220Y-94940421D01*
X99068214Y-94940424D01*
X98931283Y-95019480D01*
X98819480Y-95131283D01*
X98740424Y-95268214D01*
X98740421Y-95268220D01*
X98699500Y-95420940D01*
X81100499Y-95420940D01*
X81081624Y-95350499D01*
X81059577Y-95268216D01*
X80980520Y-95131284D01*
X80868716Y-95019480D01*
X80731784Y-94940423D01*
X80731781Y-94940422D01*
X80731779Y-94940421D01*
X80579059Y-94899500D01*
X80579057Y-94899500D01*
X80420943Y-94899500D01*
X80420941Y-94899500D01*
X80268220Y-94940421D01*
X80268214Y-94940424D01*
X80131283Y-95019480D01*
X80019480Y-95131283D01*
X79940424Y-95268214D01*
X79940421Y-95268220D01*
X79899500Y-95420940D01*
X56462483Y-95420940D01*
X56467407Y-95402562D01*
X56468912Y-95396947D01*
X56468913Y-95396940D01*
X56474035Y-95377826D01*
X56500500Y-95279057D01*
X56500500Y-95120943D01*
X56500500Y-95120941D01*
X56500499Y-95120940D01*
X56473674Y-95020829D01*
X56459577Y-94968216D01*
X56380520Y-94831284D01*
X56268716Y-94719480D01*
X56131784Y-94640423D01*
X56131781Y-94640422D01*
X56131779Y-94640421D01*
X55979059Y-94599500D01*
X55979057Y-94599500D01*
X55820943Y-94599500D01*
X55820941Y-94599500D01*
X55668220Y-94640421D01*
X55668211Y-94640425D01*
X55548472Y-94709555D01*
X55548467Y-94709559D01*
X55531284Y-94719480D01*
X55447146Y-94803617D01*
X55447119Y-94803643D01*
X55419480Y-94831283D01*
X55340424Y-94968214D01*
X55340421Y-94968220D01*
X55299500Y-95120940D01*
X53949643Y-95120940D01*
X53891845Y-95020830D01*
X53780041Y-94909026D01*
X53643109Y-94829969D01*
X53643106Y-94829968D01*
X53643104Y-94829967D01*
X53490384Y-94789046D01*
X53490382Y-94789046D01*
X53332268Y-94789046D01*
X53332266Y-94789046D01*
X53179545Y-94829967D01*
X53179539Y-94829970D01*
X53042608Y-94909026D01*
X52930805Y-95020829D01*
X52851749Y-95157760D01*
X52851746Y-95157766D01*
X52810825Y-95310486D01*
X52810825Y-95325500D01*
X52789151Y-95377826D01*
X52736825Y-95399500D01*
X52670941Y-95399500D01*
X52518220Y-95440421D01*
X52518214Y-95440424D01*
X52381283Y-95519480D01*
X52269480Y-95631283D01*
X52190424Y-95768214D01*
X52190421Y-95768220D01*
X52149500Y-95920940D01*
X38650500Y-95920940D01*
X38650500Y-94569999D01*
X40176758Y-94569999D01*
X40176759Y-94570000D01*
X40718012Y-94570000D01*
X40700795Y-94579940D01*
X40644940Y-94635795D01*
X40605444Y-94704204D01*
X40585000Y-94780504D01*
X40585000Y-94859496D01*
X40605444Y-94935796D01*
X40644940Y-95004205D01*
X40700795Y-95060060D01*
X40718012Y-95070000D01*
X40176759Y-95070000D01*
X40220357Y-95175254D01*
X40302436Y-95298096D01*
X40406903Y-95402563D01*
X40529745Y-95484642D01*
X40666232Y-95541177D01*
X40666239Y-95541179D01*
X40811132Y-95570000D01*
X41035000Y-95570000D01*
X41035000Y-95120000D01*
X41535000Y-95120000D01*
X41535000Y-95570000D01*
X41758868Y-95570000D01*
X41903760Y-95541179D01*
X41903767Y-95541177D01*
X42040254Y-95484642D01*
X42163096Y-95402563D01*
X42163098Y-95402562D01*
X42267562Y-95298098D01*
X42267563Y-95298096D01*
X42349642Y-95175254D01*
X42393241Y-95070000D01*
X41851988Y-95070000D01*
X41869205Y-95060060D01*
X41925060Y-95004205D01*
X41964556Y-94935796D01*
X41985000Y-94859496D01*
X41985000Y-94780504D01*
X41964556Y-94704204D01*
X41925060Y-94635795D01*
X41869205Y-94579940D01*
X41851988Y-94570000D01*
X42393241Y-94570000D01*
X42393241Y-94569999D01*
X44206758Y-94569999D01*
X44206759Y-94570000D01*
X44748012Y-94570000D01*
X44730795Y-94579940D01*
X44674940Y-94635795D01*
X44635444Y-94704204D01*
X44615000Y-94780504D01*
X44615000Y-94859496D01*
X44635444Y-94935796D01*
X44674940Y-95004205D01*
X44730795Y-95060060D01*
X44748012Y-95070000D01*
X44206759Y-95070000D01*
X44250357Y-95175254D01*
X44332436Y-95298096D01*
X44436903Y-95402563D01*
X44559745Y-95484642D01*
X44696232Y-95541177D01*
X44696239Y-95541179D01*
X44841132Y-95570000D01*
X45215000Y-95570000D01*
X45215000Y-95120000D01*
X45715000Y-95120000D01*
X45715000Y-95570000D01*
X46088868Y-95570000D01*
X46233760Y-95541179D01*
X46233767Y-95541177D01*
X46370254Y-95484642D01*
X46493096Y-95402563D01*
X46493098Y-95402562D01*
X46597562Y-95298098D01*
X46597563Y-95298096D01*
X46679642Y-95175254D01*
X46723241Y-95070000D01*
X46181988Y-95070000D01*
X46199205Y-95060060D01*
X46255060Y-95004205D01*
X46294556Y-94935796D01*
X46315000Y-94859496D01*
X46315000Y-94780504D01*
X46294556Y-94704204D01*
X46275351Y-94670940D01*
X50399500Y-94670940D01*
X50399500Y-94829059D01*
X50440421Y-94981779D01*
X50440422Y-94981781D01*
X50440423Y-94981784D01*
X50519480Y-95118716D01*
X50631284Y-95230520D01*
X50768216Y-95309577D01*
X50920940Y-95350499D01*
X50920941Y-95350500D01*
X50920943Y-95350500D01*
X51079059Y-95350500D01*
X51079059Y-95350499D01*
X51231784Y-95309577D01*
X51368716Y-95230520D01*
X51480520Y-95118716D01*
X51559577Y-94981784D01*
X51600499Y-94829059D01*
X51600500Y-94829059D01*
X51600500Y-94670941D01*
X51600499Y-94670940D01*
X51592321Y-94640421D01*
X51559577Y-94518216D01*
X51480520Y-94381284D01*
X51368716Y-94269480D01*
X51231784Y-94190423D01*
X51231781Y-94190422D01*
X51231779Y-94190421D01*
X51221141Y-94187571D01*
X51079059Y-94149500D01*
X51079057Y-94149500D01*
X50920943Y-94149500D01*
X50920941Y-94149500D01*
X50768220Y-94190421D01*
X50768214Y-94190424D01*
X50631283Y-94269480D01*
X50519480Y-94381283D01*
X50440424Y-94518214D01*
X50440421Y-94518220D01*
X50399500Y-94670940D01*
X46275351Y-94670940D01*
X46255060Y-94635795D01*
X46199205Y-94579940D01*
X46181988Y-94570000D01*
X46723241Y-94570000D01*
X46723241Y-94569999D01*
X46679642Y-94464745D01*
X46597563Y-94341903D01*
X46493096Y-94237436D01*
X46370254Y-94155357D01*
X46287164Y-94120940D01*
X54399500Y-94120940D01*
X54399500Y-94279059D01*
X54440421Y-94431779D01*
X54440422Y-94431781D01*
X54440423Y-94431784D01*
X54519480Y-94568716D01*
X54631284Y-94680520D01*
X54768216Y-94759577D01*
X54920940Y-94800499D01*
X54920941Y-94800500D01*
X54920943Y-94800500D01*
X55079059Y-94800500D01*
X55079059Y-94800499D01*
X55231784Y-94759577D01*
X55368716Y-94680520D01*
X55480520Y-94568716D01*
X55559577Y-94431784D01*
X55600499Y-94279059D01*
X55600500Y-94279059D01*
X55600500Y-94120941D01*
X55600499Y-94120940D01*
X55594906Y-94100068D01*
X55559577Y-93968216D01*
X55480520Y-93831284D01*
X55368716Y-93719480D01*
X55231784Y-93640423D01*
X55231781Y-93640422D01*
X55231779Y-93640421D01*
X55079059Y-93599500D01*
X55079057Y-93599500D01*
X54920943Y-93599500D01*
X54920941Y-93599500D01*
X54768220Y-93640421D01*
X54768214Y-93640424D01*
X54631283Y-93719480D01*
X54519480Y-93831283D01*
X54440424Y-93968214D01*
X54440421Y-93968220D01*
X54399500Y-94120940D01*
X46287164Y-94120940D01*
X46233767Y-94098822D01*
X46233760Y-94098820D01*
X46088868Y-94070000D01*
X45715000Y-94070000D01*
X45715000Y-94520000D01*
X45215000Y-94520000D01*
X45215000Y-94070000D01*
X44841132Y-94070000D01*
X44696239Y-94098820D01*
X44696232Y-94098822D01*
X44559745Y-94155357D01*
X44436903Y-94237436D01*
X44436902Y-94237438D01*
X44332438Y-94341902D01*
X44332436Y-94341903D01*
X44250357Y-94464745D01*
X44206758Y-94569999D01*
X42393241Y-94569999D01*
X42349642Y-94464745D01*
X42267563Y-94341903D01*
X42163096Y-94237436D01*
X42040254Y-94155357D01*
X41903767Y-94098822D01*
X41903760Y-94098820D01*
X41758868Y-94070000D01*
X41535000Y-94070000D01*
X41535000Y-94520000D01*
X41035000Y-94520000D01*
X41035000Y-94070000D01*
X40811132Y-94070000D01*
X40666239Y-94098820D01*
X40666232Y-94098822D01*
X40529745Y-94155357D01*
X40406903Y-94237436D01*
X40406902Y-94237438D01*
X40302438Y-94341902D01*
X40302436Y-94341903D01*
X40220357Y-94464745D01*
X40176758Y-94569999D01*
X38650500Y-94569999D01*
X38650500Y-93322130D01*
X44449500Y-93322130D01*
X44449500Y-93457869D01*
X44484629Y-93588971D01*
X44484631Y-93588976D01*
X44552498Y-93706524D01*
X44648476Y-93802502D01*
X44766025Y-93870369D01*
X44766026Y-93870369D01*
X44766028Y-93870370D01*
X44831579Y-93887934D01*
X44897130Y-93905499D01*
X44897131Y-93905500D01*
X44897133Y-93905500D01*
X45032869Y-93905500D01*
X45032869Y-93905499D01*
X45163975Y-93870369D01*
X45281524Y-93802502D01*
X45377502Y-93706524D01*
X45445369Y-93588975D01*
X45480499Y-93457869D01*
X45480500Y-93457869D01*
X45480500Y-93322131D01*
X45480499Y-93322130D01*
X45477135Y-93309577D01*
X45455952Y-93230519D01*
X45445370Y-93191028D01*
X45445368Y-93191023D01*
X45377501Y-93073475D01*
X45281524Y-92977498D01*
X45183564Y-92920940D01*
X47259500Y-92920940D01*
X47259500Y-93079059D01*
X47300421Y-93231779D01*
X47300422Y-93231781D01*
X47300423Y-93231784D01*
X47379480Y-93368716D01*
X47491284Y-93480520D01*
X47628216Y-93559577D01*
X47780940Y-93600499D01*
X47780941Y-93600500D01*
X47780943Y-93600500D01*
X47939059Y-93600500D01*
X47939059Y-93600499D01*
X48091784Y-93559577D01*
X48228716Y-93480520D01*
X48247805Y-93461431D01*
X64248537Y-93461431D01*
X64248537Y-93619550D01*
X64289458Y-93772270D01*
X64289459Y-93772272D01*
X64289460Y-93772275D01*
X64368517Y-93909207D01*
X64480321Y-94021011D01*
X64617253Y-94100068D01*
X64769977Y-94140990D01*
X64769978Y-94140991D01*
X64769980Y-94140991D01*
X64928096Y-94140991D01*
X64928096Y-94140990D01*
X65002925Y-94120940D01*
X70399500Y-94120940D01*
X70399500Y-94279059D01*
X70440421Y-94431779D01*
X70440422Y-94431781D01*
X70440423Y-94431784D01*
X70519480Y-94568716D01*
X70631284Y-94680520D01*
X70768216Y-94759577D01*
X70920940Y-94800499D01*
X70920941Y-94800500D01*
X70920943Y-94800500D01*
X71079059Y-94800500D01*
X71079059Y-94800499D01*
X71231784Y-94759577D01*
X71368716Y-94680520D01*
X71480520Y-94568716D01*
X71559577Y-94431784D01*
X71600499Y-94279059D01*
X71600500Y-94279059D01*
X71600500Y-94120941D01*
X71600499Y-94120940D01*
X71594906Y-94100068D01*
X71559577Y-93968216D01*
X71480520Y-93831284D01*
X71368716Y-93719480D01*
X71231784Y-93640423D01*
X71231781Y-93640422D01*
X71231779Y-93640421D01*
X71079059Y-93599500D01*
X71079057Y-93599500D01*
X70920943Y-93599500D01*
X70920941Y-93599500D01*
X70768220Y-93640421D01*
X70768214Y-93640424D01*
X70631283Y-93719480D01*
X70519480Y-93831283D01*
X70440424Y-93968214D01*
X70440421Y-93968220D01*
X70399500Y-94120940D01*
X65002925Y-94120940D01*
X65080821Y-94100068D01*
X65217753Y-94021011D01*
X65329557Y-93909207D01*
X65408614Y-93772275D01*
X65449536Y-93619550D01*
X65449537Y-93619550D01*
X65449537Y-93461432D01*
X65449536Y-93461431D01*
X65449039Y-93459578D01*
X65424875Y-93369393D01*
X65432267Y-93313241D01*
X65477200Y-93278763D01*
X65533353Y-93286155D01*
X65548679Y-93297915D01*
X65631284Y-93380520D01*
X65768216Y-93459577D01*
X65920940Y-93500499D01*
X65920941Y-93500500D01*
X65920943Y-93500500D01*
X66079059Y-93500500D01*
X66079059Y-93500499D01*
X66231784Y-93459577D01*
X66298706Y-93420940D01*
X71649500Y-93420940D01*
X71649500Y-93579059D01*
X71690421Y-93731779D01*
X71690422Y-93731781D01*
X71690423Y-93731784D01*
X71769480Y-93868716D01*
X71881284Y-93980520D01*
X72018216Y-94059577D01*
X72170940Y-94100499D01*
X72170941Y-94100500D01*
X72170943Y-94100500D01*
X72329059Y-94100500D01*
X72329059Y-94100499D01*
X72481784Y-94059577D01*
X72618716Y-93980520D01*
X72697674Y-93901562D01*
X72750000Y-93879888D01*
X72802326Y-93901562D01*
X72881284Y-93980520D01*
X73018216Y-94059577D01*
X73170940Y-94100499D01*
X73170941Y-94100500D01*
X73170943Y-94100500D01*
X73329059Y-94100500D01*
X73329059Y-94100499D01*
X73481784Y-94059577D01*
X73618716Y-93980520D01*
X73730520Y-93868716D01*
X73809577Y-93731784D01*
X73850499Y-93579059D01*
X73850500Y-93579059D01*
X73850500Y-93420941D01*
X73850499Y-93420940D01*
X73843188Y-93393653D01*
X73843936Y-93387965D01*
X73841150Y-93382949D01*
X73847542Y-93360571D01*
X73850580Y-93337501D01*
X73855131Y-93334008D01*
X73856708Y-93328490D01*
X73871857Y-93321173D01*
X73895513Y-93303022D01*
X73906217Y-93300984D01*
X73910429Y-93300500D01*
X73979057Y-93300500D01*
X74030596Y-93286689D01*
X74036017Y-93286067D01*
X74058391Y-93292459D01*
X74081464Y-93295496D01*
X74084957Y-93300048D01*
X74090476Y-93301625D01*
X74101779Y-93321969D01*
X74115944Y-93340429D01*
X74115944Y-93340430D01*
X74140421Y-93431779D01*
X74140422Y-93431781D01*
X74140423Y-93431784D01*
X74219480Y-93568716D01*
X74331284Y-93680520D01*
X74468216Y-93759577D01*
X74620940Y-93800499D01*
X74620941Y-93800500D01*
X74620943Y-93800500D01*
X74779059Y-93800500D01*
X74779059Y-93800499D01*
X74898314Y-93768545D01*
X74954465Y-93775937D01*
X74981551Y-93803022D01*
X75019480Y-93868716D01*
X75131284Y-93980520D01*
X75268216Y-94059577D01*
X75420940Y-94100499D01*
X75420941Y-94100500D01*
X75420943Y-94100500D01*
X75475500Y-94100500D01*
X75527826Y-94122174D01*
X75549500Y-94174500D01*
X75549500Y-94329059D01*
X75590421Y-94481779D01*
X75590422Y-94481781D01*
X75590423Y-94481784D01*
X75669480Y-94618716D01*
X75781284Y-94730520D01*
X75918216Y-94809577D01*
X76070940Y-94850499D01*
X76070941Y-94850500D01*
X76070943Y-94850500D01*
X76229059Y-94850500D01*
X76229059Y-94850499D01*
X76381784Y-94809577D01*
X76518716Y-94730520D01*
X76630520Y-94618716D01*
X76709577Y-94481784D01*
X76750499Y-94329059D01*
X76750500Y-94329059D01*
X76750500Y-94174500D01*
X76772174Y-94122174D01*
X76775153Y-94120940D01*
X85699500Y-94120940D01*
X85699500Y-94279059D01*
X85740421Y-94431779D01*
X85740422Y-94431781D01*
X85740423Y-94431784D01*
X85819480Y-94568716D01*
X85931284Y-94680520D01*
X86068216Y-94759577D01*
X86220940Y-94800499D01*
X86220941Y-94800500D01*
X86220943Y-94800500D01*
X86379059Y-94800500D01*
X86379059Y-94800499D01*
X86531784Y-94759577D01*
X86668716Y-94680520D01*
X86780520Y-94568716D01*
X86859577Y-94431784D01*
X86900499Y-94279059D01*
X86900500Y-94279059D01*
X86900500Y-94120941D01*
X86900499Y-94120940D01*
X86894906Y-94100068D01*
X86859577Y-93968216D01*
X86780520Y-93831284D01*
X86668716Y-93719480D01*
X86531784Y-93640423D01*
X86531781Y-93640422D01*
X86531779Y-93640421D01*
X86379059Y-93599500D01*
X86379057Y-93599500D01*
X86220943Y-93599500D01*
X86220941Y-93599500D01*
X86068220Y-93640421D01*
X86068214Y-93640424D01*
X85931283Y-93719480D01*
X85819480Y-93831283D01*
X85740424Y-93968214D01*
X85740421Y-93968220D01*
X85699500Y-94120940D01*
X76775153Y-94120940D01*
X76824500Y-94100500D01*
X76829059Y-94100500D01*
X76829059Y-94100499D01*
X76981784Y-94059577D01*
X77118716Y-93980520D01*
X77230520Y-93868716D01*
X77309577Y-93731784D01*
X77350499Y-93579059D01*
X77350500Y-93579059D01*
X77350500Y-93424500D01*
X77372174Y-93372174D01*
X77424500Y-93350500D01*
X77429059Y-93350500D01*
X77429059Y-93350499D01*
X77581784Y-93309577D01*
X77718716Y-93230520D01*
X77747674Y-93201562D01*
X77800000Y-93179888D01*
X77852326Y-93201562D01*
X77881284Y-93230520D01*
X78018216Y-93309577D01*
X78170940Y-93350499D01*
X78170941Y-93350500D01*
X78170943Y-93350500D01*
X78329059Y-93350500D01*
X78329059Y-93350499D01*
X78481784Y-93309577D01*
X78618716Y-93230520D01*
X78730520Y-93118716D01*
X78809577Y-92981784D01*
X78850499Y-92829059D01*
X78850500Y-92829059D01*
X78850500Y-92670941D01*
X78850499Y-92670940D01*
X78842321Y-92640421D01*
X78809577Y-92518216D01*
X78730520Y-92381284D01*
X78618716Y-92269480D01*
X78481784Y-92190423D01*
X78481781Y-92190422D01*
X78481779Y-92190421D01*
X78329059Y-92149500D01*
X78329057Y-92149500D01*
X78170943Y-92149500D01*
X78170941Y-92149500D01*
X78018220Y-92190421D01*
X78018214Y-92190424D01*
X77881283Y-92269480D01*
X77852326Y-92298438D01*
X77800000Y-92320112D01*
X77747674Y-92298438D01*
X77718716Y-92269480D01*
X77581784Y-92190423D01*
X77581781Y-92190422D01*
X77581779Y-92190421D01*
X77429059Y-92149500D01*
X77429057Y-92149500D01*
X77270943Y-92149500D01*
X77270941Y-92149500D01*
X77118220Y-92190421D01*
X77118214Y-92190424D01*
X76981283Y-92269480D01*
X76869480Y-92381283D01*
X76790424Y-92518214D01*
X76790421Y-92518220D01*
X76749500Y-92670940D01*
X76749500Y-92825500D01*
X76727826Y-92877826D01*
X76675500Y-92899500D01*
X76670941Y-92899500D01*
X76518220Y-92940421D01*
X76518214Y-92940424D01*
X76381283Y-93019480D01*
X76269480Y-93131283D01*
X76189086Y-93270532D01*
X76144153Y-93305010D01*
X76088000Y-93297618D01*
X76060914Y-93270532D01*
X76037813Y-93230519D01*
X75980520Y-93131284D01*
X75868716Y-93019480D01*
X75731784Y-92940423D01*
X75731781Y-92940422D01*
X75731779Y-92940421D01*
X75579059Y-92899500D01*
X75579057Y-92899500D01*
X75420943Y-92899500D01*
X75301685Y-92931454D01*
X75245533Y-92924062D01*
X75218447Y-92896976D01*
X75207391Y-92877826D01*
X75180520Y-92831284D01*
X75068716Y-92719480D01*
X74931784Y-92640423D01*
X74931781Y-92640422D01*
X74931779Y-92640421D01*
X74779059Y-92599500D01*
X74779057Y-92599500D01*
X74620943Y-92599500D01*
X74574684Y-92611894D01*
X74518532Y-92604500D01*
X74484055Y-92559568D01*
X74459578Y-92468220D01*
X74459577Y-92468216D01*
X74380520Y-92331284D01*
X74268716Y-92219480D01*
X74131784Y-92140423D01*
X74131781Y-92140422D01*
X74131779Y-92140421D01*
X73979059Y-92099500D01*
X73979057Y-92099500D01*
X73820943Y-92099500D01*
X73820941Y-92099500D01*
X73668220Y-92140421D01*
X73668214Y-92140424D01*
X73531283Y-92219480D01*
X73419480Y-92331283D01*
X73340424Y-92468214D01*
X73340421Y-92468220D01*
X73299500Y-92620940D01*
X73299500Y-92779059D01*
X73306812Y-92806347D01*
X73299420Y-92862500D01*
X73254487Y-92896978D01*
X73235334Y-92899500D01*
X73170941Y-92899500D01*
X73018220Y-92940421D01*
X73018214Y-92940424D01*
X72881283Y-93019480D01*
X72802326Y-93098438D01*
X72750000Y-93120112D01*
X72697674Y-93098438D01*
X72618716Y-93019480D01*
X72481784Y-92940423D01*
X72481781Y-92940422D01*
X72481779Y-92940421D01*
X72329059Y-92899500D01*
X72329057Y-92899500D01*
X72170943Y-92899500D01*
X72170941Y-92899500D01*
X72018220Y-92940421D01*
X72018214Y-92940424D01*
X71881283Y-93019480D01*
X71769480Y-93131283D01*
X71690424Y-93268214D01*
X71690421Y-93268220D01*
X71649500Y-93420940D01*
X66298706Y-93420940D01*
X66368716Y-93380520D01*
X66480520Y-93268716D01*
X66559577Y-93131784D01*
X66600499Y-92979059D01*
X66600500Y-92979059D01*
X66600500Y-92820941D01*
X66600499Y-92820940D01*
X66559578Y-92668220D01*
X66559577Y-92668216D01*
X66480520Y-92531284D01*
X66368716Y-92419480D01*
X66231784Y-92340423D01*
X66231781Y-92340422D01*
X66231779Y-92340421D01*
X66079059Y-92299500D01*
X66079057Y-92299500D01*
X65920943Y-92299500D01*
X65920941Y-92299500D01*
X65768220Y-92340421D01*
X65768214Y-92340424D01*
X65631283Y-92419480D01*
X65519480Y-92531283D01*
X65440424Y-92668214D01*
X65440421Y-92668220D01*
X65399500Y-92820940D01*
X65399500Y-92820943D01*
X65399500Y-92979057D01*
X65421181Y-93059971D01*
X65424162Y-93071096D01*
X65416769Y-93127249D01*
X65371836Y-93161728D01*
X65315683Y-93154335D01*
X65300357Y-93142575D01*
X65217753Y-93059971D01*
X65147620Y-93019480D01*
X65080821Y-92980914D01*
X65080818Y-92980913D01*
X65080816Y-92980912D01*
X64928096Y-92939991D01*
X64928094Y-92939991D01*
X64769980Y-92939991D01*
X64769978Y-92939991D01*
X64617257Y-92980912D01*
X64617251Y-92980915D01*
X64480320Y-93059971D01*
X64368517Y-93171774D01*
X64289461Y-93308705D01*
X64289458Y-93308711D01*
X64248537Y-93461431D01*
X48247805Y-93461431D01*
X48340520Y-93368716D01*
X48419577Y-93231784D01*
X48460499Y-93079059D01*
X48460500Y-93079059D01*
X48460500Y-92920941D01*
X48460499Y-92920940D01*
X48454078Y-92896978D01*
X48419577Y-92768216D01*
X48340520Y-92631284D01*
X48228716Y-92519480D01*
X48091784Y-92440423D01*
X48091781Y-92440422D01*
X48091779Y-92440421D01*
X47939059Y-92399500D01*
X47939057Y-92399500D01*
X47780943Y-92399500D01*
X47780941Y-92399500D01*
X47628220Y-92440421D01*
X47628214Y-92440424D01*
X47491283Y-92519480D01*
X47379480Y-92631283D01*
X47300424Y-92768214D01*
X47300421Y-92768220D01*
X47259500Y-92920940D01*
X45183564Y-92920940D01*
X45163976Y-92909631D01*
X45163971Y-92909629D01*
X45032869Y-92874500D01*
X45032867Y-92874500D01*
X44897133Y-92874500D01*
X44897131Y-92874500D01*
X44766028Y-92909629D01*
X44766023Y-92909631D01*
X44648475Y-92977498D01*
X44552498Y-93073475D01*
X44484631Y-93191023D01*
X44484629Y-93191028D01*
X44449500Y-93322130D01*
X38650500Y-93322130D01*
X38650500Y-92220940D01*
X51399500Y-92220940D01*
X51399500Y-92379059D01*
X51440421Y-92531779D01*
X51440422Y-92531781D01*
X51440423Y-92531784D01*
X51519480Y-92668716D01*
X51631284Y-92780520D01*
X51768216Y-92859577D01*
X51920940Y-92900499D01*
X51920941Y-92900500D01*
X51920943Y-92900500D01*
X52079059Y-92900500D01*
X52079059Y-92900499D01*
X52231784Y-92859577D01*
X52368716Y-92780520D01*
X52480520Y-92668716D01*
X52559577Y-92531784D01*
X52600499Y-92379059D01*
X52600500Y-92379059D01*
X52600500Y-92220941D01*
X52600499Y-92220940D01*
X70399500Y-92220940D01*
X70399500Y-92379059D01*
X70440421Y-92531779D01*
X70440422Y-92531781D01*
X70440423Y-92531784D01*
X70519480Y-92668716D01*
X70631284Y-92780520D01*
X70768216Y-92859577D01*
X70920940Y-92900499D01*
X70920941Y-92900500D01*
X70920943Y-92900500D01*
X71079059Y-92900500D01*
X71079059Y-92900499D01*
X71231784Y-92859577D01*
X71368716Y-92780520D01*
X71480520Y-92668716D01*
X71559577Y-92531784D01*
X71600499Y-92379059D01*
X71600500Y-92379059D01*
X71600500Y-92220941D01*
X71600499Y-92220940D01*
X71592321Y-92190421D01*
X71559577Y-92068216D01*
X71480520Y-91931284D01*
X71368716Y-91819480D01*
X71231784Y-91740423D01*
X71231781Y-91740422D01*
X71231779Y-91740421D01*
X71079059Y-91699500D01*
X71079057Y-91699500D01*
X70920943Y-91699500D01*
X70920941Y-91699500D01*
X70768220Y-91740421D01*
X70768214Y-91740424D01*
X70631283Y-91819480D01*
X70519480Y-91931283D01*
X70440424Y-92068214D01*
X70440421Y-92068220D01*
X70399500Y-92220940D01*
X52600499Y-92220940D01*
X52592321Y-92190421D01*
X52559577Y-92068216D01*
X52480520Y-91931284D01*
X52368716Y-91819480D01*
X52231784Y-91740423D01*
X52231781Y-91740422D01*
X52231779Y-91740421D01*
X52079059Y-91699500D01*
X52079057Y-91699500D01*
X51920943Y-91699500D01*
X51920941Y-91699500D01*
X51768220Y-91740421D01*
X51768214Y-91740424D01*
X51631283Y-91819480D01*
X51519480Y-91931283D01*
X51440424Y-92068214D01*
X51440421Y-92068220D01*
X51399500Y-92220940D01*
X38650500Y-92220940D01*
X38650500Y-91420940D01*
X83149500Y-91420940D01*
X83149500Y-91579059D01*
X83190421Y-91731779D01*
X83190422Y-91731781D01*
X83190423Y-91731784D01*
X83269480Y-91868716D01*
X83381284Y-91980520D01*
X83518216Y-92059577D01*
X83670940Y-92100499D01*
X83670941Y-92100500D01*
X83670943Y-92100500D01*
X83829059Y-92100500D01*
X83829059Y-92100499D01*
X83981784Y-92059577D01*
X84118716Y-91980520D01*
X84230520Y-91868716D01*
X84309577Y-91731784D01*
X84350499Y-91579059D01*
X84350500Y-91579059D01*
X84350500Y-91420941D01*
X84350499Y-91420940D01*
X84309578Y-91268220D01*
X84309577Y-91268216D01*
X84230520Y-91131284D01*
X84118716Y-91019480D01*
X83981784Y-90940423D01*
X83981781Y-90940422D01*
X83981779Y-90940421D01*
X83829059Y-90899500D01*
X83829057Y-90899500D01*
X83670943Y-90899500D01*
X83670941Y-90899500D01*
X83518220Y-90940421D01*
X83518214Y-90940424D01*
X83381283Y-91019480D01*
X83269480Y-91131283D01*
X83190424Y-91268214D01*
X83190421Y-91268220D01*
X83149500Y-91420940D01*
X38650500Y-91420940D01*
X38650500Y-90170940D01*
X63399500Y-90170940D01*
X63399500Y-90329059D01*
X63440421Y-90481779D01*
X63440422Y-90481781D01*
X63440423Y-90481784D01*
X63519480Y-90618716D01*
X63631284Y-90730520D01*
X63768216Y-90809577D01*
X63920940Y-90850499D01*
X63920941Y-90850500D01*
X63920943Y-90850500D01*
X64079059Y-90850500D01*
X64079059Y-90850499D01*
X64231784Y-90809577D01*
X64368716Y-90730520D01*
X64480520Y-90618716D01*
X64559577Y-90481784D01*
X64600499Y-90329059D01*
X64600500Y-90329059D01*
X64600500Y-90170941D01*
X64600499Y-90170940D01*
X66149500Y-90170940D01*
X66149500Y-90329059D01*
X66190421Y-90481779D01*
X66190422Y-90481781D01*
X66190423Y-90481784D01*
X66269480Y-90618716D01*
X66381284Y-90730520D01*
X66518216Y-90809577D01*
X66670940Y-90850499D01*
X66670941Y-90850500D01*
X66670943Y-90850500D01*
X66829059Y-90850500D01*
X66829059Y-90850499D01*
X66981784Y-90809577D01*
X67118716Y-90730520D01*
X67230520Y-90618716D01*
X67309577Y-90481784D01*
X67350499Y-90329059D01*
X67350500Y-90329059D01*
X67350500Y-90170941D01*
X67350499Y-90170940D01*
X67309578Y-90018220D01*
X67309577Y-90018216D01*
X67230520Y-89881284D01*
X67118716Y-89769480D01*
X66981784Y-89690423D01*
X66981781Y-89690422D01*
X66981779Y-89690421D01*
X66829059Y-89649500D01*
X66829057Y-89649500D01*
X66670943Y-89649500D01*
X66670941Y-89649500D01*
X66518220Y-89690421D01*
X66518214Y-89690424D01*
X66381283Y-89769480D01*
X66269480Y-89881283D01*
X66190424Y-90018214D01*
X66190421Y-90018220D01*
X66149500Y-90170940D01*
X64600499Y-90170940D01*
X64559578Y-90018220D01*
X64559577Y-90018216D01*
X64480520Y-89881284D01*
X64368716Y-89769480D01*
X64231784Y-89690423D01*
X64231781Y-89690422D01*
X64231779Y-89690421D01*
X64079059Y-89649500D01*
X64079057Y-89649500D01*
X63920943Y-89649500D01*
X63920941Y-89649500D01*
X63768220Y-89690421D01*
X63768214Y-89690424D01*
X63631283Y-89769480D01*
X63519480Y-89881283D01*
X63440424Y-90018214D01*
X63440421Y-90018220D01*
X63399500Y-90170940D01*
X38650500Y-90170940D01*
X38650500Y-89170940D01*
X47509500Y-89170940D01*
X47509500Y-89329059D01*
X47550421Y-89481779D01*
X47550422Y-89481781D01*
X47550423Y-89481784D01*
X47629480Y-89618716D01*
X47741284Y-89730520D01*
X47878216Y-89809577D01*
X48030940Y-89850499D01*
X48030941Y-89850500D01*
X48030943Y-89850500D01*
X48189059Y-89850500D01*
X48189059Y-89850499D01*
X48341784Y-89809577D01*
X48478716Y-89730520D01*
X48590520Y-89618716D01*
X48669577Y-89481784D01*
X48710499Y-89329059D01*
X48710500Y-89329059D01*
X48710500Y-89170941D01*
X48710499Y-89170940D01*
X48669578Y-89018220D01*
X48669577Y-89018216D01*
X48590520Y-88881284D01*
X48478716Y-88769480D01*
X48341784Y-88690423D01*
X48341781Y-88690422D01*
X48341779Y-88690421D01*
X48189059Y-88649500D01*
X48189057Y-88649500D01*
X48030943Y-88649500D01*
X48030941Y-88649500D01*
X47878220Y-88690421D01*
X47878214Y-88690424D01*
X47741283Y-88769480D01*
X47629480Y-88881283D01*
X47550424Y-89018214D01*
X47550421Y-89018220D01*
X47509500Y-89170940D01*
X38650500Y-89170940D01*
X38650500Y-88170940D01*
X48509500Y-88170940D01*
X48509500Y-88329059D01*
X48550421Y-88481779D01*
X48550422Y-88481781D01*
X48550423Y-88481784D01*
X48629480Y-88618716D01*
X48741284Y-88730520D01*
X48878216Y-88809577D01*
X49030940Y-88850499D01*
X49030941Y-88850500D01*
X49030943Y-88850500D01*
X49189059Y-88850500D01*
X49189059Y-88850499D01*
X49341784Y-88809577D01*
X49478716Y-88730520D01*
X49538296Y-88670940D01*
X99899500Y-88670940D01*
X99899500Y-88829059D01*
X99940421Y-88981779D01*
X99940422Y-88981781D01*
X99940423Y-88981784D01*
X100019480Y-89118716D01*
X100131284Y-89230520D01*
X100268216Y-89309577D01*
X100420940Y-89350499D01*
X100420941Y-89350500D01*
X100420943Y-89350500D01*
X100579059Y-89350500D01*
X100579059Y-89350499D01*
X100731784Y-89309577D01*
X100868716Y-89230520D01*
X100980520Y-89118716D01*
X101059577Y-88981784D01*
X101100499Y-88829059D01*
X101100500Y-88829059D01*
X101100500Y-88670941D01*
X101100499Y-88670940D01*
X101059578Y-88518220D01*
X101059577Y-88518216D01*
X100980520Y-88381284D01*
X100868716Y-88269480D01*
X100731784Y-88190423D01*
X100731781Y-88190422D01*
X100731779Y-88190421D01*
X100579059Y-88149500D01*
X100579057Y-88149500D01*
X100420943Y-88149500D01*
X100420941Y-88149500D01*
X100268220Y-88190421D01*
X100268214Y-88190424D01*
X100131283Y-88269480D01*
X100019480Y-88381283D01*
X99940424Y-88518214D01*
X99940421Y-88518220D01*
X99899500Y-88670940D01*
X49538296Y-88670940D01*
X49590520Y-88618716D01*
X49669577Y-88481784D01*
X49710499Y-88329059D01*
X49710500Y-88329059D01*
X49710500Y-88170941D01*
X49710499Y-88170940D01*
X49698323Y-88125500D01*
X49669577Y-88018216D01*
X49590520Y-87881284D01*
X49478716Y-87769480D01*
X49341784Y-87690423D01*
X49341781Y-87690422D01*
X49341779Y-87690421D01*
X49189059Y-87649500D01*
X49189057Y-87649500D01*
X49030943Y-87649500D01*
X49030941Y-87649500D01*
X48878220Y-87690421D01*
X48878214Y-87690424D01*
X48741283Y-87769480D01*
X48629480Y-87881283D01*
X48550424Y-88018214D01*
X48550421Y-88018220D01*
X48509500Y-88170940D01*
X38650500Y-88170940D01*
X38650500Y-87542130D01*
X44449500Y-87542130D01*
X44449500Y-87677869D01*
X44484629Y-87808971D01*
X44484631Y-87808976D01*
X44552498Y-87926524D01*
X44648476Y-88022502D01*
X44766025Y-88090369D01*
X44766026Y-88090369D01*
X44766028Y-88090370D01*
X44831579Y-88107934D01*
X44897130Y-88125499D01*
X44897131Y-88125500D01*
X44897133Y-88125500D01*
X45032869Y-88125500D01*
X45032869Y-88125499D01*
X45086879Y-88111027D01*
X45148131Y-88094615D01*
X45163971Y-88090370D01*
X45163970Y-88090370D01*
X45163975Y-88090369D01*
X45281524Y-88022502D01*
X45377502Y-87926524D01*
X45445369Y-87808975D01*
X45480499Y-87677869D01*
X45480500Y-87677869D01*
X45480500Y-87542131D01*
X45480499Y-87542130D01*
X45445370Y-87411028D01*
X45445368Y-87411023D01*
X45377501Y-87293475D01*
X45281524Y-87197498D01*
X45163976Y-87129631D01*
X45163971Y-87129629D01*
X45032869Y-87094500D01*
X45032867Y-87094500D01*
X44897133Y-87094500D01*
X44897131Y-87094500D01*
X44766028Y-87129629D01*
X44766023Y-87129631D01*
X44648475Y-87197498D01*
X44552498Y-87293475D01*
X44484631Y-87411023D01*
X44484629Y-87411028D01*
X44449500Y-87542130D01*
X38650500Y-87542130D01*
X38650500Y-85929999D01*
X40176758Y-85929999D01*
X40176759Y-85930000D01*
X40718012Y-85930000D01*
X40700795Y-85939940D01*
X40644940Y-85995795D01*
X40605444Y-86064204D01*
X40585000Y-86140504D01*
X40585000Y-86219496D01*
X40605444Y-86295796D01*
X40644940Y-86364205D01*
X40700795Y-86420060D01*
X40718012Y-86430000D01*
X40176759Y-86430000D01*
X40220357Y-86535254D01*
X40302436Y-86658096D01*
X40406903Y-86762563D01*
X40529745Y-86844642D01*
X40666232Y-86901177D01*
X40666239Y-86901179D01*
X40811132Y-86930000D01*
X41035000Y-86930000D01*
X41035000Y-86480000D01*
X41535000Y-86480000D01*
X41535000Y-86930000D01*
X41758868Y-86930000D01*
X41903760Y-86901179D01*
X41903767Y-86901177D01*
X42040254Y-86844642D01*
X42163096Y-86762563D01*
X42163098Y-86762562D01*
X42267562Y-86658098D01*
X42267563Y-86658096D01*
X42349642Y-86535254D01*
X42393241Y-86430000D01*
X41851988Y-86430000D01*
X41869205Y-86420060D01*
X41925060Y-86364205D01*
X41964556Y-86295796D01*
X41985000Y-86219496D01*
X41985000Y-86140504D01*
X41964556Y-86064204D01*
X41925060Y-85995795D01*
X41869205Y-85939940D01*
X41851988Y-85930000D01*
X42393241Y-85930000D01*
X42393241Y-85929999D01*
X44206758Y-85929999D01*
X44206759Y-85930000D01*
X44748012Y-85930000D01*
X44730795Y-85939940D01*
X44674940Y-85995795D01*
X44635444Y-86064204D01*
X44615000Y-86140504D01*
X44615000Y-86219496D01*
X44635444Y-86295796D01*
X44674940Y-86364205D01*
X44730795Y-86420060D01*
X44748012Y-86430000D01*
X44206759Y-86430000D01*
X44250357Y-86535254D01*
X44332436Y-86658096D01*
X44436903Y-86762563D01*
X44559745Y-86844642D01*
X44696232Y-86901177D01*
X44696239Y-86901179D01*
X44841132Y-86930000D01*
X45215000Y-86930000D01*
X45215000Y-86480000D01*
X45715000Y-86480000D01*
X45715000Y-86930000D01*
X46088868Y-86930000D01*
X46233760Y-86901179D01*
X46233767Y-86901177D01*
X46370254Y-86844642D01*
X46493096Y-86762563D01*
X46493098Y-86762562D01*
X46597562Y-86658098D01*
X46597563Y-86658096D01*
X46679642Y-86535254D01*
X46723241Y-86430000D01*
X46181988Y-86430000D01*
X46199205Y-86420060D01*
X46255060Y-86364205D01*
X46294556Y-86295796D01*
X46315000Y-86219496D01*
X46315000Y-86140504D01*
X46294556Y-86064204D01*
X46255060Y-85995795D01*
X46199205Y-85939940D01*
X46181988Y-85930000D01*
X46723241Y-85930000D01*
X46723241Y-85929999D01*
X46719489Y-85920940D01*
X51399500Y-85920940D01*
X51399500Y-86079059D01*
X51440421Y-86231779D01*
X51440422Y-86231781D01*
X51440423Y-86231784D01*
X51519480Y-86368716D01*
X51631284Y-86480520D01*
X51768216Y-86559577D01*
X51920940Y-86600499D01*
X51920941Y-86600500D01*
X51920943Y-86600500D01*
X52079059Y-86600500D01*
X52083868Y-86599867D01*
X52084059Y-86601318D01*
X52134808Y-86607994D01*
X52169291Y-86652924D01*
X52169293Y-86652931D01*
X52190421Y-86731781D01*
X52258963Y-86850500D01*
X52269480Y-86868716D01*
X52381284Y-86980520D01*
X52518216Y-87059577D01*
X52670940Y-87100499D01*
X52670941Y-87100500D01*
X52670943Y-87100500D01*
X52829059Y-87100500D01*
X52829059Y-87100499D01*
X52981784Y-87059577D01*
X53118716Y-86980520D01*
X53230520Y-86868716D01*
X53309577Y-86731784D01*
X53350499Y-86579059D01*
X53350500Y-86579059D01*
X53350500Y-86420941D01*
X53350499Y-86420940D01*
X53331624Y-86350499D01*
X53309577Y-86268216D01*
X53253415Y-86170940D01*
X62149500Y-86170940D01*
X62149500Y-86329059D01*
X62190421Y-86481779D01*
X62190422Y-86481781D01*
X62190423Y-86481784D01*
X62269480Y-86618716D01*
X62381284Y-86730520D01*
X62518216Y-86809577D01*
X62670940Y-86850499D01*
X62670941Y-86850500D01*
X62670943Y-86850500D01*
X62829059Y-86850500D01*
X62829059Y-86850499D01*
X62981784Y-86809577D01*
X63118716Y-86730520D01*
X63230520Y-86618716D01*
X63309577Y-86481784D01*
X63350499Y-86329059D01*
X63350500Y-86329059D01*
X63350500Y-86170941D01*
X63350499Y-86170940D01*
X63331624Y-86100499D01*
X63309577Y-86018216D01*
X63230520Y-85881284D01*
X63118716Y-85769480D01*
X62981784Y-85690423D01*
X62981781Y-85690422D01*
X62981779Y-85690421D01*
X62829059Y-85649500D01*
X62829057Y-85649500D01*
X62670943Y-85649500D01*
X62670941Y-85649500D01*
X62518220Y-85690421D01*
X62518214Y-85690424D01*
X62381283Y-85769480D01*
X62269480Y-85881283D01*
X62190424Y-86018214D01*
X62190421Y-86018220D01*
X62149500Y-86170940D01*
X53253415Y-86170940D01*
X53230520Y-86131284D01*
X53118716Y-86019480D01*
X52981784Y-85940423D01*
X52981781Y-85940422D01*
X52981779Y-85940421D01*
X52829059Y-85899500D01*
X52829057Y-85899500D01*
X52670943Y-85899500D01*
X52670941Y-85899500D01*
X52666132Y-85900133D01*
X52665941Y-85898687D01*
X52615173Y-85891995D01*
X52580706Y-85847068D01*
X52559578Y-85768220D01*
X52559577Y-85768216D01*
X52480520Y-85631284D01*
X52368716Y-85519480D01*
X52231784Y-85440423D01*
X52231781Y-85440422D01*
X52231779Y-85440421D01*
X52079059Y-85399500D01*
X52079057Y-85399500D01*
X51920943Y-85399500D01*
X51920941Y-85399500D01*
X51768220Y-85440421D01*
X51768214Y-85440424D01*
X51631283Y-85519480D01*
X51519480Y-85631283D01*
X51440424Y-85768214D01*
X51440421Y-85768220D01*
X51399500Y-85920940D01*
X46719489Y-85920940D01*
X46679642Y-85824745D01*
X46597563Y-85701903D01*
X46493096Y-85597436D01*
X46370254Y-85515357D01*
X46233767Y-85458822D01*
X46233760Y-85458820D01*
X46088868Y-85430000D01*
X45715000Y-85430000D01*
X45715000Y-85880000D01*
X45215000Y-85880000D01*
X45215000Y-85430000D01*
X44841132Y-85430000D01*
X44696239Y-85458820D01*
X44696232Y-85458822D01*
X44559745Y-85515357D01*
X44436903Y-85597436D01*
X44436902Y-85597438D01*
X44332438Y-85701902D01*
X44332436Y-85701903D01*
X44250357Y-85824745D01*
X44206758Y-85929999D01*
X42393241Y-85929999D01*
X42349642Y-85824745D01*
X42267563Y-85701903D01*
X42163096Y-85597436D01*
X42040254Y-85515357D01*
X41903767Y-85458822D01*
X41903760Y-85458820D01*
X41758868Y-85430000D01*
X41535000Y-85430000D01*
X41535000Y-85880000D01*
X41035000Y-85880000D01*
X41035000Y-85430000D01*
X40811132Y-85430000D01*
X40666239Y-85458820D01*
X40666232Y-85458822D01*
X40529745Y-85515357D01*
X40406903Y-85597436D01*
X40406902Y-85597438D01*
X40302438Y-85701902D01*
X40302436Y-85701903D01*
X40220357Y-85824745D01*
X40176758Y-85929999D01*
X38650500Y-85929999D01*
X38650500Y-84420940D01*
X50899500Y-84420940D01*
X50899500Y-84579059D01*
X50940421Y-84731779D01*
X50940422Y-84731781D01*
X50940423Y-84731784D01*
X51019480Y-84868716D01*
X51131284Y-84980520D01*
X51268216Y-85059577D01*
X51420940Y-85100499D01*
X51420941Y-85100500D01*
X51420943Y-85100500D01*
X51579059Y-85100500D01*
X51579059Y-85100499D01*
X51731784Y-85059577D01*
X51868716Y-84980520D01*
X51980520Y-84868716D01*
X52013867Y-84810955D01*
X52058799Y-84776477D01*
X52114952Y-84783869D01*
X52149431Y-84828801D01*
X52149431Y-84828802D01*
X52190421Y-84981779D01*
X52190422Y-84981781D01*
X52190423Y-84981784D01*
X52269480Y-85118716D01*
X52381284Y-85230520D01*
X52518216Y-85309577D01*
X52670940Y-85350499D01*
X52670941Y-85350500D01*
X52670943Y-85350500D01*
X52829059Y-85350500D01*
X52829059Y-85350499D01*
X52981784Y-85309577D01*
X53118716Y-85230520D01*
X53230520Y-85118716D01*
X53309577Y-84981784D01*
X53309577Y-84981781D01*
X53310914Y-84979467D01*
X53355847Y-84944989D01*
X53412000Y-84952381D01*
X53439086Y-84979467D01*
X53440422Y-84981781D01*
X53440423Y-84981784D01*
X53519480Y-85118716D01*
X53631284Y-85230520D01*
X53768216Y-85309577D01*
X53920940Y-85350499D01*
X53920941Y-85350500D01*
X53920943Y-85350500D01*
X54079059Y-85350500D01*
X54079059Y-85350499D01*
X54231784Y-85309577D01*
X54368716Y-85230520D01*
X54480520Y-85118716D01*
X54559577Y-84981784D01*
X54575880Y-84920940D01*
X59399500Y-84920940D01*
X59399500Y-85079059D01*
X59440421Y-85231779D01*
X59440422Y-85231781D01*
X59440423Y-85231784D01*
X59519480Y-85368716D01*
X59631284Y-85480520D01*
X59768216Y-85559577D01*
X59920940Y-85600499D01*
X59920941Y-85600500D01*
X59920943Y-85600500D01*
X60079059Y-85600500D01*
X60079059Y-85600499D01*
X60231784Y-85559577D01*
X60368716Y-85480520D01*
X60480520Y-85368716D01*
X60559577Y-85231784D01*
X60559577Y-85231781D01*
X60560914Y-85229467D01*
X60605847Y-85194989D01*
X60662000Y-85202381D01*
X60689086Y-85229467D01*
X60690422Y-85231781D01*
X60690423Y-85231784D01*
X60769480Y-85368716D01*
X60881284Y-85480520D01*
X61018216Y-85559577D01*
X61170940Y-85600499D01*
X61170941Y-85600500D01*
X61170943Y-85600500D01*
X61329059Y-85600500D01*
X61329059Y-85600499D01*
X61481784Y-85559577D01*
X61618716Y-85480520D01*
X61678296Y-85420940D01*
X63399500Y-85420940D01*
X63399500Y-85579059D01*
X63440421Y-85731779D01*
X63440422Y-85731781D01*
X63440423Y-85731784D01*
X63519480Y-85868716D01*
X63631284Y-85980520D01*
X63768216Y-86059577D01*
X63920940Y-86100499D01*
X63920941Y-86100500D01*
X63920943Y-86100500D01*
X64079059Y-86100500D01*
X64079059Y-86100499D01*
X64231784Y-86059577D01*
X64368716Y-85980520D01*
X64480520Y-85868716D01*
X64559577Y-85731784D01*
X64575880Y-85670940D01*
X66649500Y-85670940D01*
X66649500Y-85829059D01*
X66690421Y-85981779D01*
X66690422Y-85981781D01*
X66690423Y-85981784D01*
X66769480Y-86118716D01*
X66881284Y-86230520D01*
X67018216Y-86309577D01*
X67170940Y-86350499D01*
X67170941Y-86350500D01*
X67170943Y-86350500D01*
X67329059Y-86350500D01*
X67329059Y-86350499D01*
X67481784Y-86309577D01*
X67618716Y-86230520D01*
X67730520Y-86118716D01*
X67809577Y-85981784D01*
X67825879Y-85920940D01*
X82899500Y-85920940D01*
X82899500Y-86079059D01*
X82940421Y-86231779D01*
X82940422Y-86231781D01*
X82940423Y-86231784D01*
X83019480Y-86368716D01*
X83131284Y-86480520D01*
X83268216Y-86559577D01*
X83420940Y-86600499D01*
X83420941Y-86600500D01*
X83420943Y-86600500D01*
X83579059Y-86600500D01*
X83579059Y-86600499D01*
X83731784Y-86559577D01*
X83868716Y-86480520D01*
X83980520Y-86368716D01*
X84059577Y-86231784D01*
X84100499Y-86079059D01*
X84100500Y-86079059D01*
X84100500Y-85920941D01*
X84100499Y-85920940D01*
X84094536Y-85898687D01*
X84059577Y-85768216D01*
X83980520Y-85631284D01*
X83868716Y-85519480D01*
X83800643Y-85480178D01*
X83800643Y-85480177D01*
X83731788Y-85440425D01*
X83731779Y-85440421D01*
X83659075Y-85420940D01*
X112649500Y-85420940D01*
X112649500Y-85579059D01*
X112690421Y-85731779D01*
X112690422Y-85731781D01*
X112690423Y-85731784D01*
X112769480Y-85868716D01*
X112881284Y-85980520D01*
X113018216Y-86059577D01*
X113170940Y-86100499D01*
X113170941Y-86100500D01*
X113170943Y-86100500D01*
X113329059Y-86100500D01*
X113329059Y-86100499D01*
X113481784Y-86059577D01*
X113618716Y-85980520D01*
X113730520Y-85868716D01*
X113809577Y-85731784D01*
X113850499Y-85579059D01*
X113850500Y-85579059D01*
X113850500Y-85420941D01*
X113850499Y-85420940D01*
X113831624Y-85350499D01*
X113809577Y-85268216D01*
X113730520Y-85131284D01*
X113618716Y-85019480D01*
X113481784Y-84940423D01*
X113481781Y-84940422D01*
X113481779Y-84940421D01*
X113329059Y-84899500D01*
X113329057Y-84899500D01*
X113170943Y-84899500D01*
X113170941Y-84899500D01*
X113018220Y-84940421D01*
X113018214Y-84940424D01*
X112881283Y-85019480D01*
X112769480Y-85131283D01*
X112690424Y-85268214D01*
X112690421Y-85268220D01*
X112649500Y-85420940D01*
X83659075Y-85420940D01*
X83579059Y-85399500D01*
X83579057Y-85399500D01*
X83420943Y-85399500D01*
X83420941Y-85399500D01*
X83268220Y-85440421D01*
X83268214Y-85440424D01*
X83131283Y-85519480D01*
X83019480Y-85631283D01*
X82940424Y-85768214D01*
X82940421Y-85768220D01*
X82899500Y-85920940D01*
X67825879Y-85920940D01*
X67830705Y-85902929D01*
X67865183Y-85857998D01*
X67915941Y-85851315D01*
X67916132Y-85849867D01*
X67920941Y-85850500D01*
X67920943Y-85850500D01*
X68079059Y-85850500D01*
X68079059Y-85850499D01*
X68089708Y-85847645D01*
X68101022Y-85844615D01*
X68178434Y-85823871D01*
X68231784Y-85809577D01*
X68368716Y-85730520D01*
X68480520Y-85618716D01*
X68559577Y-85481784D01*
X68600499Y-85329059D01*
X68600500Y-85329059D01*
X68600500Y-85170941D01*
X68600499Y-85170940D01*
X68581624Y-85100499D01*
X68559577Y-85018216D01*
X68480520Y-84881284D01*
X68368716Y-84769480D01*
X68231784Y-84690423D01*
X68231781Y-84690422D01*
X68231779Y-84690421D01*
X68079059Y-84649500D01*
X68079057Y-84649500D01*
X67920943Y-84649500D01*
X67920941Y-84649500D01*
X67768220Y-84690421D01*
X67768214Y-84690424D01*
X67631283Y-84769480D01*
X67519480Y-84881283D01*
X67440422Y-85018217D01*
X67419293Y-85097069D01*
X67384814Y-85142001D01*
X67334058Y-85148686D01*
X67333868Y-85150133D01*
X67329059Y-85149500D01*
X67329057Y-85149500D01*
X67170943Y-85149500D01*
X67170941Y-85149500D01*
X67018220Y-85190421D01*
X67018214Y-85190424D01*
X66881283Y-85269480D01*
X66769480Y-85381283D01*
X66690424Y-85518214D01*
X66690421Y-85518220D01*
X66649500Y-85670940D01*
X64575880Y-85670940D01*
X64600499Y-85579059D01*
X64600500Y-85579059D01*
X64600500Y-85420941D01*
X64600499Y-85420940D01*
X64581624Y-85350499D01*
X64559577Y-85268216D01*
X64480520Y-85131284D01*
X64368716Y-85019480D01*
X64231784Y-84940423D01*
X64231781Y-84940422D01*
X64231779Y-84940421D01*
X64079059Y-84899500D01*
X64079057Y-84899500D01*
X63920943Y-84899500D01*
X63920941Y-84899500D01*
X63768220Y-84940421D01*
X63768214Y-84940424D01*
X63631283Y-85019480D01*
X63519480Y-85131283D01*
X63440424Y-85268214D01*
X63440421Y-85268220D01*
X63399500Y-85420940D01*
X61678296Y-85420940D01*
X61730520Y-85368716D01*
X61809577Y-85231784D01*
X61850499Y-85079059D01*
X61850500Y-85079059D01*
X61850500Y-84920941D01*
X61850499Y-84920940D01*
X61844067Y-84896937D01*
X61809577Y-84768216D01*
X61763968Y-84689219D01*
X61756577Y-84633068D01*
X61791055Y-84588135D01*
X61847208Y-84580743D01*
X61874796Y-84588135D01*
X61920940Y-84600499D01*
X61920941Y-84600500D01*
X61920943Y-84600500D01*
X62079059Y-84600500D01*
X62079059Y-84600499D01*
X62231784Y-84559577D01*
X62368716Y-84480520D01*
X62480520Y-84368716D01*
X62559577Y-84231784D01*
X62600499Y-84079059D01*
X62600500Y-84079059D01*
X62600500Y-83920941D01*
X62600499Y-83920940D01*
X62559578Y-83768220D01*
X62559577Y-83768216D01*
X62480520Y-83631284D01*
X62368716Y-83519480D01*
X62231784Y-83440423D01*
X62231781Y-83440422D01*
X62231779Y-83440421D01*
X62079059Y-83399500D01*
X62079057Y-83399500D01*
X61920943Y-83399500D01*
X61920941Y-83399500D01*
X61768220Y-83440421D01*
X61768214Y-83440424D01*
X61631283Y-83519480D01*
X61519480Y-83631283D01*
X61440424Y-83768214D01*
X61440421Y-83768220D01*
X61399500Y-83920940D01*
X61399500Y-84079059D01*
X61440421Y-84231779D01*
X61440422Y-84231781D01*
X61440423Y-84231784D01*
X61440424Y-84231785D01*
X61486030Y-84310778D01*
X61493422Y-84366931D01*
X61458944Y-84411864D01*
X61402792Y-84419257D01*
X61329057Y-84399500D01*
X61170943Y-84399500D01*
X61170941Y-84399500D01*
X61018220Y-84440421D01*
X61018214Y-84440424D01*
X60881283Y-84519480D01*
X60769480Y-84631283D01*
X60689086Y-84770532D01*
X60644153Y-84805010D01*
X60588000Y-84797618D01*
X60560914Y-84770532D01*
X60514664Y-84690424D01*
X60480520Y-84631284D01*
X60368716Y-84519480D01*
X60231784Y-84440423D01*
X60231781Y-84440422D01*
X60231779Y-84440421D01*
X60079059Y-84399500D01*
X60079057Y-84399500D01*
X59920943Y-84399500D01*
X59920941Y-84399500D01*
X59768220Y-84440421D01*
X59768214Y-84440424D01*
X59631283Y-84519480D01*
X59519480Y-84631283D01*
X59440424Y-84768214D01*
X59440421Y-84768220D01*
X59399500Y-84920940D01*
X54575880Y-84920940D01*
X54600499Y-84829059D01*
X54600500Y-84829059D01*
X54600500Y-84670941D01*
X54600499Y-84670940D01*
X54581624Y-84600499D01*
X54559577Y-84518216D01*
X54480520Y-84381284D01*
X54368716Y-84269480D01*
X54231784Y-84190423D01*
X54231781Y-84190422D01*
X54231779Y-84190421D01*
X54079059Y-84149500D01*
X54079057Y-84149500D01*
X53920943Y-84149500D01*
X53920941Y-84149500D01*
X53768220Y-84190421D01*
X53768214Y-84190424D01*
X53631283Y-84269480D01*
X53519480Y-84381283D01*
X53439086Y-84520532D01*
X53394153Y-84555010D01*
X53338000Y-84547618D01*
X53310914Y-84520532D01*
X53287813Y-84480519D01*
X53230520Y-84381284D01*
X53118716Y-84269480D01*
X52981784Y-84190423D01*
X52981781Y-84190422D01*
X52981779Y-84190421D01*
X52829059Y-84149500D01*
X52829057Y-84149500D01*
X52670943Y-84149500D01*
X52670941Y-84149500D01*
X52518220Y-84190421D01*
X52518214Y-84190424D01*
X52381283Y-84269480D01*
X52269480Y-84381283D01*
X52236132Y-84439044D01*
X52191198Y-84473523D01*
X52135046Y-84466130D01*
X52100567Y-84421197D01*
X52100500Y-84420946D01*
X52100500Y-84420943D01*
X52059577Y-84268216D01*
X51980520Y-84131284D01*
X51868716Y-84019480D01*
X51731784Y-83940423D01*
X51731781Y-83940422D01*
X51731779Y-83940421D01*
X51579059Y-83899500D01*
X51579057Y-83899500D01*
X51420943Y-83899500D01*
X51420941Y-83899500D01*
X51268220Y-83940421D01*
X51268214Y-83940424D01*
X51131283Y-84019480D01*
X51019480Y-84131283D01*
X50940424Y-84268214D01*
X50940421Y-84268220D01*
X50899500Y-84420940D01*
X38650500Y-84420940D01*
X38650500Y-81670940D01*
X64899500Y-81670940D01*
X64899500Y-81829059D01*
X64940421Y-81981779D01*
X64940422Y-81981781D01*
X64940423Y-81981784D01*
X65019480Y-82118716D01*
X65131284Y-82230520D01*
X65268216Y-82309577D01*
X65420940Y-82350499D01*
X65420941Y-82350500D01*
X65420943Y-82350500D01*
X65579059Y-82350500D01*
X65579059Y-82350499D01*
X65731784Y-82309577D01*
X65868716Y-82230520D01*
X65980520Y-82118716D01*
X66059577Y-81981784D01*
X66100499Y-81829059D01*
X66100500Y-81829059D01*
X66100500Y-81670941D01*
X66100499Y-81670940D01*
X66098662Y-81664086D01*
X66059577Y-81518216D01*
X65980520Y-81381284D01*
X65868716Y-81269480D01*
X65731784Y-81190423D01*
X65731781Y-81190422D01*
X65731779Y-81190421D01*
X65579059Y-81149500D01*
X65579057Y-81149500D01*
X65420943Y-81149500D01*
X65420941Y-81149500D01*
X65268220Y-81190421D01*
X65268214Y-81190424D01*
X65131283Y-81269480D01*
X65019480Y-81381283D01*
X64940424Y-81518214D01*
X64940421Y-81518220D01*
X64899500Y-81670940D01*
X38650500Y-81670940D01*
X38650500Y-80670940D01*
X63399500Y-80670940D01*
X63399500Y-80829059D01*
X63440421Y-80981779D01*
X63440422Y-80981781D01*
X63440423Y-80981784D01*
X63519480Y-81118716D01*
X63631284Y-81230520D01*
X63768216Y-81309577D01*
X63920940Y-81350499D01*
X63920941Y-81350500D01*
X63920943Y-81350500D01*
X64079059Y-81350500D01*
X64079059Y-81350499D01*
X64231784Y-81309577D01*
X64368716Y-81230520D01*
X64480520Y-81118716D01*
X64559577Y-80981784D01*
X64575880Y-80920940D01*
X99899500Y-80920940D01*
X99899500Y-81079059D01*
X99940421Y-81231779D01*
X99940422Y-81231781D01*
X99940423Y-81231784D01*
X100019480Y-81368716D01*
X100131284Y-81480520D01*
X100196573Y-81518214D01*
X100227230Y-81535914D01*
X100261708Y-81580847D01*
X100254316Y-81637000D01*
X100227230Y-81664086D01*
X100131283Y-81719480D01*
X100019480Y-81831283D01*
X99940424Y-81968214D01*
X99940421Y-81968220D01*
X99899500Y-82120940D01*
X99899500Y-82279059D01*
X99940421Y-82431779D01*
X99940422Y-82431781D01*
X99940423Y-82431784D01*
X99940424Y-82431785D01*
X100019480Y-82568716D01*
X100123438Y-82672674D01*
X100145112Y-82725000D01*
X100123438Y-82777326D01*
X100019480Y-82881283D01*
X99940424Y-83018214D01*
X99940421Y-83018220D01*
X99899500Y-83170940D01*
X99899500Y-83329059D01*
X99940421Y-83481779D01*
X99940422Y-83481781D01*
X99940423Y-83481784D01*
X99940424Y-83481785D01*
X100019480Y-83618716D01*
X100098438Y-83697674D01*
X100120112Y-83750000D01*
X100098438Y-83802326D01*
X100019480Y-83881283D01*
X99940424Y-84018214D01*
X99940421Y-84018220D01*
X99899500Y-84170940D01*
X99899500Y-84329059D01*
X99940421Y-84481779D01*
X99940422Y-84481781D01*
X99940423Y-84481784D01*
X100019480Y-84618716D01*
X100131284Y-84730520D01*
X100268216Y-84809577D01*
X100420940Y-84850499D01*
X100420941Y-84850500D01*
X100420943Y-84850500D01*
X100579059Y-84850500D01*
X100579059Y-84850499D01*
X100731784Y-84809577D01*
X100868716Y-84730520D01*
X100980520Y-84618716D01*
X101059577Y-84481784D01*
X101100499Y-84329059D01*
X101100500Y-84329059D01*
X101100500Y-84170941D01*
X101100499Y-84170940D01*
X101059578Y-84018220D01*
X101059577Y-84018216D01*
X100980520Y-83881284D01*
X100901562Y-83802326D01*
X100879888Y-83750000D01*
X100901562Y-83697674D01*
X100980520Y-83618716D01*
X101059577Y-83481784D01*
X101100499Y-83329059D01*
X101100500Y-83329059D01*
X101100500Y-83170941D01*
X101100499Y-83170940D01*
X101059578Y-83018220D01*
X101059577Y-83018216D01*
X100980520Y-82881284D01*
X100876562Y-82777326D01*
X100854888Y-82725000D01*
X100876562Y-82672674D01*
X100980520Y-82568716D01*
X101059577Y-82431784D01*
X101100499Y-82279059D01*
X101100500Y-82279059D01*
X101100500Y-82120941D01*
X101100499Y-82120940D01*
X101063212Y-81981784D01*
X101059577Y-81968216D01*
X100980520Y-81831284D01*
X100868716Y-81719480D01*
X100772768Y-81664085D01*
X100738291Y-81619153D01*
X100745683Y-81563000D01*
X100772767Y-81535915D01*
X100868716Y-81480520D01*
X100980520Y-81368716D01*
X101059577Y-81231784D01*
X101100499Y-81079059D01*
X101100500Y-81079059D01*
X101100500Y-80920941D01*
X101100499Y-80920940D01*
X101094067Y-80896937D01*
X101059577Y-80768216D01*
X100980520Y-80631284D01*
X100868716Y-80519480D01*
X100731784Y-80440423D01*
X100731781Y-80440422D01*
X100731779Y-80440421D01*
X100579059Y-80399500D01*
X100579057Y-80399500D01*
X100420943Y-80399500D01*
X100420941Y-80399500D01*
X100268220Y-80440421D01*
X100268214Y-80440424D01*
X100131283Y-80519480D01*
X100019480Y-80631283D01*
X99940424Y-80768214D01*
X99940421Y-80768220D01*
X99899500Y-80920940D01*
X64575880Y-80920940D01*
X64600499Y-80829059D01*
X64600500Y-80829059D01*
X64600500Y-80670941D01*
X64600499Y-80670940D01*
X64559578Y-80518220D01*
X64559577Y-80518216D01*
X64480520Y-80381284D01*
X64368716Y-80269480D01*
X64231784Y-80190423D01*
X64231781Y-80190422D01*
X64231779Y-80190421D01*
X64079059Y-80149500D01*
X64079057Y-80149500D01*
X63920943Y-80149500D01*
X63920941Y-80149500D01*
X63768220Y-80190421D01*
X63768214Y-80190424D01*
X63631283Y-80269480D01*
X63519480Y-80381283D01*
X63440424Y-80518214D01*
X63440421Y-80518220D01*
X63399500Y-80670940D01*
X38650500Y-80670940D01*
X38650500Y-79151622D01*
X41500000Y-79151622D01*
X41500000Y-79348377D01*
X41530778Y-79542706D01*
X41530781Y-79542719D01*
X41591577Y-79729828D01*
X41591579Y-79729833D01*
X41680903Y-79905142D01*
X41706319Y-79940124D01*
X42185386Y-79461056D01*
X42190889Y-79481591D01*
X42269881Y-79618408D01*
X42381592Y-79730119D01*
X42518409Y-79809111D01*
X42538941Y-79814612D01*
X42059874Y-80293679D01*
X42094860Y-80319097D01*
X42270166Y-80408420D01*
X42270171Y-80408422D01*
X42457280Y-80469218D01*
X42457293Y-80469221D01*
X42651622Y-80500000D01*
X42848378Y-80500000D01*
X43042706Y-80469221D01*
X43042719Y-80469218D01*
X43229828Y-80408422D01*
X43229843Y-80408415D01*
X43405143Y-80319096D01*
X43405144Y-80319095D01*
X43440124Y-80293679D01*
X43440125Y-80293679D01*
X42961058Y-79814612D01*
X42981591Y-79809111D01*
X43118408Y-79730119D01*
X43230119Y-79618408D01*
X43309111Y-79481591D01*
X43314612Y-79461058D01*
X43793679Y-79940125D01*
X43793679Y-79940124D01*
X43819095Y-79905144D01*
X43819096Y-79905143D01*
X43908415Y-79729843D01*
X43908422Y-79729828D01*
X43969218Y-79542719D01*
X43969221Y-79542706D01*
X44000000Y-79348377D01*
X44000000Y-79151622D01*
X43969221Y-78957293D01*
X43969218Y-78957280D01*
X43908422Y-78770171D01*
X43908420Y-78770166D01*
X43819097Y-78594860D01*
X43793678Y-78559874D01*
X43314612Y-79038940D01*
X43309111Y-79018409D01*
X43230119Y-78881592D01*
X43118408Y-78769881D01*
X42981591Y-78690889D01*
X42961057Y-78685386D01*
X43225504Y-78420940D01*
X61649500Y-78420940D01*
X61649500Y-78579059D01*
X61690421Y-78731779D01*
X61690422Y-78731781D01*
X61690423Y-78731784D01*
X61769480Y-78868716D01*
X61881284Y-78980520D01*
X62018216Y-79059577D01*
X62170940Y-79100499D01*
X62170941Y-79100500D01*
X62170943Y-79100500D01*
X62329059Y-79100500D01*
X62329059Y-79100499D01*
X62481784Y-79059577D01*
X62618716Y-78980520D01*
X62678296Y-78920940D01*
X69199500Y-78920940D01*
X69199500Y-79079059D01*
X69240421Y-79231779D01*
X69240422Y-79231781D01*
X69240423Y-79231784D01*
X69319480Y-79368716D01*
X69431284Y-79480520D01*
X69568216Y-79559577D01*
X69720940Y-79600499D01*
X69720941Y-79600500D01*
X69720943Y-79600500D01*
X69879059Y-79600500D01*
X69879059Y-79600499D01*
X70031784Y-79559577D01*
X70168716Y-79480520D01*
X70280520Y-79368716D01*
X70359577Y-79231784D01*
X70400499Y-79079059D01*
X70400500Y-79079059D01*
X70400500Y-78920941D01*
X70400499Y-78920940D01*
X70381624Y-78850499D01*
X70359577Y-78768216D01*
X70280520Y-78631284D01*
X70168716Y-78519480D01*
X70031784Y-78440423D01*
X70031781Y-78440422D01*
X70031779Y-78440421D01*
X69879059Y-78399500D01*
X69879057Y-78399500D01*
X69720943Y-78399500D01*
X69720941Y-78399500D01*
X69568220Y-78440421D01*
X69568214Y-78440424D01*
X69431283Y-78519480D01*
X69319480Y-78631283D01*
X69240424Y-78768214D01*
X69240421Y-78768220D01*
X69199500Y-78920940D01*
X62678296Y-78920940D01*
X62730520Y-78868716D01*
X62809577Y-78731784D01*
X62850499Y-78579059D01*
X62850500Y-78579059D01*
X62850500Y-78420941D01*
X62850499Y-78420940D01*
X62838323Y-78375500D01*
X62809577Y-78268216D01*
X62730520Y-78131284D01*
X62618716Y-78019480D01*
X62481784Y-77940423D01*
X62481781Y-77940422D01*
X62481779Y-77940421D01*
X62329059Y-77899500D01*
X62329057Y-77899500D01*
X62170943Y-77899500D01*
X62170941Y-77899500D01*
X62018220Y-77940421D01*
X62018214Y-77940424D01*
X61881283Y-78019480D01*
X61769480Y-78131283D01*
X61690424Y-78268214D01*
X61690421Y-78268220D01*
X61649500Y-78420940D01*
X43225504Y-78420940D01*
X43282677Y-78363767D01*
X43440124Y-78206319D01*
X43405142Y-78180903D01*
X43229833Y-78091579D01*
X43229828Y-78091577D01*
X43042719Y-78030781D01*
X43042706Y-78030778D01*
X42848378Y-78000000D01*
X42651622Y-78000000D01*
X42457293Y-78030778D01*
X42457280Y-78030781D01*
X42270171Y-78091577D01*
X42270166Y-78091579D01*
X42094854Y-78180905D01*
X42059874Y-78206319D01*
X42059874Y-78206320D01*
X42538941Y-78685387D01*
X42518409Y-78690889D01*
X42381592Y-78769881D01*
X42269881Y-78881592D01*
X42190889Y-79018409D01*
X42185387Y-79038941D01*
X41706320Y-78559874D01*
X41706319Y-78559874D01*
X41680905Y-78594854D01*
X41591579Y-78770166D01*
X41591577Y-78770171D01*
X41530781Y-78957280D01*
X41530778Y-78957293D01*
X41500000Y-79151622D01*
X38650500Y-79151622D01*
X38650500Y-77630251D01*
X74049500Y-77630251D01*
X74049500Y-77788370D01*
X74090421Y-77941090D01*
X74090422Y-77941092D01*
X74090423Y-77941095D01*
X74169480Y-78078027D01*
X74281284Y-78189831D01*
X74418216Y-78268888D01*
X74570940Y-78309810D01*
X74570941Y-78309811D01*
X74570943Y-78309811D01*
X74729059Y-78309811D01*
X74729059Y-78309810D01*
X74881784Y-78268888D01*
X75018716Y-78189831D01*
X75127330Y-78081216D01*
X75179655Y-78059543D01*
X75231981Y-78081217D01*
X75289127Y-78138363D01*
X75426059Y-78217420D01*
X75578783Y-78258342D01*
X75578784Y-78258343D01*
X75578786Y-78258343D01*
X75736902Y-78258343D01*
X75736902Y-78258342D01*
X75783144Y-78245951D01*
X75806347Y-78239735D01*
X75862500Y-78247127D01*
X75896978Y-78292060D01*
X75899500Y-78311213D01*
X75899500Y-78329059D01*
X75940421Y-78481779D01*
X75940422Y-78481781D01*
X75940423Y-78481784D01*
X76019480Y-78618716D01*
X76131284Y-78730520D01*
X76268216Y-78809577D01*
X76420940Y-78850499D01*
X76420941Y-78850500D01*
X76420943Y-78850500D01*
X76579059Y-78850500D01*
X76579059Y-78850499D01*
X76731784Y-78809577D01*
X76868716Y-78730520D01*
X76980520Y-78618716D01*
X77059577Y-78481784D01*
X77100499Y-78329059D01*
X77100500Y-78329059D01*
X77100500Y-78170941D01*
X77100499Y-78170940D01*
X77093204Y-78143716D01*
X77059577Y-78018216D01*
X76980520Y-77881284D01*
X76868716Y-77769480D01*
X76731784Y-77690423D01*
X76731781Y-77690422D01*
X76731779Y-77690421D01*
X76579059Y-77649500D01*
X76579057Y-77649500D01*
X76420943Y-77649500D01*
X76351495Y-77668108D01*
X76295343Y-77660715D01*
X76260864Y-77615781D01*
X76258343Y-77596629D01*
X76258343Y-77578784D01*
X76258342Y-77578783D01*
X76248811Y-77543214D01*
X76217420Y-77426059D01*
X76138363Y-77289127D01*
X76026559Y-77177323D01*
X76015503Y-77170940D01*
X79399500Y-77170940D01*
X79399500Y-77329059D01*
X79440421Y-77481779D01*
X79440422Y-77481781D01*
X79440423Y-77481784D01*
X79519480Y-77618716D01*
X79631284Y-77730520D01*
X79768216Y-77809577D01*
X79920940Y-77850499D01*
X79920941Y-77850500D01*
X79920943Y-77850500D01*
X80079059Y-77850500D01*
X80079059Y-77850499D01*
X80231784Y-77809577D01*
X80368716Y-77730520D01*
X80403296Y-77695940D01*
X84624500Y-77695940D01*
X84624500Y-77854059D01*
X84665421Y-78006779D01*
X84665422Y-78006781D01*
X84665423Y-78006784D01*
X84744480Y-78143716D01*
X84856284Y-78255520D01*
X84993216Y-78334577D01*
X85145940Y-78375499D01*
X85145941Y-78375500D01*
X85145943Y-78375500D01*
X85304059Y-78375500D01*
X85304059Y-78375499D01*
X85456784Y-78334577D01*
X85593716Y-78255520D01*
X85705520Y-78143716D01*
X85784577Y-78006784D01*
X85825499Y-77854059D01*
X85825500Y-77854059D01*
X85825500Y-77695941D01*
X85825499Y-77695940D01*
X85818041Y-77668108D01*
X85784577Y-77543216D01*
X85713982Y-77420940D01*
X88649500Y-77420940D01*
X88649500Y-77579059D01*
X88690421Y-77731779D01*
X88690422Y-77731781D01*
X88690423Y-77731784D01*
X88769480Y-77868716D01*
X88881284Y-77980520D01*
X89018216Y-78059577D01*
X89170940Y-78100499D01*
X89170941Y-78100500D01*
X89170943Y-78100500D01*
X89329059Y-78100500D01*
X89329059Y-78100499D01*
X89481784Y-78059577D01*
X89618716Y-77980520D01*
X89730520Y-77868716D01*
X89809577Y-77731784D01*
X89850499Y-77579059D01*
X89850500Y-77579059D01*
X89850500Y-77420941D01*
X89850499Y-77420940D01*
X89828970Y-77340594D01*
X89809577Y-77268216D01*
X89730520Y-77131284D01*
X89618716Y-77019480D01*
X89550643Y-76980178D01*
X89550643Y-76980177D01*
X89481788Y-76940425D01*
X89481779Y-76940421D01*
X89409075Y-76920940D01*
X91649500Y-76920940D01*
X91649500Y-77079059D01*
X91690421Y-77231779D01*
X91690422Y-77231781D01*
X91690423Y-77231784D01*
X91769480Y-77368716D01*
X91881284Y-77480520D01*
X92018216Y-77559577D01*
X92170940Y-77600499D01*
X92170941Y-77600500D01*
X92170943Y-77600500D01*
X92329059Y-77600500D01*
X92329059Y-77600499D01*
X92481784Y-77559577D01*
X92618716Y-77480520D01*
X92730520Y-77368716D01*
X92809577Y-77231784D01*
X92836506Y-77131283D01*
X92851756Y-77074372D01*
X92853672Y-77074885D01*
X92878584Y-77031721D01*
X92933289Y-77017053D01*
X92960638Y-77026334D01*
X93018216Y-77059577D01*
X93170940Y-77100499D01*
X93170941Y-77100500D01*
X93170943Y-77100500D01*
X93329059Y-77100500D01*
X93329059Y-77100499D01*
X93481784Y-77059577D01*
X93618716Y-76980520D01*
X93730520Y-76868716D01*
X93809577Y-76731784D01*
X93850499Y-76579059D01*
X93850500Y-76579059D01*
X93850500Y-76420941D01*
X93850499Y-76420940D01*
X93833057Y-76355847D01*
X93809577Y-76268216D01*
X93753415Y-76170940D01*
X94149500Y-76170940D01*
X94149500Y-76329059D01*
X94190421Y-76481779D01*
X94190422Y-76481781D01*
X94190423Y-76481784D01*
X94269480Y-76618716D01*
X94381284Y-76730520D01*
X94518216Y-76809577D01*
X94670940Y-76850499D01*
X94670941Y-76850500D01*
X94670943Y-76850500D01*
X94829059Y-76850500D01*
X94829059Y-76850499D01*
X94981784Y-76809577D01*
X95118716Y-76730520D01*
X95230520Y-76618716D01*
X95309577Y-76481784D01*
X95350499Y-76329059D01*
X95350500Y-76329059D01*
X95350500Y-76170941D01*
X95350499Y-76170940D01*
X95331624Y-76100499D01*
X95309577Y-76018216D01*
X95230520Y-75881284D01*
X95118716Y-75769480D01*
X94981784Y-75690423D01*
X94981781Y-75690422D01*
X94981779Y-75690421D01*
X94829059Y-75649500D01*
X94829057Y-75649500D01*
X94670943Y-75649500D01*
X94670941Y-75649500D01*
X94518220Y-75690421D01*
X94518214Y-75690424D01*
X94381283Y-75769480D01*
X94269480Y-75881283D01*
X94190424Y-76018214D01*
X94190421Y-76018220D01*
X94149500Y-76170940D01*
X93753415Y-76170940D01*
X93730520Y-76131284D01*
X93618716Y-76019480D01*
X93481784Y-75940423D01*
X93481781Y-75940422D01*
X93481779Y-75940421D01*
X93329059Y-75899500D01*
X93329057Y-75899500D01*
X93170943Y-75899500D01*
X93170941Y-75899500D01*
X93018220Y-75940421D01*
X93018214Y-75940424D01*
X92881283Y-76019480D01*
X92769480Y-76131283D01*
X92690424Y-76268214D01*
X92690421Y-76268220D01*
X92648244Y-76425628D01*
X92646333Y-76425116D01*
X92621394Y-76468294D01*
X92566684Y-76482942D01*
X92539359Y-76473663D01*
X92481784Y-76440423D01*
X92481779Y-76440421D01*
X92329059Y-76399500D01*
X92329057Y-76399500D01*
X92170943Y-76399500D01*
X92170941Y-76399500D01*
X92018220Y-76440421D01*
X92018214Y-76440424D01*
X91881283Y-76519480D01*
X91769480Y-76631283D01*
X91690424Y-76768214D01*
X91690421Y-76768220D01*
X91649500Y-76920940D01*
X89409075Y-76920940D01*
X89329059Y-76899500D01*
X89329057Y-76899500D01*
X89170943Y-76899500D01*
X89170941Y-76899500D01*
X89018220Y-76940421D01*
X89018214Y-76940424D01*
X88881283Y-77019480D01*
X88769480Y-77131283D01*
X88690424Y-77268214D01*
X88690421Y-77268220D01*
X88649500Y-77420940D01*
X85713982Y-77420940D01*
X85705520Y-77406284D01*
X85593716Y-77294480D01*
X85456784Y-77215423D01*
X85456781Y-77215422D01*
X85456779Y-77215421D01*
X85304059Y-77174500D01*
X85304057Y-77174500D01*
X85145943Y-77174500D01*
X85145941Y-77174500D01*
X84993220Y-77215421D01*
X84993214Y-77215424D01*
X84856283Y-77294480D01*
X84744480Y-77406283D01*
X84665424Y-77543214D01*
X84665421Y-77543220D01*
X84624500Y-77695940D01*
X80403296Y-77695940D01*
X80480520Y-77618716D01*
X80559577Y-77481784D01*
X80600499Y-77329059D01*
X80600500Y-77329059D01*
X80600500Y-77170941D01*
X80600499Y-77170940D01*
X80594816Y-77149732D01*
X80559577Y-77018216D01*
X80480520Y-76881284D01*
X80368716Y-76769480D01*
X80231784Y-76690423D01*
X80231781Y-76690422D01*
X80231779Y-76690421D01*
X80079059Y-76649500D01*
X80079057Y-76649500D01*
X79920943Y-76649500D01*
X79920941Y-76649500D01*
X79768220Y-76690421D01*
X79768214Y-76690424D01*
X79631283Y-76769480D01*
X79519480Y-76881283D01*
X79440424Y-77018214D01*
X79440421Y-77018220D01*
X79399500Y-77170940D01*
X76015503Y-77170940D01*
X75889627Y-77098266D01*
X75889624Y-77098265D01*
X75889622Y-77098264D01*
X75736902Y-77057343D01*
X75736900Y-77057343D01*
X75578786Y-77057343D01*
X75578784Y-77057343D01*
X75426063Y-77098264D01*
X75426057Y-77098267D01*
X75289126Y-77177323D01*
X75180513Y-77285936D01*
X75128187Y-77307610D01*
X75075861Y-77285936D01*
X75018716Y-77228791D01*
X74918519Y-77170943D01*
X74881784Y-77149734D01*
X74881781Y-77149733D01*
X74881779Y-77149732D01*
X74729059Y-77108811D01*
X74729057Y-77108811D01*
X74570943Y-77108811D01*
X74570941Y-77108811D01*
X74418220Y-77149732D01*
X74418214Y-77149735D01*
X74281283Y-77228791D01*
X74169480Y-77340594D01*
X74090424Y-77477525D01*
X74090421Y-77477531D01*
X74049500Y-77630251D01*
X38650500Y-77630251D01*
X38650500Y-75670940D01*
X47649500Y-75670940D01*
X47649500Y-75829059D01*
X47690421Y-75981779D01*
X47690422Y-75981781D01*
X47690423Y-75981784D01*
X47769480Y-76118716D01*
X47881284Y-76230520D01*
X47946576Y-76268216D01*
X48020532Y-76310914D01*
X48055010Y-76355847D01*
X48047618Y-76412000D01*
X48020532Y-76439086D01*
X48018216Y-76440422D01*
X48018216Y-76440423D01*
X47997504Y-76452381D01*
X47881283Y-76519480D01*
X47769480Y-76631283D01*
X47690424Y-76768214D01*
X47690421Y-76768220D01*
X47649500Y-76920940D01*
X47649500Y-77079059D01*
X47690421Y-77231779D01*
X47690422Y-77231781D01*
X47690423Y-77231784D01*
X47769480Y-77368716D01*
X47881284Y-77480520D01*
X48018216Y-77559577D01*
X48170940Y-77600499D01*
X48170941Y-77600500D01*
X48170943Y-77600500D01*
X48329059Y-77600500D01*
X48329059Y-77600499D01*
X48481784Y-77559577D01*
X48618716Y-77480520D01*
X48730520Y-77368716D01*
X48809577Y-77231784D01*
X48850499Y-77079059D01*
X48850500Y-77079059D01*
X48850500Y-76920941D01*
X48850499Y-76920940D01*
X48830743Y-76847208D01*
X48838135Y-76791055D01*
X48883068Y-76756577D01*
X48939219Y-76763968D01*
X49018216Y-76809577D01*
X49170940Y-76850499D01*
X49170941Y-76850500D01*
X49170943Y-76850500D01*
X49329059Y-76850500D01*
X49329059Y-76850499D01*
X49481784Y-76809577D01*
X49560780Y-76763968D01*
X49616930Y-76756576D01*
X49661864Y-76791055D01*
X49669257Y-76847207D01*
X49649500Y-76920943D01*
X49649500Y-77079059D01*
X49690421Y-77231779D01*
X49690422Y-77231781D01*
X49690423Y-77231784D01*
X49769480Y-77368716D01*
X49881284Y-77480520D01*
X50018216Y-77559577D01*
X50170940Y-77600499D01*
X50170941Y-77600500D01*
X50170943Y-77600500D01*
X50329059Y-77600500D01*
X50329059Y-77600499D01*
X50481784Y-77559577D01*
X50618716Y-77480520D01*
X50730520Y-77368716D01*
X50809577Y-77231784D01*
X50850499Y-77079059D01*
X50850500Y-77079059D01*
X50850500Y-76920941D01*
X50850499Y-76920940D01*
X50831624Y-76850499D01*
X50809577Y-76768216D01*
X50730520Y-76631284D01*
X50618716Y-76519480D01*
X50481784Y-76440423D01*
X50481781Y-76440422D01*
X50481779Y-76440421D01*
X50329059Y-76399500D01*
X50329057Y-76399500D01*
X50170943Y-76399500D01*
X50170941Y-76399500D01*
X50018220Y-76440421D01*
X50018211Y-76440425D01*
X49939220Y-76486030D01*
X49883068Y-76493422D01*
X49838135Y-76458943D01*
X49830743Y-76402791D01*
X49831625Y-76399500D01*
X49850499Y-76329059D01*
X49850500Y-76329059D01*
X49850500Y-76170941D01*
X49850499Y-76170940D01*
X55149500Y-76170940D01*
X55149500Y-76329059D01*
X55190421Y-76481779D01*
X55190422Y-76481781D01*
X55190423Y-76481784D01*
X55269480Y-76618716D01*
X55381284Y-76730520D01*
X55518216Y-76809577D01*
X55670940Y-76850499D01*
X55670941Y-76850500D01*
X55670943Y-76850500D01*
X55829059Y-76850500D01*
X55829059Y-76850499D01*
X55981784Y-76809577D01*
X56118716Y-76730520D01*
X56230520Y-76618716D01*
X56309577Y-76481784D01*
X56309577Y-76481781D01*
X56310914Y-76479467D01*
X56355847Y-76444989D01*
X56412000Y-76452381D01*
X56439086Y-76479467D01*
X56440422Y-76481781D01*
X56440423Y-76481784D01*
X56519480Y-76618716D01*
X56631284Y-76730520D01*
X56768216Y-76809577D01*
X56920940Y-76850499D01*
X56920941Y-76850500D01*
X56920943Y-76850500D01*
X57079059Y-76850500D01*
X57079059Y-76850499D01*
X57231784Y-76809577D01*
X57368716Y-76730520D01*
X57480520Y-76618716D01*
X57559577Y-76481784D01*
X57600499Y-76329059D01*
X57600500Y-76329059D01*
X57600500Y-76170941D01*
X57600499Y-76170940D01*
X57581624Y-76100499D01*
X57559577Y-76018216D01*
X57480520Y-75881284D01*
X57368716Y-75769480D01*
X57300643Y-75730178D01*
X57300643Y-75730177D01*
X57231788Y-75690425D01*
X57231779Y-75690421D01*
X57159075Y-75670940D01*
X57899500Y-75670940D01*
X57899500Y-75829059D01*
X57940421Y-75981779D01*
X57940422Y-75981781D01*
X57940423Y-75981784D01*
X58019480Y-76118716D01*
X58131284Y-76230520D01*
X58268216Y-76309577D01*
X58420940Y-76350499D01*
X58420941Y-76350500D01*
X58420943Y-76350500D01*
X58579059Y-76350500D01*
X58579059Y-76350499D01*
X58731784Y-76309577D01*
X58868716Y-76230520D01*
X58928296Y-76170940D01*
X61399500Y-76170940D01*
X61399500Y-76329059D01*
X61440421Y-76481779D01*
X61440422Y-76481781D01*
X61440423Y-76481784D01*
X61519480Y-76618716D01*
X61631284Y-76730520D01*
X61768216Y-76809577D01*
X61920940Y-76850499D01*
X61920941Y-76850500D01*
X61920943Y-76850500D01*
X62079059Y-76850500D01*
X62079059Y-76850499D01*
X62231784Y-76809577D01*
X62368716Y-76730520D01*
X62480520Y-76618716D01*
X62559577Y-76481784D01*
X62600499Y-76329059D01*
X62600500Y-76329059D01*
X62600500Y-76170941D01*
X62600499Y-76170940D01*
X62581624Y-76100499D01*
X62559577Y-76018216D01*
X62480520Y-75881284D01*
X62368716Y-75769480D01*
X62231784Y-75690423D01*
X62231781Y-75690422D01*
X62231779Y-75690421D01*
X62079059Y-75649500D01*
X62079057Y-75649500D01*
X61920943Y-75649500D01*
X61920941Y-75649500D01*
X61768220Y-75690421D01*
X61768214Y-75690424D01*
X61631283Y-75769480D01*
X61519480Y-75881283D01*
X61440424Y-76018214D01*
X61440421Y-76018220D01*
X61399500Y-76170940D01*
X58928296Y-76170940D01*
X58980520Y-76118716D01*
X59059577Y-75981784D01*
X59100499Y-75829059D01*
X59100500Y-75829059D01*
X59100500Y-75670941D01*
X59100499Y-75670940D01*
X59059578Y-75518220D01*
X59059577Y-75518216D01*
X59003415Y-75420940D01*
X63899500Y-75420940D01*
X63899500Y-75579059D01*
X63940421Y-75731779D01*
X63940422Y-75731781D01*
X63940423Y-75731784D01*
X64019480Y-75868716D01*
X64131284Y-75980520D01*
X64268216Y-76059577D01*
X64420940Y-76100499D01*
X64420941Y-76100500D01*
X64420943Y-76100500D01*
X64579059Y-76100500D01*
X64579059Y-76100499D01*
X64731784Y-76059577D01*
X64868716Y-75980520D01*
X64980520Y-75868716D01*
X65059577Y-75731784D01*
X65100499Y-75579059D01*
X65100500Y-75579059D01*
X65100500Y-75420941D01*
X65100499Y-75420940D01*
X65059578Y-75268220D01*
X65059577Y-75268216D01*
X64980520Y-75131284D01*
X64868716Y-75019480D01*
X64731784Y-74940423D01*
X64731781Y-74940422D01*
X64731779Y-74940421D01*
X64579059Y-74899500D01*
X64579057Y-74899500D01*
X64420943Y-74899500D01*
X64420941Y-74899500D01*
X64268220Y-74940421D01*
X64268214Y-74940424D01*
X64131283Y-75019480D01*
X64019480Y-75131283D01*
X63940424Y-75268214D01*
X63940421Y-75268220D01*
X63899500Y-75420940D01*
X59003415Y-75420940D01*
X58980520Y-75381284D01*
X58868716Y-75269480D01*
X58731784Y-75190423D01*
X58731781Y-75190422D01*
X58731779Y-75190421D01*
X58579059Y-75149500D01*
X58579057Y-75149500D01*
X58420943Y-75149500D01*
X58420941Y-75149500D01*
X58268220Y-75190421D01*
X58268214Y-75190424D01*
X58131283Y-75269480D01*
X58019480Y-75381283D01*
X57940424Y-75518214D01*
X57940421Y-75518220D01*
X57899500Y-75670940D01*
X57159075Y-75670940D01*
X57079059Y-75649500D01*
X57079057Y-75649500D01*
X56920943Y-75649500D01*
X56920941Y-75649500D01*
X56768220Y-75690421D01*
X56768214Y-75690424D01*
X56631283Y-75769480D01*
X56519480Y-75881283D01*
X56439086Y-76020532D01*
X56394153Y-76055010D01*
X56338000Y-76047618D01*
X56310914Y-76020532D01*
X56264664Y-75940424D01*
X56230520Y-75881284D01*
X56118716Y-75769480D01*
X55981784Y-75690423D01*
X55981781Y-75690422D01*
X55981779Y-75690421D01*
X55829059Y-75649500D01*
X55829057Y-75649500D01*
X55670943Y-75649500D01*
X55670941Y-75649500D01*
X55518220Y-75690421D01*
X55518214Y-75690424D01*
X55381283Y-75769480D01*
X55269480Y-75881283D01*
X55190424Y-76018214D01*
X55190421Y-76018220D01*
X55149500Y-76170940D01*
X49850499Y-76170940D01*
X49831624Y-76100499D01*
X49809577Y-76018216D01*
X49730520Y-75881284D01*
X49618716Y-75769480D01*
X49481784Y-75690423D01*
X49481781Y-75690422D01*
X49481779Y-75690421D01*
X49329059Y-75649500D01*
X49329057Y-75649500D01*
X49170943Y-75649500D01*
X49170941Y-75649500D01*
X49018220Y-75690421D01*
X49018211Y-75690425D01*
X48960641Y-75723663D01*
X48904489Y-75731055D01*
X48859556Y-75696576D01*
X48852388Y-75675458D01*
X48851756Y-75675628D01*
X48809578Y-75518220D01*
X48809577Y-75518216D01*
X48730520Y-75381284D01*
X48618716Y-75269480D01*
X48481784Y-75190423D01*
X48481781Y-75190422D01*
X48481779Y-75190421D01*
X48329059Y-75149500D01*
X48329057Y-75149500D01*
X48170943Y-75149500D01*
X48170941Y-75149500D01*
X48018220Y-75190421D01*
X48018214Y-75190424D01*
X47881283Y-75269480D01*
X47769480Y-75381283D01*
X47690424Y-75518214D01*
X47690421Y-75518220D01*
X47649500Y-75670940D01*
X38650500Y-75670940D01*
X38650500Y-74151582D01*
X41499500Y-74151582D01*
X41499500Y-74348417D01*
X41530290Y-74542823D01*
X41530293Y-74542836D01*
X41591113Y-74730019D01*
X41680475Y-74905404D01*
X41792489Y-75059578D01*
X41796172Y-75064646D01*
X41935354Y-75203828D01*
X42094595Y-75319524D01*
X42269975Y-75408884D01*
X42269977Y-75408884D01*
X42269980Y-75408886D01*
X42457163Y-75469706D01*
X42457169Y-75469707D01*
X42457174Y-75469709D01*
X42586780Y-75490236D01*
X42651582Y-75500500D01*
X42651583Y-75500500D01*
X42848418Y-75500500D01*
X42897019Y-75492802D01*
X43042826Y-75469709D01*
X43042833Y-75469706D01*
X43042836Y-75469706D01*
X43230019Y-75408886D01*
X43230019Y-75408885D01*
X43230025Y-75408884D01*
X43405405Y-75319524D01*
X43564646Y-75203828D01*
X43703828Y-75064646D01*
X43819524Y-74905405D01*
X43908884Y-74730025D01*
X43969709Y-74542826D01*
X43989013Y-74420943D01*
X43989013Y-74420940D01*
X65989100Y-74420940D01*
X65989100Y-74579059D01*
X66030021Y-74731779D01*
X66030022Y-74731781D01*
X66030023Y-74731784D01*
X66109080Y-74868716D01*
X66220884Y-74980520D01*
X66357816Y-75059577D01*
X66510540Y-75100499D01*
X66510541Y-75100500D01*
X66510543Y-75100500D01*
X66668659Y-75100500D01*
X66668659Y-75100499D01*
X66821384Y-75059577D01*
X66958316Y-74980520D01*
X67070120Y-74868716D01*
X67149177Y-74731784D01*
X67190099Y-74579059D01*
X67190100Y-74579059D01*
X67190100Y-74420941D01*
X67190099Y-74420940D01*
X67185698Y-74404517D01*
X67149177Y-74268216D01*
X67093015Y-74170940D01*
X95899500Y-74170940D01*
X95899500Y-74329059D01*
X95940421Y-74481779D01*
X95940422Y-74481781D01*
X95940423Y-74481784D01*
X96019480Y-74618716D01*
X96131284Y-74730520D01*
X96268216Y-74809577D01*
X96420940Y-74850499D01*
X96420941Y-74850500D01*
X96420943Y-74850500D01*
X96579059Y-74850500D01*
X96579059Y-74850499D01*
X96731784Y-74809577D01*
X96868716Y-74730520D01*
X96980520Y-74618716D01*
X97059577Y-74481784D01*
X97100499Y-74329059D01*
X97100500Y-74329059D01*
X97100500Y-74170941D01*
X97100499Y-74170940D01*
X97095312Y-74151583D01*
X97080743Y-74097208D01*
X97088135Y-74041055D01*
X97133068Y-74006577D01*
X97189219Y-74013968D01*
X97268216Y-74059577D01*
X97420940Y-74100499D01*
X97420941Y-74100500D01*
X97420943Y-74100500D01*
X97579059Y-74100500D01*
X97579059Y-74100499D01*
X97731784Y-74059577D01*
X97868716Y-73980520D01*
X97980520Y-73868716D01*
X98059577Y-73731784D01*
X98080705Y-73652929D01*
X98115183Y-73607998D01*
X98165941Y-73601315D01*
X98166132Y-73599867D01*
X98170941Y-73600500D01*
X98170943Y-73600500D01*
X98329059Y-73600500D01*
X98329059Y-73600499D01*
X98481784Y-73559577D01*
X98618716Y-73480520D01*
X98730520Y-73368716D01*
X98809577Y-73231784D01*
X98850499Y-73079059D01*
X98850500Y-73079059D01*
X98850500Y-72920947D01*
X98850500Y-72920943D01*
X98850498Y-72920939D01*
X98850318Y-72919565D01*
X98850500Y-72918885D01*
X98850500Y-72916093D01*
X98851248Y-72916093D01*
X98864975Y-72864858D01*
X98904531Y-72838425D01*
X98978801Y-72818526D01*
X99115733Y-72739469D01*
X99227537Y-72627665D01*
X99306594Y-72490733D01*
X99347516Y-72338008D01*
X99347517Y-72338008D01*
X99347517Y-72179890D01*
X99347516Y-72179889D01*
X99334492Y-72131284D01*
X99306594Y-72027165D01*
X99268681Y-71961498D01*
X99261290Y-71905347D01*
X99295768Y-71860414D01*
X99324459Y-71852726D01*
X99324250Y-71851133D01*
X99329051Y-71850500D01*
X99329057Y-71850500D01*
X99481784Y-71809577D01*
X99618716Y-71730520D01*
X99730520Y-71618716D01*
X99809577Y-71481784D01*
X99850499Y-71329059D01*
X99850500Y-71329059D01*
X99850500Y-71170941D01*
X99850499Y-71170940D01*
X99842321Y-71140421D01*
X99809577Y-71018216D01*
X99730520Y-70881284D01*
X99618716Y-70769480D01*
X99481784Y-70690423D01*
X99481781Y-70690422D01*
X99481779Y-70690421D01*
X99329059Y-70649500D01*
X99329057Y-70649500D01*
X99170943Y-70649500D01*
X99170941Y-70649500D01*
X99018220Y-70690421D01*
X99018214Y-70690424D01*
X98881283Y-70769480D01*
X98769480Y-70881283D01*
X98690424Y-71018214D01*
X98690421Y-71018220D01*
X98649500Y-71170940D01*
X98649500Y-71329059D01*
X98690421Y-71481779D01*
X98690423Y-71481784D01*
X98728335Y-71547450D01*
X98735727Y-71603602D01*
X98701249Y-71648535D01*
X98672557Y-71656222D01*
X98672767Y-71657816D01*
X98667957Y-71658449D01*
X98515237Y-71699370D01*
X98515231Y-71699373D01*
X98378300Y-71778429D01*
X98266497Y-71890232D01*
X98187441Y-72027163D01*
X98187438Y-72027169D01*
X98146517Y-72179889D01*
X98146517Y-72338009D01*
X98146699Y-72339393D01*
X98146517Y-72340071D01*
X98146517Y-72342856D01*
X98145771Y-72342856D01*
X98132034Y-72394099D01*
X98092484Y-72420522D01*
X98018218Y-72440421D01*
X97881283Y-72519480D01*
X97769480Y-72631283D01*
X97690422Y-72768217D01*
X97669293Y-72847069D01*
X97634814Y-72892001D01*
X97584058Y-72898686D01*
X97583868Y-72900133D01*
X97579059Y-72899500D01*
X97579057Y-72899500D01*
X97420943Y-72899500D01*
X97420941Y-72899500D01*
X97268220Y-72940421D01*
X97268214Y-72940424D01*
X97131283Y-73019480D01*
X97019480Y-73131283D01*
X96940424Y-73268214D01*
X96940421Y-73268220D01*
X96899500Y-73420940D01*
X96899500Y-73420943D01*
X96899500Y-73579057D01*
X96905076Y-73599867D01*
X96919257Y-73652792D01*
X96911864Y-73708944D01*
X96866930Y-73743423D01*
X96810778Y-73736030D01*
X96731784Y-73690423D01*
X96731781Y-73690422D01*
X96731779Y-73690421D01*
X96579059Y-73649500D01*
X96579057Y-73649500D01*
X96420943Y-73649500D01*
X96420941Y-73649500D01*
X96268220Y-73690421D01*
X96268214Y-73690424D01*
X96131283Y-73769480D01*
X96019480Y-73881283D01*
X95940424Y-74018214D01*
X95940421Y-74018220D01*
X95899500Y-74170940D01*
X67093015Y-74170940D01*
X67070120Y-74131284D01*
X66958316Y-74019480D01*
X66821384Y-73940423D01*
X66821381Y-73940422D01*
X66821379Y-73940421D01*
X66668659Y-73899500D01*
X66668657Y-73899500D01*
X66510543Y-73899500D01*
X66510541Y-73899500D01*
X66357820Y-73940421D01*
X66357814Y-73940424D01*
X66220883Y-74019480D01*
X66109080Y-74131283D01*
X66030024Y-74268214D01*
X66030021Y-74268220D01*
X65989100Y-74420940D01*
X43989013Y-74420940D01*
X43991615Y-74404517D01*
X44000500Y-74348417D01*
X44000500Y-74151582D01*
X43985928Y-74059576D01*
X43969709Y-73957174D01*
X43969707Y-73957169D01*
X43969706Y-73957163D01*
X43908886Y-73769980D01*
X43908884Y-73769977D01*
X43908884Y-73769975D01*
X43847499Y-73649500D01*
X43819524Y-73594594D01*
X43737562Y-73481785D01*
X43703828Y-73435354D01*
X43689414Y-73420940D01*
X64499500Y-73420940D01*
X64499500Y-73579059D01*
X64540421Y-73731779D01*
X64540422Y-73731781D01*
X64540423Y-73731784D01*
X64619480Y-73868716D01*
X64731284Y-73980520D01*
X64868216Y-74059577D01*
X65020940Y-74100499D01*
X65020941Y-74100500D01*
X65020943Y-74100500D01*
X65179059Y-74100500D01*
X65179059Y-74100499D01*
X65331784Y-74059577D01*
X65468716Y-73980520D01*
X65580520Y-73868716D01*
X65659577Y-73731784D01*
X65700499Y-73579059D01*
X65700500Y-73579059D01*
X65700500Y-73420941D01*
X65700499Y-73420940D01*
X71149500Y-73420940D01*
X71149500Y-73579059D01*
X71190421Y-73731779D01*
X71190422Y-73731781D01*
X71190423Y-73731784D01*
X71269480Y-73868716D01*
X71381284Y-73980520D01*
X71518216Y-74059577D01*
X71670940Y-74100499D01*
X71670941Y-74100500D01*
X71670943Y-74100500D01*
X71829059Y-74100500D01*
X71829059Y-74100499D01*
X71841343Y-74097208D01*
X71851022Y-74094615D01*
X71928434Y-74073871D01*
X71981784Y-74059577D01*
X72118716Y-73980520D01*
X72230520Y-73868716D01*
X72309577Y-73731784D01*
X72350499Y-73579059D01*
X72350500Y-73579059D01*
X72350500Y-73420941D01*
X72350499Y-73420940D01*
X72309578Y-73268220D01*
X72309577Y-73268216D01*
X72253415Y-73170940D01*
X75399500Y-73170940D01*
X75399500Y-73329059D01*
X75440421Y-73481779D01*
X75440422Y-73481781D01*
X75440423Y-73481784D01*
X75519480Y-73618716D01*
X75631284Y-73730520D01*
X75768216Y-73809577D01*
X75920940Y-73850499D01*
X75920941Y-73850500D01*
X75920943Y-73850500D01*
X76079059Y-73850500D01*
X76079059Y-73850499D01*
X76231784Y-73809577D01*
X76368716Y-73730520D01*
X76480520Y-73618716D01*
X76559577Y-73481784D01*
X76600499Y-73329059D01*
X76600500Y-73329059D01*
X76600500Y-73170941D01*
X76600499Y-73170940D01*
X76581624Y-73100499D01*
X76559577Y-73018216D01*
X76480520Y-72881284D01*
X76368716Y-72769480D01*
X76231784Y-72690423D01*
X76231781Y-72690422D01*
X76231779Y-72690421D01*
X76079059Y-72649500D01*
X76079057Y-72649500D01*
X75920943Y-72649500D01*
X75920941Y-72649500D01*
X75768220Y-72690421D01*
X75768214Y-72690424D01*
X75631283Y-72769480D01*
X75519480Y-72881283D01*
X75440424Y-73018214D01*
X75440421Y-73018220D01*
X75399500Y-73170940D01*
X72253415Y-73170940D01*
X72230520Y-73131284D01*
X72118716Y-73019480D01*
X71981784Y-72940423D01*
X71981781Y-72940422D01*
X71981779Y-72940421D01*
X71829059Y-72899500D01*
X71829057Y-72899500D01*
X71670943Y-72899500D01*
X71670941Y-72899500D01*
X71518220Y-72940421D01*
X71518214Y-72940424D01*
X71381283Y-73019480D01*
X71269480Y-73131283D01*
X71190424Y-73268214D01*
X71190421Y-73268220D01*
X71149500Y-73420940D01*
X65700499Y-73420940D01*
X65659578Y-73268220D01*
X65659577Y-73268216D01*
X65580520Y-73131284D01*
X65468716Y-73019480D01*
X65331784Y-72940423D01*
X65331781Y-72940422D01*
X65331779Y-72940421D01*
X65179059Y-72899500D01*
X65179057Y-72899500D01*
X65020943Y-72899500D01*
X65020941Y-72899500D01*
X64868220Y-72940421D01*
X64868214Y-72940424D01*
X64731283Y-73019480D01*
X64619480Y-73131283D01*
X64540424Y-73268214D01*
X64540421Y-73268220D01*
X64499500Y-73420940D01*
X43689414Y-73420940D01*
X43564646Y-73296172D01*
X43564643Y-73296169D01*
X43564641Y-73296168D01*
X43405404Y-73180475D01*
X43230019Y-73091113D01*
X43042836Y-73030293D01*
X43042823Y-73030290D01*
X42848418Y-72999500D01*
X42848417Y-72999500D01*
X42651583Y-72999500D01*
X42651582Y-72999500D01*
X42457176Y-73030290D01*
X42457163Y-73030293D01*
X42269980Y-73091113D01*
X42094595Y-73180475D01*
X41935358Y-73296168D01*
X41796168Y-73435358D01*
X41680475Y-73594595D01*
X41591113Y-73769980D01*
X41530293Y-73957163D01*
X41530290Y-73957176D01*
X41499500Y-74151582D01*
X38650500Y-74151582D01*
X38650500Y-72420940D01*
X65989100Y-72420940D01*
X65989100Y-72579059D01*
X66030021Y-72731779D01*
X66030022Y-72731781D01*
X66030023Y-72731784D01*
X66109080Y-72868716D01*
X66220884Y-72980520D01*
X66357816Y-73059577D01*
X66510540Y-73100499D01*
X66510541Y-73100500D01*
X66510543Y-73100500D01*
X66668659Y-73100500D01*
X66668659Y-73100499D01*
X66821384Y-73059577D01*
X66958316Y-72980520D01*
X67070120Y-72868716D01*
X67149177Y-72731784D01*
X67190099Y-72579059D01*
X67190100Y-72579059D01*
X67190100Y-72420941D01*
X67190099Y-72420940D01*
X67149178Y-72268220D01*
X67149177Y-72268216D01*
X67070120Y-72131284D01*
X66958316Y-72019480D01*
X66890243Y-71980178D01*
X66890243Y-71980177D01*
X66821388Y-71940425D01*
X66821379Y-71940421D01*
X66748675Y-71920940D01*
X68149500Y-71920940D01*
X68149500Y-72079059D01*
X68190421Y-72231779D01*
X68190422Y-72231781D01*
X68190423Y-72231784D01*
X68269480Y-72368716D01*
X68381284Y-72480520D01*
X68518216Y-72559577D01*
X68670940Y-72600499D01*
X68670941Y-72600500D01*
X68670943Y-72600500D01*
X68829059Y-72600500D01*
X68833868Y-72599867D01*
X68834059Y-72601318D01*
X68884808Y-72607994D01*
X68919291Y-72652924D01*
X68919293Y-72652931D01*
X68940421Y-72731781D01*
X68990502Y-72818524D01*
X69019480Y-72868716D01*
X69131284Y-72980520D01*
X69268216Y-73059577D01*
X69420940Y-73100499D01*
X69420941Y-73100500D01*
X69420943Y-73100500D01*
X69579059Y-73100500D01*
X69579059Y-73100499D01*
X69731784Y-73059577D01*
X69868716Y-72980520D01*
X69980520Y-72868716D01*
X70059577Y-72731784D01*
X70100499Y-72579059D01*
X70100500Y-72579059D01*
X70100500Y-72420941D01*
X70100499Y-72420940D01*
X70059578Y-72268220D01*
X70059577Y-72268216D01*
X69980520Y-72131284D01*
X69868716Y-72019480D01*
X69731784Y-71940423D01*
X69731781Y-71940422D01*
X69731779Y-71940421D01*
X69579059Y-71899500D01*
X69579057Y-71899500D01*
X69420943Y-71899500D01*
X69420941Y-71899500D01*
X69416132Y-71900133D01*
X69415941Y-71898687D01*
X69365173Y-71891995D01*
X69330706Y-71847068D01*
X69309578Y-71768220D01*
X69309577Y-71768216D01*
X69230520Y-71631284D01*
X69118716Y-71519480D01*
X68981784Y-71440423D01*
X68981781Y-71440422D01*
X68981779Y-71440421D01*
X68829059Y-71399500D01*
X68829057Y-71399500D01*
X68670943Y-71399500D01*
X68670941Y-71399500D01*
X68518220Y-71440421D01*
X68518214Y-71440424D01*
X68381283Y-71519480D01*
X68269480Y-71631283D01*
X68190424Y-71768214D01*
X68190421Y-71768220D01*
X68149500Y-71920940D01*
X66748675Y-71920940D01*
X66668659Y-71899500D01*
X66668657Y-71899500D01*
X66510543Y-71899500D01*
X66510541Y-71899500D01*
X66357820Y-71940421D01*
X66357814Y-71940424D01*
X66220883Y-72019480D01*
X66109080Y-72131283D01*
X66030024Y-72268214D01*
X66030021Y-72268220D01*
X65989100Y-72420940D01*
X38650500Y-72420940D01*
X38650500Y-70920940D01*
X75899500Y-70920940D01*
X75899500Y-71079059D01*
X75940421Y-71231779D01*
X75940422Y-71231781D01*
X75940423Y-71231784D01*
X76019480Y-71368716D01*
X76131284Y-71480520D01*
X76268216Y-71559577D01*
X76420940Y-71600499D01*
X76420941Y-71600500D01*
X76525500Y-71600500D01*
X76577826Y-71622174D01*
X76599500Y-71674500D01*
X76599500Y-71779059D01*
X76640421Y-71931779D01*
X76640422Y-71931781D01*
X76640423Y-71931784D01*
X76719480Y-72068716D01*
X76831284Y-72180520D01*
X76968216Y-72259577D01*
X77120940Y-72300499D01*
X77120941Y-72300500D01*
X77120943Y-72300500D01*
X77279059Y-72300500D01*
X77279059Y-72300499D01*
X77431784Y-72259577D01*
X77568716Y-72180520D01*
X77680520Y-72068716D01*
X77759577Y-71931784D01*
X77800499Y-71779059D01*
X77800500Y-71779059D01*
X77800500Y-71620941D01*
X77800499Y-71620940D01*
X77795853Y-71603602D01*
X77759577Y-71468216D01*
X77680520Y-71331284D01*
X77568716Y-71219480D01*
X77431784Y-71140423D01*
X77431781Y-71140422D01*
X77431779Y-71140421D01*
X77279059Y-71099500D01*
X77279057Y-71099500D01*
X77174500Y-71099500D01*
X77122174Y-71077826D01*
X77100500Y-71025500D01*
X77100500Y-70920941D01*
X77100499Y-70920940D01*
X77059578Y-70768220D01*
X77059577Y-70768216D01*
X76980520Y-70631284D01*
X76868716Y-70519480D01*
X76731784Y-70440423D01*
X76731781Y-70440422D01*
X76731779Y-70440421D01*
X76579059Y-70399500D01*
X76579057Y-70399500D01*
X76420943Y-70399500D01*
X76420941Y-70399500D01*
X76268220Y-70440421D01*
X76268214Y-70440424D01*
X76131283Y-70519480D01*
X76019480Y-70631283D01*
X75940424Y-70768214D01*
X75940421Y-70768220D01*
X75899500Y-70920940D01*
X38650500Y-70920940D01*
X38650500Y-69920940D01*
X53649500Y-69920940D01*
X53649500Y-70079059D01*
X53690421Y-70231779D01*
X53690422Y-70231781D01*
X53690423Y-70231784D01*
X53769480Y-70368716D01*
X53881284Y-70480520D01*
X54018216Y-70559577D01*
X54170940Y-70600499D01*
X54170941Y-70600500D01*
X54170943Y-70600500D01*
X54329059Y-70600500D01*
X54329059Y-70600499D01*
X54481784Y-70559577D01*
X54618716Y-70480520D01*
X54730520Y-70368716D01*
X54809577Y-70231784D01*
X54850499Y-70079059D01*
X54850500Y-70079059D01*
X54850500Y-69920941D01*
X54850499Y-69920940D01*
X54809578Y-69768220D01*
X54809577Y-69768216D01*
X54730520Y-69631284D01*
X54724562Y-69625326D01*
X101899500Y-69625326D01*
X101899500Y-71374674D01*
X101912578Y-71440421D01*
X101914034Y-71447740D01*
X101969157Y-71530240D01*
X101969399Y-71530601D01*
X102052260Y-71585966D01*
X102125326Y-71600500D01*
X102125328Y-71600500D01*
X103874672Y-71600500D01*
X103874674Y-71600500D01*
X103947740Y-71585966D01*
X104030601Y-71530601D01*
X104085966Y-71447740D01*
X104100500Y-71374674D01*
X104100500Y-69625326D01*
X106899500Y-69625326D01*
X106899500Y-71374674D01*
X106912578Y-71440421D01*
X106914034Y-71447740D01*
X106969157Y-71530240D01*
X106969399Y-71530601D01*
X107052260Y-71585966D01*
X107125326Y-71600500D01*
X107125328Y-71600500D01*
X108874672Y-71600500D01*
X108874674Y-71600500D01*
X108947740Y-71585966D01*
X109030601Y-71530601D01*
X109085966Y-71447740D01*
X109100500Y-71374674D01*
X109100500Y-69625377D01*
X111900000Y-69625377D01*
X111900000Y-70250000D01*
X112566988Y-70250000D01*
X112534075Y-70307007D01*
X112500000Y-70434174D01*
X112500000Y-70565826D01*
X112534075Y-70692993D01*
X112566988Y-70750000D01*
X111900000Y-70750000D01*
X111900000Y-71374622D01*
X111914505Y-71447545D01*
X111969759Y-71530239D01*
X111969760Y-71530240D01*
X112052454Y-71585494D01*
X112125378Y-71600000D01*
X112750000Y-71600000D01*
X112750000Y-70933012D01*
X112807007Y-70965925D01*
X112934174Y-71000000D01*
X113065826Y-71000000D01*
X113192993Y-70965925D01*
X113250000Y-70933012D01*
X113250000Y-71600000D01*
X113874622Y-71600000D01*
X113947545Y-71585494D01*
X114030239Y-71530240D01*
X114030240Y-71530239D01*
X114085494Y-71447545D01*
X114100000Y-71374622D01*
X114100000Y-70750000D01*
X113433012Y-70750000D01*
X113465925Y-70692993D01*
X113500000Y-70565826D01*
X113500000Y-70434174D01*
X113465925Y-70307007D01*
X113433012Y-70250000D01*
X114100000Y-70250000D01*
X114100000Y-69625377D01*
X114085494Y-69552454D01*
X114030240Y-69469760D01*
X114030239Y-69469759D01*
X113947545Y-69414505D01*
X113874622Y-69400000D01*
X113250000Y-69400000D01*
X113250000Y-70066988D01*
X113192993Y-70034075D01*
X113065826Y-70000000D01*
X112934174Y-70000000D01*
X112807007Y-70034075D01*
X112750000Y-70066988D01*
X112750000Y-69400000D01*
X112125378Y-69400000D01*
X112052454Y-69414505D01*
X111969760Y-69469759D01*
X111969759Y-69469760D01*
X111914505Y-69552454D01*
X111900000Y-69625377D01*
X109100500Y-69625377D01*
X109100500Y-69625326D01*
X109085966Y-69552260D01*
X109030601Y-69469399D01*
X109017282Y-69460500D01*
X108947740Y-69414034D01*
X108874674Y-69399500D01*
X107125326Y-69399500D01*
X107076615Y-69409189D01*
X107052259Y-69414034D01*
X106969399Y-69469398D01*
X106969398Y-69469399D01*
X106914034Y-69552259D01*
X106914034Y-69552260D01*
X106899500Y-69625326D01*
X104100500Y-69625326D01*
X104085966Y-69552260D01*
X104030601Y-69469399D01*
X104017282Y-69460500D01*
X103947740Y-69414034D01*
X103874674Y-69399500D01*
X102125326Y-69399500D01*
X102076615Y-69409189D01*
X102052259Y-69414034D01*
X101969399Y-69469398D01*
X101969398Y-69469399D01*
X101914034Y-69552259D01*
X101914034Y-69552260D01*
X101899500Y-69625326D01*
X54724562Y-69625326D01*
X54618716Y-69519480D01*
X54481784Y-69440423D01*
X54481781Y-69440422D01*
X54481779Y-69440421D01*
X54329059Y-69399500D01*
X54329057Y-69399500D01*
X54170943Y-69399500D01*
X54170941Y-69399500D01*
X54018220Y-69440421D01*
X54018214Y-69440424D01*
X53881283Y-69519480D01*
X53769480Y-69631283D01*
X53690424Y-69768214D01*
X53690421Y-69768220D01*
X53649500Y-69920940D01*
X38650500Y-69920940D01*
X38650500Y-68670940D01*
X56149500Y-68670940D01*
X56149500Y-68829059D01*
X56190421Y-68981779D01*
X56190422Y-68981781D01*
X56190423Y-68981784D01*
X56269480Y-69118716D01*
X56381284Y-69230520D01*
X56518216Y-69309577D01*
X56670940Y-69350499D01*
X56670941Y-69350500D01*
X56670943Y-69350500D01*
X56829059Y-69350500D01*
X56829059Y-69350499D01*
X56981784Y-69309577D01*
X57118716Y-69230520D01*
X57230520Y-69118716D01*
X57309577Y-68981784D01*
X57350499Y-68829059D01*
X57350500Y-68829059D01*
X57350500Y-68670941D01*
X57350499Y-68670940D01*
X57309578Y-68518220D01*
X57309577Y-68518216D01*
X57230520Y-68381284D01*
X57118716Y-68269480D01*
X56981784Y-68190423D01*
X56981781Y-68190422D01*
X56981779Y-68190421D01*
X56829059Y-68149500D01*
X56829057Y-68149500D01*
X56670943Y-68149500D01*
X56670941Y-68149500D01*
X56518220Y-68190421D01*
X56518214Y-68190424D01*
X56381283Y-68269480D01*
X56269480Y-68381283D01*
X56190424Y-68518214D01*
X56190421Y-68518220D01*
X56149500Y-68670940D01*
X38650500Y-68670940D01*
X38650500Y-65375326D01*
X71399500Y-65375326D01*
X71399500Y-67124674D01*
X71414034Y-67197740D01*
X71469399Y-67280601D01*
X71552260Y-67335966D01*
X71625326Y-67350500D01*
X71625328Y-67350500D01*
X73374672Y-67350500D01*
X73374674Y-67350500D01*
X73447740Y-67335966D01*
X73530601Y-67280601D01*
X73585966Y-67197740D01*
X73600500Y-67124674D01*
X73600500Y-65375326D01*
X76149500Y-65375326D01*
X76149500Y-67124674D01*
X76164034Y-67197740D01*
X76219399Y-67280601D01*
X76302260Y-67335966D01*
X76375326Y-67350500D01*
X76375328Y-67350500D01*
X78124672Y-67350500D01*
X78124674Y-67350500D01*
X78197740Y-67335966D01*
X78280601Y-67280601D01*
X78335966Y-67197740D01*
X78350500Y-67124674D01*
X78350500Y-65375326D01*
X81149500Y-65375326D01*
X81149500Y-67124674D01*
X81164034Y-67197740D01*
X81219399Y-67280601D01*
X81302260Y-67335966D01*
X81375326Y-67350500D01*
X81375328Y-67350500D01*
X83124672Y-67350500D01*
X83124674Y-67350500D01*
X83197740Y-67335966D01*
X83280601Y-67280601D01*
X83335966Y-67197740D01*
X83341673Y-67169050D01*
X117229500Y-67169050D01*
X117229500Y-67450949D01*
X117266294Y-67730434D01*
X117339255Y-68002731D01*
X117339259Y-68002742D01*
X117447133Y-68263174D01*
X117447136Y-68263182D01*
X117588087Y-68507316D01*
X117596451Y-68518216D01*
X117759700Y-68730965D01*
X117959035Y-68930300D01*
X118182683Y-69101912D01*
X118426817Y-69242863D01*
X118687261Y-69350742D01*
X118959558Y-69423704D01*
X118959564Y-69423704D01*
X118959565Y-69423705D01*
X118959564Y-69423705D01*
X119083594Y-69440033D01*
X119239049Y-69460500D01*
X119239051Y-69460500D01*
X119520949Y-69460500D01*
X119520951Y-69460500D01*
X119800442Y-69423704D01*
X120072739Y-69350742D01*
X120333183Y-69242863D01*
X120577317Y-69101912D01*
X120800965Y-68930300D01*
X121000300Y-68730965D01*
X121171912Y-68507317D01*
X121312863Y-68263183D01*
X121420742Y-68002739D01*
X121493704Y-67730442D01*
X121530500Y-67450951D01*
X121530500Y-67169049D01*
X121493704Y-66889558D01*
X121420742Y-66617261D01*
X121312863Y-66356817D01*
X121171912Y-66112683D01*
X121000300Y-65889035D01*
X120800965Y-65689700D01*
X120577317Y-65518088D01*
X120577318Y-65518088D01*
X120577316Y-65518087D01*
X120333182Y-65377136D01*
X120333174Y-65377133D01*
X120072742Y-65269259D01*
X120072731Y-65269255D01*
X119839536Y-65206771D01*
X119800442Y-65196296D01*
X119800440Y-65196295D01*
X119800434Y-65196294D01*
X119800435Y-65196294D01*
X119575796Y-65166720D01*
X119520951Y-65159500D01*
X119239049Y-65159500D01*
X119184203Y-65166720D01*
X118959565Y-65196294D01*
X118687268Y-65269255D01*
X118687257Y-65269259D01*
X118426825Y-65377133D01*
X118426817Y-65377136D01*
X118182683Y-65518087D01*
X117959030Y-65689704D01*
X117759704Y-65889030D01*
X117588087Y-66112683D01*
X117447136Y-66356817D01*
X117447133Y-66356825D01*
X117339259Y-66617257D01*
X117339255Y-66617268D01*
X117266294Y-66889565D01*
X117229500Y-67169050D01*
X83341673Y-67169050D01*
X83350500Y-67124674D01*
X83350500Y-65375326D01*
X83335966Y-65302260D01*
X83280601Y-65219399D01*
X83246024Y-65196296D01*
X83197740Y-65164034D01*
X83174946Y-65159500D01*
X83124674Y-65149500D01*
X81375326Y-65149500D01*
X81326615Y-65159189D01*
X81302259Y-65164034D01*
X81219399Y-65219398D01*
X81219398Y-65219399D01*
X81164034Y-65302259D01*
X81164034Y-65302260D01*
X81149500Y-65375326D01*
X78350500Y-65375326D01*
X78335966Y-65302260D01*
X78280601Y-65219399D01*
X78246024Y-65196296D01*
X78197740Y-65164034D01*
X78174946Y-65159500D01*
X78124674Y-65149500D01*
X76375326Y-65149500D01*
X76326615Y-65159189D01*
X76302259Y-65164034D01*
X76219399Y-65219398D01*
X76219398Y-65219399D01*
X76164034Y-65302259D01*
X76164034Y-65302260D01*
X76149500Y-65375326D01*
X73600500Y-65375326D01*
X73585966Y-65302260D01*
X73530601Y-65219399D01*
X73496024Y-65196296D01*
X73447740Y-65164034D01*
X73424946Y-65159500D01*
X73374674Y-65149500D01*
X71625326Y-65149500D01*
X71576615Y-65159189D01*
X71552259Y-65164034D01*
X71469399Y-65219398D01*
X71469398Y-65219399D01*
X71414034Y-65302259D01*
X71414034Y-65302260D01*
X71399500Y-65375326D01*
X38650500Y-65375326D01*
X38650500Y-64674500D01*
X38672174Y-64622174D01*
X38724500Y-64600500D01*
X121915500Y-64600500D01*
X121967826Y-64622174D01*
G37*
G04 #@! TD.AperFunction*
G04 #@! TD*
D19*
X38350000Y-64300000D02*
X122290000Y-64300000D01*
X122290000Y-104600000D01*
X38350000Y-104600000D01*
X38350000Y-64300000D01*
M02*
