%TF.GenerationSoftware,KiCad,Pcbnew,9.0.8-9.0.8~ubuntu24.04.1*%
%TF.CreationDate,2026-04-03T10:18:26+02:00*%
%TF.ProjectId,marine_tracker,6d617269-6e65-45f7-9472-61636b65722e,rev?*%
%TF.SameCoordinates,Original*%
%TF.FileFunction,Legend,Bot*%
%TF.FilePolarity,Positive*%
%FSLAX46Y46*%
G04 Gerber Fmt 4.6, Leading zero omitted, Abs format (unit mm)*
G04 Created by KiCad (PCBNEW 9.0.8-9.0.8~ubuntu24.04.1) date 2026-04-03 10:18:26*
%MOMM*%
%LPD*%
G01*
G04 APERTURE LIST*
%ADD10C,0.508000*%
%ADD11C,2.000000*%
%ADD12R,1.700000X1.700000*%
%ADD13C,3.800000*%
%ADD14C,0.650000*%
%ADD15O,2.100000X1.000000*%
%ADD16O,1.800000X1.000000*%
%ADD17C,1.700000*%
%ADD18R,1.000000X1.000000*%
%ADD19C,1.000000*%
G04 APERTURE END LIST*
D10*
%TO.C,J6*%
X119378850Y-84346400D02*
G75*
G02*
X118616850Y-84346400I-381000J0D01*
G01*
X118616850Y-84346400D02*
G75*
G02*
X119378850Y-84346400I381000J0D01*
G01*
%TO.C,J4*%
X58843901Y-69723451D02*
G75*
G02*
X58081901Y-69723451I-381000J0D01*
G01*
X58081901Y-69723451D02*
G75*
G02*
X58843901Y-69723451I381000J0D01*
G01*
%TO.C,SW2*%
X46778900Y-66675000D02*
G75*
G02*
X46016900Y-66675000I-381000J0D01*
G01*
X46016900Y-66675000D02*
G75*
G02*
X46778900Y-66675000I381000J0D01*
G01*
%TD*%
%LPC*%
D11*
%TO.C,J1*%
X42750000Y-79250000D03*
X42750000Y-74250000D03*
%TD*%
D12*
%TO.C,TP6*%
X103000000Y-70500000D03*
%TD*%
%TO.C,TP7*%
X113000000Y-70500000D03*
%TD*%
D13*
%TO.C,REF\u002A\u002A*%
X119380000Y-67310000D03*
%TD*%
D12*
%TO.C,TP4*%
X82250000Y-66250000D03*
%TD*%
D14*
%TO.C,J3*%
X44965000Y-87610000D03*
X44965000Y-93390000D03*
D15*
X45465000Y-86180000D03*
D16*
X41285000Y-86180000D03*
D15*
X45465000Y-94820000D03*
D16*
X41285000Y-94820000D03*
%TD*%
D13*
%TO.C,REF\u002A\u002A*%
X41910000Y-101600000D03*
%TD*%
%TO.C,REF\u002A\u002A*%
X119380000Y-101600000D03*
%TD*%
D12*
%TO.C,TP11*%
X77250000Y-66250000D03*
%TD*%
%TO.C,J5*%
X92590000Y-102750000D03*
D17*
X95130000Y-102750000D03*
X97670000Y-102750000D03*
X100210000Y-102750000D03*
X102750000Y-102750000D03*
X105290000Y-102750000D03*
X107830000Y-102750000D03*
X110370000Y-102750000D03*
%TD*%
D12*
%TO.C,TP10*%
X72500000Y-66250000D03*
%TD*%
D18*
%TO.C,J2*%
X46860000Y-102635000D03*
D19*
X46860000Y-101365000D03*
X48130000Y-102635000D03*
X48130000Y-101365000D03*
X49400000Y-102635000D03*
X49400000Y-101365000D03*
X50670000Y-102635000D03*
X50670000Y-101365000D03*
X51940000Y-102635000D03*
X51940000Y-101365000D03*
%TD*%
D13*
%TO.C,REF\u002A\u002A*%
X41910000Y-67310000D03*
%TD*%
D12*
%TO.C,TP5*%
X108000000Y-70500000D03*
%TD*%
%LPD*%
M02*
