M48
INCH
T1C0.0118
T2C0.0236
T3C0.0256
T4C0.0394
T5C0.0472
T6C0.0866
%
G90
G05
T1
X1.8803Y-3.4409
X1.8843Y-3.6614
X1.8941Y-3.5138
X1.8941Y-3.7205
X1.8996Y-2.9823
X1.8996Y-3.0315
X1.9335Y-3.4744
X1.939Y-3.002
X1.9488Y-3.8583
X1.9685Y-2.8642
X1.9783Y-3.0315
X2.0079Y-3.7303
X2.0079Y-3.8583
X2.0276Y-3.3268
X2.0374Y-2.8642
X2.0374Y-2.9331
X2.0472Y-3.3858
X2.0472Y-3.6339
X2.0472Y-3.8858
X2.0768Y-3.3366
X2.0768Y-3.4055
X2.0768Y-3.7795
X2.0866Y-2.9331
X2.0965Y-2.8642
X2.1028Y-3.7555
X2.1043Y-3.435
X2.1063Y-3.189
X2.126Y-3.3366
X2.1358Y-2.7559
X2.1457Y-2.9331
X2.1457Y-3.189
X2.1555Y-2.8642
X2.1654Y-2.7047
X2.1654Y-3.7087
X2.1654Y-3.874
X2.1752Y-3.2283
X2.1752Y-3.2776
X2.1797Y-3.9907
X2.185Y-3.1299
X2.1949Y-3.002
X2.2008Y-3.748
X2.2146Y-2.8642
X2.2343Y-2.7067
X2.2343Y-3.2283
X2.2343Y-3.2776
X2.2441Y-3.002
X2.2933Y-3.2283
X2.2933Y-3.2776
X2.3031Y-2.9823
X2.313Y-2.8445
X2.3327Y-3.189
X2.3622Y-2.9921
X2.3622Y-3.3465
X2.3819Y-3.189
X2.4114Y-3.3465
X2.4409Y-3.002
X2.4409Y-3.3071
X2.4508Y-3.0906
X2.4508Y-4.0143
X2.4606Y-3.7992
X2.4705Y-3.3957
X2.5197Y-3.1791
X2.5197Y-3.3661
X2.5197Y-3.5531
X2.5197Y-3.6811
X2.5394Y-2.9724
X2.5394Y-4.0551
X2.5488Y-3.4449
X2.5512Y-3.9508
X2.5531Y-3.6827
X2.563Y-2.8937
X2.5787Y-3.2185
X2.5984Y-3.6575
X2.5984Y-3.8583
X2.6181Y-3.6122
X2.6216Y-2.815
X2.6216Y-2.8543
X2.6216Y-2.9331
X2.628Y-3.5531
X2.6476Y-3.376
X2.6772Y-3.3563
X2.685Y-3.5039
X2.6969Y-2.9528
X2.7067Y-2.8346
X2.7165Y-3.0512
X2.7165Y-3.8287
X2.7362Y-2.8543
X2.748Y-3.1102
X2.7953Y-3.6339
X2.7953Y-3.7087
X2.8248Y-2.8937
X2.8445Y-3.6811
X2.874Y-3.061
X2.874Y-3.8287
X2.8839Y-3.6811
X2.8839Y-4.0514
X2.8996Y-4.002
X2.9094Y-3.6496
X2.9134Y-2.8839
X2.939Y-3.0594
X2.9409Y-3.6693
X2.9581Y-3.8681
X2.9724Y-3.6811
X2.9787Y-3.0574
X2.9921Y-2.8839
X2.998Y-3.7106
X2.998Y-3.878
X3.0118Y-2.7953
X3.0118Y-3.0807
X3.0217Y-3.6811
X3.0217Y-3.9764
X3.0394Y-2.8228
X3.0453Y-3.6516
X3.0453Y-3.8091
X3.0807Y-3.6516
X3.0807Y-3.937
X3.1102Y-3.7598
X3.1201Y-3.6516
X3.1201Y-3.8091
X3.1201Y-4.0157
X3.1398Y-3.0807
X3.1496Y-2.9823
X3.1496Y-3.0413
X3.1594Y-3.937
X3.1693Y-3.7598
X3.248Y-3.7106
X3.2776Y-3.3071
X3.2874Y-3.3858
X3.2972Y-3.6024
X3.3268Y-4.0157
X3.3553Y-3.062
X3.3563Y-3.622
X3.3661Y-3.2677
X3.3661Y-3.878
X3.376Y-4.0059
X3.3976Y-3.7087
X3.4252Y-4.0059
X3.4449Y-3.7835
X3.4646Y-3.1102
X3.4646Y-3.189
X3.4843Y-3.2283
X3.4843Y-4.0059
X3.4843Y-4.065
X3.5138Y-3.0512
X3.5433Y-4.0059
X3.5531Y-3.6024
X3.5728Y-3.8878
X3.5827Y-3.9469
X3.5984Y-3.4409
X3.6319Y-3.0315
X3.6319Y-3.9469
X3.6713Y-3.0118
X3.7008Y-3.4055
X3.7303Y-3.002
X3.7795Y-3.7008
X3.7953Y-3.5315
X3.7953Y-3.6102
X3.7992Y-2.9232
X3.8386Y-2.8937
X3.8681Y-2.874
X3.8877Y-2.8448
X3.9075Y-2.8051
X3.9094Y-3.7598
X3.9567Y-3.1496
X3.9567Y-3.189
X3.9567Y-3.2362
X3.9567Y-3.2776
X3.9567Y-3.3169
X3.9567Y-3.4941
X4.0Y-2.95
X4.0Y-3.05
X4.0Y-3.6
X4.0Y-3.7
X4.0256Y-3.1102
X4.0846Y-3.1496
X4.1Y-2.95
X4.1Y-3.05
X4.1Y-3.6
X4.1Y-3.7
X4.1831Y-3.8189
X4.2Y-2.95
X4.2Y-3.05
X4.3Y-2.95
X4.3Y-3.05
X4.3Y-3.6
X4.3Y-3.7
X4.311Y-3.8583
X4.3307Y-3.4055
X4.3307Y-3.4941
X4.3996Y-3.5433
X4.4Y-2.95
X4.4Y-3.05
X4.4Y-3.6
X4.4Y-3.7
X4.4193Y-3.9173
X4.4193Y-3.9567
X4.4488Y-4.0059
X4.4488Y-4.0551
X4.4587Y-3.3661
X4.4685Y-3.4055
X4.4685Y-3.5039
X4.5Y-2.95
X4.5Y-3.05
X4.5Y-3.15
X4.5Y-3.25
X4.5Y-3.6
X4.5Y-3.7
X4.5079Y-4.0059
X4.5079Y-4.0551
X4.5177Y-3.4055
X4.5177Y-3.5039
X4.5571Y-3.8484
X4.5669Y-3.4055
X4.5669Y-3.5039
X4.6Y-2.95
X4.6Y-3.05
X4.6Y-3.15
X4.6Y-3.25
X4.6Y-3.35
X4.6Y-3.6
X4.6Y-3.7
X4.6161Y-3.4055
X4.6161Y-3.5039
X4.6654Y-3.5138
X4.6752Y-3.3957
X4.7Y-2.95
X4.7Y-3.05
X4.7Y-3.15
X4.7Y-3.25
X4.7Y-3.6
X4.7Y-3.7
X4.7441Y-3.3465
X4.7441Y-3.4646
X4.7441Y-3.563
T3
X1.8449Y-3.9907
X1.8449Y-4.0407
X1.8949Y-3.9907
X1.8949Y-4.0407
X1.9449Y-3.9907
X1.9449Y-4.0407
X1.9949Y-3.9907
X1.9949Y-4.0407
X2.0449Y-3.9907
X2.0449Y-4.0407
T4
X2.8543Y-2.6083
X3.0413Y-2.6083
X3.2382Y-2.6083
X3.6453Y-4.0453
X3.7453Y-4.0453
X3.8453Y-4.0453
X3.9453Y-4.0453
X4.0453Y-4.0453
X4.0551Y-2.7756
X4.1453Y-4.0453
X4.2453Y-4.0453
X4.252Y-2.7756
X4.3453Y-4.0453
X4.4488Y-2.7756
T5
X1.6831Y-2.9232
X1.6831Y-3.1201
T6
X1.65Y-2.65
X1.65Y-4.0
X4.7Y-2.65
X4.7Y-4.0
T2
G00X1.6411Y-3.3929
M15
G01X1.6096Y-3.3929
M16
G05
G00X1.6411Y-3.7331
M15
G01X1.6096Y-3.7331
M16
G05
G00X1.8116Y-3.3929
M15
G01X1.7683Y-3.3929
M16
G05
G00X1.8116Y-3.7331
M15
G01X1.7683Y-3.7331
M16
G05
M30
