%TF.GenerationSoftware,KiCad,Pcbnew,9.0.8-9.0.8~ubuntu24.04.1*%
%TF.CreationDate,2026-04-03T10:18:26+02:00*%
%TF.ProjectId,marine_tracker,6d617269-6e65-45f7-9472-61636b65722e,rev?*%
%TF.SameCoordinates,Original*%
%TF.FileFunction,Copper,L1,Top*%
%TF.FilePolarity,Positive*%
%FSLAX46Y46*%
G04 Gerber Fmt 4.6, Leading zero omitted, Abs format (unit mm)*
G04 Created by KiCad (PCBNEW 9.0.8-9.0.8~ubuntu24.04.1) date 2026-04-03 10:18:26*
%MOMM*%
%LPD*%
G01*
G04 APERTURE LIST*
G04 Aperture macros list*
%AMRoundRect*
0 Rectangle with rounded corners*
0 $1 Rounding radius*
0 $2 $3 $4 $5 $6 $7 $8 $9 X,Y pos of 4 corners*
0 Add a 4 corners polygon primitive as box body*
4,1,4,$2,$3,$4,$5,$6,$7,$8,$9,$2,$3,0*
0 Add four circle primitives for the rounded corners*
1,1,$1+$1,$2,$3*
1,1,$1+$1,$4,$5*
1,1,$1+$1,$6,$7*
1,1,$1+$1,$8,$9*
0 Add four rect primitives between the rounded corners*
20,1,$1+$1,$2,$3,$4,$5,0*
20,1,$1+$1,$4,$5,$6,$7,0*
20,1,$1+$1,$6,$7,$8,$9,0*
20,1,$1+$1,$8,$9,$2,$3,0*%
G04 Aperture macros list end*
%TA.AperFunction,SMDPad,CuDef*%
%ADD10C,1.000000*%
%TD*%
%TA.AperFunction,SMDPad,CuDef*%
%ADD11RoundRect,0.250000X0.250000X0.475000X-0.250000X0.475000X-0.250000X-0.475000X0.250000X-0.475000X0*%
%TD*%
%TA.AperFunction,SMDPad,CuDef*%
%ADD12R,1.041400X0.990600*%
%TD*%
%TA.AperFunction,SMDPad,CuDef*%
%ADD13R,2.209800X1.041400*%
%TD*%
%TA.AperFunction,SMDPad,CuDef*%
%ADD14RoundRect,0.225000X0.225000X0.250000X-0.225000X0.250000X-0.225000X-0.250000X0.225000X-0.250000X0*%
%TD*%
%TA.AperFunction,ComponentPad*%
%ADD15C,2.000000*%
%TD*%
%TA.AperFunction,SMDPad,CuDef*%
%ADD16RoundRect,0.135000X0.185000X-0.135000X0.185000X0.135000X-0.185000X0.135000X-0.185000X-0.135000X0*%
%TD*%
%TA.AperFunction,SMDPad,CuDef*%
%ADD17RoundRect,0.225000X-0.225000X-0.250000X0.225000X-0.250000X0.225000X0.250000X-0.225000X0.250000X0*%
%TD*%
%TA.AperFunction,SMDPad,CuDef*%
%ADD18RoundRect,0.135000X-0.185000X0.135000X-0.185000X-0.135000X0.185000X-0.135000X0.185000X0.135000X0*%
%TD*%
%TA.AperFunction,SMDPad,CuDef*%
%ADD19RoundRect,0.135000X-0.135000X-0.185000X0.135000X-0.185000X0.135000X0.185000X-0.135000X0.185000X0*%
%TD*%
%TA.AperFunction,SMDPad,CuDef*%
%ADD20RoundRect,0.225000X0.250000X-0.225000X0.250000X0.225000X-0.250000X0.225000X-0.250000X-0.225000X0*%
%TD*%
%TA.AperFunction,SMDPad,CuDef*%
%ADD21R,0.660400X1.701800*%
%TD*%
%TA.AperFunction,SMDPad,CuDef*%
%ADD22R,1.092200X2.895600*%
%TD*%
%TA.AperFunction,ComponentPad*%
%ADD23R,1.700000X1.700000*%
%TD*%
%TA.AperFunction,SMDPad,CuDef*%
%ADD24R,0.990600X0.711200*%
%TD*%
%TA.AperFunction,SMDPad,CuDef*%
%ADD25R,0.500000X0.300000*%
%TD*%
%TA.AperFunction,SMDPad,CuDef*%
%ADD26RoundRect,0.250000X0.475000X-0.250000X0.475000X0.250000X-0.475000X0.250000X-0.475000X-0.250000X0*%
%TD*%
%TA.AperFunction,SMDPad,CuDef*%
%ADD27RoundRect,0.075000X0.700000X0.075000X-0.700000X0.075000X-0.700000X-0.075000X0.700000X-0.075000X0*%
%TD*%
%TA.AperFunction,SMDPad,CuDef*%
%ADD28RoundRect,0.075000X0.075000X0.700000X-0.075000X0.700000X-0.075000X-0.700000X0.075000X-0.700000X0*%
%TD*%
%TA.AperFunction,SMDPad,CuDef*%
%ADD29R,0.863600X0.304800*%
%TD*%
%TA.AperFunction,SMDPad,CuDef*%
%ADD30R,1.600200X2.413000*%
%TD*%
%TA.AperFunction,SMDPad,CuDef*%
%ADD31RoundRect,0.225000X-0.250000X0.225000X-0.250000X-0.225000X0.250000X-0.225000X0.250000X0.225000X0*%
%TD*%
%TA.AperFunction,SMDPad,CuDef*%
%ADD32R,0.812800X0.254000*%
%TD*%
%TA.AperFunction,SMDPad,CuDef*%
%ADD33R,1.752600X2.489200*%
%TD*%
%TA.AperFunction,SMDPad,CuDef*%
%ADD34RoundRect,0.137500X-0.612500X-0.137500X0.612500X-0.137500X0.612500X0.137500X-0.612500X0.137500X0*%
%TD*%
%TA.AperFunction,ComponentPad*%
%ADD35C,3.800000*%
%TD*%
%TA.AperFunction,SMDPad,CuDef*%
%ADD36RoundRect,0.218750X-0.256250X0.218750X-0.256250X-0.218750X0.256250X-0.218750X0.256250X0.218750X0*%
%TD*%
%TA.AperFunction,SMDPad,CuDef*%
%ADD37RoundRect,0.135000X0.135000X0.185000X-0.135000X0.185000X-0.135000X-0.185000X0.135000X-0.185000X0*%
%TD*%
%TA.AperFunction,SMDPad,CuDef*%
%ADD38RoundRect,0.150000X-0.425000X0.150000X-0.425000X-0.150000X0.425000X-0.150000X0.425000X0.150000X0*%
%TD*%
%TA.AperFunction,SMDPad,CuDef*%
%ADD39RoundRect,0.075000X-0.500000X0.075000X-0.500000X-0.075000X0.500000X-0.075000X0.500000X0.075000X0*%
%TD*%
%TA.AperFunction,HeatsinkPad*%
%ADD40O,2.100000X1.000000*%
%TD*%
%TA.AperFunction,HeatsinkPad*%
%ADD41O,1.800000X1.000000*%
%TD*%
%TA.AperFunction,ComponentPad*%
%ADD42C,1.700000*%
%TD*%
%TA.AperFunction,SMDPad,CuDef*%
%ADD43RoundRect,0.250000X-0.250000X-0.475000X0.250000X-0.475000X0.250000X0.475000X-0.250000X0.475000X0*%
%TD*%
%TA.AperFunction,SMDPad,CuDef*%
%ADD44RoundRect,0.250000X0.550000X0.400000X-0.550000X0.400000X-0.550000X-0.400000X0.550000X-0.400000X0*%
%TD*%
%TA.AperFunction,ComponentPad*%
%ADD45R,1.000000X1.000000*%
%TD*%
%TA.AperFunction,ComponentPad*%
%ADD46C,1.000000*%
%TD*%
%TA.AperFunction,SMDPad,CuDef*%
%ADD47RoundRect,0.175000X-0.725000X-0.175000X0.725000X-0.175000X0.725000X0.175000X-0.725000X0.175000X0*%
%TD*%
%TA.AperFunction,SMDPad,CuDef*%
%ADD48RoundRect,0.200000X-0.700000X-0.200000X0.700000X-0.200000X0.700000X0.200000X-0.700000X0.200000X0*%
%TD*%
%TA.AperFunction,SMDPad,CuDef*%
%ADD49R,1.800000X1.000000*%
%TD*%
%TA.AperFunction,ViaPad*%
%ADD50C,0.700000*%
%TD*%
%TA.AperFunction,Conductor*%
%ADD51C,0.500000*%
%TD*%
%TA.AperFunction,Conductor*%
%ADD52C,0.200000*%
%TD*%
%TA.AperFunction,Conductor*%
%ADD53C,0.300000*%
%TD*%
%TA.AperFunction,Conductor*%
%ADD54C,0.250000*%
%TD*%
%TA.AperFunction,Conductor*%
%ADD55C,0.330000*%
%TD*%
%TA.AperFunction,Conductor*%
%ADD56C,0.370000*%
%TD*%
G04 APERTURE END LIST*
D10*
%TO.P,TP14,1,1*%
%TO.N,MEM_SPI3_MISO*%
X63250000Y-99000000D03*
%TD*%
%TO.P,TP13,1,1*%
%TO.N,MEM_SPI3_MOSI*%
X75000000Y-103500000D03*
%TD*%
%TO.P,TP12,1,1*%
%TO.N,MEM_SPI3_SCK*%
X75000000Y-100250000D03*
%TD*%
%TO.P,TP9,1,1*%
%TO.N,SHT_SDA*%
X83000000Y-100500000D03*
%TD*%
%TO.P,TP8,1,1*%
%TO.N,SHT_SCL*%
X77250000Y-103500000D03*
%TD*%
D11*
%TO.P,C30,1*%
%TO.N,+3V3*%
X61950000Y-74500000D03*
%TO.P,C30,2*%
%TO.N,GND*%
X60050000Y-74500000D03*
%TD*%
D12*
%TO.P,J6,1,In*%
%TO.N,/RF_ANT*%
X118997850Y-87750000D03*
D13*
%TO.P,J6,2,Ext*%
%TO.N,GND*%
X120522851Y-86274999D03*
%TO.P,J6,3,Ext2*%
X120522851Y-89225001D03*
%TD*%
D14*
%TO.P,C25,1*%
%TO.N,+3V3*%
X71775000Y-97250000D03*
%TO.P,C25,2*%
%TO.N,GND*%
X70225000Y-97250000D03*
%TD*%
D15*
%TO.P,J1,1,Pin_1*%
%TO.N,GND*%
X42750000Y-79250000D03*
%TO.P,J1,2,Pin_2*%
%TO.N,+BATT*%
X42750000Y-74250000D03*
%TD*%
D14*
%TO.P,C20,1*%
%TO.N,+3V3*%
X61639600Y-72250000D03*
%TO.P,C20,2*%
%TO.N,GND*%
X60089600Y-72250000D03*
%TD*%
D16*
%TO.P,R9,1*%
%TO.N,/LED2*%
X59000000Y-98250000D03*
%TO.P,R9,2*%
%TO.N,/STAT2*%
X59000000Y-97230000D03*
%TD*%
D17*
%TO.P,C8,1*%
%TO.N,+3V3*%
X85225000Y-81000000D03*
%TO.P,C8,2*%
%TO.N,GND*%
X86775000Y-81000000D03*
%TD*%
D18*
%TO.P,R7,1*%
%TO.N,/USB_CC1*%
X51000000Y-95990000D03*
%TO.P,R7,2*%
%TO.N,GND*%
X51000000Y-97010000D03*
%TD*%
D19*
%TO.P,R12,1*%
%TO.N,/PROG*%
X62730000Y-87500000D03*
%TO.P,R12,2*%
%TO.N,GND*%
X63750000Y-87500000D03*
%TD*%
D20*
%TO.P,C15,1*%
%TO.N,+3V3*%
X110750000Y-99525000D03*
%TO.P,C15,2*%
%TO.N,GND*%
X110750000Y-97975000D03*
%TD*%
D21*
%TO.P,J4,1,1*%
%TO.N,+3V3*%
X61875000Y-69723451D03*
%TO.P,J4,2,2*%
%TO.N,PRES_I2C2_SDA*%
X63125000Y-69723451D03*
%TO.P,J4,3,3*%
%TO.N,PRES_I2C2_SCL*%
X64375000Y-69723451D03*
%TO.P,J4,4,4*%
%TO.N,GND*%
X65625000Y-69723451D03*
D22*
%TO.P,J4,5*%
%TO.N,N/C*%
X67474999Y-66373450D03*
%TO.P,J4,6*%
X60025001Y-66373450D03*
%TD*%
D14*
%TO.P,C5,1*%
%TO.N,+3V3*%
X80525000Y-94250000D03*
%TO.P,C5,2*%
%TO.N,GND*%
X78975000Y-94250000D03*
%TD*%
D17*
%TO.P,C26,1*%
%TO.N,+BATT*%
X48225000Y-74250000D03*
%TO.P,C26,2*%
%TO.N,GND*%
X49775000Y-74250000D03*
%TD*%
D23*
%TO.P,TP6,1,1*%
%TO.N,GPS_TXD*%
X103000000Y-70500000D03*
%TD*%
D18*
%TO.P,R11,1*%
%TO.N,/THERM*%
X64000000Y-91490000D03*
%TO.P,R11,2*%
%TO.N,GND*%
X64000000Y-92510000D03*
%TD*%
D24*
%TO.P,SW2,1,1*%
%TO.N,/BOOT0*%
X48249999Y-66675001D03*
%TO.P,SW2,2,2*%
X52750001Y-66675001D03*
%TO.P,SW2,3,3*%
%TO.N,+3V3*%
X48249999Y-68824999D03*
%TO.P,SW2,4,4*%
X52750001Y-68824999D03*
%TD*%
D25*
%TO.P,U2,1,SDA*%
%TO.N,SHT_SDA*%
X82050000Y-102350000D03*
%TO.P,U2,2,SCL*%
%TO.N,SHT_SCL*%
X82050000Y-103150000D03*
%TO.P,U2,3,VDD*%
%TO.N,+3V3*%
X83450000Y-103150000D03*
%TO.P,U2,4,VSS*%
%TO.N,GND*%
X83450000Y-102350000D03*
%TD*%
D26*
%TO.P,C24,1*%
%TO.N,+3V3*%
X114000000Y-99700000D03*
%TO.P,C24,2*%
%TO.N,GND*%
X114000000Y-97800000D03*
%TD*%
D20*
%TO.P,C13,1*%
%TO.N,GND*%
X94000000Y-85275000D03*
%TO.P,C13,2*%
%TO.N,/HSE_IN*%
X94000000Y-83725000D03*
%TD*%
D14*
%TO.P,C22,1*%
%TO.N,+3V3*%
X99275000Y-89750000D03*
%TO.P,C22,2*%
%TO.N,GND*%
X97725000Y-89750000D03*
%TD*%
D27*
%TO.P,U1,1,VBAT*%
%TO.N,+3V3*%
X81675000Y-89250000D03*
%TO.P,U1,2,PC13*%
%TO.N,unconnected-(U1-PC13-Pad2)*%
X81675000Y-88750000D03*
%TO.P,U1,3,PC14*%
%TO.N,/LSE_IN*%
X81675000Y-88250000D03*
%TO.P,U1,4,PC15*%
%TO.N,/LSE_OUT*%
X81675000Y-87750000D03*
%TO.P,U1,5,PH0*%
%TO.N,/HSE_IN*%
X81675000Y-87250000D03*
%TO.P,U1,6,PH1*%
%TO.N,/HSE_OUT*%
X81675000Y-86750000D03*
%TO.P,U1,7,NRST*%
%TO.N,SWD_NRST*%
X81675000Y-86250000D03*
%TO.P,U1,8,PC0*%
%TO.N,unconnected-(U1-PC0-Pad8)*%
X81675000Y-85750000D03*
%TO.P,U1,9,PC1*%
%TO.N,unconnected-(U1-PC1-Pad9)*%
X81675000Y-85250000D03*
%TO.P,U1,10,PC2*%
%TO.N,unconnected-(U1-PC2-Pad10)*%
X81675000Y-84750000D03*
%TO.P,U1,11,PC3*%
%TO.N,unconnected-(U1-PC3-Pad11)*%
X81675000Y-84250000D03*
%TO.P,U1,12,VSSA*%
%TO.N,GND*%
X81675000Y-83750000D03*
%TO.P,U1,13,VDDA*%
%TO.N,+3V3*%
X81675000Y-83250000D03*
%TO.P,U1,14,PA0*%
%TO.N,unconnected-(U1-PA0-Pad14)*%
X81675000Y-82750000D03*
%TO.P,U1,15,PA1*%
%TO.N,unconnected-(U1-PA1-Pad15)*%
X81675000Y-82250000D03*
%TO.P,U1,16,PA2*%
%TO.N,SAT_RXD*%
X81675000Y-81750000D03*
D28*
%TO.P,U1,17,PA3*%
%TO.N,SAT_TXD*%
X79750000Y-79825000D03*
%TO.P,U1,18,VSS*%
%TO.N,GND*%
X79250000Y-79825000D03*
%TO.P,U1,19,VDD*%
%TO.N,+3V3*%
X78750000Y-79825000D03*
%TO.P,U1,20,PA4*%
%TO.N,SAT_VPA_EN*%
X78250000Y-79825000D03*
%TO.P,U1,21,PA5*%
%TO.N,SAT_VPA_SEL*%
X77750000Y-79825000D03*
%TO.P,U1,22,PA6*%
%TO.N,unconnected-(U1-PA6-Pad22)*%
X77250000Y-79825000D03*
%TO.P,U1,23,PA7*%
%TO.N,unconnected-(U1-PA7-Pad23)*%
X76750000Y-79825000D03*
%TO.P,U1,24,PC4*%
%TO.N,unconnected-(U1-PC4-Pad24)*%
X76250000Y-79825000D03*
%TO.P,U1,25,PC5*%
%TO.N,unconnected-(U1-PC5-Pad25)*%
X75750000Y-79825000D03*
%TO.P,U1,26,PB0*%
%TO.N,GPS_EXTINT*%
X75250000Y-79825000D03*
%TO.P,U1,27,PB1*%
%TO.N,GPS_N_RST*%
X74750000Y-79825000D03*
%TO.P,U1,28,PB2*%
%TO.N,GPS_PULSE*%
X74250000Y-79825000D03*
%TO.P,U1,29,PB10*%
%TO.N,unconnected-(U1-PB10-Pad29)*%
X73750000Y-79825000D03*
%TO.P,U1,30,VCAP*%
%TO.N,/VCAP*%
X73250000Y-79825000D03*
%TO.P,U1,31,VSS*%
%TO.N,GND*%
X72750000Y-79825000D03*
%TO.P,U1,32,VDD*%
%TO.N,+3V3*%
X72250000Y-79825000D03*
D27*
%TO.P,U1,33,PB12*%
%TO.N,unconnected-(U1-PB12-Pad33)*%
X70325000Y-81750000D03*
%TO.P,U1,34,PB13*%
%TO.N,PRES_I2C2_SCL*%
X70325000Y-82250000D03*
%TO.P,U1,35,PB14*%
%TO.N,PRES_I2C2_SDA*%
X70325000Y-82750000D03*
%TO.P,U1,36,PB15*%
%TO.N,unconnected-(U1-PB15-Pad36)*%
X70325000Y-83250000D03*
%TO.P,U1,37,PC6*%
%TO.N,unconnected-(U1-PC6-Pad37)*%
X70325000Y-83750000D03*
%TO.P,U1,38,PC7*%
%TO.N,unconnected-(U1-PC7-Pad38)*%
X70325000Y-84250000D03*
%TO.P,U1,39,PC8*%
%TO.N,unconnected-(U1-PC8-Pad39)*%
X70325000Y-84750000D03*
%TO.P,U1,40,PC9*%
%TO.N,unconnected-(U1-PC9-Pad40)*%
X70325000Y-85250000D03*
%TO.P,U1,41,PA8*%
%TO.N,unconnected-(U1-PA8-Pad41)*%
X70325000Y-85750000D03*
%TO.P,U1,42,PA9*%
%TO.N,GPS_RXD*%
X70325000Y-86250000D03*
%TO.P,U1,43,PA10*%
%TO.N,GPS_TXD*%
X70325000Y-86750000D03*
%TO.P,U1,44,PA11*%
%TO.N,/USB_D-*%
X70325000Y-87250000D03*
%TO.P,U1,45,PA12*%
%TO.N,/USB_D+*%
X70325000Y-87750000D03*
%TO.P,U1,46,PA13*%
%TO.N,SWDIO*%
X70325000Y-88250000D03*
%TO.P,U1,47,VSS*%
%TO.N,GND*%
X70325000Y-88750000D03*
%TO.P,U1,48,VDDUSB*%
%TO.N,+3V3*%
X70325000Y-89250000D03*
D28*
%TO.P,U1,49,PA14*%
%TO.N,SWCLK*%
X72250000Y-91175000D03*
%TO.P,U1,50,PA15*%
%TO.N,MEM_SPI3_CS*%
X72750000Y-91175000D03*
%TO.P,U1,51,PC10*%
%TO.N,MEM_SPI3_SCK*%
X73250000Y-91175000D03*
%TO.P,U1,52,PC11*%
%TO.N,MEM_SPI3_MISO*%
X73750000Y-91175000D03*
%TO.P,U1,53,PC12*%
%TO.N,MEM_SPI3_MOSI*%
X74250000Y-91175000D03*
%TO.P,U1,54,PD2*%
%TO.N,unconnected-(U1-PD2-Pad54)*%
X74750000Y-91175000D03*
%TO.P,U1,55,PB3*%
%TO.N,MEM_HOLD*%
X75250000Y-91175000D03*
%TO.P,U1,56,PB4*%
%TO.N,GPS_LNA_EN*%
X75750000Y-91175000D03*
%TO.P,U1,57,PB5*%
%TO.N,unconnected-(U1-PB5-Pad57)*%
X76250000Y-91175000D03*
%TO.P,U1,58,PB6*%
%TO.N,SHT_SCL*%
X76750000Y-91175000D03*
%TO.P,U1,59,PB7*%
%TO.N,SHT_SDA*%
X77250000Y-91175000D03*
%TO.P,U1,60,PH3*%
%TO.N,/BOOT0*%
X77750000Y-91175000D03*
%TO.P,U1,61,PB8*%
%TO.N,unconnected-(U1-PB8-Pad61)*%
X78250000Y-91175000D03*
%TO.P,U1,62,PB9*%
%TO.N,unconnected-(U1-PB9-Pad62)*%
X78750000Y-91175000D03*
%TO.P,U1,63,VSS*%
%TO.N,GND*%
X79250000Y-91175000D03*
%TO.P,U1,64,VDD*%
%TO.N,+3V3*%
X79750000Y-91175000D03*
%TD*%
D20*
%TO.P,C16,1*%
%TO.N,+3V3*%
X89500000Y-100300000D03*
%TO.P,C16,2*%
%TO.N,GND*%
X89500000Y-98750000D03*
%TD*%
D14*
%TO.P,C21,1*%
%TO.N,+3V3*%
X99250000Y-91750000D03*
%TO.P,C21,2*%
%TO.N,GND*%
X97700000Y-91750000D03*
%TD*%
D29*
%TO.P,U5,1,VIN*%
%TO.N,+BATT*%
X51750000Y-76000000D03*
%TO.P,U5,2,VIN*%
X51750000Y-76649998D03*
%TO.P,U5,3,\u002ASHDN*%
X51750000Y-77300000D03*
%TO.P,U5,4,GND*%
%TO.N,GND*%
X51750000Y-77949998D03*
%TO.P,U5,5,PWRGD*%
%TO.N,unconnected-(U5-PWRGD-Pad5)*%
X54493200Y-77949998D03*
%TO.P,U5,6,CDELAY*%
%TO.N,Net-(U5-CDELAY)*%
X54493200Y-77300000D03*
%TO.P,U5,7,VOUT*%
%TO.N,+3V3*%
X54493200Y-76649998D03*
%TO.P,U5,8,VOUT*%
X54493200Y-76000000D03*
D30*
%TO.P,U5,9,EP*%
%TO.N,GND*%
X53121600Y-76974999D03*
%TD*%
D17*
%TO.P,C17,1*%
%TO.N,+3V3*%
X85725000Y-103250000D03*
%TO.P,C17,2*%
%TO.N,GND*%
X87275000Y-103250000D03*
%TD*%
D31*
%TO.P,C14,1*%
%TO.N,GND*%
X85500000Y-84225000D03*
%TO.P,C14,2*%
%TO.N,/HSE_OUT*%
X85500000Y-85775000D03*
%TD*%
D23*
%TO.P,TP7,1,1*%
%TO.N,GND*%
X113000000Y-70500000D03*
%TD*%
D10*
%TO.P,TP2,1,1*%
%TO.N,GND*%
X49000000Y-79250000D03*
%TD*%
D31*
%TO.P,C9,1*%
%TO.N,+3V3*%
X68000000Y-90200000D03*
%TO.P,C9,2*%
%TO.N,GND*%
X68000000Y-91750000D03*
%TD*%
D14*
%TO.P,C19,1*%
%TO.N,+BATT*%
X62025000Y-82750000D03*
%TO.P,C19,2*%
%TO.N,GND*%
X60475000Y-82750000D03*
%TD*%
D31*
%TO.P,C6,1*%
%TO.N,+3V3*%
X82500000Y-91475000D03*
%TO.P,C6,2*%
%TO.N,GND*%
X82500000Y-93025000D03*
%TD*%
D32*
%TO.P,U3,1,V_{DD}*%
%TO.N,VBUS*%
X55853000Y-84749999D03*
%TO.P,U3,2,V_{DD}*%
X55853000Y-85250001D03*
%TO.P,U3,3,STAT1*%
%TO.N,/STAT1*%
X55853000Y-85750000D03*
%TO.P,U3,4,STAT2*%
%TO.N,/STAT2*%
X55853000Y-86249999D03*
%TO.P,U3,5,V_{SS}*%
%TO.N,GND*%
X55853000Y-86750001D03*
%TO.P,U3,6,PROG*%
%TO.N,/PROG*%
X58647000Y-86750001D03*
%TO.P,U3,7,~{PG}*%
%TO.N,/PG*%
X58647000Y-86249999D03*
%TO.P,U3,8,THERM*%
%TO.N,/THERM*%
X58647000Y-85750000D03*
%TO.P,U3,9,V_{BAT}*%
%TO.N,+BATT*%
X58647000Y-85250001D03*
%TO.P,U3,10,V_{BAT}*%
X58647000Y-84749999D03*
D33*
%TO.P,U3,11,EP*%
%TO.N,GND*%
X57250000Y-85750000D03*
%TD*%
D20*
%TO.P,C4,1*%
%TO.N,+3V3*%
X78750000Y-77275000D03*
%TO.P,C4,2*%
%TO.N,GND*%
X78750000Y-75725000D03*
%TD*%
D34*
%TO.P,U6,1,~{CS}*%
%TO.N,MEM_SPI3_CS*%
X66350000Y-99095000D03*
%TO.P,U6,2,SO*%
%TO.N,MEM_SPI3_MISO*%
X66350000Y-100365000D03*
%TO.P,U6,3,~{WP}*%
%TO.N,unconnected-(U6-~{WP}-Pad3)*%
X66350000Y-101635000D03*
%TO.P,U6,4,V_{SS}*%
%TO.N,GND*%
X66350000Y-102905000D03*
%TO.P,U6,5,SI*%
%TO.N,MEM_SPI3_MOSI*%
X71650000Y-102905000D03*
%TO.P,U6,6,SCK*%
%TO.N,MEM_SPI3_SCK*%
X71650000Y-101635000D03*
%TO.P,U6,7,~{HOLD}*%
%TO.N,MEM_HOLD*%
X71650000Y-100365000D03*
%TO.P,U6,8,V_{CC}*%
%TO.N,+3V3*%
X71650000Y-99095000D03*
%TD*%
D14*
%TO.P,C3,1*%
%TO.N,+3V3*%
X71775000Y-77500000D03*
%TO.P,C3,2*%
%TO.N,GND*%
X70225000Y-77500000D03*
%TD*%
D18*
%TO.P,R4,1*%
%TO.N,/USB_CC2*%
X49500000Y-95990000D03*
%TO.P,R4,2*%
%TO.N,GND*%
X49500000Y-97010000D03*
%TD*%
D35*
%TO.P,REF\u002A\u002A,1*%
%TO.N,N/C*%
X119380000Y-67310000D03*
%TD*%
D36*
%TO.P,D1,1,K*%
%TO.N,/LED1*%
X56750000Y-100212500D03*
%TO.P,D1,2,A*%
%TO.N,VBUS*%
X56750000Y-101787500D03*
%TD*%
D37*
%TO.P,R3,1*%
%TO.N,+3V3*%
X65599600Y-74500000D03*
%TO.P,R3,2*%
%TO.N,PRES_I2C2_SDA*%
X64579600Y-74500000D03*
%TD*%
%TO.P,R2,1*%
%TO.N,+3V3*%
X65599600Y-72500000D03*
%TO.P,R2,2*%
%TO.N,PRES_I2C2_SCL*%
X64579600Y-72500000D03*
%TD*%
D11*
%TO.P,C29,1*%
%TO.N,+3V3*%
X99200000Y-94000000D03*
%TO.P,C29,2*%
%TO.N,GND*%
X97300000Y-94000000D03*
%TD*%
D23*
%TO.P,TP4,1,1*%
%TO.N,GPS_PULSE*%
X82250000Y-66250000D03*
%TD*%
D18*
%TO.P,R1,1*%
%TO.N,/BOOT0*%
X55000000Y-66740000D03*
%TO.P,R1,2*%
%TO.N,GND*%
X55000000Y-67760000D03*
%TD*%
D38*
%TO.P,J3,A1,GND*%
%TO.N,GND*%
X46040000Y-87300000D03*
%TO.P,J3,A4,VBUS*%
%TO.N,VBUS*%
X46040000Y-88100000D03*
D39*
%TO.P,J3,A5,CC1*%
%TO.N,/USB_CC1*%
X46040000Y-89250000D03*
%TO.P,J3,A6,D+*%
%TO.N,/USB_D+*%
X46040000Y-90250000D03*
%TO.P,J3,A7,D-*%
%TO.N,/USB_D-*%
X46040000Y-90750000D03*
%TO.P,J3,A8,SBU1*%
%TO.N,unconnected-(J3-SBU1-PadA8)*%
X46040000Y-91750000D03*
D38*
%TO.P,J3,A9,VBUS*%
%TO.N,VBUS*%
X46040000Y-92900000D03*
%TO.P,J3,A12,GND*%
%TO.N,GND*%
X46040000Y-93700000D03*
%TO.P,J3,B1,GND*%
X46040000Y-93700000D03*
%TO.P,J3,B4,VBUS*%
%TO.N,VBUS*%
X46040000Y-92900000D03*
D39*
%TO.P,J3,B5,CC2*%
%TO.N,/USB_CC2*%
X46040000Y-92250000D03*
%TO.P,J3,B6,D+*%
%TO.N,/USB_D+*%
X46040000Y-91250000D03*
%TO.P,J3,B7,D-*%
%TO.N,/USB_D-*%
X46040000Y-89750000D03*
%TO.P,J3,B8,SBU2*%
%TO.N,unconnected-(J3-SBU2-PadB8)*%
X46040000Y-88750000D03*
D38*
%TO.P,J3,B9,VBUS*%
%TO.N,VBUS*%
X46040000Y-88100000D03*
%TO.P,J3,B12,GND*%
%TO.N,GND*%
X46040000Y-87300000D03*
D40*
%TO.P,J3,S1,SHIELD*%
X45465000Y-86180000D03*
D41*
X41285000Y-86180000D03*
D40*
X45465000Y-94820000D03*
D41*
X41285000Y-94820000D03*
%TD*%
D20*
%TO.P,C12,1*%
%TO.N,GND*%
X90250000Y-90275000D03*
%TO.P,C12,2*%
%TO.N,/LSE_OUT*%
X90250000Y-88725000D03*
%TD*%
D35*
%TO.P,REF\u002A\u002A,1*%
%TO.N,N/C*%
X41910000Y-101600000D03*
%TD*%
D18*
%TO.P,R6,1*%
%TO.N,+3V3*%
X80250000Y-100990000D03*
%TO.P,R6,2*%
%TO.N,SHT_SDA*%
X80250000Y-102010000D03*
%TD*%
D17*
%TO.P,C7,1*%
%TO.N,+3V3*%
X85225000Y-79000000D03*
%TO.P,C7,2*%
%TO.N,GND*%
X86775000Y-79000000D03*
%TD*%
D26*
%TO.P,C27,1*%
%TO.N,+3V3*%
X87000000Y-100450000D03*
%TO.P,C27,2*%
%TO.N,GND*%
X87000000Y-98550000D03*
%TD*%
D36*
%TO.P,D3,1,K*%
%TO.N,/LED3*%
X61090000Y-100212500D03*
%TO.P,D3,2,A*%
%TO.N,VBUS*%
X61090000Y-101787500D03*
%TD*%
D35*
%TO.P,REF\u002A\u002A,1*%
%TO.N,N/C*%
X119380000Y-101600000D03*
%TD*%
D23*
%TO.P,TP11,1,1*%
%TO.N,PRES_I2C2_SDA*%
X77250000Y-66250000D03*
%TD*%
D26*
%TO.P,C1,1*%
%TO.N,/VCAP*%
X74000000Y-76450000D03*
%TO.P,C1,2*%
%TO.N,GND*%
X74000000Y-74550000D03*
%TD*%
D23*
%TO.P,J5,1,Pin_1*%
%TO.N,+3V3*%
X92590000Y-102750000D03*
D42*
%TO.P,J5,2,Pin_2*%
%TO.N,SAT_RXD*%
X95130000Y-102750000D03*
%TO.P,J5,3,Pin_3*%
%TO.N,SAT_TXD*%
X97670000Y-102750000D03*
%TO.P,J5,4,Pin_4*%
%TO.N,GND*%
X100210000Y-102750000D03*
%TO.P,J5,5,Pin_5*%
X102750000Y-102750000D03*
%TO.P,J5,6,Pin_6*%
%TO.N,SAT_VPA_EN*%
X105290000Y-102750000D03*
%TO.P,J5,7,Pin_7*%
%TO.N,SAT_VPA_SEL*%
X107830000Y-102750000D03*
%TO.P,J5,8,Pin_8*%
%TO.N,+3V3*%
X110370000Y-102750000D03*
%TD*%
D16*
%TO.P,R10,1*%
%TO.N,/LED3*%
X61000000Y-98222500D03*
%TO.P,R10,2*%
%TO.N,/PG*%
X61000000Y-97202500D03*
%TD*%
D18*
%TO.P,R5,1*%
%TO.N,+3V3*%
X78250000Y-101000000D03*
%TO.P,R5,2*%
%TO.N,SHT_SCL*%
X78250000Y-102020000D03*
%TD*%
D43*
%TO.P,C18,1*%
%TO.N,VBUS*%
X51550000Y-82750000D03*
%TO.P,C18,2*%
%TO.N,GND*%
X53450000Y-82750000D03*
%TD*%
D44*
%TO.P,Y3,1,1*%
%TO.N,/HSE_IN*%
X91400000Y-83750000D03*
%TO.P,Y3,2,2*%
%TO.N,GND*%
X88100000Y-83750000D03*
%TO.P,Y3,3,3*%
%TO.N,/HSE_OUT*%
X88100000Y-85750000D03*
%TO.P,Y3,4,G*%
%TO.N,GND*%
X91400000Y-85750000D03*
%TD*%
D23*
%TO.P,TP10,1,1*%
%TO.N,PRES_I2C2_SCL*%
X72500000Y-66250000D03*
%TD*%
D10*
%TO.P,TP3,1,1*%
%TO.N,+BATT*%
X63750000Y-83500000D03*
%TD*%
D45*
%TO.P,J2,1,VTref*%
%TO.N,+3V3*%
X46860000Y-102635000D03*
D46*
%TO.P,J2,2,SWDIO/TMS*%
%TO.N,SWDIO*%
X46860000Y-101365000D03*
%TO.P,J2,3,GND*%
%TO.N,GND*%
X48130000Y-102635000D03*
%TO.P,J2,4,SWCLK/TCK*%
%TO.N,SWCLK*%
X48130000Y-101365000D03*
%TO.P,J2,5,GND*%
%TO.N,GND*%
X49400000Y-102635000D03*
%TO.P,J2,6,SWO/TDO*%
%TO.N,unconnected-(J2-SWO{slash}TDO-Pad6)*%
X49400000Y-101365000D03*
%TO.P,J2,7,KEY*%
%TO.N,unconnected-(J2-KEY-Pad7)*%
X50670000Y-102635000D03*
%TO.P,J2,8,NC/TDI*%
%TO.N,unconnected-(J2-NC{slash}TDI-Pad8)*%
X50670000Y-101365000D03*
%TO.P,J2,9,GNDDetect*%
%TO.N,GND*%
X51940000Y-102635000D03*
%TO.P,J2,10,~{RESET}*%
%TO.N,SWD_NRST*%
X51940000Y-101365000D03*
%TD*%
D11*
%TO.P,C2,1*%
%TO.N,+3V3*%
X71750000Y-75000000D03*
%TO.P,C2,2*%
%TO.N,GND*%
X69850000Y-75000000D03*
%TD*%
D35*
%TO.P,REF\u002A\u002A,1*%
%TO.N,GND*%
X41910000Y-67310000D03*
%TD*%
D31*
%TO.P,C23,1*%
%TO.N,Net-(U5-CDELAY)*%
X56750000Y-77975000D03*
%TO.P,C23,2*%
%TO.N,GND*%
X56750000Y-79525000D03*
%TD*%
D14*
%TO.P,C28,1*%
%TO.N,+3V3*%
X58025000Y-74250000D03*
%TO.P,C28,2*%
%TO.N,GND*%
X56475000Y-74250000D03*
%TD*%
D16*
%TO.P,R8,1*%
%TO.N,/LED1*%
X56750000Y-98260000D03*
%TO.P,R8,2*%
%TO.N,/STAT1*%
X56750000Y-97240000D03*
%TD*%
D23*
%TO.P,TP5,1,1*%
%TO.N,GPS_RXD*%
X108000000Y-70500000D03*
%TD*%
D47*
%TO.P,U7,1,GND*%
%TO.N,GND*%
X102200000Y-80000000D03*
D48*
%TO.P,U7,2,TXD*%
%TO.N,GPS_TXD*%
X102200000Y-81100000D03*
%TO.P,U7,3,RXD*%
%TO.N,GPS_RXD*%
X102200000Y-82200000D03*
%TO.P,U7,4,TIMEPULSE*%
%TO.N,GPS_PULSE*%
X102200000Y-83300000D03*
%TO.P,U7,5,EXTINT*%
%TO.N,GPS_EXTINT*%
X102200000Y-84400000D03*
%TO.P,U7,6,V_BCKP*%
%TO.N,unconnected-(U7-V_BCKP-Pad6)*%
X102200000Y-85500000D03*
%TO.P,U7,7,VCC_IO*%
%TO.N,+3V3*%
X102200000Y-86600000D03*
%TO.P,U7,8,VCC*%
X102200000Y-87700000D03*
D47*
%TO.P,U7,9,~{RESET}*%
%TO.N,GPS_N_RST*%
X102200000Y-88800000D03*
%TO.P,U7,10,GND*%
%TO.N,GND*%
X111700000Y-88800000D03*
D48*
%TO.P,U7,11,RF_IN*%
%TO.N,/RF_ANT*%
X111700000Y-87700000D03*
%TO.P,U7,12,GND*%
%TO.N,GND*%
X111700000Y-86600000D03*
%TO.P,U7,13,LNA_EN*%
%TO.N,GPS_LNA_EN*%
X111700000Y-85500000D03*
%TO.P,U7,14,VCC_RF*%
%TO.N,unconnected-(U7-VCC_RF-Pad14)*%
X111700000Y-84400000D03*
%TO.P,U7,15,VIO_SEL*%
%TO.N,unconnected-(U7-VIO_SEL-Pad15)*%
X111700000Y-83300000D03*
%TO.P,U7,16,SDA*%
%TO.N,unconnected-(U7-SDA-Pad16)*%
X111700000Y-82200000D03*
%TO.P,U7,17,SCL*%
%TO.N,unconnected-(U7-SCL-Pad17)*%
X111700000Y-81100000D03*
D47*
%TO.P,U7,18,~{SAFEBOOT}*%
%TO.N,unconnected-(U7-~{SAFEBOOT}-Pad18)*%
X111700000Y-80000000D03*
%TD*%
D17*
%TO.P,C10,1*%
%TO.N,SWD_NRST*%
X84825000Y-96100000D03*
%TO.P,C10,2*%
%TO.N,GND*%
X86375000Y-96100000D03*
%TD*%
D20*
%TO.P,C11,1*%
%TO.N,GND*%
X85250000Y-90775000D03*
%TO.P,C11,2*%
%TO.N,/LSE_IN*%
X85250000Y-89225000D03*
%TD*%
D49*
%TO.P,Y1,1,1*%
%TO.N,/LSE_IN*%
X87750000Y-91250000D03*
%TO.P,Y1,2,2*%
%TO.N,/LSE_OUT*%
X87750000Y-88750000D03*
%TD*%
D36*
%TO.P,D2,1,K*%
%TO.N,/LED2*%
X59000000Y-100212500D03*
%TO.P,D2,2,A*%
%TO.N,VBUS*%
X59000000Y-101787500D03*
%TD*%
D10*
%TO.P,TP1,1,1*%
%TO.N,+3V3*%
X59000000Y-78000000D03*
%TD*%
D50*
%TO.N,GND*%
X55500000Y-79500000D03*
X80000000Y-75750000D03*
X116840000Y-80010000D03*
X51750000Y-72750000D03*
X66500000Y-91750000D03*
X53450000Y-87250000D03*
X55250000Y-83250000D03*
X104140000Y-91440000D03*
X119380000Y-77470000D03*
X64740000Y-87500000D03*
X104140000Y-77470000D03*
X74000000Y-73250000D03*
X114300000Y-82550000D03*
X109220000Y-93980000D03*
X111750000Y-90000000D03*
X111760000Y-77470000D03*
X101600000Y-91440000D03*
X111760000Y-91440000D03*
X119380000Y-82550000D03*
X119380000Y-74930000D03*
X110000000Y-88750000D03*
X85500000Y-98500000D03*
X113500000Y-89000000D03*
X53250000Y-72750000D03*
X55000000Y-68700000D03*
X87500000Y-96100000D03*
X64000000Y-93500000D03*
X51750000Y-74500000D03*
X116840000Y-82550000D03*
X119380000Y-93980000D03*
X88500000Y-82000000D03*
X116000000Y-89000000D03*
X68200000Y-89000000D03*
X64500000Y-103000000D03*
X58250000Y-83250000D03*
X90250000Y-91500000D03*
X101600000Y-74930000D03*
X96000000Y-94000000D03*
X103750000Y-80000000D03*
X114300000Y-74930000D03*
X58250000Y-82000000D03*
X79000000Y-95500000D03*
X114300000Y-93980000D03*
X109220000Y-74930000D03*
X100500000Y-80000000D03*
X58750000Y-72250000D03*
X60000000Y-76000000D03*
X116000000Y-86500000D03*
X68500000Y-75000000D03*
X111760000Y-93980000D03*
X104140000Y-74930000D03*
X120500000Y-88000000D03*
X101600000Y-77470000D03*
X114300000Y-91440000D03*
X69000000Y-97250000D03*
X88000000Y-81000000D03*
X114300000Y-77470000D03*
X56750000Y-83250000D03*
X120500000Y-85000000D03*
X53500000Y-81000000D03*
X109220000Y-77470000D03*
X54500000Y-74500000D03*
X54500000Y-81000000D03*
X115750000Y-97750000D03*
X54750000Y-72750000D03*
X91400000Y-87400000D03*
X104140000Y-93980000D03*
X88000000Y-79000000D03*
X56750000Y-82000000D03*
X116840000Y-85090000D03*
X73000000Y-77750000D03*
X106680000Y-77470000D03*
X114750000Y-89000000D03*
X109500000Y-98000000D03*
X48110000Y-94500000D03*
X85250000Y-92000000D03*
X82500000Y-94250000D03*
X88500000Y-103250000D03*
X116840000Y-74930000D03*
X106680000Y-74930000D03*
X55250000Y-82000000D03*
X101600000Y-93980000D03*
X84500000Y-102000000D03*
X69000000Y-77500000D03*
X120500000Y-90500000D03*
X114300000Y-80010000D03*
X83250000Y-84000000D03*
X79250000Y-92750000D03*
X66589600Y-71500000D03*
X109220000Y-91440000D03*
X111760000Y-74930000D03*
X50000000Y-72750000D03*
X96400000Y-91700000D03*
X116840000Y-93980000D03*
X110000000Y-86500000D03*
X114750000Y-86500000D03*
X60500000Y-81000000D03*
X119380000Y-91440000D03*
X119380000Y-80010000D03*
X117250000Y-86500000D03*
X56250000Y-72750000D03*
X102250000Y-79000000D03*
X59250000Y-81000000D03*
X90750000Y-98750000D03*
X85500000Y-83000000D03*
X79750000Y-78250000D03*
X47760000Y-87400000D03*
X116840000Y-77470000D03*
X117250000Y-89000000D03*
X53000000Y-74500000D03*
X118750000Y-86250000D03*
X96400000Y-89700000D03*
X116840000Y-91440000D03*
X49500000Y-98000000D03*
X51000000Y-98000000D03*
X118500000Y-89250000D03*
X94000000Y-86500000D03*
X113500000Y-86500000D03*
%TO.N,+3V3*%
X113000000Y-103000000D03*
X112250000Y-99500000D03*
X83750000Y-91500000D03*
X113000000Y-101750000D03*
X99300000Y-95500000D03*
X55750000Y-76250000D03*
X87000000Y-101750000D03*
X80000000Y-77250000D03*
X57000000Y-76250000D03*
X85225000Y-77775000D03*
X73000000Y-97250000D03*
X78250000Y-100000000D03*
X66589600Y-72500000D03*
X62000000Y-76250000D03*
X80250000Y-100000000D03*
X90000000Y-101750000D03*
X85750000Y-101750000D03*
X114500000Y-101750000D03*
X66589600Y-74500000D03*
X92250000Y-100250000D03*
X80500000Y-95500000D03*
X66750000Y-90250000D03*
X58500000Y-75750000D03*
X71750000Y-73500000D03*
X112250000Y-100500000D03*
X114500000Y-103000000D03*
X88500000Y-101750000D03*
X54250000Y-70000000D03*
X91000000Y-100250000D03*
%TO.N,SWD_NRST*%
X83500000Y-86000000D03*
X86300000Y-94200000D03*
X55900000Y-95200000D03*
X55365000Y-101365000D03*
%TO.N,+BATT*%
X48250000Y-77000000D03*
X48250000Y-75750000D03*
X50250000Y-77000000D03*
X60000000Y-85000000D03*
X61250000Y-85000000D03*
X62000000Y-84000000D03*
X49250000Y-76250000D03*
%TO.N,SWDIO*%
X52000000Y-92300000D03*
X52000000Y-98700000D03*
%TO.N,SWCLK*%
X55000000Y-94200000D03*
X55000000Y-98400000D03*
X71000000Y-92300000D03*
X71000000Y-94200000D03*
%TO.N,/BOOT0*%
X69800000Y-79000000D03*
X62250000Y-78500000D03*
X56750000Y-68750000D03*
X78250000Y-92750000D03*
%TO.N,SHT_SCL*%
X76750000Y-93500000D03*
X76750000Y-101000000D03*
%TO.N,SHT_SDA*%
X79250000Y-96751000D03*
X79250000Y-102000000D03*
X77350000Y-92750000D03*
X77350000Y-96751000D03*
%TO.N,GPS_PULSE*%
X76500000Y-71000000D03*
X98250000Y-73000000D03*
X100500000Y-83250000D03*
X74650000Y-77709311D03*
%TO.N,PRES_I2C2_SDA*%
X64500000Y-75500000D03*
X64000000Y-80750000D03*
%TO.N,GPS_TXD*%
X67250000Y-85750000D03*
X100500000Y-81000000D03*
X68750000Y-72000000D03*
X99250000Y-71250000D03*
%TO.N,GPS_N_RST*%
X96500000Y-74250000D03*
X76000000Y-73250000D03*
X75657843Y-77657843D03*
X100500000Y-88750000D03*
%TO.N,MEM_SPI3_MISO*%
X72250000Y-93500000D03*
X64800000Y-100350000D03*
X73900000Y-92700000D03*
X64849037Y-93540491D03*
%TO.N,MEM_SPI3_CS*%
X66000000Y-92900000D03*
X66000000Y-98000000D03*
%TO.N,GPS_RXD*%
X68000000Y-85250000D03*
X69500000Y-72500000D03*
X98747017Y-72258949D03*
X100500000Y-82200000D03*
%TO.N,MEM_HOLD*%
X75135000Y-98250000D03*
X75500000Y-93500000D03*
%TO.N,PRES_I2C2_SCL*%
X65100000Y-73500000D03*
X65500000Y-81750000D03*
%TO.N,SAT_RXD*%
X89250000Y-77500000D03*
%TO.N,MEM_SPI3_MOSI*%
X73250000Y-102905000D03*
X74700000Y-93200000D03*
%TO.N,GPS_EXTINT*%
X97500000Y-73500000D03*
X100500000Y-84250000D03*
X77200000Y-71700000D03*
X76500000Y-78250000D03*
%TO.N,SAT_TXD*%
X92250000Y-77000000D03*
%TO.N,VBUS*%
X49110000Y-88250000D03*
X62250000Y-101962500D03*
X47860000Y-93000000D03*
X52750000Y-84750000D03*
X51500000Y-84500000D03*
X54000000Y-84750000D03*
%TO.N,MEM_SPI3_SCK*%
X73650000Y-101650000D03*
X73250000Y-93500000D03*
%TO.N,/USB_CC1*%
X48110000Y-89250000D03*
X51000000Y-94750000D03*
%TO.N,/STAT1*%
X52000000Y-86000000D03*
X52750000Y-96000000D03*
%TO.N,/STAT2*%
X53411325Y-95389546D03*
X52750000Y-86500000D03*
%TO.N,/PG*%
X62750000Y-86250000D03*
X62500000Y-96500000D03*
%TO.N,/THERM*%
X64000000Y-85500000D03*
X64000000Y-90250000D03*
%TO.N,GPS_LNA_EN*%
X76150000Y-98500000D03*
X76150000Y-94250000D03*
X113250000Y-85500000D03*
X106250000Y-97000000D03*
%TO.N,SAT_VPA_SEL*%
X94750000Y-76250000D03*
%TO.N,SAT_VPA_EN*%
X93250000Y-76500000D03*
%TD*%
D51*
%TO.N,GND*%
X79975000Y-75725000D02*
X80000000Y-75750000D01*
X78750000Y-75725000D02*
X79975000Y-75725000D01*
D52*
%TO.N,MEM_SPI3_SCK*%
X73650000Y-101650000D02*
X73650000Y-101600000D01*
X73650000Y-101600000D02*
X75000000Y-100250000D01*
%TO.N,MEM_HOLD*%
X75135000Y-98250000D02*
X73020000Y-100365000D01*
X73020000Y-100365000D02*
X71650000Y-100365000D01*
%TO.N,MEM_SPI3_MOSI*%
X73250000Y-102905000D02*
X74405000Y-102905000D01*
X74405000Y-102905000D02*
X75000000Y-103500000D01*
X73250000Y-102905000D02*
X71650000Y-102905000D01*
%TO.N,SHT_SCL*%
X76750000Y-101000000D02*
X76750000Y-102000000D01*
X76750000Y-102000000D02*
X77250000Y-102500000D01*
X77250000Y-102500000D02*
X77250000Y-103500000D01*
X76750000Y-101000000D02*
X77230000Y-101000000D01*
X77230000Y-101000000D02*
X78250000Y-102020000D01*
%TO.N,MEM_SPI3_MISO*%
X64800000Y-100350000D02*
X64600000Y-100350000D01*
X64600000Y-100350000D02*
X63250000Y-99000000D01*
%TO.N,PRES_I2C2_SDA*%
X64000000Y-80750000D02*
X64000000Y-81500000D01*
X64000000Y-81500000D02*
X65250000Y-82750000D01*
X65250000Y-82750000D02*
X70325000Y-82750000D01*
D53*
%TO.N,GND*%
X51750000Y-77949998D02*
X50300002Y-77949998D01*
X50300002Y-77949998D02*
X49000000Y-79250000D01*
D51*
X55525000Y-79525000D02*
X55500000Y-79500000D01*
X56750000Y-79525000D02*
X55525000Y-79525000D01*
D52*
%TO.N,Net-(U5-CDELAY)*%
X55550000Y-77300000D02*
X56225000Y-77975000D01*
X56225000Y-77975000D02*
X56750000Y-77975000D01*
%TO.N,GPS_TXD*%
X99250000Y-71250000D02*
X96750000Y-68750000D01*
X96750000Y-68750000D02*
X72000000Y-68750000D01*
X72000000Y-68750000D02*
X68750000Y-72000000D01*
%TO.N,GPS_RXD*%
X98747017Y-72258949D02*
X96238068Y-69750000D01*
X96238068Y-69750000D02*
X72250000Y-69750000D01*
X72250000Y-69750000D02*
X69500000Y-72500000D01*
%TO.N,GPS_PULSE*%
X98250000Y-73000000D02*
X96000000Y-70750000D01*
X96000000Y-70750000D02*
X76750000Y-70750000D01*
X76750000Y-70750000D02*
X76500000Y-71000000D01*
%TO.N,GPS_EXTINT*%
X77200000Y-71700000D02*
X77250000Y-71750000D01*
X77250000Y-71750000D02*
X95750000Y-71750000D01*
X95750000Y-71750000D02*
X97500000Y-73500000D01*
%TO.N,GPS_N_RST*%
X76000000Y-73250000D02*
X76500000Y-72750000D01*
X76500000Y-72750000D02*
X95000000Y-72750000D01*
X95000000Y-72750000D02*
X96500000Y-74250000D01*
%TO.N,SAT_VPA_SEL*%
X94750000Y-76250000D02*
X92000000Y-73500000D01*
X92000000Y-73500000D02*
X77500000Y-73500000D01*
X77500000Y-73500000D02*
X77000000Y-74000000D01*
X77000000Y-74000000D02*
X77000000Y-77565686D01*
X77000000Y-77565686D02*
X77750000Y-78315686D01*
X77750000Y-78315686D02*
X77750000Y-79825000D01*
%TO.N,SAT_VPA_EN*%
X93250000Y-76500000D02*
X91000000Y-74250000D01*
X91000000Y-74250000D02*
X78151471Y-74250000D01*
X78151471Y-74250000D02*
X77750000Y-74651471D01*
X77750000Y-74651471D02*
X77750000Y-77750000D01*
X77750000Y-77750000D02*
X78250000Y-78250000D01*
X78250000Y-78250000D02*
X78250000Y-79825000D01*
%TO.N,GPS_RXD*%
X98747017Y-72258949D02*
X99488068Y-73000000D01*
X99488068Y-73000000D02*
X105500000Y-73000000D01*
X105500000Y-73000000D02*
X108000000Y-70500000D01*
%TO.N,GPS_TXD*%
X103000000Y-70500000D02*
X100000000Y-70500000D01*
X100000000Y-70500000D02*
X99250000Y-71250000D01*
D53*
%TO.N,/VCAP*%
X74000000Y-78000000D02*
X74000000Y-76450000D01*
X73250000Y-78750000D02*
X74000000Y-78000000D01*
X73250000Y-79825000D02*
X73250000Y-78750000D01*
D51*
%TO.N,GND*%
X85550000Y-98550000D02*
X85500000Y-98500000D01*
X90250000Y-90275000D02*
X90250000Y-91500000D01*
X86775000Y-79000000D02*
X88000000Y-79000000D01*
D53*
X73000000Y-78000000D02*
X72750000Y-78250000D01*
X66589600Y-71500000D02*
X66089600Y-71500000D01*
X70325000Y-88750000D02*
X68450000Y-88750000D01*
D51*
X97300000Y-94000000D02*
X96000000Y-94000000D01*
X51000000Y-98000000D02*
X51000000Y-97010000D01*
D53*
X81675000Y-83750000D02*
X83000000Y-83750000D01*
D51*
X66350000Y-102905000D02*
X64595000Y-102905000D01*
X64595000Y-102905000D02*
X64500000Y-103000000D01*
X69850000Y-75000000D02*
X68500000Y-75000000D01*
X88450000Y-82000000D02*
X88100000Y-82350000D01*
X94000000Y-85275000D02*
X94000000Y-86500000D01*
X64000000Y-92510000D02*
X64000000Y-93500000D01*
X86375000Y-96100000D02*
X87500000Y-96100000D01*
X70225000Y-97250000D02*
X69000000Y-97250000D01*
D53*
X73000000Y-77750000D02*
X73000000Y-78000000D01*
D51*
X66500000Y-91750000D02*
X68000000Y-91750000D01*
X96450000Y-91750000D02*
X96400000Y-91700000D01*
X74000000Y-74550000D02*
X74000000Y-73250000D01*
X114000000Y-97800000D02*
X115700000Y-97800000D01*
X109525000Y-97975000D02*
X109500000Y-98000000D01*
X49500000Y-98000000D02*
X49500000Y-97010000D01*
X87000000Y-98550000D02*
X85550000Y-98550000D01*
D53*
X84500000Y-102000000D02*
X84500000Y-102250000D01*
D51*
X88500000Y-82000000D02*
X88450000Y-82000000D01*
D53*
X68450000Y-88750000D02*
X68200000Y-89000000D01*
D51*
X88100000Y-82350000D02*
X88100000Y-83750000D01*
X115700000Y-97800000D02*
X115750000Y-97750000D01*
X85250000Y-90775000D02*
X85250000Y-92000000D01*
X82500000Y-93025000D02*
X82500000Y-94250000D01*
X48110000Y-94500000D02*
X48110000Y-94350000D01*
X47460000Y-93700000D02*
X46040000Y-93700000D01*
X78975000Y-94250000D02*
X78975000Y-95475000D01*
X78975000Y-95475000D02*
X79000000Y-95500000D01*
X87275000Y-103250000D02*
X88500000Y-103250000D01*
D52*
X55137500Y-86750000D02*
X55000000Y-86750000D01*
D53*
X65625000Y-71035400D02*
X65625000Y-69723451D01*
D51*
X60050000Y-75950000D02*
X60000000Y-76000000D01*
D53*
X83000000Y-83750000D02*
X83250000Y-84000000D01*
X79250000Y-78750000D02*
X79750000Y-78250000D01*
D52*
X53950000Y-86750000D02*
X53450000Y-87250000D01*
D51*
X96450000Y-89750000D02*
X96400000Y-89700000D01*
D53*
X84500000Y-102250000D02*
X84400000Y-102350000D01*
D51*
X89500000Y-98750000D02*
X90750000Y-98750000D01*
X48110000Y-94350000D02*
X47460000Y-93700000D01*
X60050000Y-74500000D02*
X60050000Y-75950000D01*
D53*
X79250000Y-91175000D02*
X79250000Y-92750000D01*
D51*
X55000000Y-67760000D02*
X55000000Y-68700000D01*
D52*
X55000000Y-86750000D02*
X53950000Y-86750000D01*
D51*
X70225000Y-77500000D02*
X69000000Y-77500000D01*
X86775000Y-81000000D02*
X88000000Y-81000000D01*
X110750000Y-97975000D02*
X109525000Y-97975000D01*
X46040000Y-87300000D02*
X47660000Y-87300000D01*
D53*
X79250000Y-79825000D02*
X79250000Y-78750000D01*
D51*
X60089600Y-72250000D02*
X58750000Y-72250000D01*
X63750000Y-87500000D02*
X64740000Y-87500000D01*
X97725000Y-89750000D02*
X96450000Y-89750000D01*
D53*
X72750000Y-78250000D02*
X72750000Y-79825000D01*
D51*
X85500000Y-84225000D02*
X85500000Y-83000000D01*
D53*
X66089600Y-71500000D02*
X65625000Y-71035400D01*
D51*
X47760000Y-87400000D02*
X47660000Y-87300000D01*
X97700000Y-91750000D02*
X96450000Y-91750000D01*
D53*
X84400000Y-102350000D02*
X83450000Y-102350000D01*
D52*
X55000000Y-86750000D02*
X55853000Y-86750001D01*
D51*
X91400000Y-87400000D02*
X91400000Y-85750000D01*
D53*
%TO.N,+3V3*%
X82500000Y-90075000D02*
X82500000Y-91475000D01*
D51*
X71775000Y-75025000D02*
X71750000Y-75000000D01*
X102200000Y-87700000D02*
X100300000Y-87700000D01*
X54250000Y-69750000D02*
X54250000Y-70000000D01*
X80525000Y-94250000D02*
X80525000Y-95475000D01*
X85225000Y-79000000D02*
X85225000Y-77775000D01*
D53*
X83750000Y-83250000D02*
X85225000Y-81775000D01*
D51*
X99275000Y-88725000D02*
X99275000Y-89750000D01*
X99275000Y-89750000D02*
X99275000Y-93925000D01*
D53*
X85625000Y-103150000D02*
X85725000Y-103250000D01*
D51*
X79975000Y-77275000D02*
X80000000Y-77250000D01*
X71775000Y-77500000D02*
X71775000Y-75025000D01*
X102200000Y-87700000D02*
X102200000Y-86600000D01*
X100300000Y-87700000D02*
X99275000Y-88725000D01*
D52*
X78750000Y-79825000D02*
X78750000Y-77275000D01*
D51*
X71775000Y-97250000D02*
X73000000Y-97250000D01*
X99200000Y-95400000D02*
X99300000Y-95500000D01*
D53*
X80750000Y-94025000D02*
X80525000Y-94250000D01*
X72250000Y-77975000D02*
X71775000Y-77500000D01*
D51*
X52750001Y-68824999D02*
X48249999Y-68824999D01*
X78250000Y-101000000D02*
X78250000Y-100000000D01*
X66800000Y-90200000D02*
X66750000Y-90250000D01*
D53*
X83450000Y-103150000D02*
X85625000Y-103150000D01*
D51*
X99200000Y-94000000D02*
X99200000Y-95400000D01*
X68000000Y-90200000D02*
X66800000Y-90200000D01*
X99275000Y-93925000D02*
X99200000Y-94000000D01*
D53*
X85225000Y-81775000D02*
X85225000Y-81000000D01*
X82500000Y-91475000D02*
X83725000Y-91475000D01*
D51*
X102175000Y-87725000D02*
X102200000Y-87700000D01*
X80250000Y-100990000D02*
X80250000Y-100000000D01*
D53*
X68950000Y-89250000D02*
X68000000Y-90200000D01*
X81675000Y-89250000D02*
X82500000Y-90075000D01*
X80525000Y-93025000D02*
X80525000Y-94250000D01*
X72250000Y-79825000D02*
X72250000Y-77975000D01*
D51*
X61875000Y-69723451D02*
X61839600Y-69758851D01*
X71750000Y-73500000D02*
X71750000Y-75000000D01*
D53*
X65599600Y-74500000D02*
X66589600Y-74500000D01*
X81675000Y-83250000D02*
X83750000Y-83250000D01*
D51*
X85225000Y-81000000D02*
X85225000Y-79000000D01*
X71650000Y-97375000D02*
X71775000Y-97250000D01*
D53*
X65599600Y-72500000D02*
X66589600Y-72500000D01*
X83725000Y-91475000D02*
X83750000Y-91500000D01*
X79750000Y-92250000D02*
X80525000Y-93025000D01*
D51*
X85250000Y-77750000D02*
X85225000Y-77775000D01*
X80525000Y-95475000D02*
X80500000Y-95500000D01*
D53*
X70325000Y-89250000D02*
X68950000Y-89250000D01*
D51*
X53324999Y-68824999D02*
X54250000Y-69750000D01*
X78750000Y-77275000D02*
X79975000Y-77275000D01*
X52750001Y-68824999D02*
X53324999Y-68824999D01*
D53*
X79750000Y-91175000D02*
X79750000Y-92250000D01*
D51*
X71650000Y-99095000D02*
X71650000Y-97375000D01*
D52*
%TO.N,SWD_NRST*%
X83250000Y-86250000D02*
X83500000Y-86000000D01*
X84374000Y-96151000D02*
X84825000Y-95700000D01*
X84825000Y-95175000D02*
X84825000Y-95700000D01*
X81675000Y-86250000D02*
X83250000Y-86250000D01*
X55365000Y-101365000D02*
X51940000Y-101365000D01*
X77000890Y-96151000D02*
X84374000Y-96151000D01*
X86300000Y-94200000D02*
X85800000Y-94200000D01*
X76049890Y-95200000D02*
X77000890Y-96151000D01*
X55900000Y-95200000D02*
X76049890Y-95200000D01*
X85800000Y-94200000D02*
X84825000Y-95175000D01*
D53*
%TO.N,/LSE_IN*%
X85250000Y-89225000D02*
X85250000Y-89500000D01*
D52*
X82500000Y-88250000D02*
X83475000Y-89225000D01*
D53*
X85250000Y-89225000D02*
X85225000Y-89250000D01*
D52*
X81675000Y-88250000D02*
X82500000Y-88250000D01*
X85250000Y-89225000D02*
X85725000Y-89225000D01*
X83475000Y-89225000D02*
X85250000Y-89225000D01*
X85725000Y-89225000D02*
X87750000Y-91250000D01*
%TO.N,/LSE_OUT*%
X90225000Y-88750000D02*
X90250000Y-88725000D01*
X87000000Y-88000000D02*
X87750000Y-88750000D01*
X83250000Y-87750000D02*
X83500000Y-88000000D01*
X81675000Y-87750000D02*
X83250000Y-87750000D01*
X87750000Y-88750000D02*
X90225000Y-88750000D01*
X83500000Y-88000000D02*
X87000000Y-88000000D01*
%TO.N,/HSE_IN*%
X90299000Y-84851000D02*
X91400000Y-83750000D01*
X91400000Y-83750000D02*
X91750000Y-83750000D01*
X81675000Y-87250000D02*
X88500000Y-87250000D01*
X88500000Y-87250000D02*
X90299000Y-85451000D01*
X91775000Y-83725000D02*
X94000000Y-83725000D01*
D53*
X93975000Y-83750000D02*
X94000000Y-83725000D01*
D52*
X91750000Y-83750000D02*
X91775000Y-83725000D01*
D53*
X90750000Y-83750000D02*
X91400000Y-83750000D01*
D52*
X90299000Y-85451000D02*
X90299000Y-84851000D01*
%TO.N,/HSE_OUT*%
X83750000Y-86750000D02*
X84725000Y-85775000D01*
X85500000Y-85775000D02*
X88075000Y-85775000D01*
X88075000Y-85775000D02*
X88100000Y-85750000D01*
X84725000Y-85775000D02*
X85500000Y-85775000D01*
X81675000Y-86750000D02*
X83750000Y-86750000D01*
%TO.N,SWDIO*%
X49525000Y-98700000D02*
X46860000Y-101365000D01*
X61010000Y-92300000D02*
X52000000Y-92300000D01*
X63000000Y-90300000D02*
X63000000Y-90310000D01*
X63000000Y-90310000D02*
X61010000Y-92300000D01*
X67950000Y-88250000D02*
X66600000Y-89600000D01*
X52000000Y-98700000D02*
X49525000Y-98700000D01*
X70325000Y-88250000D02*
X67950000Y-88250000D01*
X63700000Y-89600000D02*
X63000000Y-90300000D01*
X66600000Y-89600000D02*
X63700000Y-89600000D01*
%TO.N,SWCLK*%
X54100000Y-99300000D02*
X50195000Y-99300000D01*
X50195000Y-99300000D02*
X48130000Y-101365000D01*
X72232900Y-92300000D02*
X72250000Y-92282900D01*
X55000000Y-98400000D02*
X54100000Y-99300000D01*
X71000000Y-92300000D02*
X72232900Y-92300000D01*
X72250000Y-92282900D02*
X72250000Y-91175000D01*
X55000000Y-94200000D02*
X71000000Y-94200000D01*
%TO.N,/BOOT0*%
X62250000Y-78500000D02*
X62750000Y-79000000D01*
X54935001Y-66675001D02*
X55000000Y-66740000D01*
X56490000Y-66740000D02*
X55000000Y-66740000D01*
X56750000Y-68750000D02*
X56750000Y-67000000D01*
X78250000Y-92750000D02*
X77750000Y-92250000D01*
X48249999Y-66675001D02*
X52750001Y-66675001D01*
X62750000Y-79000000D02*
X69800000Y-79000000D01*
X77750000Y-92250000D02*
X77750000Y-91175000D01*
X56750000Y-67000000D02*
X56490000Y-66740000D01*
X52750001Y-66675001D02*
X54935001Y-66675001D01*
%TO.N,SHT_SCL*%
X78900000Y-103150000D02*
X82050000Y-103150000D01*
X76750000Y-93500000D02*
X76750000Y-91175000D01*
X78250000Y-102500000D02*
X78900000Y-103150000D01*
X78250000Y-102020000D02*
X78250000Y-102500000D01*
%TO.N,SHT_SDA*%
X80590000Y-102350000D02*
X82050000Y-102350000D01*
X80240000Y-102000000D02*
X80250000Y-102010000D01*
X79250000Y-102000000D02*
X80240000Y-102000000D01*
X77250000Y-91175000D02*
X77250000Y-92650000D01*
X77250000Y-92650000D02*
X77350000Y-92750000D01*
X80250000Y-102010000D02*
X80590000Y-102350000D01*
X77350000Y-96751000D02*
X79250000Y-96751000D01*
%TO.N,GPS_PULSE*%
X100550000Y-83300000D02*
X100500000Y-83250000D01*
X102200000Y-83300000D02*
X100550000Y-83300000D01*
X74250000Y-78500000D02*
X74250000Y-79825000D01*
X74650000Y-77709311D02*
X74650000Y-78100000D01*
X74650000Y-78100000D02*
X74250000Y-78500000D01*
D54*
%TO.N,/USB_D-*%
X46910000Y-89980000D02*
X46680000Y-89750000D01*
X46942501Y-90790000D02*
X49353014Y-90790000D01*
X46640338Y-90750000D02*
X46910000Y-90480338D01*
X67393014Y-87290000D02*
X69122499Y-87290000D01*
X46040000Y-90750000D02*
X46902501Y-90750000D01*
X49353014Y-90790000D02*
X51273014Y-88870000D01*
X63743014Y-88340000D02*
X66343014Y-88340000D01*
X69162499Y-87250000D02*
X70325000Y-87250000D01*
X46040000Y-90750000D02*
X46640338Y-90750000D01*
X69122499Y-87290000D02*
X69162499Y-87250000D01*
X66343014Y-88340000D02*
X67393014Y-87290000D01*
X63213014Y-88870000D02*
X63743014Y-88340000D01*
X51273014Y-88870000D02*
X63213014Y-88870000D01*
X46902501Y-90750000D02*
X46942501Y-90790000D01*
X46910000Y-90480338D02*
X46910000Y-89980000D01*
X46680000Y-89750000D02*
X46040000Y-89750000D01*
%TO.N,/USB_D+*%
X46040000Y-91250000D02*
X45439662Y-91250000D01*
X63916986Y-88760000D02*
X66516986Y-88760000D01*
X66516986Y-88760000D02*
X67566986Y-87710000D01*
X45170000Y-90980338D02*
X45170000Y-90519662D01*
X51446986Y-89290000D02*
X63386986Y-89290000D01*
X63386986Y-89290000D02*
X63916986Y-88760000D01*
X67566986Y-87710000D02*
X69122499Y-87710000D01*
X45439662Y-90250000D02*
X46040000Y-90250000D01*
X46902501Y-91250000D02*
X46942501Y-91210000D01*
X46040000Y-91250000D02*
X46902501Y-91250000D01*
X46942501Y-91210000D02*
X49526986Y-91210000D01*
X69162499Y-87750000D02*
X70325000Y-87750000D01*
X45439662Y-91250000D02*
X45170000Y-90980338D01*
X45170000Y-90519662D02*
X45439662Y-90250000D01*
X69122499Y-87710000D02*
X69162499Y-87750000D01*
X49526986Y-91210000D02*
X51446986Y-89290000D01*
D52*
%TO.N,PRES_I2C2_SDA*%
X64579600Y-75420400D02*
X64579600Y-74500000D01*
D53*
X63125000Y-69723451D02*
X63125000Y-73045400D01*
X63125000Y-73045400D02*
X64579600Y-74500000D01*
D52*
X64500000Y-75500000D02*
X64579600Y-75420400D01*
%TO.N,GPS_TXD*%
X100500000Y-81000000D02*
X100600000Y-81100000D01*
X68250000Y-86750000D02*
X70325000Y-86750000D01*
X67250000Y-85750000D02*
X68250000Y-86750000D01*
X100600000Y-81100000D02*
X102200000Y-81100000D01*
%TO.N,GPS_N_RST*%
X102200000Y-88800000D02*
X100550000Y-88800000D01*
X100550000Y-88800000D02*
X100500000Y-88750000D01*
X75657843Y-77657843D02*
X74750000Y-78565686D01*
X74750000Y-78565686D02*
X74750000Y-79825000D01*
%TO.N,MEM_SPI3_MISO*%
X64800000Y-100350000D02*
X66335000Y-100350000D01*
X73750000Y-91175000D02*
X73750000Y-92550000D01*
X64850003Y-93500000D02*
X72250000Y-93500000D01*
X73750000Y-92550000D02*
X73900000Y-92700000D01*
X64849037Y-93500966D02*
X64850003Y-93500000D01*
X66335000Y-100350000D02*
X66350000Y-100365000D01*
X64849037Y-93540491D02*
X64849037Y-93500966D01*
%TO.N,MEM_SPI3_CS*%
X66000000Y-98000000D02*
X66000000Y-98745000D01*
X72750000Y-92350000D02*
X72750000Y-91175000D01*
X66000000Y-92900000D02*
X72200000Y-92900000D01*
X72200000Y-92900000D02*
X72750000Y-92350000D01*
X66000000Y-98745000D02*
X66350000Y-99095000D01*
%TO.N,GPS_RXD*%
X100500000Y-82200000D02*
X102200000Y-82200000D01*
X68000000Y-85250000D02*
X69000000Y-86250000D01*
X69000000Y-86250000D02*
X70325000Y-86250000D01*
%TO.N,MEM_HOLD*%
X75250000Y-92750000D02*
X75250000Y-91175000D01*
X75500000Y-93500000D02*
X75500000Y-93000000D01*
X75500000Y-93000000D02*
X75250000Y-92750000D01*
D53*
%TO.N,PRES_I2C2_SCL*%
X64375000Y-69723451D02*
X64375000Y-72295400D01*
D52*
X66000000Y-82250000D02*
X70325000Y-82250000D01*
X64579600Y-72979600D02*
X65100000Y-73500000D01*
X64579600Y-72500000D02*
X64579600Y-72979600D01*
D53*
X64375000Y-72295400D02*
X64579600Y-72500000D01*
D52*
X65500000Y-81750000D02*
X66000000Y-82250000D01*
%TO.N,SAT_RXD*%
X81675000Y-79825000D02*
X81675000Y-81750000D01*
X89250000Y-77500000D02*
X88875000Y-77125000D01*
X88875000Y-77125000D02*
X84375000Y-77125000D01*
X84375000Y-77125000D02*
X81675000Y-79825000D01*
D53*
%TO.N,MEM_SPI3_MOSI*%
X71745000Y-103000000D02*
X71650000Y-102905000D01*
D52*
X74700000Y-93200000D02*
X74700000Y-92500000D01*
X74700000Y-92500000D02*
X74250000Y-92050000D01*
X74250000Y-92050000D02*
X74250000Y-91175000D01*
%TO.N,GPS_EXTINT*%
X100650000Y-84400000D02*
X100500000Y-84250000D01*
X102200000Y-84400000D02*
X100650000Y-84400000D01*
X75250000Y-79017590D02*
X75250000Y-79825000D01*
X76017590Y-78250000D02*
X75250000Y-79017590D01*
X76500000Y-78250000D02*
X76017590Y-78250000D01*
%TO.N,SAT_TXD*%
X92250000Y-77000000D02*
X91750000Y-76500000D01*
X83075000Y-76500000D02*
X79750000Y-79825000D01*
X91750000Y-76500000D02*
X83075000Y-76500000D01*
D51*
%TO.N,VBUS*%
X47327214Y-88100000D02*
X46040000Y-88100000D01*
X62250000Y-101962500D02*
X62075000Y-101787500D01*
X61090000Y-101787500D02*
X56750000Y-101787500D01*
X47477214Y-88250000D02*
X47327214Y-88100000D01*
X46040000Y-92900000D02*
X47760000Y-92900000D01*
X47760000Y-92900000D02*
X47860000Y-93000000D01*
X62075000Y-101787500D02*
X61090000Y-101787500D01*
X49110000Y-88250000D02*
X47477214Y-88250000D01*
D52*
%TO.N,MEM_SPI3_SCK*%
X73250000Y-93500000D02*
X73250000Y-91175000D01*
X73650000Y-101650000D02*
X73635000Y-101635000D01*
D53*
X71765000Y-101750000D02*
X71650000Y-101635000D01*
D52*
X73635000Y-101635000D02*
X71650000Y-101635000D01*
%TO.N,/USB_CC2*%
X48520000Y-92250000D02*
X49500000Y-93230000D01*
X46040000Y-92250000D02*
X48520000Y-92250000D01*
X49500000Y-93230000D02*
X49500000Y-95990000D01*
%TO.N,/USB_CC1*%
X47610000Y-89250000D02*
X48110000Y-89250000D01*
X46040000Y-89250000D02*
X47610000Y-89250000D01*
X51000000Y-94750000D02*
X51000000Y-95990000D01*
%TO.N,/STAT1*%
X52250000Y-85750000D02*
X55853000Y-85750000D01*
X52750000Y-96000000D02*
X53990000Y-97240000D01*
X53990000Y-97240000D02*
X56750000Y-97240000D01*
X52000000Y-86000000D02*
X52000000Y-86250000D01*
X52000000Y-86000000D02*
X52250000Y-85750000D01*
%TO.N,/STAT2*%
X58270000Y-96500000D02*
X59000000Y-97230000D01*
X53000000Y-86250000D02*
X52750000Y-86500000D01*
X53411325Y-95411325D02*
X54500000Y-96500000D01*
X55137500Y-86250000D02*
X55853000Y-86249999D01*
X54500000Y-96500000D02*
X58270000Y-96500000D01*
X53411325Y-95389546D02*
X53411325Y-95411325D01*
X55137500Y-86250000D02*
X53000000Y-86250000D01*
%TO.N,/PG*%
X61702500Y-96500000D02*
X61000000Y-97202500D01*
X59750000Y-86250000D02*
X59362500Y-86250000D01*
X62750000Y-86250000D02*
X59750000Y-86250000D01*
X59750000Y-86250000D02*
X58647000Y-86249999D01*
X62500000Y-96500000D02*
X61702500Y-96500000D01*
%TO.N,/THERM*%
X62579346Y-85500000D02*
X62329346Y-85750000D01*
X64000000Y-90250000D02*
X64000000Y-91490000D01*
X64000000Y-85500000D02*
X62579346Y-85500000D01*
X62329346Y-85750000D02*
X58647000Y-85750000D01*
%TO.N,/PROG*%
X61980000Y-86750000D02*
X59362500Y-86750000D01*
X61980000Y-86750000D02*
X62730000Y-87500000D01*
X59362500Y-86750000D02*
X58647000Y-86750001D01*
D55*
%TO.N,/RF_ANT*%
X111700000Y-87700000D02*
X118947850Y-87700000D01*
X118947850Y-87700000D02*
X118997850Y-87750000D01*
D56*
X119187500Y-87700000D02*
X119237500Y-87750000D01*
D52*
%TO.N,GPS_LNA_EN*%
X76150000Y-94250000D02*
X76150000Y-92900000D01*
X77299000Y-97351000D02*
X76150000Y-98500000D01*
X75750000Y-92500000D02*
X75750000Y-91175000D01*
X111700000Y-85500000D02*
X113250000Y-85500000D01*
X76150000Y-92900000D02*
X75750000Y-92500000D01*
X105899000Y-97351000D02*
X77299000Y-97351000D01*
X106250000Y-97000000D02*
X105899000Y-97351000D01*
%TO.N,/LED1*%
X56750000Y-98260000D02*
X56750000Y-100212500D01*
%TO.N,/LED2*%
X59000000Y-98250000D02*
X59000000Y-100212500D01*
%TO.N,/LED3*%
X61000000Y-100122500D02*
X61090000Y-100212500D01*
X61000000Y-98222500D02*
X61000000Y-100122500D01*
%TO.N,Net-(U5-CDELAY)*%
X54493200Y-77300000D02*
X55550000Y-77300000D01*
%TO.N,SHT_SDA*%
X82050000Y-102350000D02*
X82008578Y-102350000D01*
X82008578Y-102350000D02*
X81900000Y-102241422D01*
X81900000Y-102241422D02*
X81900000Y-101600000D01*
X81900000Y-101600000D02*
X83000000Y-100500000D01*
%TD*%
%TA.AperFunction,Conductor*%
%TO.N,GND*%
G36*
X99444211Y-73300500D02*
G01*
X99448506Y-73300500D01*
X105543857Y-73300500D01*
X105551486Y-73300000D01*
X121865500Y-73300000D01*
X121932539Y-73319685D01*
X121978294Y-73372489D01*
X121989500Y-73424000D01*
X121989500Y-96226000D01*
X121969815Y-96293039D01*
X121917011Y-96338794D01*
X121865500Y-96350000D01*
X98124000Y-96350000D01*
X98056961Y-96330315D01*
X98011206Y-96277511D01*
X98000000Y-96226000D01*
X98000000Y-93470730D01*
X98499500Y-93470730D01*
X98499500Y-94529269D01*
X98502353Y-94559699D01*
X98502353Y-94559701D01*
X98547206Y-94687880D01*
X98547207Y-94687882D01*
X98627851Y-94797151D01*
X98699133Y-94849759D01*
X98741384Y-94905406D01*
X98749500Y-94949529D01*
X98749500Y-95427525D01*
X98749500Y-95572475D01*
X98787016Y-95712485D01*
X98787017Y-95712488D01*
X98859488Y-95838011D01*
X98859490Y-95838013D01*
X98859491Y-95838015D01*
X98961985Y-95940509D01*
X98961986Y-95940510D01*
X98961988Y-95940511D01*
X99087511Y-96012982D01*
X99087512Y-96012982D01*
X99087515Y-96012984D01*
X99227525Y-96050500D01*
X99227528Y-96050500D01*
X99372472Y-96050500D01*
X99372475Y-96050500D01*
X99512485Y-96012984D01*
X99638015Y-95940509D01*
X99740509Y-95838015D01*
X99812984Y-95712485D01*
X99850500Y-95572475D01*
X99850500Y-95427525D01*
X99812984Y-95287515D01*
X99740509Y-95161985D01*
X99686819Y-95108295D01*
X99672115Y-95081367D01*
X99655523Y-95055549D01*
X99654631Y-95049348D01*
X99653334Y-95046972D01*
X99650500Y-95020614D01*
X99650500Y-94949529D01*
X99670185Y-94882490D01*
X99700867Y-94849759D01*
X99707393Y-94844942D01*
X99772150Y-94797150D01*
X99852793Y-94687882D01*
X99875219Y-94623790D01*
X99897646Y-94559701D01*
X99897646Y-94559699D01*
X99900500Y-94529269D01*
X99900500Y-93470730D01*
X99897646Y-93440300D01*
X99897646Y-93440298D01*
X99852793Y-93312119D01*
X99852792Y-93312117D01*
X99772150Y-93202850D01*
X99772148Y-93202849D01*
X99772148Y-93202848D01*
X99765580Y-93196280D01*
X99767407Y-93194452D01*
X99733614Y-93149940D01*
X99725500Y-93105823D01*
X99725500Y-92402611D01*
X99745185Y-92335572D01*
X99761819Y-92314930D01*
X99823523Y-92253225D01*
X99823528Y-92253220D01*
X99884719Y-92133126D01*
X99884720Y-92133121D01*
X99900500Y-92033493D01*
X99900500Y-91466506D01*
X99884720Y-91366878D01*
X99884719Y-91366876D01*
X99884719Y-91366874D01*
X99823528Y-91246780D01*
X99823526Y-91246778D01*
X99823523Y-91246774D01*
X99761819Y-91185070D01*
X99728334Y-91123747D01*
X99725500Y-91097389D01*
X99725500Y-90427611D01*
X99745185Y-90360572D01*
X99761819Y-90339930D01*
X99848523Y-90253225D01*
X99848528Y-90253220D01*
X99909719Y-90133126D01*
X99909720Y-90133121D01*
X99925500Y-90033493D01*
X99925500Y-89466506D01*
X99909720Y-89366878D01*
X99909719Y-89366876D01*
X99909719Y-89366874D01*
X99848528Y-89246780D01*
X99848526Y-89246778D01*
X99848523Y-89246774D01*
X99761819Y-89160070D01*
X99747115Y-89133142D01*
X99730523Y-89107324D01*
X99729631Y-89101123D01*
X99728334Y-89098747D01*
X99725500Y-89072389D01*
X99725500Y-88962965D01*
X99745185Y-88895926D01*
X99761813Y-88875290D01*
X99769126Y-88867976D01*
X99791611Y-88855696D01*
X99797989Y-88850171D01*
X99803066Y-88849440D01*
X99830445Y-88834489D01*
X99900137Y-88839468D01*
X99956073Y-88881336D01*
X99976584Y-88923555D01*
X99985865Y-88958191D01*
X99987017Y-88962489D01*
X100059488Y-89088011D01*
X100059490Y-89088013D01*
X100059491Y-89088015D01*
X100161985Y-89190509D01*
X100161986Y-89190510D01*
X100161988Y-89190511D01*
X100287511Y-89262982D01*
X100287512Y-89262982D01*
X100287515Y-89262984D01*
X100427525Y-89300500D01*
X100427528Y-89300500D01*
X100572472Y-89300500D01*
X100572475Y-89300500D01*
X100712485Y-89262984D01*
X100838015Y-89190509D01*
X100891705Y-89136819D01*
X100918632Y-89122115D01*
X100944451Y-89105523D01*
X100950651Y-89104631D01*
X100953028Y-89103334D01*
X100979386Y-89100500D01*
X101040979Y-89100500D01*
X101108018Y-89120185D01*
X101152379Y-89170040D01*
X101165172Y-89196210D01*
X101253789Y-89284827D01*
X101361572Y-89337518D01*
X101366375Y-89339866D01*
X101439364Y-89350500D01*
X101439370Y-89350500D01*
X102960630Y-89350500D01*
X102960636Y-89350500D01*
X103033625Y-89339866D01*
X103091118Y-89311759D01*
X103146210Y-89284827D01*
X103234827Y-89196210D01*
X103278280Y-89107324D01*
X103289866Y-89083625D01*
X103300500Y-89010636D01*
X103300500Y-88589364D01*
X103289866Y-88516375D01*
X103256630Y-88448389D01*
X103234827Y-88403789D01*
X103186396Y-88355358D01*
X103152911Y-88294035D01*
X103157895Y-88224343D01*
X103186397Y-88179995D01*
X103228046Y-88138346D01*
X103228050Y-88138342D01*
X103285646Y-88025304D01*
X103285646Y-88025302D01*
X103285647Y-88025301D01*
X103300499Y-87931524D01*
X103300500Y-87931519D01*
X103300499Y-87468482D01*
X103300498Y-87468475D01*
X110599500Y-87468475D01*
X110599500Y-87931517D01*
X110610292Y-87999657D01*
X110614354Y-88025304D01*
X110671950Y-88138342D01*
X110671952Y-88138344D01*
X110671954Y-88138347D01*
X110761652Y-88228045D01*
X110761654Y-88228046D01*
X110761658Y-88228050D01*
X110845069Y-88270550D01*
X110874698Y-88285647D01*
X110968475Y-88300499D01*
X110968481Y-88300500D01*
X112431518Y-88300499D01*
X112525304Y-88285646D01*
X112638342Y-88228050D01*
X112728050Y-88138342D01*
X112730668Y-88133204D01*
X112778643Y-88082408D01*
X112841152Y-88065500D01*
X118152650Y-88065500D01*
X118219689Y-88085185D01*
X118265444Y-88137989D01*
X118276650Y-88189500D01*
X118276650Y-88265052D01*
X118288281Y-88323529D01*
X118288282Y-88323530D01*
X118332597Y-88389852D01*
X118398919Y-88434167D01*
X118398920Y-88434168D01*
X118457397Y-88445799D01*
X118457400Y-88445800D01*
X118457402Y-88445800D01*
X119538300Y-88445800D01*
X119538301Y-88445799D01*
X119553118Y-88442852D01*
X119596779Y-88434168D01*
X119596779Y-88434167D01*
X119596781Y-88434167D01*
X119663102Y-88389852D01*
X119707417Y-88323531D01*
X119707417Y-88323529D01*
X119707418Y-88323529D01*
X119716102Y-88279868D01*
X119719050Y-88265048D01*
X119719050Y-87234952D01*
X119719050Y-87234949D01*
X119719049Y-87234947D01*
X119707418Y-87176470D01*
X119707417Y-87176469D01*
X119663102Y-87110147D01*
X119596780Y-87065832D01*
X119596779Y-87065831D01*
X119538302Y-87054200D01*
X119538298Y-87054200D01*
X118457402Y-87054200D01*
X118457397Y-87054200D01*
X118398920Y-87065831D01*
X118398919Y-87065832D01*
X118332597Y-87110147D01*
X118288282Y-87176469D01*
X118288281Y-87176470D01*
X118276701Y-87234691D01*
X118244316Y-87296602D01*
X118183600Y-87331177D01*
X118155084Y-87334500D01*
X112841152Y-87334500D01*
X112774113Y-87314815D01*
X112730668Y-87266796D01*
X112730443Y-87266354D01*
X112728050Y-87261658D01*
X112728047Y-87261655D01*
X112728045Y-87261652D01*
X112638347Y-87171954D01*
X112638344Y-87171952D01*
X112638342Y-87171950D01*
X112552184Y-87128050D01*
X112525301Y-87114352D01*
X112431524Y-87099500D01*
X110968482Y-87099500D01*
X110887519Y-87112323D01*
X110874696Y-87114354D01*
X110761658Y-87171950D01*
X110761657Y-87171951D01*
X110761652Y-87171954D01*
X110671954Y-87261652D01*
X110671951Y-87261657D01*
X110671950Y-87261658D01*
X110662502Y-87280201D01*
X110614352Y-87374698D01*
X110599500Y-87468475D01*
X103300498Y-87468475D01*
X103285646Y-87374696D01*
X103228050Y-87261658D01*
X103204072Y-87237680D01*
X103170588Y-87176360D01*
X103175572Y-87106668D01*
X103204072Y-87062319D01*
X103228050Y-87038342D01*
X103285646Y-86925304D01*
X103285646Y-86925302D01*
X103285647Y-86925301D01*
X103300499Y-86831524D01*
X103300500Y-86831519D01*
X103300499Y-86368482D01*
X103285646Y-86274696D01*
X103228050Y-86161658D01*
X103204072Y-86137680D01*
X103170588Y-86076360D01*
X103175572Y-86006668D01*
X103204072Y-85962319D01*
X103228050Y-85938342D01*
X103285646Y-85825304D01*
X103285646Y-85825302D01*
X103285647Y-85825301D01*
X103300499Y-85731524D01*
X103300500Y-85731519D01*
X103300499Y-85268482D01*
X103285646Y-85174696D01*
X103228050Y-85061658D01*
X103204072Y-85037680D01*
X103170588Y-84976360D01*
X103175572Y-84906668D01*
X103204072Y-84862319D01*
X103228050Y-84838342D01*
X103285646Y-84725304D01*
X103285646Y-84725302D01*
X103285647Y-84725301D01*
X103300499Y-84631524D01*
X103300500Y-84631519D01*
X103300499Y-84168482D01*
X103285646Y-84074696D01*
X103228050Y-83961658D01*
X103204072Y-83937680D01*
X103170588Y-83876360D01*
X103175572Y-83806668D01*
X103204072Y-83762319D01*
X103228050Y-83738342D01*
X103285646Y-83625304D01*
X103285646Y-83625302D01*
X103285647Y-83625301D01*
X103300499Y-83531524D01*
X103300500Y-83531519D01*
X103300499Y-83068482D01*
X103285646Y-82974696D01*
X103228050Y-82861658D01*
X103204072Y-82837680D01*
X103170588Y-82776360D01*
X103175572Y-82706668D01*
X103204072Y-82662319D01*
X103228050Y-82638342D01*
X103285646Y-82525304D01*
X103285646Y-82525302D01*
X103285647Y-82525301D01*
X103300499Y-82431524D01*
X103300500Y-82431519D01*
X103300499Y-81968482D01*
X103285646Y-81874696D01*
X103228050Y-81761658D01*
X103204072Y-81737680D01*
X103170588Y-81676360D01*
X103175572Y-81606668D01*
X103204072Y-81562319D01*
X103228050Y-81538342D01*
X103285646Y-81425304D01*
X103285646Y-81425302D01*
X103285647Y-81425301D01*
X103300499Y-81331524D01*
X103300500Y-81331519D01*
X103300499Y-80868482D01*
X103285646Y-80774696D01*
X103228050Y-80661658D01*
X103228046Y-80661654D01*
X103228045Y-80661652D01*
X103138347Y-80571954D01*
X103138344Y-80571952D01*
X103138342Y-80571950D01*
X103061517Y-80532805D01*
X103025301Y-80514352D01*
X102931524Y-80499500D01*
X101468482Y-80499500D01*
X101387519Y-80512323D01*
X101374696Y-80514354D01*
X101261658Y-80571950D01*
X101261657Y-80571951D01*
X101261652Y-80571954D01*
X101171954Y-80661652D01*
X101171946Y-80661663D01*
X101167041Y-80671290D01*
X101119065Y-80722084D01*
X101051243Y-80738877D01*
X100985109Y-80716337D01*
X100949172Y-80676991D01*
X100940509Y-80661985D01*
X100838015Y-80559491D01*
X100838013Y-80559490D01*
X100838011Y-80559488D01*
X100712488Y-80487017D01*
X100712489Y-80487017D01*
X100701006Y-80483940D01*
X100572475Y-80449500D01*
X100427525Y-80449500D01*
X100298993Y-80483940D01*
X100287511Y-80487017D01*
X100161988Y-80559488D01*
X100161982Y-80559493D01*
X100059493Y-80661982D01*
X100059488Y-80661988D01*
X99987017Y-80787511D01*
X99987016Y-80787515D01*
X99949500Y-80927525D01*
X99949500Y-81072475D01*
X99987016Y-81212485D01*
X99987017Y-81212488D01*
X100059488Y-81338011D01*
X100059490Y-81338013D01*
X100059491Y-81338015D01*
X100161985Y-81440509D01*
X100232000Y-81480932D01*
X100252231Y-81492613D01*
X100300446Y-81543181D01*
X100313668Y-81611788D01*
X100287700Y-81676653D01*
X100252231Y-81707387D01*
X100161985Y-81759491D01*
X100161982Y-81759493D01*
X100059493Y-81861982D01*
X100059488Y-81861988D01*
X99987017Y-81987511D01*
X99987016Y-81987515D01*
X99949500Y-82127525D01*
X99949500Y-82272475D01*
X99987016Y-82412485D01*
X99987017Y-82412488D01*
X100059488Y-82538011D01*
X100059493Y-82538017D01*
X100158795Y-82637319D01*
X100192280Y-82698642D01*
X100187296Y-82768334D01*
X100158795Y-82812681D01*
X100059493Y-82911982D01*
X100059488Y-82911988D01*
X99987017Y-83037511D01*
X99987016Y-83037515D01*
X99949500Y-83177525D01*
X99949500Y-83322475D01*
X99987016Y-83462485D01*
X99987017Y-83462488D01*
X100059488Y-83588011D01*
X100059493Y-83588017D01*
X100133795Y-83662319D01*
X100167280Y-83723642D01*
X100162296Y-83793334D01*
X100133795Y-83837681D01*
X100059493Y-83911982D01*
X100059488Y-83911988D01*
X99987017Y-84037511D01*
X99987016Y-84037515D01*
X99949500Y-84177525D01*
X99949500Y-84322475D01*
X99987016Y-84462485D01*
X99987017Y-84462488D01*
X100059488Y-84588011D01*
X100059490Y-84588013D01*
X100059491Y-84588015D01*
X100161985Y-84690509D01*
X100161986Y-84690510D01*
X100161988Y-84690511D01*
X100287511Y-84762982D01*
X100287512Y-84762982D01*
X100287515Y-84762984D01*
X100427525Y-84800500D01*
X100427528Y-84800500D01*
X100572472Y-84800500D01*
X100572475Y-84800500D01*
X100712485Y-84762984D01*
X100791936Y-84717112D01*
X100807424Y-84712962D01*
X100819001Y-84705523D01*
X100853936Y-84700500D01*
X101025728Y-84700500D01*
X101092767Y-84720185D01*
X101136212Y-84768204D01*
X101171949Y-84838340D01*
X101171954Y-84838347D01*
X101195926Y-84862319D01*
X101229411Y-84923642D01*
X101224427Y-84993334D01*
X101195926Y-85037681D01*
X101171954Y-85061652D01*
X101171951Y-85061657D01*
X101171950Y-85061658D01*
X101153586Y-85097700D01*
X101114352Y-85174698D01*
X101099500Y-85268475D01*
X101099500Y-85731517D01*
X101110292Y-85799657D01*
X101114354Y-85825304D01*
X101171950Y-85938342D01*
X101171952Y-85938344D01*
X101171954Y-85938347D01*
X101195926Y-85962319D01*
X101229411Y-86023642D01*
X101224427Y-86093334D01*
X101195926Y-86137681D01*
X101171954Y-86161652D01*
X101171951Y-86161657D01*
X101114352Y-86274698D01*
X101099500Y-86368475D01*
X101099500Y-86831517D01*
X101110292Y-86899657D01*
X101114354Y-86925304D01*
X101171950Y-87038342D01*
X101171953Y-87038345D01*
X101177689Y-87046241D01*
X101176497Y-87047106D01*
X101204911Y-87099142D01*
X101199927Y-87168834D01*
X101158055Y-87224767D01*
X101092591Y-87249184D01*
X101083745Y-87249500D01*
X100240691Y-87249500D01*
X100150325Y-87273713D01*
X100150324Y-87273712D01*
X100126116Y-87280199D01*
X100126113Y-87280200D01*
X100023386Y-87339511D01*
X100023383Y-87339513D01*
X98914513Y-88448383D01*
X98914509Y-88448389D01*
X98855201Y-88551112D01*
X98855200Y-88551117D01*
X98824500Y-88665691D01*
X98824500Y-89072389D01*
X98804815Y-89139428D01*
X98788181Y-89160070D01*
X98701476Y-89246774D01*
X98701473Y-89246778D01*
X98640279Y-89366878D01*
X98624500Y-89466506D01*
X98624500Y-90033493D01*
X98640279Y-90133121D01*
X98640280Y-90133124D01*
X98640281Y-90133126D01*
X98701472Y-90253220D01*
X98701473Y-90253221D01*
X98701476Y-90253225D01*
X98788181Y-90339930D01*
X98821666Y-90401253D01*
X98824500Y-90427611D01*
X98824500Y-91049987D01*
X98804815Y-91117026D01*
X98773386Y-91150305D01*
X98771776Y-91151474D01*
X98676476Y-91246774D01*
X98676473Y-91246778D01*
X98615279Y-91366878D01*
X98599500Y-91466506D01*
X98599500Y-92033493D01*
X98615279Y-92133121D01*
X98615280Y-92133124D01*
X98615281Y-92133126D01*
X98676472Y-92253220D01*
X98676473Y-92253221D01*
X98676476Y-92253225D01*
X98771774Y-92348523D01*
X98771777Y-92348525D01*
X98771780Y-92348528D01*
X98771782Y-92348529D01*
X98773379Y-92349689D01*
X98774858Y-92351607D01*
X98778680Y-92355429D01*
X98778186Y-92355922D01*
X98816048Y-92405017D01*
X98824500Y-92450012D01*
X98824500Y-93003648D01*
X98804815Y-93070687D01*
X98752011Y-93116442D01*
X98741463Y-93120686D01*
X98739393Y-93121410D01*
X98737117Y-93122207D01*
X98627850Y-93202850D01*
X98547207Y-93312117D01*
X98547206Y-93312119D01*
X98502353Y-93440298D01*
X98502353Y-93440300D01*
X98499500Y-93470730D01*
X98000000Y-93470730D01*
X98000000Y-79789364D01*
X110599500Y-79789364D01*
X110599500Y-80210636D01*
X110610134Y-80283625D01*
X110610134Y-80283626D01*
X110610135Y-80283628D01*
X110665172Y-80396210D01*
X110713603Y-80444641D01*
X110747088Y-80505964D01*
X110742104Y-80575656D01*
X110713604Y-80620002D01*
X110671954Y-80661652D01*
X110671951Y-80661657D01*
X110671950Y-80661658D01*
X110664139Y-80676988D01*
X110614352Y-80774698D01*
X110599500Y-80868475D01*
X110599500Y-81331517D01*
X110610292Y-81399657D01*
X110614354Y-81425304D01*
X110671950Y-81538342D01*
X110671952Y-81538344D01*
X110671954Y-81538347D01*
X110695926Y-81562319D01*
X110729411Y-81623642D01*
X110724427Y-81693334D01*
X110695926Y-81737681D01*
X110671954Y-81761652D01*
X110671951Y-81761657D01*
X110614352Y-81874698D01*
X110599500Y-81968475D01*
X110599500Y-82431517D01*
X110610292Y-82499657D01*
X110614354Y-82525304D01*
X110671950Y-82638342D01*
X110671952Y-82638344D01*
X110671954Y-82638347D01*
X110695926Y-82662319D01*
X110729411Y-82723642D01*
X110724427Y-82793334D01*
X110695926Y-82837681D01*
X110671954Y-82861652D01*
X110671951Y-82861657D01*
X110614352Y-82974698D01*
X110599500Y-83068475D01*
X110599500Y-83531517D01*
X110608448Y-83588011D01*
X110614354Y-83625304D01*
X110671950Y-83738342D01*
X110671952Y-83738344D01*
X110671954Y-83738347D01*
X110695926Y-83762319D01*
X110729411Y-83823642D01*
X110724427Y-83893334D01*
X110695926Y-83937681D01*
X110671954Y-83961652D01*
X110671951Y-83961657D01*
X110614352Y-84074698D01*
X110599500Y-84168475D01*
X110599500Y-84631517D01*
X110608843Y-84690506D01*
X110614354Y-84725304D01*
X110671950Y-84838342D01*
X110671952Y-84838344D01*
X110671954Y-84838347D01*
X110695926Y-84862319D01*
X110729411Y-84923642D01*
X110724427Y-84993334D01*
X110695926Y-85037681D01*
X110671954Y-85061652D01*
X110671951Y-85061657D01*
X110671950Y-85061658D01*
X110653586Y-85097700D01*
X110614352Y-85174698D01*
X110599500Y-85268475D01*
X110599500Y-85731517D01*
X110610292Y-85799657D01*
X110614354Y-85825304D01*
X110671950Y-85938342D01*
X110671952Y-85938344D01*
X110671954Y-85938347D01*
X110761652Y-86028045D01*
X110761654Y-86028046D01*
X110761658Y-86028050D01*
X110874694Y-86085645D01*
X110874698Y-86085647D01*
X110968475Y-86100499D01*
X110968481Y-86100500D01*
X112431518Y-86100499D01*
X112525304Y-86085646D01*
X112638342Y-86028050D01*
X112728050Y-85938342D01*
X112728051Y-85938339D01*
X112731252Y-85935139D01*
X112792575Y-85901654D01*
X112862267Y-85906638D01*
X112906615Y-85935139D01*
X112911985Y-85940509D01*
X112911986Y-85940510D01*
X112911988Y-85940511D01*
X113037511Y-86012982D01*
X113037512Y-86012982D01*
X113037515Y-86012984D01*
X113177525Y-86050500D01*
X113177528Y-86050500D01*
X113322472Y-86050500D01*
X113322475Y-86050500D01*
X113462485Y-86012984D01*
X113588015Y-85940509D01*
X113690509Y-85838015D01*
X113762984Y-85712485D01*
X113800500Y-85572475D01*
X113800500Y-85427525D01*
X113762984Y-85287515D01*
X113751995Y-85268482D01*
X113690511Y-85161988D01*
X113690506Y-85161982D01*
X113588017Y-85059493D01*
X113588011Y-85059488D01*
X113462488Y-84987017D01*
X113462489Y-84987017D01*
X113451006Y-84983940D01*
X113322475Y-84949500D01*
X113177525Y-84949500D01*
X113048993Y-84983940D01*
X113037511Y-84987017D01*
X112911988Y-85059488D01*
X112911979Y-85059495D01*
X112906611Y-85064864D01*
X112898669Y-85069200D01*
X112893246Y-85076445D01*
X112868481Y-85085682D01*
X112845287Y-85098346D01*
X112836261Y-85097700D01*
X112827782Y-85100863D01*
X112801956Y-85095245D01*
X112775595Y-85093359D01*
X112766544Y-85087542D01*
X112759509Y-85086012D01*
X112731254Y-85064862D01*
X112725880Y-85059488D01*
X112704072Y-85037680D01*
X112670588Y-84976360D01*
X112675571Y-84906669D01*
X112704072Y-84862319D01*
X112728050Y-84838342D01*
X112785646Y-84725304D01*
X112785646Y-84725302D01*
X112785647Y-84725301D01*
X112800499Y-84631524D01*
X112800500Y-84631519D01*
X112800499Y-84168482D01*
X112785646Y-84074696D01*
X112728050Y-83961658D01*
X112704072Y-83937680D01*
X112670588Y-83876360D01*
X112675572Y-83806668D01*
X112704072Y-83762319D01*
X112728050Y-83738342D01*
X112785646Y-83625304D01*
X112785646Y-83625302D01*
X112785647Y-83625301D01*
X112800499Y-83531524D01*
X112800500Y-83531519D01*
X112800499Y-83068482D01*
X112785646Y-82974696D01*
X112728050Y-82861658D01*
X112704072Y-82837680D01*
X112670588Y-82776360D01*
X112675572Y-82706668D01*
X112704072Y-82662319D01*
X112728050Y-82638342D01*
X112785646Y-82525304D01*
X112785646Y-82525302D01*
X112785647Y-82525301D01*
X112800499Y-82431524D01*
X112800500Y-82431519D01*
X112800499Y-81968482D01*
X112785646Y-81874696D01*
X112728050Y-81761658D01*
X112704072Y-81737680D01*
X112670588Y-81676360D01*
X112675572Y-81606668D01*
X112704072Y-81562319D01*
X112728050Y-81538342D01*
X112785646Y-81425304D01*
X112785646Y-81425302D01*
X112785647Y-81425301D01*
X112800499Y-81331524D01*
X112800500Y-81331519D01*
X112800499Y-80868482D01*
X112785646Y-80774696D01*
X112728050Y-80661658D01*
X112728046Y-80661654D01*
X112728045Y-80661652D01*
X112686396Y-80620003D01*
X112652911Y-80558680D01*
X112657895Y-80488988D01*
X112686397Y-80444640D01*
X112734827Y-80396210D01*
X112761759Y-80341118D01*
X112789866Y-80283625D01*
X112800500Y-80210636D01*
X112800500Y-79789364D01*
X112789866Y-79716375D01*
X112787518Y-79711572D01*
X112734827Y-79603789D01*
X112646210Y-79515172D01*
X112533628Y-79460135D01*
X112533626Y-79460134D01*
X112533625Y-79460134D01*
X112460636Y-79449500D01*
X110939364Y-79449500D01*
X110866375Y-79460134D01*
X110866373Y-79460134D01*
X110866371Y-79460135D01*
X110753789Y-79515172D01*
X110665172Y-79603789D01*
X110610135Y-79716371D01*
X110610134Y-79716373D01*
X110610134Y-79716375D01*
X110599500Y-79789364D01*
X98000000Y-79789364D01*
X98000000Y-73768199D01*
X98005010Y-73733309D01*
X98009188Y-73719059D01*
X98012984Y-73712485D01*
X98032794Y-73638551D01*
X98033193Y-73637193D01*
X98051312Y-73608974D01*
X98068772Y-73580330D01*
X98070129Y-73579670D01*
X98070945Y-73578401D01*
X98101438Y-73564461D01*
X98131619Y-73549800D01*
X98133330Y-73549882D01*
X98134490Y-73549352D01*
X98140628Y-73550232D01*
X98169183Y-73551602D01*
X98169468Y-73549439D01*
X98177524Y-73550499D01*
X98177525Y-73550500D01*
X98177526Y-73550500D01*
X98322472Y-73550500D01*
X98322475Y-73550500D01*
X98462485Y-73512984D01*
X98588015Y-73440509D01*
X98690509Y-73338015D01*
X98690509Y-73338014D01*
X98692205Y-73336319D01*
X98753528Y-73302834D01*
X98779886Y-73300000D01*
X99436582Y-73300000D01*
X99444211Y-73300500D01*
G37*
%TD.AperFunction*%
%TD*%
%TA.AperFunction,Conductor*%
%TO.N,+BATT*%
G36*
X48693039Y-73769685D02*
G01*
X48738794Y-73822489D01*
X48750000Y-73874000D01*
X48750000Y-75750000D01*
X51997000Y-75750000D01*
X52064039Y-75769685D01*
X52109794Y-75822489D01*
X52121000Y-75874000D01*
X52121000Y-77376000D01*
X52101315Y-77443039D01*
X52048511Y-77488794D01*
X51997000Y-77500000D01*
X48500000Y-77500000D01*
X47874000Y-77500000D01*
X47806961Y-77480315D01*
X47761206Y-77427511D01*
X47750000Y-77376000D01*
X47750000Y-73874000D01*
X47769685Y-73806961D01*
X47822489Y-73761206D01*
X47874000Y-73750000D01*
X48626000Y-73750000D01*
X48693039Y-73769685D01*
G37*
%TD.AperFunction*%
%TD*%
%TA.AperFunction,Conductor*%
%TO.N,VBUS*%
G36*
X52193039Y-82019685D02*
G01*
X52238794Y-82072489D01*
X52250000Y-82124000D01*
X52250000Y-84250000D01*
X55948638Y-84250000D01*
X55978078Y-84258644D01*
X56008065Y-84265168D01*
X56013080Y-84268922D01*
X56015677Y-84269685D01*
X56036319Y-84286319D01*
X56137329Y-84387329D01*
X56170814Y-84448652D01*
X56172610Y-84479561D01*
X56173200Y-84479561D01*
X56173200Y-85298500D01*
X56153515Y-85365539D01*
X56100711Y-85411294D01*
X56049200Y-85422500D01*
X55473862Y-85422500D01*
X55406823Y-85402815D01*
X55386181Y-85386181D01*
X55250000Y-85250000D01*
X51301362Y-85250000D01*
X51234323Y-85230315D01*
X51213681Y-85213681D01*
X51036319Y-85036319D01*
X51002834Y-84974996D01*
X51000000Y-84948638D01*
X51000000Y-82124000D01*
X51019685Y-82056961D01*
X51072489Y-82011206D01*
X51124000Y-82000000D01*
X52126000Y-82000000D01*
X52193039Y-82019685D01*
G37*
%TD.AperFunction*%
%TD*%
%TA.AperFunction,Conductor*%
%TO.N,GND*%
G36*
X56943039Y-72019685D02*
G01*
X56988794Y-72072489D01*
X57000000Y-72124000D01*
X57000000Y-75376000D01*
X56980315Y-75443039D01*
X56927511Y-75488794D01*
X56876000Y-75500000D01*
X54000000Y-75500000D01*
X54000000Y-75581207D01*
X53980315Y-75648246D01*
X53944892Y-75684308D01*
X53916848Y-75703046D01*
X53872532Y-75769369D01*
X53872531Y-75769370D01*
X53860900Y-75827847D01*
X53860900Y-76172152D01*
X53872531Y-76230629D01*
X53872532Y-76230630D01*
X53889556Y-76256108D01*
X53910434Y-76322785D01*
X53891950Y-76390166D01*
X53889556Y-76393890D01*
X53872532Y-76419367D01*
X53872531Y-76419368D01*
X53860900Y-76477845D01*
X53860900Y-76822150D01*
X53872531Y-76880627D01*
X53889558Y-76906109D01*
X53910435Y-76972786D01*
X53891950Y-77040166D01*
X53889558Y-77043889D01*
X53872532Y-77069370D01*
X53872531Y-77069370D01*
X53860900Y-77127847D01*
X53860900Y-77472152D01*
X53872531Y-77530629D01*
X53872532Y-77530630D01*
X53889556Y-77556108D01*
X53910434Y-77622785D01*
X53891950Y-77690166D01*
X53889556Y-77693890D01*
X53872532Y-77719367D01*
X53872531Y-77719368D01*
X53860900Y-77777845D01*
X53860900Y-78126000D01*
X53841215Y-78193039D01*
X53788411Y-78238794D01*
X53736900Y-78250000D01*
X52624000Y-78250000D01*
X52556961Y-78230315D01*
X52511206Y-78177511D01*
X52500000Y-78126000D01*
X52500000Y-75500000D01*
X49374000Y-75500000D01*
X49306961Y-75480315D01*
X49261206Y-75427511D01*
X49250000Y-75376000D01*
X49250000Y-72124000D01*
X49269685Y-72056961D01*
X49322489Y-72011206D01*
X49374000Y-72000000D01*
X56876000Y-72000000D01*
X56943039Y-72019685D01*
G37*
%TD.AperFunction*%
%TD*%
%TA.AperFunction,Conductor*%
%TO.N,+3V3*%
G36*
X93443039Y-99769685D02*
G01*
X93488794Y-99822489D01*
X93500000Y-99874000D01*
X93500000Y-103876000D01*
X93480315Y-103943039D01*
X93427511Y-103988794D01*
X93376000Y-104000000D01*
X91374000Y-104000000D01*
X91306961Y-103980315D01*
X91261206Y-103927511D01*
X91250000Y-103876000D01*
X91250000Y-102500000D01*
X91000000Y-102250000D01*
X86250000Y-102250000D01*
X85374000Y-102250000D01*
X85306961Y-102230315D01*
X85261206Y-102177511D01*
X85250000Y-102126000D01*
X85250000Y-99874000D01*
X85269685Y-99806961D01*
X85322489Y-99761206D01*
X85374000Y-99750000D01*
X93376000Y-99750000D01*
X93443039Y-99769685D01*
G37*
%TD.AperFunction*%
%TD*%
%TA.AperFunction,Conductor*%
%TO.N,+3V3*%
G36*
X115443039Y-98769685D02*
G01*
X115488794Y-98822489D01*
X115500000Y-98874000D01*
X115500000Y-103626000D01*
X115480315Y-103693039D01*
X115427511Y-103738794D01*
X115376000Y-103750000D01*
X109374000Y-103750000D01*
X109306961Y-103730315D01*
X109261206Y-103677511D01*
X109250000Y-103626000D01*
X109250000Y-98874000D01*
X109269685Y-98806961D01*
X109322489Y-98761206D01*
X109374000Y-98750000D01*
X115376000Y-98750000D01*
X115443039Y-98769685D01*
G37*
%TD.AperFunction*%
%TD*%
%TA.AperFunction,Conductor*%
%TO.N,+3V3*%
G36*
X62193039Y-68769685D02*
G01*
X62238794Y-68822489D01*
X62250000Y-68874000D01*
X62250000Y-73000000D01*
X62713681Y-73463681D01*
X62747166Y-73525004D01*
X62750000Y-73551362D01*
X62750000Y-76626000D01*
X62730315Y-76693039D01*
X62677511Y-76738794D01*
X62626000Y-76750000D01*
X61374000Y-76750000D01*
X61306961Y-76730315D01*
X61261206Y-76677511D01*
X61250000Y-76626000D01*
X61250000Y-71551362D01*
X61269685Y-71484323D01*
X61286319Y-71463681D01*
X61500000Y-71250000D01*
X61500000Y-68874000D01*
X61519685Y-68806961D01*
X61572489Y-68761206D01*
X61624000Y-68750000D01*
X62126000Y-68750000D01*
X62193039Y-68769685D01*
G37*
%TD.AperFunction*%
%TD*%
%TA.AperFunction,Conductor*%
%TO.N,GND*%
G36*
X60943039Y-80519685D02*
G01*
X60988794Y-80572489D01*
X61000000Y-80624000D01*
X61000000Y-83876000D01*
X60980315Y-83943039D01*
X60927511Y-83988794D01*
X60876000Y-84000000D01*
X58000000Y-84000000D01*
X58000000Y-86876000D01*
X57980315Y-86943039D01*
X57927511Y-86988794D01*
X57876000Y-87000000D01*
X56624000Y-87000000D01*
X56556961Y-86980315D01*
X56511206Y-86927511D01*
X56500000Y-86876000D01*
X56500000Y-84000000D01*
X52874000Y-84000000D01*
X52806961Y-83980315D01*
X52761206Y-83927511D01*
X52750000Y-83876000D01*
X52750000Y-80624000D01*
X52769685Y-80556961D01*
X52822489Y-80511206D01*
X52874000Y-80500000D01*
X60876000Y-80500000D01*
X60943039Y-80519685D01*
G37*
%TD.AperFunction*%
%TD*%
%TA.AperFunction,Conductor*%
%TO.N,+3V3*%
G36*
X58713551Y-73519685D02*
G01*
X58759306Y-73572489D01*
X58768512Y-73601818D01*
X59250000Y-76250000D01*
X59963681Y-76963681D01*
X59997166Y-77025004D01*
X60000000Y-77051362D01*
X60000000Y-78876000D01*
X59980315Y-78943039D01*
X59927511Y-78988794D01*
X59876000Y-79000000D01*
X58124000Y-79000000D01*
X58056961Y-78980315D01*
X58011206Y-78927511D01*
X58000000Y-78876000D01*
X58000000Y-77000000D01*
X56000000Y-77000000D01*
X55601486Y-77000000D01*
X55593857Y-76999500D01*
X55589562Y-76999500D01*
X55101858Y-76999500D01*
X55034819Y-76979815D01*
X55032967Y-76978602D01*
X55003230Y-76958732D01*
X55003229Y-76958731D01*
X54944752Y-76947100D01*
X54944748Y-76947100D01*
X54246200Y-76947100D01*
X54179161Y-76927415D01*
X54133406Y-76874611D01*
X54122200Y-76823100D01*
X54122200Y-75874000D01*
X54141885Y-75806961D01*
X54194689Y-75761206D01*
X54246200Y-75750000D01*
X57250000Y-75750000D01*
X57250000Y-73624000D01*
X57269685Y-73556961D01*
X57322489Y-73511206D01*
X57374000Y-73500000D01*
X58646512Y-73500000D01*
X58713551Y-73519685D01*
G37*
%TD.AperFunction*%
%TD*%
%TA.AperFunction,Conductor*%
%TO.N,+BATT*%
G36*
X64015677Y-82269685D02*
G01*
X64036319Y-82286319D01*
X64713681Y-82963681D01*
X64747166Y-83025004D01*
X64750000Y-83051362D01*
X64750000Y-84376000D01*
X64730315Y-84443039D01*
X64677511Y-84488794D01*
X64626000Y-84500000D01*
X62500000Y-84500000D01*
X62500000Y-84948638D01*
X62480315Y-85015677D01*
X62463681Y-85036319D01*
X62086819Y-85413181D01*
X62025496Y-85446666D01*
X61999138Y-85449500D01*
X59192245Y-85449500D01*
X59144313Y-85435425D01*
X59142913Y-85438806D01*
X59131629Y-85434131D01*
X59073152Y-85422500D01*
X59073148Y-85422500D01*
X58450800Y-85422500D01*
X58383761Y-85402815D01*
X58338006Y-85350011D01*
X58326800Y-85298500D01*
X58326800Y-84624000D01*
X58346485Y-84556961D01*
X58399289Y-84511206D01*
X58450800Y-84500000D01*
X61500000Y-84500000D01*
X61500000Y-82374000D01*
X61519685Y-82306961D01*
X61572489Y-82261206D01*
X61624000Y-82250000D01*
X63948638Y-82250000D01*
X64015677Y-82269685D01*
G37*
%TD.AperFunction*%
%TD*%
M02*
